<svg id="Layer_2" xmlns="http://www.w3.org/2000/svg" viewBox="0 0 1082.06 1405.45"><defs><style>.cls-1{fill:#be1e2d;stroke:#f1f2f2;stroke-miterlimit:10;}</style></defs>
    <g id="etrange_structure">
        <path class="cls-1" d="M891.05.44c258.34,144.45,253.31,588.81-11.23,992.51-211.63,322.96-550.73,491.09-757.4,375.53-165.34-92.45-162.12-376.84,7.18-635.2,135.44-206.69,352.47-314.3,484.73-240.34,105.81,59.17,103.76,241.18-4.6,406.53-86.68,132.28-225.58,201.15-310.23,153.82-67.72-37.87-66.4-154.35,2.94-260.18,55.48-84.66,144.37-128.74,198.55-98.44,43.34,24.23,42.5,98.79-1.88,166.52-35.51,54.18-92.4,82.39-127.07,63"/>
    </g>
</svg>