<?xml version="1.0" encoding="UTF-8"?><svg id="Layer_2" xmlns="http://www.w3.org/2000/svg" viewBox="0 0 1924 1077"><defs><style>.cls-1{fill:#544b61;}.cls-1,.cls-2,.cls-3,.cls-4,.cls-5,.cls-6,.cls-7,.cls-8,.cls-9,.cls-10,.cls-11,.cls-12,.cls-13,.cls-14,.cls-15,.cls-16,.cls-17,.cls-18,.cls-19,.cls-20,.cls-21,.cls-22,.cls-23,.cls-24,.cls-25,.cls-26,.cls-27,.cls-28,.cls-29,.cls-30,.cls-31,.cls-32,.cls-33,.cls-34,.cls-35,.cls-36,.cls-37,.cls-38,.cls-39,.cls-40,.cls-41,.cls-42,.cls-43,.cls-44,.cls-45,.cls-46,.cls-47,.cls-48,.cls-49,.cls-50,.cls-51,.cls-52,.cls-53,.cls-54,.cls-55,.cls-56,.cls-57,.cls-58,.cls-59,.cls-60,.cls-61,.cls-62,.cls-63,.cls-64,.cls-65,.cls-66,.cls-67,.cls-68,.cls-69,.cls-70,.cls-71,.cls-72,.cls-73,.cls-74{stroke-width:0px;}.cls-2{fill:#51467f;}.cls-3{fill:#17244c;}.cls-4{fill:#28499f;}.cls-5{fill:#8d9da6;}.cls-6{fill:#0d1611;}.cls-7{fill:#9091b0;}.cls-8{fill:#3d6d92;}.cls-9{fill:#33355a;}.cls-10{fill:#575067;}.cls-11{fill:#463e77;}.cls-12{fill:#8d9da7;}.cls-13{fill:#8f9ca8;}.cls-14{fill:#040505;}.cls-15{fill:#3f88a7;}.cls-16{fill:#243347;}.cls-17{fill:#0e0e0d;}.cls-18{fill:#596672;}.cls-19{fill:#2f3358;}.cls-20{fill:#266c90;}.cls-21{fill:#71769c;}.cls-22{fill:#0a171a;}.cls-23{fill:#4374a9;}.cls-24{fill:#28587d;}.cls-25{fill:#575269;}.cls-26{fill:#2c2a70;}.cls-27{fill:#404560;}.cls-28{fill:#433f76;}.cls-29{fill:#454175;}.cls-30{fill:#211c50;}.cls-31{fill:#0b0f0e;}.cls-32{fill:#17241c;}.cls-33{fill:#4e4783;}.cls-34{fill:#888aa2;}.cls-35{fill:#5e5872;}.cls-36{fill:#f78f41;}.cls-37{fill:#0a1418;}.cls-38{fill:#247394;}.cls-39{fill:#423b72;}.cls-40{fill:#0a1215;}.cls-41{fill:#266f90;}.cls-42{fill:#4a417a;}.cls-43{fill:#9faeb5;}.cls-44{fill:#4b3e6d;}.cls-45{fill:#1e1f32;}.cls-46{fill:#574274;}.cls-47{fill:#35566f;}.cls-48{fill:#5b536b;}.cls-49{fill:#7a4b7c;}.cls-50{fill:#253c52;}.cls-51{fill:#2d4294;}.cls-52{fill:#0e1316;}.cls-53{fill:#131921;}.cls-54{fill:#1d1518;}.cls-55{fill:#22294b;}.cls-56{fill:#090d10;}.cls-57{fill:#564d65;}.cls-58{fill:#545da6;}.cls-59{fill:#1f469d;}.cls-60{fill:#293e55;}.cls-61{fill:#465084;}.cls-62{fill:#387292;}.cls-63{fill:#1a214c;}.cls-64{fill:#294ba0;}.cls-65{fill:#293e99;}.cls-66{fill:#c9c8c8;}.cls-67{fill:#2e3587;}.cls-68{fill:#263c90;}.cls-69{fill:#2a4057;}.cls-70{fill:#2b354a;}.cls-71{fill:#11191a;}.cls-72{fill:#1d1511;}.cls-73{fill:#41448d;}.cls-74{fill:#655970;}</style></defs><g id="maison_nuit"><g id="derriere"><g id="Background"><rect class="cls-4" width="1924" height="1077"/></g><path class="cls-4" d="M1867.05,605.11c-1.05,4.25-2.46,6.52-3.76,10.13-45.69-28.98-109.7-92.7-161.54-101.33.07-7.99.13-9.84-3.76-17.37-3.29-6.36-28.18-27.49-39.44-47.04-15.05-26.12-29.73-78.5-42.26-107.84-3.15,2-3.12,5.21-4.7,8.69-14.43,31.83-27.32,76.91-46.96,106.39-14.78,22.18-42.22,41.49-43.2,44.15-23.87-5.11-22.25,30.33-37.57,28.95-2.98-16.91-7.61-36.77-15.03-52.83-5.47,26.66-9.46,62.36-18.78,87.58-2.4,6.49,1.95,6.43-5.63,8.69,1.68-8.09-.24-17.41-1.88-25.33-12.67-61.43-28.28-123.39-43.2-184.56-2.32-9.49-4.12-25.52-7.51-20.99q-10.33,37.64-20.66,75.27c-33.13-61.66-51.88-131.21-75.13-196.86-29.39,105.46-47.25,212.72-78.89,317.73h-1.88q-15.5-53.56-30.99-107.12-13.62,47.41-27.24,94.81c-18.35,13.59-14.38-63.47-24.42-43.43-8.72,17.41.75,79.19-18.78,8.69q-12.21,57.9-24.42,115.8h-3.76q-3.76-32.57-7.51-65.14c-3.39-2.75-11.17,8.43-16.9,15.2q-25.83-26.06-51.65-52.11c-20.3,43.59-50.11,38.42-86.4,72.38-27.97-39.44,5.59-63.89-37.57-59.35-37.76,3.97-41.34,45.59-51.65,66.59-.95-13.67-12.17-40.95-9.39-71.65.87-9.58,10.52-40.82,16.9-48.49,12.79-15.37,28.05,1.61,59.17-13.03,44.05-20.72,29.11-94.2-47.9-124.49,3.67-3.88,4.21-9.4,5.63-11.58,14.83-22.78,108.79-48.29,28.17-104.22q19.72-15.92,39.44-31.85c57-5.9,105.83-6.57,155.9-30.4,2.29-1.09,9.7-1.68,14.09-4.34,9.69-5.87,34.19-41.26,25.36-52.11,1.9-6.06,4.31-12.73,5.63-18.82,225.75-4.04,471.55,117.76,534.38,288.06,161.66-16.04,229.78,145.8,205.68,243.18Z"/><path class="cls-65" d="M1136.38.04h787.02c.14,48.25-.19,96.5,0,144.75-69.87-17.84-187.77,3.3-236.67,47.04-2.19,1.96-29.45,34.09-30.05,36.19-.59,2.04-.63,32.85,0,36.19,5.74,30.49,51.21,53.61,88.28,58.62,32.45,4.39,44.28-1.92,47.9-1.45.8.1,8.53,5.75,13.15,7.24,5.88,1.9,14.26,1.15,15.03,1.45,6.53,2.56,22.01,28.65,29.11,35.46,12.3,11.81,30.71,18.16,39.44,28.95,11.14,13.77,19.05,46.57,33.81,61.52.01,11.1,0,22.2,0,33.29-7.39,9.2-8.67,20.37-13.15,30.4-11.52,25.8-23.82,51.71-35.69,77.44-.21.46-5.47,8.92-7.51,7.96,24.1-97.38-44.02-259.22-205.68-243.18-62.83-170.3-308.63-292.1-534.38-288.06,4.07-18.72,3.5-52.36,9.39-73.82Z"/><path class="cls-59" d="M1061.25,557.34c-4.15,4.9-6.15,7.75-9.39,13.03-5.85,9.51-10.99,20.36-15.03,30.4q-3.29-4.34-6.57-8.69c-3.55-.61-34.11,44.05-27.24,50.66-22.07,31.26-25.73,50.95-29.11,52.11-3.97,1.36-24.36-9.78-40.38-8.69-5.55-17.43-4.61,13.57-10.33,27.5-13.27-51.05-13.49-9.23-18.78-8.69-12.36-11.43-11.31-4.28-12.21-4.34-1.83-.12-1.98-1.37-3.76-1.45,2.44-15.02-4.99-13.67-5.63-15.2-12.34-28.99-11.67-49.43-22.54-13.75-12.76-1.43-12-14.41-15.03-23.16-7.39-21.34-12.83-26.57,5.63-45.6l-16.9.72c.41-5.43.38-11.93,0-17.37,10.31-20.99,13.89-62.61,51.65-66.59,43.16-4.54,9.59,19.91,37.57,59.35,36.29-33.96,66.1-28.78,86.4-72.38q25.83,26.06,51.65,52.11Z"/><path class="cls-54" d="M1351.52,200.6c-1.79,3.48-4.75,1.98-1.67-.46,1.06.39,1.59.43,1.67.46Z"/><path class="cls-30" d="M1271.33,343.9c-4.9,7.25-.92,12.96,5.57,18.03-8.92-1.64-10.77,2.34-12.53,1.39-1.03-.56.81-6.39-5.85-12.25.29-2.17,7.83,1.29,11.69-8.32.57-.61.51.55,1.11,1.16Z"/><path class="cls-45" d="M1276.9,361.93c-6.49-5.06-10.47-10.78-5.57-18.03,3.75,3.79.79,5.09,10.02,6.7-5.72,9.9,2.13,12.53-4.45,11.33Z"/><path class="cls-72" d="M1348.74,410.93c1.39,6.24-1.3-3.04-14.76,4.62.05-7.23-.69-6.09-6.4-10.86.19-1.19,6.51-.65,8.91-3,1.57,6.26,4.94,7.75,12.25,9.25Z"/><path class="cls-45" d="M1348.74,410.93c-7.31-1.49-10.68-2.99-12.25-9.25.55-.54,1.31-3.24,2.51-4.62,6.37,8.67,8.36,5.7,10.58,6.93,2.19,1.22-2.4-.07-.84,6.93Z"/><path class="cls-52" d="M1428.37,319.86q-3.34-7.63-6.68-15.25c2.3-.02,1.71,1.1,5.85-4.16,1.98,1.7,1.73,6.41,1.95,6.7,2.25,3.02,11.35-3.48-1.11,12.71Z"/><path class="cls-30" d="M1421.69,304.6q3.34,7.63,6.68,15.25l-.84.46c-4.35-6.14-10.12-4.09-10.86-4.85-1.11-1.15,6.65-5.56,1.67-11.09,1.2-.75,2.23.24,3.34.23Z"/><path class="cls-45" d="M1366,355.92c-5.67-2.71-8.25-4.59-11.14-9.71,3.62-1.13,3.48,1.21,7.52-6.47,5.29,8.23,9.5,5.81,10.3,6.7.72.8-3.28,4.8-3.34,5.08-1.02,4.48,4.15,7.98-3.34,4.39Z"/><path class="cls-72" d="M1366,355.92l-8.91,3.93c.97-12.48-10.03-11.2-2.23-13.64,2.89,5.12,5.47,7,11.14,9.71Z"/><path class="cls-52" d="M1405.82,259.3c1.13,5.39,4.69,3.87,4.73,4.85.03.56-2.74-.13-3.06,4.85-3.31-2.51-6.65-.54-7.24-.92-1.18-.76,2.02-2.17-1.39-6.24,4.33.86,4.58,0,6.96-2.54Z"/><path class="cls-26" d="M1392.45,232.49c17.02,11.95,15.7,17.29-.56,2.77-1.57,0,1.23,5.25,1.39,6.24.97,5.97-3.49-5.36-3.9-7.86l3.06-1.16Z"/><path class="cls-34" d="M1444.52,338.35c-4.27-.7-5.17,1.73-2.23,4.62-2.32-.17-2.17-1.48-3.9-2.31-1.19-.57-1.57-.68-2.78,0,.8-1.63,1.47-.66,1.67-1.16.21-.51.11-8.59,3.62-9.94,1.78,2.79,2.65,5.76,3.62,8.78Z"/><path class="cls-45" d="M1374.63,309.69c1.48,2.51-.13,2.8,3.62,4.39-5.07,5.96-1.83,1.17-7.52,3.47-2.34-8.8-.58-2.84,3.9-7.86Z"/><path class="cls-45" d="M1264.65,260.69c-5.63-.32-2.09-.5-3.34-3-.06-.12-2.24-1.45-2.23-1.85.04-1.39,2.8-.72,1.11-3.47,1.01-.76,1.99-4.65,3.06-4.62,3.82,7.9,8.85,5.85,9.19,7.17.12.46-3.37.41-1.39,5.78-2.68-.34-3.68-.43-6.4,0Z"/><path class="cls-72" d="M1264.65,260.69c-1.12.18-3.95,1.91-4.18,1.85-1.36-.36.8-4.15-6.96-7.63-.12-1.11,5.05-1.32,6.68-2.54,1.69,2.75-1.07,2.08-1.11,3.47-.01.4,2.17,1.73,2.23,1.85,1.25,2.51-2.29,2.68,3.34,3Z"/><path class="cls-45" d="M1315.6,316.16c.1,5.64,3.41,3.46-.56,7.4-2.06-1.79-4.13,0-5.01-.46,1.55-3.48-.52-4.59-.28-4.85.51-.55,3.31.62,5.85-2.08Z"/><path class="cls-26" d="M1321.73,198.28h2.78c8.68,6.62-8.46,7.64-2.78,0Z"/><path class="cls-34" d="M1414.17,320.78c8.48,2.69-.59,9.64-3.06,2.08l3.06-2.08Z"/><path class="cls-34" d="M1435.61,344.36l-.84,3.24c3.56,1.8,1.99-3.64,5.85.23-2.52,8.13-10.45-.26-5.57-3.47.11-.08.46.08.56,0Z"/><path class="cls-66" d="M1444.52,338.35c.11.35,4.31,5.09-2.23,4.62-2.95-2.89-2.04-5.32,2.23-4.62Z"/><path class="cls-30" d="M1400.8,364.7c.49,4.75,4.21,1.68,0,6.01-6.54-1.51-1.08-1.14-4.73-3.93,1.23-1.3,2.62,1.28,4.73-2.08Z"/><path class="cls-26" d="M1290.55,397.52h2.78c4.94,5.53-7.88,5.17-2.78,0Z"/><path class="cls-26" d="M1395.79,385.5c7.78.61.66,8.17-1.95,2.08l1.95-2.08Z"/><path class="cls-45" d="M1267.71,285.65c2.97,3.34,3.16,4.85-2.23,5.08-2.58-6-.05-1.88,2.23-5.08Z"/><path class="cls-26" d="M1239.87,269.01c7.75-.14,1.31,8.26-1.39,2.08l1.39-2.08Z"/><path class="cls-26" d="M1323.96,344.82c6.92-.34,2.81,7.41-1.39,2.54l1.39-2.54Z"/><path class="cls-30" d="M1310.04,381.34c5.97,6.47-4.59,5.53-2.51,1.62l2.51-1.62Z"/><path class="cls-32" d="M1438.39,340.66c.51,3.89-2.56,3.53-2.78,3.7-.1.08-.44-.08-.56,0-1.39-2.68.27-3.12.56-3.7,1.21-.68,1.6-.57,2.78,0Z"/><path class="cls-71" d="M1246.55,239.89c6.7-.18,2.43,5.19-.28,2.54l.28-2.54Z"/><path class="cls-67" d="M1283.31,327.26c4.54-1.05,2.4,6.58-1.39,1.62l1.39-1.62Z"/><path class="cls-72" d="M1309.2,226.48c13.02,14.05,6.27,32.16-10.02,41.83,29.28,1.28,28.45,17.72,32.3,30.97.1.34.74.24,1.11.23-4.05,7.17-8.34-6.68-12.25-11.33-14.97-17.76-36.72-5.75-38.42-15.25,22.61-10.64,30.03-26.07,23.95-47.15,2.81-2.05,2.16-.58,3.34.69Z"/><path class="cls-52" d="M1375.47,274.1c-1.75-1.39-6.35-2.12-7.8-2.77-7.83-3.52-15.85-9.81-16.71-17.33-.64-5.62.43-13.85,5.01-18.26,1.97-.82,4.29-2.89,3.9-.69-19.97,33.4,16.47,33.79,16.71,38.83l-1.11.23Z"/><path class="cls-30" d="M1375.47,274.1c-10.49,1-21.42.28-31.18,4.16,9.01-7.79,7.85-4.76,23.39-6.93,1.45.65,6.04,1.38,7.8,2.77Z"/><path class="cls-45" d="M1355.98,235.73c-4.58,4.41-5.65,12.64-5.01,18.26.86,7.52,8.87,13.82,16.71,17.33-15.54,2.18-14.38-.86-23.39,6.93-11.34,9.81-10.39,18.95-11.69,21.26-.38,0-1.01.11-1.11-.23-3.85-13.25-3.02-29.69-32.3-30.97,16.3-9.68,23.05-27.79,10.02-41.83,17.66,16.16,19.66,20.52,46.78,9.25Z"/><path class="cls-31" d="M1327.86,271.78c7.5-.31,8.41.73,1.11,2.77l-1.11-2.77Z"/><path class="cls-52" d="M1328.97,246.36l5.85.23c-3.7,2.03-6.15,5.34-5.85-.23Z"/><path class="cls-54" d="M1058.45,8.66c-2.46,4.81-6.55,2.74-2.3-.64,1.47.54,2.19.6,2.3.64Z"/><path class="cls-30" d="M947.83,206.33c-6.77,10-1.27,17.88,7.68,24.87-12.3-2.26-14.85,3.22-17.28,1.91-1.42-.77,1.12-8.82-8.07-16.9.39-2.99,10.8,1.78,16.13-11.48.78-.84.7.75,1.54,1.59Z"/><path class="cls-45" d="M955.51,231.2c-8.95-6.99-14.45-14.87-7.68-24.87,5.17,5.23,1.08,7.02,13.83,9.25-7.89,13.66,2.93,17.29-6.15,15.62Z"/><path class="cls-72" d="M1054.61,298.79c1.92,8.61-1.79-4.2-20.36,6.38.07-9.97-.96-8.4-8.83-14.98.27-1.64,8.98-.89,12.29-4.14,2.16,8.63,6.82,10.7,16.9,12.75Z"/><path class="cls-45" d="M1054.61,298.79c-10.08-2.06-14.74-4.12-16.9-12.75.75-.74,1.81-4.47,3.46-6.38,8.79,11.96,11.54,7.86,14.59,9.56,3.02,1.68-3.31-.1-1.15,9.56Z"/><path class="cls-52" d="M1164.45,173.17q-4.61-10.52-9.22-21.04c3.17-.03,2.35,1.52,8.07-5.74,2.72,2.35,2.39,8.84,2.69,9.25,3.1,4.17,15.65-4.81-1.54,17.54Z"/><path class="cls-30" d="M1155.23,152.13q4.61,10.52,9.22,21.04l-1.15.64c-6-8.47-13.96-5.64-14.98-6.7-1.52-1.58,9.17-7.67,2.3-15.3,1.66-1.03,3.07.33,4.61.32Z"/><path class="cls-45" d="M1078.42,222.91c-7.82-3.74-11.38-6.33-15.36-13.39,4.99-1.56,4.8,1.66,10.37-8.93,7.3,11.35,13.11,8.01,14.21,9.25.99,1.11-4.52,6.62-4.61,7.01-1.41,6.18,5.72,11-4.61,6.06Z"/><path class="cls-72" d="M1078.42,222.91l-12.29,5.42c1.33-17.21-13.84-15.45-3.07-18.81,3.99,7.06,7.55,9.65,15.36,13.39Z"/><path class="cls-52" d="M1133.34,89.64c1.56,7.44,6.46,5.34,6.53,6.7.04.77-3.77-.18-4.22,6.7-4.57-3.47-9.17-.75-9.99-1.28-1.63-1.05,2.79-2.99-1.92-8.61,5.98,1.18,6.31,0,9.6-3.51Z"/><path class="cls-26" d="M1114.9,52.65c23.48,16.48,21.66,23.85-.77,3.83-2.16,0,1.7,7.24,1.92,8.61,1.34,8.24-4.81-7.4-5.38-10.84l4.22-1.59Z"/><path class="cls-34" d="M1186.73,198.68c-5.89-.97-7.14,2.38-3.07,6.38-3.21-.23-2.99-2.04-5.38-3.19-1.64-.79-2.16-.94-3.84,0,1.1-2.25,2.03-.92,2.3-1.59.28-.7.15-11.85,4.99-13.71,2.45,3.85,3.66,7.94,4.99,12.12Z"/><path class="cls-45" d="M1090.32,159.14c2.04,3.46-.17,3.86,4.99,6.06-7,8.22-2.52,1.61-10.37,4.78-3.23-12.13-.8-3.92,5.38-10.84Z"/><path class="cls-45" d="M938.61,91.55c-7.77-.44-2.88-.69-4.61-4.14-.08-.17-3.09-2-3.07-2.55.05-1.92,3.86-.99,1.54-4.78,1.39-1.04,2.75-6.41,4.22-6.38,5.27,10.89,12.21,8.07,12.67,9.88.16.64-4.65.56-1.92,7.97-3.7-.47-5.08-.6-8.83,0Z"/><path class="cls-72" d="M938.61,91.55c-1.55.25-5.45,2.63-5.76,2.55-1.88-.49,1.1-5.73-9.6-10.52-.17-1.53,6.97-1.82,9.22-3.51,2.33,3.79-1.48,2.86-1.54,4.78-.02.55,2.99,2.38,3.07,2.55,1.73,3.46-3.16,3.7,4.61,4.14Z"/><path class="cls-45" d="M1008.9,168.07c.14,7.79,4.71,4.78-.77,10.2-2.84-2.47-5.69-.01-6.91-.64,2.14-4.81-.72-6.33-.38-6.7.7-.76,4.57.86,8.07-2.87Z"/><path class="cls-26" d="M1017.35,5.47h3.84c11.97,9.13-11.66,10.54-3.84,0Z"/><path class="cls-34" d="M1144.86,174.45c11.7,3.72-.81,13.3-4.22,2.87l4.22-2.87Z"/><path class="cls-34" d="M1174.44,206.97l-1.15,4.46c4.91,2.49,2.75-5.02,8.07.32-3.47,11.22-14.42-.35-7.68-4.78.16-.1.63.11.77,0Z"/><path class="cls-66" d="M1186.73,198.68c.15.48,5.94,7.02-3.07,6.38-4.06-3.99-2.82-7.35,3.07-6.38Z"/><path class="cls-30" d="M1126.43,235.02c.68,6.55,5.8,2.32,0,8.29-9.02-2.09-1.49-1.57-6.53-5.42,1.7-1.8,3.62,1.77,6.53-2.87Z"/><path class="cls-26" d="M974.33,280.3h3.84c6.82,7.62-10.87,7.13-3.84,0Z"/><path class="cls-26" d="M1119.51,263.72c10.74.85.91,11.27-2.69,2.87l2.69-2.87Z"/><path class="cls-45" d="M942.84,125.98c4.09,4.61,4.36,6.69-3.07,7.01-3.56-8.28-.06-2.6,3.07-7.01Z"/><path class="cls-26" d="M904.43,103.03c10.68-.2,1.81,11.39-1.92,2.87l1.92-2.87Z"/><path class="cls-26" d="M1020.42,207.6c9.55-.48,3.87,10.23-1.92,3.51l1.92-3.51Z"/><path class="cls-30" d="M1001.22,257.98c8.24,8.92-6.34,7.63-3.46,2.23l3.46-2.23Z"/><path class="cls-32" d="M1178.28,201.86c.7,5.36-3.54,4.86-3.84,5.1-.14.11-.61-.1-.77,0-1.92-3.7.38-4.3.77-5.1,1.68-.94,2.2-.79,3.84,0Z"/><path class="cls-71" d="M913.65,62.86c9.24-.24,3.36,7.16-.38,3.51l.38-3.51Z"/><path class="cls-67" d="M964.35,183.37c6.26-1.44,3.31,9.07-1.92,2.23l1.92-2.23Z"/><path class="cls-72" d="M1000.07,44.36c17.96,19.38,8.65,44.36-13.83,57.71,40.39,1.77,39.24,24.45,44.55,42.72.14.47,1.02.32,1.54.32-5.59,9.9-11.5-9.22-16.9-15.62-20.65-24.5-50.66-7.94-53-21.04,31.19-14.68,41.43-35.97,33.03-65.04,3.87-2.82,2.98-.8,4.61.96Z"/><path class="cls-52" d="M1091.48,110.04c-2.42-1.92-8.76-2.93-10.75-3.83-10.8-4.85-21.86-13.53-23.04-23.91-.88-7.75.6-19.1,6.91-25.19,2.72-1.13,5.92-3.99,5.38-.96-27.55,46.07,22.72,46.61,23.04,53.56l-1.54.32Z"/><path class="cls-30" d="M1091.48,110.04c-14.48,1.38-29.54.39-43.02,5.74,12.42-10.75,10.82-6.56,32.26-9.56,2,.9,8.34,1.9,10.75,3.83Z"/><path class="cls-45" d="M1064.59,57.12c-6.32,6.08-7.8,17.44-6.91,25.19,1.18,10.38,12.24,19.06,23.04,23.91-21.44,3-19.84-1.18-32.26,9.56-15.64,13.53-14.33,26.14-16.13,29.33-.52,0-1.4.16-1.54-.32-5.31-18.28-4.16-40.96-44.55-42.72,22.48-13.35,31.79-38.33,13.83-57.71,24.36,22.3,27.12,28.3,64.52,12.75Z"/><path class="cls-31" d="M1025.8,106.85c10.34-.43,11.6,1,1.54,3.83l-1.54-3.83Z"/><path class="cls-52" d="M1027.34,71.78l8.07.32c-5.1,2.8-8.48,7.37-8.07-.32Z"/><path class="cls-54" d="M1760.31,546.18c2.5-4.91,6.68-2.8,2.35.65-1.5-.55-2.24-.6-2.35-.65Z"/><path class="cls-30" d="M1872.68,344.41c6.88-10.21,1.25-18.23-7.88-25.34,12.55,2.28,15.13-3.32,17.62-1.99,1.45.78-1.12,8.99,8.26,17.21-.39,3.05-11.01-1.79-16.42,11.74-.79.86-.72-.77-1.57-1.62Z"/><path class="cls-45" d="M1864.79,319.07c9.14,7.1,14.76,15.13,7.88,25.34-5.28-5.32-1.12-7.15-14.12-9.4,8.02-13.95-3.03-17.62,6.23-15.94Z"/><path class="cls-72" d="M1763.62,250.36c-1.97-8.77,1.83,4.28,20.74-6.54-.05,10.17.99,8.56,9.04,15.26-.27,1.67-9.15.93-12.52,4.25-2.22-8.79-6.98-10.89-17.26-12.97Z"/><path class="cls-45" d="M1763.62,250.36c10.28,2.08,15.03,4.17,17.26,12.97-.77.76-1.83,4.57-3.51,6.51-8.99-12.17-11.78-7.99-14.9-9.72-3.08-1.71,3.37.09,1.15-9.75Z"/><path class="cls-52" d="M1651.88,378.67q4.72,10.72,9.44,21.44c-3.23.03-2.4-1.55-8.21,5.87-2.78-2.39-2.45-9.01-2.76-9.42-3.17-4.24-15.95,4.93,1.53-17.88Z"/><path class="cls-30" d="M1661.33,400.1q-4.72-10.72-9.44-21.44l1.17-.65c6.13,8.62,14.25,5.72,15.29,6.8,1.56,1.61-9.33,7.84-2.32,15.61-1.69,1.05-3.13-.33-4.7-.32Z"/><path class="cls-45" d="M1739.5,327.78c7.98,3.8,11.61,6.43,15.69,13.62-5.08,1.6-4.9-1.69-10.55,9.12-7.47-11.55-13.38-8.14-14.51-9.4-1.01-1.13,4.59-6.76,4.68-7.16,1.43-6.3-5.86-11.2,4.69-6.19Z"/><path class="cls-72" d="M1739.5,327.78l12.52-5.55c-1.32,17.55,14.14,15.72,3.17,19.17-4.08-7.19-7.71-9.82-15.69-13.62Z"/><path class="cls-52" d="M1683.78,463.77c-1.6-7.58-6.6-5.43-6.67-6.81-.04-.78,3.85.17,4.29-6.84,4.66,3.52,9.35.74,10.18,1.28,1.66,1.06-2.83,3.06,1.98,8.77-6.1-1.19-6.44.01-9.78,3.6Z"/><path class="cls-26" d="M1702.65,501.44c-23.98-16.75-22.14-24.28.78-3.9,2.2,0-1.75-7.38-1.98-8.77-1.38-8.4,4.92,7.53,5.5,11.04l-4.3,1.63Z"/><path class="cls-34" d="M1629.12,352.71c6.01.98,7.27-2.45,3.12-6.51,3.27.23,3.06,2.07,5.49,3.24,1.67.8,2.21.96,3.92,0-1.12,2.3-2.07.94-2.35,1.63-.29.72-.13,12.08-5.06,13.99-2.51-3.92-3.75-8.09-5.12-12.34Z"/><path class="cls-45" d="M1727.49,392.82c-2.09-3.53.17-3.94-5.1-6.17,7.12-8.4,2.57-1.65,10.56-4.9,3.32,12.37.83,4-5.46,11.06Z"/><path class="cls-45" d="M1882.31,461.42c7.92.44,2.94.7,4.71,4.22.09.17,3.15,2.04,3.14,2.59-.05,1.96-3.94,1.02-1.56,4.88-1.42,1.07-2.79,6.54-4.29,6.51-5.39-11.1-12.47-8.2-12.94-10.05-.17-.65,4.74-.58,1.94-8.13,3.78.47,5.18.6,9.01-.02Z"/><path class="cls-72" d="M1882.31,461.42c1.58-.25,5.55-2.7,5.87-2.61,1.91.5-1.11,5.84,9.81,10.71.18,1.56-7.1,1.87-9.39,3.59-2.38-3.86,1.51-2.92,1.56-4.88.01-.56-3.05-2.42-3.14-2.59-1.77-3.52,3.21-3.78-4.71-4.22Z"/><path class="cls-45" d="M1810.49,383.54c-.16-7.94-4.81-4.86.76-10.4,2.9,2.52,5.81,0,7.05.64-2.17,4.9.75,6.45.41,6.83-.72.77-4.66-.87-8.22,2.94Z"/><path class="cls-26" d="M1802.22,549.35h-3.92c-12.23-9.27,11.87-10.77,3.92,0Z"/><path class="cls-34" d="M1671.85,377.33c-11.94-3.76.8-13.56,4.3-2.93l-4.3,2.93Z"/><path class="cls-34" d="M1641.63,344.23l1.17-4.55c-5.01-2.53-2.79,5.12-8.22-.31,3.52-11.45,14.7.33,7.84,4.86-.16.11-.64-.11-.78,0Z"/><path class="cls-66" d="M1629.12,352.71c-.16-.49-6.07-7.15,3.12-6.51,4.15,4.06,2.89,7.48-3.12,6.51Z"/><path class="cls-30" d="M1690.52,315.52c-.71-6.68-5.92-2.35-.02-8.45,9.2,2.11,1.52,1.6,6.67,5.51-1.73,1.84-3.69-1.8-6.65,2.94Z"/><path class="cls-26" d="M1845.5,269.05h-3.92c-6.97-7.75,11.07-7.28,3.92,0Z"/><path class="cls-26" d="M1697.51,286.25c-10.95-.84-.95-11.49,2.74-2.93l-2.74,2.93Z"/><path class="cls-45" d="M1877.93,426.32c-4.18-4.69-4.46-6.81,3.12-7.16,3.65,8.43.07,2.65-3.12,7.16Z"/><path class="cls-26" d="M1917.14,449.64c-10.89.22-1.87-11.61,1.95-2.93l-1.95,2.93Z"/><path class="cls-26" d="M1798.66,343.26c-9.74.5-3.97-10.42,1.95-3.58l-1.95,3.58Z"/><path class="cls-30" d="M1818.14,291.86c-8.42-9.08,6.45-7.79,3.52-2.28q-1.76,1.14-3.52,2.28Z"/><path class="cls-32" d="M1637.73,349.44c-.73-5.47,3.6-4.97,3.91-5.21.14-.11.62.1.78,0,1.96,3.77-.37,4.39-.77,5.2-1.71.97-2.24.81-3.92,0Z"/><path class="cls-71" d="M1907.83,490.62c-9.42.27-3.44-7.29.38-3.58q-.19,1.79-.38,3.58Z"/><path class="cls-67" d="M1855.89,367.85c-6.38,1.48-3.4-9.24,1.95-2.28l-1.95,2.28Z"/><path class="cls-72" d="M1819.76,509.65c-18.35-19.72-8.91-45.21,13.98-58.87-41.19-1.72-40.06-24.84-45.51-43.47-.14-.48-1.04-.33-1.57-.32,5.68-10.1,11.75,9.37,17.26,15.89,21.1,24.94,51.67,7.99,54.08,21.34-31.78,15.03-42.17,36.76-33.54,66.38-3.94,2.89-3.03.83-4.7-.97Z"/><path class="cls-52" d="M1726.42,442.88c2.47,1.95,8.94,2.97,10.97,3.88,11.03,4.92,22.32,13.75,23.55,24.33.92,7.9-.57,19.48-7,25.7-2.77,1.16-6.03,4.08-5.48.99,27.99-47.03-23.27-47.48-23.61-54.56l1.57-.33Z"/><path class="cls-30" d="M1726.42,442.88c14.76-1.43,30.12-.46,43.85-5.94-12.65,10.99-11.02,6.72-32.87,9.82-2.04-.91-8.5-1.92-10.97-3.88Z"/><path class="cls-45" d="M1753.94,496.79c6.43-6.22,7.91-17.79,7-25.7-1.23-10.58-12.52-19.41-23.55-24.33,21.85-3.1,20.23,1.17,32.87-9.82,15.91-13.82,14.55-26.68,16.39-29.94.53,0,1.43-.16,1.57.32,5.45,18.62,4.33,41.75,45.51,43.47-22.89,13.66-32.33,39.15-13.98,58.87-24.88-22.68-27.71-28.8-65.82-12.87Z"/><path class="cls-31" d="M1793.39,445.99c-10.54.46-11.83-1-1.57-3.9l1.57,3.9Z"/><path class="cls-52" d="M1791.9,481.76l-8.22-.31c5.2-2.86,8.63-7.53,8.22.31Z"/><path class="cls-54" d="M1678.59,526.65c-4.79-1.7-3.36-5.77.31-2.23-.32,1.44-.28,2.12-.31,2.23Z"/><path class="cls-30" d="M1480.61,448c-10.16-5.07-16.83,1.03-22.23,10.24.58-11.75-4.84-13.44-3.92-15.88.54-1.42,8.36-.05,14.75-9.61,2.84,0-.32,10.29,12.7,13.62.88.62-.61.75-1.3,1.63Z"/><path class="cls-45" d="M1458.38,458.24c5.41-9.21,12.07-15.31,22.23-10.24-4.23,5.46-6.41,1.88-6.91,14.03-13.72-5.67-15.75,4.87-15.33-3.79Z"/><path class="cls-72" d="M1407.64,558.99c-7.79,2.85,3.69-2.19-8.47-18.19,9.31-1.17,7.71-1.93,12.88-10.09,1.56.05,1.95,8.26,5.39,10.94-7.78,3.09-9.13,7.68-9.8,17.33Z"/><path class="cls-45" d="M1407.64,558.99c.67-9.65,2.02-14.25,9.8-17.33.78.61,4.4,1.13,6.37,2.43-10.06,9.67-5.9,11.73-7.11,14.79-1.2,3.02-.32-3.09-9.06.11Z"/><path class="cls-52" d="M1538.35,645.84q9.24-5.6,18.48-11.2c.42,2.95-1.13,2.38,6.35,6.81-1.85,2.83-7.95,3.32-8.29,3.65-3.5,3.41,6.42,14-16.54.74Z"/><path class="cls-30" d="M1556.82,634.64q-9.24,5.6-18.48,11.2l-.74-1c7.15-6.64,3.53-13.72,4.39-14.79,1.29-1.62,8.29,7.6,14.55.25,1.17,1.42.07,2.9.27,4.34Z"/><path class="cls-45" d="M1481.32,571.79c2.52-7.75,4.49-11.39,10.58-15.98,2.07,4.46-.96,4.69,9.61,8.56-9.67,8.21-5.84,13.21-6.86,14.39-.91,1.06-6.73-3.39-7.11-3.43-5.93-.55-9.55,6.7-6.22-3.55Z"/><path class="cls-72" d="M1481.32,571.79l-6.57-10.79c16.21-.89,12.69-14.81,17.16-5.19-6.09,4.59-8.06,8.23-10.58,15.98Z"/><path class="cls-52" d="M1612.37,606.49c-6.74,2.37-4.18,6.69-5.43,6.92-.71.13-.3-3.54-6.76-3.11,2.67-4.69-.44-8.64-.05-9.47.77-1.65,3.14,2.23,7.79-2.86-.36,5.72.78,5.88,4.46,8.52Z"/><path class="cls-26" d="M1644.56,584.73c-12.46,23.93-19.56,23.15-3.66-.24-.27-2.01-6.54,2.48-7.79,2.86-7.51,2.27,6.3-5.4,9.44-6.36l2.01,3.74Z"/><path class="cls-34" d="M1517.33,669.77c.17-5.61-3.11-6.36-6.33-2.07-.18-3.02,1.53-3.04,2.31-5.41.54-1.63.61-2.14-.48-3.58,2.24.75,1.1,1.78,1.77,1.95.69.18,11.07-1.33,13.4,2.96-3.29,2.76-6.95,4.39-10.68,6.15Z"/><path class="cls-45" d="M1542.24,575c-2.98,2.33-3.62.32-5.03,5.4-8.53-5.51-1.81-2.15-5.74-9.08,10.91-4.52,3.56-1.24,10.77,3.67Z"/><path class="cls-45" d="M1586.47,425.2c-.55-7.3.28-2.77,3.29-4.81.15-.1,1.49-3.13,2-3.18,1.79-.19,1.4,3.48,4.65.84,1.15,1.17,6.31,1.77,6.47,3.15-9.5,6.26-6.01,12.38-7.64,13.04-.57.23-1.1-4.26-7.67-.8-.02-3.51-.07-4.81-1.09-8.24Z"/><path class="cls-72" d="M1586.47,425.2c-.42-1.41-3.13-4.75-3.09-5.06.23-1.81,5.48.32,8.62-10.25,1.4-.35,2.56,6.27,4.41,8.16-3.25,2.64-2.85-1.03-4.65-.84-.51.05-1.85,3.08-2,3.18-3.01,2.04-3.84-2.49-3.29,4.81Z"/><path class="cls-45" d="M1523.84,500.2c-7.24,1.1-3.87,4.98-9.61.55,1.95-2.96-.69-5.31-.26-6.52,4.74,1.4,5.81-1.46,6.19-1.19.79.56-.24,4.37,3.67,7.16Z"/><path class="cls-26" d="M1676.47,487.94l.48,3.58c-7.03,12.29-11.27-9.57-.48-3.58Z"/><path class="cls-34" d="M1534.73,627.74c-2.02,11.37-12.5.89-3.2-3.58l3.2,3.58Z"/><path class="cls-34" d="M1508.08,659.33l-4.3-.52c-1.71,4.88,5.02,1.94.7,7.56-10.89-1.85-1.46-13.49,3.51-7.75.12.13-.02.6.1.72Z"/><path class="cls-66" d="M1517.33,669.77c-.43.2-5.81,6.41-6.33-2.07,3.22-4.28,6.5-3.54,6.33,2.07Z"/><path class="cls-30" d="M1475.97,618.05c-6.02,1.44-1.45,5.7-7.73,1.03.83-8.67,1.28-1.58,4.24-6.76,1.89,1.36-1.2,3.59,3.48,5.73Z"/><path class="cls-26" d="M1414.94,481.87l.48,3.58c-6.26,7.3-7.99-9.25-.48-3.58Z"/><path class="cls-26" d="M1448.37,615.16c.54,10.11-10.4,2.24-3.01-2.15q1.5,1.08,3.01,2.15Z"/><path class="cls-45" d="M1554.89,433.4c-3.79,4.39-5.7,4.9-6.92-2,7.28-4.34,2.41-.38,6.92,2Z"/><path class="cls-26" d="M1571.54,394.75c1.51,9.94-10.4,3.1-2.91-1.43l2.91,1.43Z"/><path class="cls-26" d="M1488.41,515.83c1.63,8.85-9.06,4.88-3.51-1.36l3.51,1.36Z"/><path class="cls-30" d="M1439.07,504.17c-7.29,8.78-7.89-4.96-2.51-2.95q1.25,1.47,2.51,2.95Z"/><path class="cls-32" d="M1513.31,662.28c-4.91,1.32-4.97-2.7-5.23-2.95-.12-.11.02-.58-.1-.72,3.21-2.25,4.06-.18,4.85.08,1.09,1.45,1.01,1.95.48,3.58Z"/><path class="cls-71" d="M1610.13,398.37c1.37,8.58-6.26,4.01-3.32.08q1.66-.04,3.32-.08Z"/><path class="cls-67" d="M1504.06,460.56c2.12,5.66-8.05,4.21-2.32-1.51l2.32,1.51Z"/><path class="cls-72" d="M1638.07,476.64c-15.84,19.15-40.28,13.56-55.51-5.74,3.35,37.87-17.93,39.61-34.31,46.82-.43.19-.18.99-.11,1.47-9.92-3.99,7.17-11.86,12.47-17.69,20.29-22.28,1.13-48.21,13.05-52.02,17.54,27.26,38.66,34.17,64.72,22.74,3.11,3.26,1.12,2.68-.32,4.42Z"/><path class="cls-52" d="M1588.16,569.99c1.49-2.49,1.65-8.53,2.24-10.5,3.18-10.67,9.91-22.06,19.44-24.44,7.12-1.78,17.88-1.81,24.34,3.33,1.39,2.4,4.45,5.03,1.56,4.89-46.36-19.98-40.64,26.96-47.08,28.12l-.49-1.39Z"/><path class="cls-30" d="M1588.16,569.99c-3.08-13.33-4.02-27.49-10.68-39.39,11.56,10.25,7.46,9.28,12.91,28.89-.59,1.97-.74,8.01-2.24,10.5Z"/><path class="cls-45" d="M1634.17,538.38c-6.45-5.13-17.22-5.11-24.34-3.33-9.53,2.39-16.25,13.77-19.44,24.44-5.45-19.62-1.35-18.64-12.91-28.89-14.55-12.9-26.14-10.12-29.34-11.41-.07-.48-.32-1.28.11-1.47,16.38-7.21,37.67-8.95,34.31-46.82,15.23,19.3,39.67,24.89,55.51,5.74-17.77,25.47-23.03,28.79-3.9,61.73Z"/><path class="cls-31" d="M1583,508.37c1.68,9.59.5,10.94-3.38,1.91l3.38-1.91Z"/><path class="cls-52" d="M1615.89,505.46q.35,3.78.7,7.56c-3.24-4.41-7.92-6.99-.7-7.56Z"/><path class="cls-54" d="M836.47,568.48c5.07-.28,5.33,4.02.58,2.17-.26-1.45-.56-2.06-.58-2.17Z"/><path class="cls-30" d="M1049.46,564.54c11.33.75,15.12-7.45,16.55-18.03,4,11.06,9.66,10.53,9.75,13.13.05,1.52-7.69,3.27-9.9,14.56-2.62,1.1-3.68-9.61-16.97-7.66-1.06-.23.28-.93.57-2Z"/><path class="cls-45" d="M1066.01,546.51c-1.43,10.58-5.22,18.78-16.55,18.03,1.79-6.67,5.18-4.21.95-15.61,14.84-.07,12.65-10.58,15.6-2.42Z"/><path class="cls-72" d="M1073.9,433.98c6.08-5.64-2.56,3.44,14.83,13.51-8.13,4.67-6.37,4.76-7.98,14.28-1.46.56-4.99-6.87-9.2-8.01,5.98-5.85,5.45-10.61,2.34-19.77Z"/><path class="cls-45" d="M1073.9,433.98c3.11,9.16,3.64,13.92-2.34,19.77-.96-.26-4.49.65-6.82.22,5.54-12.81.91-13.1.84-16.39-.06-3.25,1.49,2.73,8.31-3.6Z"/><path class="cls-52" d="M919.79,404.36q-6.36,8.73-12.72,17.47c-1.52-2.56.12-2.63-8.49-3.83.61-3.33,6.05-6.13,6.23-6.57,1.91-4.5-11.33-10.43,14.97-7.07Z"/><path class="cls-30" d="M907.07,421.83q6.36-8.73,12.72-17.47l1.06.63c-4.03,8.89,2.04,14.02,1.67,15.34-.56,1.99-10.58-3.81-13.52,5.39-1.62-.86-1.19-2.65-1.93-3.89Z"/><path class="cls-45" d="M1000.99,450.63c.67,8.12.26,12.24-3.59,18.83-3.63-3.31-.93-4.69-12.17-4.19,5.75-11.31.29-14.45.77-15.93.43-1.33,7.52.53,7.88.42,5.68-1.78,6.22-9.87,7.11.87Z"/><path class="cls-72" d="M1000.99,450.63l10.23,7.41c-14.61,7.08-5.98,18.56-13.82,11.42,3.84-6.59,4.26-10.71,3.59-18.83Z"/><path class="cls-52" d="M866.71,469.24c5.3-4.79,1.27-7.78,2.34-8.48.61-.39,1.65,3.15,7.44.26-.65,5.35,3.74,7.8,3.7,8.71-.08,1.82-3.75-.84-6.08,5.64-1.88-5.41-2.99-5.13-7.4-6.13Z"/><path class="cls-26" d="M845.42,501.76c2.24-26.89,9.1-28.91,3.47-1.19,1.03,1.75,5.07-4.81,6.08-5.64,6.06-4.99-3.73,7.41-6.25,9.51l-3.3-2.67Z"/><path class="cls-34" d="M929.93,374.17c2.01,5.24,5.32,4.66,6.64-.53,1.33,2.71-.23,3.4-.04,5.88.13,1.71.26,2.21,1.82,3.12-2.35.17-1.71-1.21-2.39-1.12-.7.1-9.7,5.5-13.5,2.45,1.96-3.82,4.71-6.74,7.47-9.8Z"/><path class="cls-45" d="M943.56,471.21c1.85-3.3,3.22-1.69,2.55-6.93,10,1.78,2.5,1.28,8.8,6.15-8.32,8.38-2.8,2.51-11.35.78Z"/><path class="cls-45" d="M960.63,626.47c3.32,6.52.81,2.67-1.18,5.71-.1.15-.16,3.46-.61,3.7-1.58.87-2.63-2.67-4.61,1.02-1.51-.64-6.51.81-7.18-.41,6.35-9.44.76-13.75,2.01-14.98.44-.43,2.66,3.51,7.38-2.22,1.38,3.23,1.92,4.41,4.19,7.17Z"/><path class="cls-72" d="M960.63,626.47c.93,1.14,4.72,3.18,4.8,3.47.49,1.76-5.17,1.82-3.99,12.79-1.16.86-4.79-4.8-7.22-5.82,1.98-3.69,3.03-.15,4.61-1.02.45-.25.52-3.56.61-3.7,1.99-3.04,4.5.81,1.18-5.71Z"/><path class="cls-45" d="M989.43,533.1c6.25-3.81,1.65-6.09,8.65-4.22-.66,3.48,2.69,4.63,2.76,5.92-4.92.54-4.8,3.59-5.25,3.49-.95-.21-1.47-4.12-6.16-5.19Z"/><path class="cls-26" d="M853.38,603.36l-1.82-3.12c1.73-14.05,14.09,4.47,1.82,3.12Z"/><path class="cls-34" d="M930.11,419.66c-2.53-11.26,11.19-5.65,4.33,2.07l-4.33-2.07Z"/><path class="cls-34" d="M942.5,380.22l4.17-1.18c-.31-5.16-5.38.15-3.57-6.7,10.76-2.5,6.55,11.88-.24,8.51-.16-.08-.21-.56-.36-.62Z"/><path class="cls-66" d="M929.93,374.17c.32-.35,2.88-8.16,6.64-.53-1.31,5.19-4.63,5.77-6.64.53Z"/><path class="cls-30" d="M988.05,405.9c5-3.66-.87-5.81,6.73-3.93,2.59,8.32-.57,1.96-1.3,7.87-2.27-.53-.28-3.78-5.43-3.94Z"/><path class="cls-26" d="M1096.96,507.93l-1.82-3.12c2.96-9.15,10.95,5.45,1.82,3.12Z"/><path class="cls-26" d="M1014.63,397.9c-4.4-9.12,8.73-6.09,3.61.82q-1.8-.41-3.61-.82Z"/><path class="cls-45" d="M986.59,606.7c1.8-5.51,3.37-6.72,7.15-.83-5.03,6.82-2.08,1.28-7.15.83Z"/><path class="cls-26" d="M986.16,648.78c-5.23-8.58,8.39-6.87,3.24.2l-3.24-.2Z"/><path class="cls-26" d="M1016.07,504.99c-4.92-7.53,6.47-8,3.76-.1l-3.76.1Z"/><path class="cls-30" d="M1066.08,496.69c3.34-10.92,9.2,1.53,3.45,1.75q-1.73-.87-3.45-1.75Z"/><path class="cls-32" d="M936.53,379.52c4.02-3.11,5.63.57,5.96.7.15.06.21.54.36.62-2.09,3.31-3.67,1.74-4.51,1.8-1.56-.91-1.69-1.41-1.82-3.12Z"/><path class="cls-71" d="M949.17,660.35c-4.58-7.39,4.22-6.12,3.03-1.35q-1.52.68-3.03,1.35Z"/><path class="cls-67" d="M1022.99,562.02c-4.14-4.4,5.8-6.99,2.72.5l-2.72-.5Z"/><path class="cls-72" d="M893.16,598.95c7.22-23.78,31.92-28.07,53.42-16.14-17.72-33.64,1.24-43.46,13.56-56.44.32-.34-.22-.98-.47-1.4,10.69-.15-2.03,13.71-4.67,21.13-10.11,28.39,17.58,44.9,8.05,53.02-26.71-18.37-48.86-16.58-68.48,4.03-4.13-1.8-2.07-2.04-1.41-4.2Z"/><path class="cls-52" d="M903.14,493.56c-.41,2.87,1.78,8.5,1.99,10.55,1.19,11.07-.62,24.17-8.49,30.06-5.88,4.39-15.8,8.58-23.73,6.33-2.21-1.67-6.05-2.92-3.33-3.91,50.48.52,27.07-40.56,32.57-44.12l.99,1.1Z"/><path class="cls-30" d="M903.14,493.56c7.98,11.1,14.33,23.8,25.06,32.21-14.62-4.99-10.46-5.68-23.07-21.66-.22-2.05-2.41-7.67-1.99-10.55Z"/><path class="cls-45" d="M872.91,540.5c7.94,2.24,17.86-1.94,23.73-6.33,7.87-5.88,9.67-18.98,8.49-30.06,12.61,15.99,8.45,16.67,23.07,21.66,18.4,6.28,28.02-.76,31.47-.81.25.42.79,1.06.47,1.4-12.32,12.98-31.28,22.81-13.56,56.44-21.5-11.92-46.2-7.63-53.42,16.14,6.55-30.35,10.12-35.45-20.25-58.45Z"/><path class="cls-31" d="M931.7,548.41c-5.26-8.19-4.69-9.9,2.38-3.06l-2.38,3.06Z"/><path class="cls-52" d="M902.49,563.8q-1.78-3.35-3.57-6.7c4.69,2.82,10.01,3.39,3.57,6.7Z"/><path class="cls-65" d="M1923.4,344.55c.03,26.06-.03,52.11,0,78.17-17.22-21.56-30.22-58.34,0-78.17Z"/><path class="cls-7" d="M1679.22,865.66c2.81,1.18,11.63,2.98,8.45,5.79-11.24,1.56-83.93,25.8-87.34,22.44l-2.82-19.54c-17.45,53.39-27.64-2.25-33.81,23.16-17.4-12.72-8.5,10.44-24.42-10.13,7.83,20.02-10.61,7.88-34.75,15.2,48.54,3.87,77.59,3.42,15.97,13.75-27.37,4.59-69.66,2.89-62.92,10.86,2.39,3.28,27.48.03-.94,7.96-28.32-57.11-9.6-4.76-22.54,7.24-1.48,1.37-42.22,13.03-42.26,9.41,12.63-11.39,21.56-22.76-.94-5.07-10.79-37.61-3.33,1.41-6.57,7.96-1.65,3.33-22.61,8.84-28.17,9.41-14.22,1.45-56.38-1.66-62.92,0-3.32.84-6.26,8.77-13.15,10.13-8.1,1.61-145.17,2.64-167.17,2.9-104.83,1.21-209.15-1.49-313.68-7.24l-1.88-2.9,353.12-8.69c12.64-4.01,30.82,1.59,22.54-4.34-118.2.02-236.01-6.39-354.06-10.13l-52.59-60.8c21.48,3.87,343.82-10.93,404.78-10.13-64.21-11.06-166.38-5.25-208.49-8.69-11.07-.9-56.34-12.25-81.71-14.48-1.8-.16-1.98-1.33-3.76-1.45-.32-2.24-3.6-2.73-3.76-2.9-6.92-7.1-10.78-16.47-18.78-23.16,38.95,4.95,371.34-4.84,451.74,1.45q23.01-2.9,46.02-5.79c-13.89,7.01-41.87,6.31-60.11,12.3,5.67,1.31,53.83-.12,47.9,5.07-67.04,11.83-136.75,10.1-204.74,17.37,58.87-.63,117.79,3.51,176.56,4.34,68.9.98,306.65-2.72,334.34,0,6.05.59,27.14,6.28,32.87,8.69Z"/><path class="cls-64" d="M1384.32,778.81c-7.24,11.4-14.97,25.29-26.3,34.74-.48.4-1.34,1.06-1.88,1.45-1.59,1.15-1.97,1.99-3.76,2.9q-23.01,2.9-46.02,5.79c-80.4-6.29-412.79,3.51-451.74-1.45-1.2-.15-2.85.22-3.76,0-12.87-3.08-24.56-43.27-21.6-44.87l555.04,1.45Z"/><path class="cls-46" d="M1679.22,865.66c-5.73-2.4-26.82-8.09-32.87-8.69-27.69-2.72-265.44.98-334.34,0-58.77-.84-117.7-4.97-176.56-4.34,67.99-7.27,137.69-5.54,204.74-17.37,5.93-5.18-42.23-3.76-47.9-5.07,18.24-5.99,46.21-5.29,60.11-12.3,1.78-.9,2.17-1.74,3.76-2.9,126.69,3.98,256.56-.65,381.3,2.17q-29.11,24.25-58.23,48.49Z"/><path class="cls-59" d="M1863.29,615.24c-4.64,12.96-13.23,25.52-20.66,37.64-4.59.27-8.65-1.01-13.15-1.45-.23-.02-1.69-3.06-2.82-2.9-8.23,1.21-10.06,28.81-24.42,1.45q-3.29,7.96-6.57,15.92c-1.83.19-3.78-.11-5.63,0-.02-.3-2.44,1.23-1.88-5.79,1.71-21.32,14.94-21.7-10.33-37.64-5.2,1.13-7.2,3.86-12.21,5.79q-5.17-5.07-10.33-10.13c-18.71,1.36,25.26,59.27-.94,34.74-36.74-34.41-1.39-46.61-36.63-68.03-11.09,7.07-7.26,17.99-6.57,27.5l-22.54-4.34c-.47-3.12-1.18-7.07-1.88-10.13-.49-2.14-1.98-11.09-2.82-11.58-3.04,3.88-9.13,7.33-12.21,10.13-4.59-3.96-29.16-4.57-45.08-7.24-1.07-7.34-4.52-29.85,1.88-28.95,10.54-.09,26.42,1.27,35.69-1.45,9.06-2.66,16-15.85,16.9-16.65,9.57-8.39,20.42-1.81,20.66-28.23,51.83,8.62,115.85,72.34,161.54,101.33Z"/><path class="cls-59" d="M1521.44,500.88c-9.36,25.37,23.88,29.48,26.3,34.02,1.61,3.03-2.52,8.48,0,11.58,4.3,5.28,50.74,11.09,54.47,16.65.96,1.43,4.77,25.21,5.63,31.85.06.48-.06.97,0,1.45-9.97,17.52-24.3,51.55-28.17,69.48-27.25-77.84-35.31-136.7-36.63-15.92-38.28-56.35-28.44-85.04-29.11-145.48-11.78,2.47-16,26.16-28.17,32.57-.32-3.45-1.44-4.76-1.88-7.24,15.31,1.38,13.69-34.06,37.57-28.95Z"/><path class="cls-4" d="M1671.71,596.42c-.49.44-5.79,8.02-7.51,10.13-.14.17-1.89.21-3.76,2.9-6.67,9.61-8.03,2.44-7.51,30.4-4.77-5.31-18.94-23.67-20.66-27.5-3.99-8.86-4.33-14.22-5.63-23.16,15.92,2.66,40.49,3.27,45.08,7.24Z"/><path class="cls-46" d="M766.36,883.03c-6.74-1.22-27.13-24.68-29.11-31.85q71.85-.72,143.69-1.45c25.37,2.22,70.63,13.57,81.71,14.48,42.12,3.44,144.29-2.37,208.49,8.69-60.96-.8-383.3,14-404.78,10.13Z"/><path class="cls-2" d="M1111.03,896.06c26.64-.98,55.2-.55,81.71,2.17q-54.94,1.09-109.88,2.17c-14.34-2.5,19.03-4.01,28.17-4.34Z"/><path class="cls-57" d="M1360.84,896.06c78.32.29,48.72,7.31-18.78,4.34-56.46-2.48-.18-2.2,18.78-4.34Z"/><path class="cls-64" d="M815.19,783.15c-3.41,5.28-6.42,10.47-9.39,15.92-8.47,15.55-7.81,23.85-13.15,39.08q-13.15-29.31-26.3-58.62c1.4-1.5,45.65-1.37,47.9-.72,1.9.55.45,3.99.94,4.34Z"/><path class="cls-74" d="M783.26,603.66q10.33,34.38,20.66,68.76c2.59,2.74,17.34-17.68,18.78-20.99,1.03-2.37,11-45.6,11.27-49.22l16.9-.72c-18.47,19.03-13.02,24.26-5.63,45.6-11.92,41.74,49.56,73.7,41.32,96.98-7.46,5.2-32.44,3.81-23.48,8.69,30.55-1.34,64.45,2.78,92.98-2.17q-1.88-1.09-3.76-2.17c67.11,1,486.94-6.01,511.84-1.45,1.4.26.96,1.92.94,2.9-6.32,13.67-13.81,25.8-20.66,39.08l-13.15-1.45c-1.26-2.29,2.28-6.1-2.82-8.69-3.45-1.75-8.02,1.49-8.45,1.45-1.69-.16-10.71-3.79-20.66,0-4.52-27.44-5.21-16.91-15.03-1.45l-555.04-1.45c-2.96,1.6,8.73,41.79,21.6,44.87,3.66,7.46,2.89,14.57,9.39,19.54-33.36-9.15-21.64-41.77-45.08-58.62-.49-.35.96-3.8-.94-4.34-2.25-.64-46.5-.78-47.9.72q13.15,29.31,26.3,58.62c-.57,1.63.6,2.91-1.88,5.79-.95,1.11,2.51,1.72-3.76,2.9-17.94-42.47-40.62-84.39-56.35-127.38,23.79-.9-6.75-38-11.27-49.22,1.7-19.67,11.18-39.72,13.15-68.03.24-3.42.16-7.5,3.76-10.13,15.17,40.49,21.7,92.72,34.75,134.62q5.17-.36,10.33-.72c-6.43-41-4.21-81.55,1.88-122.32Z"/><path class="cls-40" d="M1402.71,799.19c-4.19.7-8.35.95-12.54,1.48-2.49.31-4.9.48-7.38.74-2.22.23-4.37.54-6.64.74-9.04.8-18.25,1.8-27.3,2.21-50.64,2.34-133.19.28-185.91-1.48l.37-1.48-5.16-.74c12.86-.61,25.57-3.32,38.36-4.43,27.54-2.38,136.06-4.54,151.98-11.8,1.13-.52,2.86-1.37,2.58-2.95,7.68.12,46.65,3.58,48.69,11.44,1.22,4.69-4.84,4.94,2.95,6.27Z"/><path class="cls-69" d="M1370.25,773.37c10.35.48,20.75,2.07,30.99,3.69,10.74,1.7,21.18,4.04,31.72,6.64,21.37,5.63-13.62,12.72-30.25,15.49-7.8-1.33-1.73-1.58-2.95-6.27-2.05-7.86-41.01-11.31-48.69-11.44v-.74c1.86-.76,5.41-5.04,5.16-7.38,4.66.16,9.36-.22,14.02,0Z"/><path class="cls-6" d="M1351.07,780.75v.74c.27,1.58-1.45,2.44-2.58,2.95-15.91,7.26-124.44,9.42-151.98,11.8-12.8,1.11-25.5,3.82-38.36,4.43l5.16.74-.37,1.48c-7.1-.24-14.3.28-21.39,0l6.64-7.38c.41,3.59,2.06,1.91,5.53,2.21,50.36-10.59,102.34-6.89,153.45-11.07,14.75-1.21,29.28-3.74,43.9-5.9Z"/><path class="cls-17" d="M1130.48,486.39c-11.14,16.49-92.63,117.61-95.17,125.05-2.45,7.18.48,24.67,0,29.88q-18.07-.55-36.15-1.11c43.02-52.65,81.39-108.89,122.47-163.04,2.75-1.25,7.62,7.8,8.85,9.22Z"/><path class="cls-16" d="M1330.41,758.62c1.45,1.03-2.49,3.58,8.48.74,5.91,8.28,5.38,3.21,9.59,4.43.59.17,6.08,8.39,7.75,9.59.25,2.34-3.31,6.61-5.16,7.38-14.62,2.16-29.15,4.7-43.9,5.9-51.11,4.18-103.09.47-153.45,11.07-3.48-.31-5.12,1.38-5.53-2.21,12.02-2.21,6.56-4.89,8.48-6.64.28-.26,4.27.15,7.38-2.21,2.56-1.94,2.71-5.66,5.16-7.38,1.83-1.28,5.47-.85,7.01-2.58.23-.25.26-3.76,1.84-4.8,2.18-1.42,6.16,0,7.38-.74.28-.17,1.52-5.01,2.58-5.9.04-.03-.26-.23.74-.74.35-.18,4.68-.24,5.9-.74.32,2.56-.58,5.36,3.69,3.69,11.83,1.19,4.41-3.66,12.17-3.69,2.92,6.73,3.01,2.49,13.28,4.43-3.78-7.22,5.9-1.39,6.27-4.06-3.73-4.73,1.15-2.45,2.58-10.7,9.43,10.67,4.16-15.07,11.8,6.64,14.69-8.22,19.44-8.11,32.46,2.95,4.03-16.48,13.54,7.36,14.75-11.07,4.2,2.85,10.11,3.97,12.54,8.85l2.95-7.38c4.26,3.31,7.62,3.1,8.85,3.69.78.37,3.43,3.79,3.69,3.69,1.16-.46.76-9.28,10.7-2.21Z"/><path class="cls-60" d="M1143.76,760.83c.09.1.93-.51,2.21,1.48.09.14,1.45,2.79,1.48,2.95.17,1,.17,6.25-.37,6.64-9.43-.99-4.66,2.19-7.38,4.43-.34.28-5.46,1.84-8.12,3.69-4.93,3.44-9.86,8.66-15.12,11.8-3.61-3.03-74.74-2.28-93.69-8.85-6.41-5.39-6.31-8.42-.37-14.75.67-.71,2.22,1.54,3.32-.37.44-.76-.82-2.96,1.11-4.06.65-.37,3.4.55,4.06-.37,1.57-2.19-3.34-4,3.69-4.06.86,0,1.06,1.38,2.58,1.48.74.05.26-7.18,10.33,5.9,2.02-12.17,10.97,11.83,10.33-5.9l8.85,5.16c10.16-20.43,3.22,2.98,16.23-7.38,4,1.28-5.13,14.59,11.07-.74,3.14,9.56,5.83-5.65,9.59,3.69,6.21-12.38,7.22,7.75,10.33-7.38,14.15,13.83,7.93,3.79,11.8,2.95,10.23,11.58,6.84-9.8,18.07,3.69Z"/><path class="cls-14" d="M1116.46,791.82c-1.94,1.16-3.49,3.29-5.9,3.69-4.5.75-72.19-4.92-80.78-8.12-1.26-.47-5.56-3.21-7.01-4.43,18.95,6.57,90.08,5.82,93.69,8.85Z"/><path class="cls-17" d="M1255.9,642.05c-6.96.68-13.68,1.03-20.66.74h-2.21c.08-4.18-.11-8.37,0-12.54.12-4.66.1-9.5,1.48-14.02,6.98,8.73,13.8,17.59,21.39,25.82Z"/><path class="cls-62" d="M1255.16,528.44c-.12,13.25.44,26.6,0,39.84,0,.12-2.06-.03-2.21,1.11-.28,2.1,21.15,33.37,23.61,35.04,4.58,3.12,6.8.32,11.07,1.48,3.18.86,22.18,27.37,27.3,30.99-14.19.34-28.93.96-42.79,2.95-1.96.08-3.95-.11-5.9,0-1.03-3.63-4.39-5.9-5.9-9.22q-63.82-78.57-127.63-157.14c17.51,5.77,34.52,12.99,52.01,18.81,7.93,2.64,48.61,13.44,50.9,14.75,2.24,1.28,15.04,18.12,19.55,21.39Z"/><path class="cls-47" d="M1358.44,636.89c-14.5.25-29.03-.34-43.53,0-5.11-3.62-24.12-30.12-27.3-30.99.5,0,1.35.18,1.48-.37.53-2.24,0-35.4,0-43.16,16.61,17.93,57.94,58.5,69.35,74.51Z"/><path class="cls-41" d="M1358.44,636.89c.93,1.31,4.8,2.39,1.84,4.43-5.95-1.32-12.06-.64-18.07-.74-4.08-.07-8.34-.7-12.54-.74-18.07-.16-39.91-.74-57.54,0,13.86-1.99,28.6-2.62,42.79-2.95,14.49-.34,29.03.25,43.53,0Z"/><path class="cls-43" d="M1148.18,795.5l-6.64,7.38c-3.97-.16-27.99-1.31-29.14-2.21-.49-.39-.21-3-1.84-5.16,2.41-.4,3.96-2.53,5.9-3.69.66.55-.82,1.79-.74,1.84,1.53,1.1,28.76,2.52,32.46,1.84Z"/><path class="cls-13" d="M1150.4,765.26h37.63c-1.07.89-2.31,5.74-2.58,5.9-1.22.73-5.2-.69-7.38.74-1.58,1.04-1.62,4.54-1.84,4.8-1.54,1.74-5.18,1.31-7.01,2.58-2.46,1.72-2.61,5.44-5.16,7.38-3.11,2.36-7.09,1.95-7.38,2.21-1.92,1.75,3.54,4.43-8.48,6.64-3.7.68-30.93-.74-32.46-1.84-.08-.06,1.4-1.29.74-1.84,5.26-3.15,10.19-8.37,15.12-11.8,2.66-1.85,7.77-3.41,8.12-3.69,2.72-2.24-2.05-5.42,7.38-4.43.54-.38.54-5.64.37-6.64h2.95Z"/><path class="cls-20" d="M1228.6,659.02c.28-.6.2-.65.74-1.48l3.69,1.84-4.43-.37Z"/><path class="cls-53" d="M1280.24,448.02c-.66.1-11.25.12-13.28,0-1.47-.09-6.76.4-7.38-.37.56-1.92,3.82-13.6,4.43-14.02,1.6-1.11,11.45.06,14.39-.37,3.42,13.13,8.34,13.77,1.84,14.75Z"/><path class="cls-47" d="M1280.24,448.02c-2.7-.65-1.04,7.08-1.48,14.02-1.56-.23-1.76-.69-2.21-.74-2.66-.27-6.73-.08-9.59,0v-13.28c2.03.12,12.62.1,13.28,0Z"/><path class="cls-27" d="M1255.16,568.28h21.39v36.15c-2.45-1.67-23.89-32.95-23.61-35.04.15-1.14,2.21-.98,2.21-1.11Z"/><path class="cls-63" d="M1278.77,462.04c1.77.26,9.81.68,10.33,1.84,1.99,4.5,0,85.91,0,98.49,0,7.76.53,40.92,0,43.16-.13.55-.98.38-1.48.37-4.27-1.16-6.49,1.64-11.07-1.48v-143.12c.45.05.65.51,2.21.74Z"/><path class="cls-25" d="M1266.96,461.3c2.87-.08,6.93-.27,9.59,0v106.97h-21.39c.44-13.24-.12-26.59,0-39.84.13-14.48.55-29.03.74-43.53,9.72,10.25,7.87,5.66,12.91,2.95.26-.14,1.32,3.37,3.32-1.11-6.96-6.28-6.44-2.5-8.48-3.32-2.94-1.18-5.67-7.63-7.75.74.11-7.5-.08-15,0-22.5.52-.74,9.37-.32,11.07-.37Z"/><path class="cls-25" d="M1255.9,484.91c0-.25,0-.49,0-.74,2.08-8.37,4.81-1.92,7.75-.74,2.05.82,1.53-2.96,8.48,3.32-2,4.48-3.06.97-3.32,1.11-5.04,2.71-3.19,7.3-12.91-2.95Z"/><path class="cls-25" d="M1265.12,509.26c7.19.21,2.11,2.47,7.01,5.53,1.33,5.31-13.83-.51-7.01-5.53Z"/><path class="cls-12" d="M1197.61,664.92q.37,51.27.74,102.55c-4.27,1.67-3.36-1.13-3.69-3.69-1.89-14.87,1.64-74.51-.74-98.86v-.74c3,.07,3.46.73,3.69.74Z"/><path class="cls-28" d="M1146.71,664.92c-2.01,7.78-.16,15.84,0,23.61.52,24.59-1.41,49.18-.74,73.77-1.28-1.99-2.13-1.37-2.21-1.48-1.32-10.91,1.72-80.62,0-84.47-.3-.68-4.23,1.75-6.64-12.17,2.9.23,6.81.74,9.59.74Z"/><path class="cls-12" d="M1151.14,667.14c.62,14.52-.57,29.03-.74,43.53-.21,17.7.16,35.42,0,53.12v1.48h-2.95c-.03-.16-1.39-2.81-1.48-2.95-.67-24.6,1.26-49.18.74-73.77,6.75,1.94-.1-21.37,4.43-21.39Z"/><path class="cls-15" d="M1193.93,664.18v.74c-11.85,1.65-30.09-.41-39.84.74-1.75.21-3.28-.72-2.95,1.48-4.53.03,2.32,23.33-4.43,21.39-.16-7.76-2.01-15.83,0-23.61,4.15,0,4.54-1.48,4.8-1.48,14.2-.02,28.23.41,42.42.74Z"/><path class="cls-70" d="M1154.09,665.66c-.08,1.2.63,1.55.74,2.95,1.07,13.35-1.4,27.21.74,40.58-2.21.23-3.32-.86-2.95,2.21-.07-.1-1.44-.93-2.21-.74.17-14.49,1.36-29.01.74-43.53-.33-2.2,1.2-1.27,2.95-1.48Z"/><path class="cls-18" d="M1163.68,674.51c.77,8.53-.45,24.62,0,31.35.03.41,1.99,1.2,1.48,2.58-.09.07-1.89.67-2.21.74-1.72.36-5-.25-7.38,0-2.14-13.36.33-27.22-.74-40.58,10.46,1.45,5.77,4.95,8.85,5.9Z"/><path class="cls-61" d="M1165.15,708.45c.51-1.38-1.45-2.18-1.48-2.58-.45-6.73.77-22.82,0-31.35,5.65-2.22,1.87,21.79,2.95,33.57-.33.69-1.29.23-1.48.37Z"/><path class="cls-63" d="M1155.56,709.19c2.37-.25,5.65.36,7.38,0l-1.11,8.85c-9.13,1.37-7.2-3.75-9.22-6.64-.37-3.07.74-1.98,2.95-2.21Z"/><path class="cls-28" d="M1193.93,664.92c2.37,24.34-1.15,83.99.74,98.86-1.23.5-5.55.56-5.9.74q-19.18-.37-38.36-.74c.16-17.7-.21-35.42,0-53.12.77-.19,2.15.64,2.21.74,2.02,2.89.1,8.01,9.22,6.64l1.11-8.85c.32-.07,2.12-.67,2.21-.74.19-.14,1.15.33,1.48-.37-1.09-11.78,2.7-35.79-2.95-33.57-3.08-.95,1.61-4.45-8.85-5.9-.11-1.4-.82-1.75-.74-2.95,9.75-1.15,27.99.91,39.84-.74Z"/><path class="cls-70" d="M1188.76,764.52c-1,.51-.7.7-.74.74h-37.63v-1.48q19.18.37,38.36.74Z"/><path class="cls-21" d="M1181.01,670.82l5.53.37-.37,36.52-6.27-1.11,1.11-35.78Z"/><path class="cls-56" d="M1182.49,717.3c8.1-.68,4.36,8.32-1.11,4.8l1.11-4.8Z"/><path class="cls-17" d="M1230.07,656.07c-.12.5-.47,1.06-.74,1.48-.54.83-.46.88-.74,1.48-1.83,3.91-1.59,5.73-1.84,5.9-.93.64-19.6.08-22.5,0-.84-1.11-.66-2.06-.74-2.21-.1-.21.11-.59,0-.74l.37-1.48c29.95,2.39,7.84-.17-4.43-6.64-12.83-6.77-23.29-19.51-36.52-25.08.18-.09,1.16-2.22,3.32-2.21,4.66,0,54.54,25.53,63.82,29.51Z"/><path class="cls-40" d="M1203.52,661.97c-1.3-1.76-30.44-23.22-34.67-25.82-2.74-1.68-4.69-4.81-7.75-3.69-1.99.73-28.62,23.41-32.83,26.93.23,2.58,10.55,1.82,14.75,1.84,6.26.03,18.91,2.36,20.66-5.53-.58-18.38,2.19-9.28.37,5.53,3.52-.44,21.89.59,22.87,0,.72-.43-.11-3.28,1.48-3.69.82-.21,10.48,8.64,15.12,5.16.08.15-.11,1.1.74,2.21-2.21-.06-4.43.06-6.64,0-.23,0-.69-.67-3.69-.74-14.19-.32-28.22-.75-42.42-.74-.25,0-.64,1.48-4.8,1.48-2.78,0-6.69-.5-9.59-.74-5.63-.46-11.73,1.83-11.8-6.27,8.95-6.33,31.03-25.89,37.63-29.14,13.23,5.57,23.69,18.31,36.52,25.08,12.27,6.47,34.38,9.03,4.43,6.64l-.37,1.48Z"/><path class="cls-35" d="M1203.52,661.97c.11.15-.1.53,0,.74-4.65,3.48-14.31-5.38-15.12-5.16-1.59.41-.76,3.26-1.48,3.69-.98.59-19.35-.44-22.87,0,1.83-14.81-.95-23.92-.37-5.53-1.74,7.9-14.4,5.56-20.66,5.53.16-.57-.78-.95-.74-1.11.39-1.55,18.84-20.47,21.76-23.24,7.87,6.67,18.5,23.01,24.35,19.18,28.51,14.62-8.36-8.63-19.55-19.92,4.23,2.6,33.37,24.06,34.67,25.82Z"/><path class="cls-28" d="M1168.84,636.15c11.19,11.29,48.06,34.54,19.55,19.92-5.85,3.83-16.48-12.51-24.35-19.18-2.92,2.77-21.37,21.69-21.76,23.24-.04.15.9.54.74,1.11-4.21-.02-14.52.73-14.75-1.84,4.21-3.52,30.84-26.2,32.83-26.93,3.06-1.12,5.01,2.01,7.75,3.69Z"/><path class="cls-9" d="M1235.24,642.79c1.87,7.92,33.18,39.81,33.94,42.42.8,2.74-.55,23.06,0,29.88.1,1.21-.39,5.36.37,5.9,1.32.94,26.05-1.26,32.46.74,1.8-.62.97-5.74,1.11-8.85.25-5.44-1.16-38.57,0-40.21.79-1.11,23.97.08,27.3-.37.36,28.76-.27,57.55,0,86.32-9.94-7.07-9.54,1.76-10.7,2.21-.26.1-2.9-3.31-3.69-3.69-1.23-.59-4.59-.38-8.85-3.69l-2.95,7.38c-2.43-4.88-8.34-6.01-12.54-8.85-1.21,18.43-10.72-5.41-14.75,11.07-13.02-11.06-17.77-11.17-32.46-2.95-7.64-21.71-2.38,4.03-11.8-6.64-1.44,8.25-6.31,5.97-2.58,10.7-.37,2.67-10.05-3.16-6.27,4.06-10.27-1.94-10.36,2.31-13.28-4.43-7.76.03-.34,4.88-12.17,3.69q-.37-51.27-.74-102.55c2.21.06,4.43-.06,6.64,0,2.9.08,21.58.64,22.5,0,.25-.18.01-2,1.84-5.9l4.43.37-3.69-1.84c.27-.41.62-.98.74-1.48,1.09.47,2.31,2.38,2.95,1.11.07-4.79-.1-9.59,0-14.39h2.21Z"/><path class="cls-17" d="M1342.21,640.58l-11.8,16.97c-.07-2.27-.66-4.92-.74-7.38-.11-3.46-.01-6.87,0-10.33,4.2.04,8.46.67,12.54.74Z"/><path class="cls-3" d="M1266.22,639.84c.77,2.72-.57,8.69,1.11,9.59,2.74,1.48,54.53-.68,62.34.74.08,2.46.67,5.11.74,7.38.15,4.91-.06,9.84,0,14.75-3.33.45-26.51-.74-27.3.37-1.16,1.64.25,34.77,0,40.21l-5.16-.74c.48-2.11-.08-14.77,0-19.92.01-.74,0-1.48,0-2.21-.1-7.74.08-15.49,0-23.24-4.99-.16-19.64-.86-22.13-.37-.81.16-2.5-.38-2.95.37v47.58c-1.44.09-2.35.46-3.69.74-.55-6.82.8-27.14,0-29.88-.76-2.61-32.07-34.5-33.94-42.42,6.98.29,13.7-.06,20.66-.74.53-.05,1.27-1.72,10.33-2.21Z"/><path class="cls-56" d="M1272.13,639.84c17.64-.74,39.47-.16,57.54,0-.01,3.46-.11,6.86,0,10.33-7.81-1.42-59.59.74-62.34-.74-1.68-.9-.34-6.87-1.11-9.59,1.96-.11,3.94.08,5.9,0Z"/><path class="cls-63" d="M1303.11,712.88c-.14,3.11.69,8.24-1.11,8.85-6.41-1.99-31.14.2-32.46-.74-.76-.54-.27-4.69-.37-5.9,1.34-.28,2.25-.65,3.69-.74,7.95-.48,23.62,1.38,25.08-1.48.08-.16-.06-.47,0-.74l5.16.74Z"/><path class="cls-8" d="M1297.95,690.01c-3.02.06-5.82-.68-8.85-.74-2.26-30.88-5.88-30.97-5.16,0-2.75.07-5.48,1.44-8.12,0-.04-7.62.17-15.25,0-22.87,2.49-.49,17.15.21,22.13.37.08,7.74-.1,15.5,0,23.24Z"/><path class="cls-47" d="M1297.95,692.22c-.08,5.15.48,17.81,0,19.92-.06.27.08.58,0,.74-5.19-1.64-10.93-.31-16.23-.74v-19.92h16.23Z"/><path class="cls-27" d="M1275.82,666.4c.17,7.62-.04,15.25,0,22.87,0,.98-.02,1.97,0,2.95.05,2.73-.57,18.75,0,19.55.54.76,4.69.27,5.9.37,5.3.43,11.04-.9,16.23.74-1.46,2.85-17.13,1-25.08,1.48v-47.58c.45-.75,2.14-.21,2.95-.37Z"/><path class="cls-50" d="M1283.93,689.27c1.31-.03,3.82-.03,5.16,0,3.04.06,5.83.8,8.85.74,0,.74.01,1.48,0,2.21h-22.13c-.02-.98,0-1.97,0-2.95,2.64,1.44,5.36.07,8.12,0Z"/><path class="cls-47" d="M1289.09,689.27c-1.35-.03-3.86-.03-5.16,0-.72-30.97,2.91-30.88,5.16,0Z"/><path class="cls-8" d="M1281.72,692.22v19.92c-1.21-.1-5.36.39-5.9-.37-.57-.8.05-16.82,0-19.55h5.9Z"/><path class="cls-9" d="M1143.76,502.62c-4.56,5.02-9.51,13.1-14.02,17.71-8.95,9.14-24.52,17.85-25.08,19.55-.2.61-.43,9.98-.74,12.91-7.76,13.61-66.88,90.62-68.61,96.28-.48,1.56-.5,3.22-.74,4.8-7.77,1.18-.03-4.16.74-12.54.48-5.21-2.45-22.7,0-29.88,2.54-7.44,84.02-108.55,95.17-125.05,4.66,5.37,9.24,10.32,13.28,16.23Z"/><path class="cls-20" d="M1234.5,616.23c-1.38,4.52-1.36,9.35-1.48,14.02-.42.1-1.45,2.08-1.48,2.21-6.21-5.88-43.93-62.57-47.58-61.23l-.37,1.48c-3.49-4.84-25.55-35.05-27.3-36.52-1.22-1.03-1.47-1.9-1.48.37-6.28-3.14-14.96-8.24-19.18-13.28,2.58,1.4,5.27,4.57,7.38,3.32,4.41-8.02,9.19-9.3,5.16-18.07,29.29,35.49,57.59,71.78,86.32,107.71Z"/><path class="cls-20" d="M1103.92,560.9c-.47,1.44-12.22,23.76-14.02,26.93-9.01,15.93-41.35,66.98-55.33,76.36.09-2.15-.08-9.82,0-10.33.24-1.58.26-3.24.74-4.8,1.73-5.65,60.86-82.67,68.61-96.28-.12,1.1,1.54,3.33,0,8.12Z"/><path class="cls-24" d="M1148.18,508.52c4.03,8.77-.76,10.06-5.16,18.07-2.11,1.25-4.8-1.92-7.38-3.32-.29-.16-1.93.32-5.9-2.95,4.51-4.6,9.46-12.69,14.02-17.71,1.35,1.98,2.93,2.64,4.43,5.9Z"/><path class="cls-38" d="M1231.55,632.46c-1.04,6.27,2.03,13.22-6.64,2.58-3.45-4.23-30.82-47.76-41.31-62.34l.37-1.48c3.66-1.34,41.37,55.35,47.58,61.23Z"/><path class="cls-38" d="M1183.6,572.7c10.49,14.58,37.87,58.11,41.31,62.34,8.67,10.64,5.6,3.69,6.64-2.58.02-.13,1.06-2.12,1.48-2.21-.11,4.18.08,8.37,0,12.54-.1,4.79.07,9.59,0,14.39-.64,1.27-1.86-.64-2.95-1.11-9.27-3.98-59.15-29.5-63.82-29.51-2.16,0-3.14,2.13-3.32,2.21-6.6,3.25-28.68,22.81-37.63,29.14.08,8.1,6.18,5.82,11.8,6.27,2.41,13.92,6.34,11.5,6.64,12.17,1.72,3.86-1.32,73.56,0,84.47-11.24-13.49-7.84,7.89-18.07-3.69-3.87.84,2.35,10.88-11.8-2.95-3.11,15.13-4.12-5-10.33,7.38-3.76-9.34-6.45,5.88-9.59-3.69-16.2,15.33-7.07,2.02-11.07.74-13.01,10.36-6.07-13.05-16.23,7.38l-8.85-5.16c.64,17.73-8.31-6.27-10.33,5.9-10.07-13.08-9.58-5.85-10.33-5.9-1.52-.1-1.72-1.48-2.58-1.48.95-31.65-1.28-63.55,0-95.17,13.98-9.38,46.32-60.42,55.33-76.36,1.79-3.17,13.55-25.48,14.02-26.93l1.11,40.58h49.43l.37-64.92c0-2.27.25-1.4,1.48-.37,1.74,1.47,23.81,31.68,27.3,36.52Z"/><path class="cls-28" d="M1071.09,641.31l48.32.37q-.55,40.02-1.11,80.05l-48.32-1.11,1.11-79.31Z"/><path class="cls-5" d="M1114.25,653.86c-1.15.36-1.43-.65-2.21-.74-4.96-.56-9.96.76-14.75.74-.56,0-.88-.02-1.48,0-2.28.07-15.12-1.94-16.23-.37,0,11.19,0,22.38,0,33.57,0,.25,0,.49,0,.74,0,7.38,0,14.75,0,22.13-1.23.01-2.46.12-3.69,0-1.43-12.24,1.07-44.59,0-60.86l37.26-.37c1.82,1.27.92,3.31,1.11,5.16Z"/><path class="cls-23" d="M1114.25,653.86c1.4,13.63-1.04,42.82,0,59.39q-19,.55-37.99,1.11c-.76-.54-.24-3.37-.37-4.43,1.23.12,2.46.01,3.69,0,5.46-.05,10.84-.59,16.23-.74.42-.01.98.02,1.48,0,2.23-.07,13.54,2.36,14.75-.37v-19.18l-13.28-1.11c2.99-1.05,11.18,1.81,13.28-1.48,1.42-2.21.96-28.8,0-33.94.79.09,1.07,1.09,2.21.74Z"/><path class="cls-36" d="M1095.8,653.86c-3.14,32.52,8.14,34.85-16.23,33.2,0-11.19,0-22.38,0-33.57,1.11-1.57,13.95.43,16.23.37Z"/><path class="cls-36" d="M1112.03,653.12c.96,5.14,1.42,31.73,0,33.94l-14.75-.37v-32.83c4.8.02,9.79-1.29,14.75-.74Z"/><path class="cls-36" d="M1095.8,709.19c-5.39.15-10.77.69-16.23.74,0-7.38,0-14.75,0-22.13,3.95,2.13,15.04-.83,16.23,1.84.61,1.37-.45,15.38,0,19.55Z"/><path class="cls-48" d="M1097.28,653.86v32.83l14.75.37c-2.1,3.29-10.29.42-13.28,1.48-3.14,1.11-.7,16.55-1.48,20.66-.49.02-1.06-.01-1.48,0-.45-4.17.61-18.18,0-19.55-1.19-2.68-12.28.28-16.23-1.84,0-.25,0-.49,0-.74,24.37,1.66,13.09-.68,16.23-33.2.6-.02.91,0,1.48,0Z"/><path class="cls-36" d="M1098.76,688.53l13.28,1.11v19.18c-1.21,2.73-12.53.3-14.75.37.78-4.11-1.67-19.55,1.48-20.66Z"/><path class="cls-28" d="M1135.64,523.27c4.22,5.04,12.9,10.14,19.18,13.28l-.37,64.92h-49.43l-1.11-40.58c1.54-4.78-.12-7.01,0-8.12.31-2.93.54-12.3.74-12.91.56-1.7,16.13-10.42,25.08-19.55,3.97,3.27,5.61,2.79,5.9,2.95Z"/><path class="cls-5" d="M1146.71,594.1c-1.42-3.46-.02-3.82,0-4.43.26-6.74-.19-13.54,0-20.29l-14.75-.37c1.14-2.42,16.69,1.64,14.02-2.95.9-3.37,1.26-17.21.74-19.18-.29-1.08-14.75-15.53-15.86-15.49-2.95,2.72-16.75,14.03-17.34,16.23-.45,1.71.08,14.55,0,19.18,0,.25,0,.49,0,.74-.1,7.04-.37,14.8,0,21.76.03.61,1.47.29,1.48.37.03.39-1.44,2.85-1.48,4.43-1.39-.22-2.65.55-3.69-1.11.69-8.63-.92-46.02,0-48.69.45-1.31,18.41-15.62,21.03-18.07,2.48,2.2,17.73,16.13,18.07,17.34,1.02,3.51-.76,40.52,0,50.17l-2.21.37Z"/><path class="cls-43" d="M1132.69,589.67c4.67.01,9.34,0,14.02,0-.02.6-1.42.96,0,4.43-9.02-.75-26.66,1.02-33.2,0,.03-1.57,1.51-4.04,1.48-4.43,5.11.78,10.5-.73,15.49-.74.12,0,1.68.74,2.21.74Z"/><path class="cls-36" d="M1113.51,566.8c.08-4.63-.45-17.48,0-19.18l1.11.74c21.27-19.65,13.85-18.37,15.12,16.6l-16.23,1.84Z"/><path class="cls-36" d="M1146.71,546.88c.52,1.97.16,15.81-.74,19.18l-14.02-.37v-29.51c1.38-3.86,10.12,10.8,14.75,10.7Z"/><path class="cls-36" d="M1130.48,588.93c-4.99,0-10.39,1.52-15.49.74,0-.08-1.44.24-1.48-.37-.37-6.97-.1-14.73,0-21.76,23.94,2.38,13.74-4.87,16.97,21.39Z"/><path class="cls-36" d="M1146.71,589.67c-4.67,0-9.34.01-14.02,0,.13-2.61-1.18-19.72-.74-20.66l14.75.37c-.19,6.75.26,13.55,0,20.29Z"/><path class="cls-10" d="M1146.71,546.88c-4.64.1-13.38-14.56-14.75-10.7v29.51l14.02.37c2.67,4.59-12.88.53-14.02,2.95-.44.94.87,18.05.74,20.66-.54,0-2.1-.74-2.21-.74-3.23-26.27,6.97-19.01-16.97-21.39,0-.25,0-.49,0-.74l16.23-1.84c-1.28-34.97,6.14-36.24-15.12-16.6l-1.11-.74c.59-2.2,14.38-13.51,17.34-16.23,1.11-.03,15.57,14.41,15.86,15.49Z"/><path class="cls-51" d="M1833.24,667.35c-7.5,10.99,4.2,22.35-43.2,12.3-4.77-8.47.05-13.07,0-13.75,1.85-.11,3.81.19,5.63,0,16.31-1.65,21.6,2.74,37.57,1.45Z"/><path class="cls-73" d="M1842.63,652.87c-3.1,5.05-6.02,9.54-9.39,14.48q-1.88-7.96-3.76-15.92c4.49.44,8.56,1.72,13.15,1.45Z"/><path class="cls-44" d="M1829.48,651.43q1.88,7.96,3.76,15.92c-15.97,1.29-21.25-3.1-37.57-1.45q3.29-7.96,6.57-15.92c14.35,27.36,16.18-.24,24.42-1.45,1.13-.17,2.58,2.87,2.82,2.9Z"/><path class="cls-22" d="M1512.05,807.76c-4.78,10.96-8.87,3.8-18.78,4.34q5.17-21.71,10.33-43.43c5.52,13.85,1.08,37.56,8.45,39.08Z"/><path class="cls-74" d="M1617.23,761.44c-.18-.25-2.24,1.42-5.63-3.62-.92-1.36-4.4-13.38-9.39-22.44-3.29-5.96-10.15-26.84-16.9-28.95-6.3-1.96-12.11,48.73-13.15,52.83-8.32,32.84-9.75,38.2-17.84,10.86q-4.23,8.32-8.45,16.65-5.63-25.69-11.27-51.39c-6.69-6.47,36.53-.46,39.44-3.62,1.99-2.16.13-32.86,3.76-52.83.79-4.36.99-8.9,1.88-13.03,3.87-17.94,18.2-51.96,28.17-69.48,6.39,54.69-2.26,110.6,9.39,165.02Z"/><path class="cls-22" d="M1482,768.68c2.72,14.54,8.11,28.72,9.39,43.43-19.12.98-37.21,1.43-56.35,1.45.77-3.47,2.42-6.79,3.76-10.13,1.88-4.71,3.3-9.95,5.63-14.48,6.86-13.28,14.34-25.41,20.66-39.08"/><path class="cls-29" d="M1530.83,735.38c-5.35,16.2-16.62,67.42-18.78,72.38-7.38-1.53-2.94-25.24-8.45-39.08q-5.17,21.71-10.33,43.43c-.62.03-1.26-.03-1.88,0-1.28-14.71-6.67-28.88-9.39-43.43,16.93,7.51,5.15-17.36,14.09-36.19,32.64-1.92,32.92,2.93,34.75,2.9Z"/><path class="cls-37" d="M1763.74,787.49c-.63.47-4.35,7.52-8.45,7.24-4.59-6.23-13.35-3.3-17.84-6.51-8.45-6.05-27.69-49.92-30.05-52.11-1.41-1.3-3.72-.6-5.63-.72,1.66-3.01,9.95-21.79,12.21-21.71q3.76,10.86,7.51,21.71c4.44-26.28,7.53-6.26,21.6,18.09,8.87-10.75,10.6,13.33,20.66,34.02Z"/><path class="cls-55" d="M1399.35,780.26c.46,2.78-.6,29.14,4.7,28.95q7.98-14.48,15.97-28.95c.43.04,5-3.19,8.45-1.45,5.1,2.58,1.55,6.4,2.82,8.69,2.98,5.4,5.56,10.22,7.51,15.92-1.34,3.34-2.99,6.66-3.76,10.13-25.67.02-51.34-.02-77.01,0,11.32-9.45,19.06-23.35,26.3-34.74,9.82-15.46,10.51-25.99,15.03,1.45Z"/><path class="cls-19" d="M1602.21,735.38q-5.63,11.94-11.27,23.88-2.82-26.42-5.63-52.83c6.76,2.11,13.62,22.99,16.9,28.95Z"/><path class="cls-74" d="M1754.35,652.87c-7.5,8.12,34.86,87.65,23.48,88.3-2.54.14-23.11-30.31-25.36-34.02-4.08-6.71-38.12-73.41-39.44-77.44-2.36-7.16-1.4-10.75-1.88-17.37-.69-9.51-4.52-20.43,6.57-27.5,35.23,21.42-.12,33.62,36.63,68.03Z"/><path class="cls-11" d="M1652.92,639.85c.02.9-2.39,1.58-1.88,6.51.54,5.2,23.43,83.53,28.17,102.05-29.06-40.78-39.98-90.25-46.96-136.07,1.73,3.83,15.89,22.2,20.66,27.5Z"/><path class="cls-11" d="M1788.16,660.11c-13.09-4.06-17.6-20.85-28.17-28.23-.95-8.5,2.57-2.44,5.63-3.62,5.01-1.93,7.01-4.66,12.21-5.79,25.27,15.93,12.04,16.32,10.33,37.64Z"/><path class="cls-74" d="M1763.74,787.49c-10.06-20.69-11.79-44.77-20.66-34.02-14.08-24.36-17.16-44.37-21.6-18.09q-3.76-10.86-7.51-21.71c-2.26-.07-10.55,18.7-12.21,21.71-5.4,9.79-11.41,19.27-16.9,28.95-1.73-5.82-4.07-9.82-5.63-15.92-4.75-18.52-27.63-96.85-28.17-102.05-.51-4.94,1.9-5.62,1.88-6.51-.52-27.96.84-20.79,7.51-30.4,43.97,14.76,20.01,28.49,31.93,44.87,7.44-.91,17.75-18.91,20.66-24.61,1.33,4.03,35.37,70.73,39.44,77.44,2.25,3.7,22.82,34.16,25.36,34.02,11.38-.65-30.98-80.18-23.48-88.3,26.2,24.53-17.78-33.38.94-34.74q5.17,5.07,10.33,10.13c-3.06,1.18-6.59-4.88-5.63,3.62,10.57,7.38,15.09,24.17,28.17,28.23-.56,7.02,1.86,5.49,1.88,5.79.05.69-4.77,5.28,0,13.75,47.4,10.04,35.7-1.31,43.2-12.3,3.37-4.94,6.3-9.43,9.39-14.48,7.43-12.12,16.02-24.67,20.66-37.64,1.3-3.62,2.71-5.88,3.76-10.13,2.04.96,7.3-7.5,7.51-7.96,11.87-25.74,24.16-51.65,35.69-77.44-4.06,38.23-18.68,99.07-37.57,133.9-14.71,27.12-82.66,114.48-108.94,133.9Z"/><path class="cls-74" d="M1688.61,608c2.31,15.32,1.51,30.97,3.76,46.32-11.92-16.38,12.04-30.11-31.93-44.87,1.86-2.68,3.62-2.72,3.76-2.9,11.86-.84,20.93,1.35,22.54-8.69.7,3.06,1.41,7.02,1.88,10.13Z"/><path class="cls-51" d="M1790.98,691.96q6.1,1.81,12.21,3.62c-12.47,9.13-19.14,11.58-12.21-3.62Z"/><path class="cls-58" d="M1444.43,788.94c-2.34,4.53-3.76,9.77-5.63,14.48-1.96-5.71-4.54-10.52-7.51-15.92l13.15,1.45Z"/><path class="cls-64" d="M1420.01,780.26q-7.98,14.48-15.97,28.95c-5.3.19-4.24-26.17-4.7-28.95,9.95-3.79,18.97-.16,20.66,0Z"/><path class="cls-33" d="M1682.98,770.12c-3.17,5.46-18.81,36.63-23.48,36.19-12.96-13.59-31.71-30.54-42.26-44.87-11.65-54.42-3-110.33-9.39-165.02-.06-.48.06-.97,0-1.45,2.79-.62,8.83,3.97,9.39,5.07,7.19,14.14,21.58,82.52,31.93,108.56,7.71,19.38,22.46,42.9,33.81,61.52Z"/><path class="cls-46" d="M1628.5,560.23c-6.4-.9-2.95,21.61-1.88,28.95,1.3,8.94,1.64,14.3,5.63,23.16,6.98,45.82,17.9,95.28,46.96,136.07,1.56,6.1,3.9,10.1,5.63,15.92-.16.27.46,1.77-1.88,5.79-11.35-18.62-26.1-42.14-33.81-61.52-10.36-26.05-24.74-94.42-31.93-108.56-.56-1.1-6.6-5.69-9.39-5.07-.86-6.64-4.68-30.42-5.63-31.85-1.72-4.62,7.33-2.47,19.72-2.9.75-.03,3.04-2.89,3.76-2.9,4.41-.04,2.58,2.9,2.82,2.9Z"/><path class="cls-42" d="M1613.48,421.27c-2.15,27.92-16.2,61.37,1.88,109.29,9.74,7.1,1.12-10.85,5.63-30.4,8.23-35.63,6.93,12.77,11.27,23.16,3.48,8.31,18.69,21.09,26.3,28.23,2.18,2.05,5.61,4.33,5.63,7.24-9.27,2.72-25.15,1.36-35.69,1.45-.23,0,1.59-2.93-2.82-2.9-.72,0-3.01,2.87-3.76,2.9-12.39.42-21.44-1.72-19.72,2.9-3.74-5.55-50.17-11.36-54.47-16.65-2.52-3.1,1.61-8.56,0-11.58-2.42-4.54-35.65-8.65-26.3-34.02.98-2.66,28.42-21.96,43.2-44.15,19.64-29.48,32.53-74.56,46.96-106.39,5.33,23.51,3.7,47.24,1.88,70.93Z"/><path class="cls-49" d="M1698,496.54c-8.36,22.04-6.58,26.06-29.11,43.43-5.73.12-3.03-21.31-15.97-39.08-.26-.35-.4-4.55-4.7-7.24-10.27,19.4-18.8-54.72-34.75-72.38,1.82-23.69,3.45-47.41-1.88-70.93,1.57-3.47,1.55-6.68,4.7-8.69,12.54,29.34,27.21,81.73,42.26,107.84,11.27,19.55,36.16,40.69,39.44,47.04Z"/><path class="cls-42" d="M1701.76,513.91c-.24,26.42-11.09,19.84-20.66,28.23-.91.79-7.84,13.99-16.9,16.65-.03-2.91-3.45-5.19-5.63-7.24,3.33-12.94-13.98-41.02-5.63-50.66,12.94,17.77,10.23,39.2,15.97,39.08,22.53-17.37,20.75-21.39,29.11-43.43,3.89,7.53,3.83,9.38,3.76,17.37Z"/><path class="cls-42" d="M1652.92,500.88c-8.35,9.64,8.96,37.73,5.63,50.66-7.61-7.14-22.82-19.92-26.3-28.23-4.34-10.39-3.04-58.79-11.27-23.16-4.52,19.55,4.1,37.5-5.63,30.4-18.08-47.92-4.03-81.37-1.88-109.29,15.95,17.65,24.48,91.78,34.75,72.38,4.3,2.69,4.44,6.88,4.7,7.24Z"/><path class="cls-37" d="M787.02,846.84c6.27-1.18,2.8-1.79,3.76-2.9,5.78,6.34,18.05,1.37,22.54,1.45,20,.35,40.06,3.73,60.11,0,.16.16,3.44.65,3.76,2.9-24.49-1.68-132.89,4.97-145.57,1.45-4.48-1.25-47.74-53.4-53.53-60.8,2.93-5.71,5.92-11.88,9.39-17.37,12.08-19.08,17.55-28.9,26.3-49.22,9.87,32.38,9.5,68.59,28.17,99.16,10.27,16.8,18.58,30.3,45.08,25.33Z"/><path class="cls-37" d="M725.03,703.54c1.67,5.44,3.67,10.56,5.63,15.92,15.73,42.99,38.41,84.91,56.35,127.38-26.5,4.97-34.81-8.53-45.08-25.33-18.67-30.56-18.3-66.77-28.17-99.16,3.21-7.46,5.66-19.29,11.27-18.82Z"/><path class="cls-22" d="M850.88,822.24c.9.22,2.56-.15,3.76,0,8,6.69,11.87,16.06,18.78,23.16-20.05,3.73-40.11.35-60.11,0-3.24-17.51-12.3-27.09-7.51-46.32,2.97-5.45,5.98-10.64,9.39-15.92,23.44,16.85,11.72,49.47,45.08,58.62-6.5-4.97-5.73-12.08-9.39-19.54Z"/><path class="cls-22" d="M813.31,845.4c-4.49-.08-16.76,4.9-22.54-1.45,2.48-2.88,1.31-4.16,1.88-5.79,5.33-15.23,4.68-23.53,13.15-39.08-4.78,19.23,4.28,28.81,7.51,46.32Z"/><path class="cls-65" d="M841.49,464.7c-6.38,7.67-16.04,38.91-16.9,48.49-2.78,30.7,8.44,57.98,9.39,71.65.38,5.44.41,11.94,0,17.37-.27,3.62-10.24,46.85-11.27,49.22-7.04,1.06-2.22-7.18-3.76-13.75-6.11-26.05-21.58-56-18.78-99.16.85-13.03,10.44-41.93,11.27-56.45,8.95-4.72,27.58-20.52,30.05-17.37Z"/><path class="cls-65" d="M668.68,673.14c-10.64-4.86-25.98-35-30.05-46.32-6.5-18.06-.8-25.84-8.45-24.61-8.41,1.36-10.15,39.09-17.84,43.43-9.99-28.36-21.69-56.39-31.93-84.68-.54-1.49.31-8.62-1.88-14.48-.19-.5-4.18-1.01-7.51-8.69-1-2.31,3.19-11.53-7.51-15.2-.06-.48.05-.97,0-1.45,6.43.74,3.77-5.2,0-7.24-2.68-22.04-4.99-20.51-7.51,1.45-4.35,3.13-3.18,7.74-3.76,11.58-2.35,15.59-6.53,15.2-7.51,18.09-1.88,5.53-1.45,19.44-7.51,22.44,7.66-48.41,10.43-88.81,43.2-133.17,9.63,2.57,3.07,21.35,9.39,34.02,5.49,11,27.6,22.49,43.2,21.71,8.89,19.5,48.08,77.8,50.71,91.19,5.31,26.97-15.06,75.5-15.03,91.92Z"/><path class="cls-74" d="M860.27,670.25c2.36,3.99,7.9,28.67,9.39,29.67,3.81,2.56,12.08-1,18.78-.72,1.78.07,1.93,1.33,3.76,1.45-5.83,9.13.71,23.73,0,31.85-.5,5.73-1.78,8.89-5.63,11.58,8.24-23.28-53.24-55.25-41.32-96.98,3.03,8.75,2.27,21.73,15.03,23.16Z"/><path class="cls-74" d="M822.7,651.43c-1.44,3.31-16.19,23.73-18.78,20.99q-10.33-34.38-20.66-68.76c3.27-21.9,6.64-44.61,16.9-65.14-2.8,43.15,12.68,73.11,18.78,99.16,1.54,6.57-3.28,14.81,3.76,13.75Z"/><path class="cls-11" d="M638.63,626.82c4.08,11.32,19.41,41.47,30.05,46.32.02,8.74,10.54,48.55,13.15,73.82l-1.88,22.44c-26.02-20.18-44.1-64.21-46.96-92.64-1.43-14.2-2.03-54.97,5.63-49.94Z"/><path class="cls-74" d="M638.63,626.82c-7.66-5.03-7.06,35.74-5.63,49.94,2.86,28.43,20.94,72.46,46.96,92.64l1.88-22.44c1.25,12.11-2.24,30.83,5.63,24.61-3.47,5.49-6.46,11.66-9.39,17.37-56.63-72.37-42.33-76.82-65.74-143.31,7.7-4.34,9.44-42.07,17.84-43.43,7.65-1.23,1.95,6.55,8.45,24.61Z"/><path class="cls-65" d="M661.17,409.69c-3.71,53.63,17.33,65.51,26.3,83.23,11.97,23.66,42.05,81.05,48.84,99.16-3.6,2.63-3.52,6.71-3.76,10.13-5.39,4.28-8.83,15.52-11.27,21.71-8.65-.66-15.37-19.57-18.78-27.5-4.41-10.24-7.15-24-11.27-32.57-7.53-15.66-39.8-65.43-41.32-73.82-.69-3.81,4.77-72.93,5.63-76.72.18-.78,2.99-4.6,5.63-3.62Z"/><path class="cls-74" d="M721.28,623.92c-11.92,30.23-12.67,50.14-18.78,7.96-1.24-8.54-2.26-27.05,0-35.46,3.42,7.93,10.13,26.84,18.78,27.5Z"/><path class="cls-74" d="M730.67,719.46c-1.96-5.36-3.96-10.48-5.63-15.92-4.67-15.19-7.05-16.89-5.63-33.29,4.52,11.22,35.06,48.32,11.27,49.22Z"/><path class="cls-1" d="M676.2,372.05c-10.18-1.86-14.48,29.74-15.03,37.64-2.65-.98-5.46,2.84-5.63,3.62-.86,3.78-6.32,72.91-5.63,76.72,1.52,8.4,33.79,58.16,41.32,73.82,4.12,8.56,6.86,22.33,11.27,32.57-2.26,8.42-1.24,26.93,0,35.46,6.11,42.18,6.86,22.26,18.78-7.96,2.44-6.2,5.88-17.44,11.27-21.71-1.97,28.31-11.45,48.36-13.15,68.03-1.42,16.4.97,18.1,5.63,33.29-5.61-.47-8.06,11.36-11.27,18.82-8.75,20.32-14.22,30.14-26.3,49.22-7.87,6.22-4.39-12.5-5.63-24.61-2.61-25.28-13.13-65.08-13.15-73.82-.03-16.41,20.34-64.95,15.03-91.92-2.64-13.4-41.83-71.69-50.71-91.19-15.61.78-37.71-10.71-43.2-21.71-6.33-12.67.24-31.44-9.39-34.02,4.38-5.93,9.62-13.54,15.03-18.82.13-.13,3.62-1.32,3.76-1.45,3.85,16.53,1.15,59.08,28.17,60.07q-12.21-31.48-24.42-62.97c14.18-12.1,17.36-13.81,33.81-23.16,5.5,34.11,11.85,6.64,18.78-8.69,7.8-3.87,14.13-8.11,22.54-11.58.77,2.05-1.3,2.74-1.88,4.34Z"/><path class="cls-65" d="M599.18,414.03c1.32-1.22,2.6-1.91,3.76-2.9q12.21,31.48,24.42,62.97c-27.02-.99-24.32-43.54-28.17-60.07Z"/><path class="cls-74" d="M636.75,387.98c6.19-3.52,12.7-5.67,18.78-8.69-6.94,15.33-13.28,42.79-18.78,8.69Z"/><path class="cls-39" d="M624.54,399.56c6.88,5.12,25.65,65.25,18.78,63.69-4.83-1.1-23.1-55.72-18.78-63.69Z"/><path class="cls-74" d="M852.76,327.18c77.01,30.28,91.95,103.76,47.9,124.49-31.11,14.64-46.38-2.34-59.17,13.03-2.48-3.15-21.1,12.65-30.05,17.37,1.17-20.48-15.62,2.78-28.17,1.45-.04-4.01-4.58-30.64-13.15-18.82.23-24.72,29.62-97.16,28.17-62.97h3.76c-3.13-31.89-37.5-34.99,3.76-66.59-18.48,6.12-49.3,43.16-48.84,57.9-10.11,11.19-17.32,23.81-26.3,35.46-8.36-34.25-.41-55.25,28.17-81.79-8-9.57-50.86,55.11-37.57,6.51.12-.04-.44-1.6,1.88-1.45,27.53-5.39,52.91-16.82,79.83-23.16,14.78-3.48,28.72-1.04,42.26-5.79-.19,5.75,6.34,3.88,7.51,4.34Z"/><path class="cls-1" d="M730.67,428.51c-11.44,14.86-9.63,19.56-18.78,13.03-3.25-6.17-12.47-12.71-20.66-14.48-.62-4.58-3.11-5.37,5.63-7.24,35.54,40.42,3.46-11.72,30.05-44.15-1.24-1.96-29.74,26.55-31.93,29.67q-2.82-1.45-5.63-2.9c14.21-13.43,22.83-28.58,22.54-46.32,3.3-1.13,6.31-1.88,9.39-2.9-13.3,48.6,29.56-16.09,37.57-6.51-28.59,26.53-36.54,47.54-28.17,81.79Z"/><path class="cls-74" d="M711.88,356.13c.29,17.74-8.33,32.89-22.54,46.32-25.42,23.98-18.12-16.57-13.15-30.4.57-1.6,2.65-2.29,1.88-4.34,16.04-6.63,22.39-7.68,33.81-11.58Z"/><path class="cls-74" d="M696.86,419.82c-1.77-2.01-7.45-6.08-7.51-6.51-.07-.5,4.47-6.3,5.63-7.96,2.19-3.13,30.69-31.63,31.93-29.67-26.59,32.43,5.49,84.57-30.05,44.15Z"/><path class="cls-1" d="M770.11,464.7c-.26,28.74,13.28,30.79,13.15,18.82,12.55,1.33,29.34-21.93,28.17-1.45-.83,14.52-10.42,43.42-11.27,56.45-10.27,20.53-13.63,43.24-16.9,65.14-6.09,40.77-8.3,81.32-1.88,122.32q-5.17.36-10.33.72c-13.05-41.9-19.58-94.13-34.75-134.62-6.78-18.1-36.87-75.5-48.84-99.16-8.96-17.72-30.01-29.6-26.3-83.23.55-7.9,4.84-39.49,15.03-37.64-4.97,13.83-12.27,54.37,13.15,30.4q2.82,1.45,5.63,2.9c-1.16,1.66-5.71,7.46-5.63,7.96.06.43,5.74,4.5,7.51,6.51-8.74,1.87-6.25,2.65-5.63,7.24,1.19,8.84,14.89,44.38,22.54,35.46-2.23-7.16,4.58-8.71-1.88-20.99,9.15,6.53,7.34,1.83,18.78-13.03,8.98-11.66,16.19-24.27,26.3-35.46-.46-14.74,30.36-51.79,48.84-57.9-41.25,31.6-6.89,34.7-3.76,66.59h-3.76c1.44-34.2-27.95,38.25-28.17,62.97Z"/><path class="cls-65" d="M783.26,483.51c.13,11.97-13.41,9.92-13.15-18.82,8.56-11.83,13.11,14.8,13.15,18.82Z"/><path class="cls-65" d="M725.97,448.77c5.79-.89,2.01,12.71,6.57,22.44,2.69,5.73,14.77,17.16,18.78,24.61,6.6,40.19,29.3,62.38,10.33,103.5-5.35,2.87-42.51-74.1-44.14-80.34-1.46-5.6-8.25-48.18-7.51-50.66.33-1.13,12.13-10.76,15.97-19.54Z"/><path class="cls-65" d="M679.01,416.93c2.61,39.76,49.52,134.16-2.82,36.91l2.82-36.91Z"/><path class="cls-68" d="M765.42,500.88c23.45-3.94,31.58,95.01-2.82,3.62l2.82-3.62Z"/><path class="cls-74" d="M780.44,357.58c.41,13.59,12.69,25.51,12.21,29.67-.51,4.43-27.98,36.25-32.87,84.68-16.24-18.63-28.82-19.05-21.6-45.6,1.01-3.72,35.95-58.54,42.26-68.76Z"/><path class="cls-74" d="M711.88,441.54c6.46,12.28-.35,13.83,1.88,20.99-7.65,8.92-21.35-26.62-22.54-35.46,8.19,1.77,17.42,8.31,20.66,14.48Z"/><path class="cls-65" d="M744.75,463.25c2.4-.92,29.32,33.57,10.33,23.88q-5.17-11.94-10.33-23.88Z"/></g></g></svg>