<?xml version="1.0" encoding="UTF-8"?><svg id="Layer_2" xmlns="http://www.w3.org/2000/svg" viewBox="0 0 245.25 539.09"><defs><style>.cls-1{fill:#f8e9a8;}.cls-1,.cls-2,.cls-3,.cls-4,.cls-5,.cls-6,.cls-7,.cls-8,.cls-9,.cls-10,.cls-11,.cls-12,.cls-13,.cls-14,.cls-15{stroke-width:0px;}.cls-2{fill:#533609;}.cls-3{fill:#312d2d;}.cls-4{fill:#f1ecd2;}.cls-5{fill:#735218;}.cls-6{fill:#5a4208;}.cls-7{fill:#211b13;}.cls-8{fill:#261e1d;}.cls-9{fill:#584f50;}.cls-10{fill:#3e2b0b;}.cls-11{fill:#c4a049;}.cls-12{fill:#b78625;}.cls-13{fill:#0e0e0c;}.cls-14{fill:#5f6267;}.cls-15{fill:#403a3f;}</style></defs><g id="porte"><path class="cls-12" d="M115.12,236.23s-.62.18-.45-1.13c5.26,0,10.52,0,15.78,0,.27,2.29-.45,3.77-1.35,5.63-1.45,1.61-3.63,2.86-4.96,4.5-7.95.67-7.5-6.62-9.02-9.01Z"/><path class="cls-13" d="M124.14,242.98q1.01-2.81,2.03-5.63c-2.41,5.03-6.43,4.81-8.34-.56,13.84-3.59,10.29,4.69,6.31,6.19Z"/><path class="cls-4" d="M117.82,236.79c1.92,5.38,5.93,5.6,8.34.56q-1.01,2.81-2.03,5.63c-4.91,1.85-8.66-4.75-6.31-6.19Z"/><path class="cls-12" d="M116.02,481.11c2.14,4.09,4.85,6.08,8.57,3.38,8.94-8.44-5.94-4.95-10.37-5.63-.05-.55.03-1.13,0-1.69,5.56,0,11.12,0,16.68,0-.3,3.02-1.49,5.19-3.16,7.32-.7.1-.85,1.08-.9,1.13-.16.14-.9-.36-1.35,1.13-4.2,1.46-9.62.61-9.47-5.63Z"/><path class="cls-2" d="M125.49,486.74c.46-1.48,1.19-.99,1.35-1.13-.24.19,0,.66-1.35,1.13Z"/><path class="cls-10" d="M126.84,485.61c.05-.05.2-1.03.9-1.13-.33.43.27.23-.9,1.13Z"/><path class="cls-8" d="M116.47,509.25c1.14-2.75,2.14-2.63,2.25-3.1.22-.89.27-17.71,0-18.58-.16-.5-3.89-1.62-4.51-8.73,4.44.68,19.31-2.81,10.37,5.63,3.2-6.28-1.12-.76-2.03-1.69-.61-.62.2-7.25-1.8,0-3.07.56-2.81-5.9-4.73-1.69-.15,6.24,5.27,7.09,9.47,5.63-1.22,3.98-.02,14.23-.45,19.14-2.62-.48-2.13.98-2.71,1.13-.14.04-.31-.05-.45,0-1.99.64-3.53,1.3-5.41,2.25Z"/><path class="cls-8" d="M121.66,504.75l-2.03-.28c-1.06-25.24,4.3-21.13,2.03.28Z"/><path class="cls-4" d="M116.02,481.11c1.93-4.21,1.66,2.25,4.73,1.69,2-7.25,1.19-.62,1.8,0,.91.92,5.23-4.59,2.03,1.69-3.72,2.7-6.43.72-8.57-3.38Z"/><path class="cls-14" d="M116.47,509.25c1.89-.95,3.42-1.61,5.41-2.25.15,1.27-.32,1.04-.45,1.13-9.3,6.66-1.33,14.93-.9,26.46h-.45c-1.84-4.8-6.58-16.98-5.86-21.67.17-1.1,2.17-3.45,2.25-3.66Z"/><path class="cls-8" d="M125.49,519.39c1.3-5.8,3.1-6.29-3.16-12.38.57-.15.08-1.61,2.71-1.13,7.77,8.38,3.36,11.87,2.25,15.76q-.9-1.13-1.8-2.25Z"/><path class="cls-8" d="M120.08,534.59h.45c.38,1.98,2.56-6.26,3.61-10.13.45-1.66.98-3.4,1.35-5.07q.9,1.13,1.8,2.25c-1.54,5.41-3.43,10.63-4.96,16.04-1.93,2.77-1.99-2.4-2.25-3.1Z"/><path class="cls-9" d="M121.43,508.13c.13-.09.6.14.45-1.13.14-.05.31.04.45,0,6.25,6.1,4.46,6.58,3.16,12.38-.37,1.67-.91,3.41-1.35,5.07-3.93-.72,1.49-14.87-2.71-16.33Z"/><path class="cls-15" d="M120.53,534.59c-.42-11.53-8.4-19.8.9-26.46,4.19,1.45-1.22,15.6,2.71,16.33-1.04,3.87-3.23,12.12-3.61,10.13Z"/><path class="cls-15" d="M119.18,450.14c1.26-8.12-.96-141.57,0-165.5,1.04.6,2.89.29,4.06.56q-.23,82.47-.45,164.94c-.4.03-2.5-1.1-3.61,0Z"/><path class="cls-8" d="M115.12,236.23c1.52,2.39,1.07,9.68,9.02,9.01-.83,1.02-1.77,1.83-1.8,1.97-.18.77.4,13.55,0,16.04-4.13-1.27-4.32,1.99-7.22,4.5,1.45-4.82,3.76-4.8,4.06-5.91.2-.78.21-15.55,0-16.33-.15-.53-4.92-3.31-4.06-9.29Z"/><path class="cls-8" d="M122.78,450.14q.23-82.47.45-164.94c1.49-2.97.87-.61,2.25-.56.31,21.84-1.87,156.89-.45,164.94-.93-.24-1.38.5-2.25.56Z"/><path class="cls-3" d="M117.37,213.15c.37-.94,1.71-3.06,1.8-3.66,1.36-8.8-1.04-153.93,0-179.3.79.66,1.12-.46,4.06-1.13q-.23,89.79-.45,179.58c-4.7-1.22-2.39,3.36-5.41,4.5Z"/><path class="cls-8" d="M122.78,208.64q.23-89.79.45-179.58c1.23-.28,1.56.66,1.8.56q-.23,89.51-.45,179.01h-1.8Z"/><path class="cls-12" d="M124.14,27.38c2.04-1.4,4.54-5.78,3.38-6.76-5.38.45-11.45-1.31-10.6,1.69-.92,3.61,5.22,5.04,2.25,5.63-2.81-1.38-4.63-5.21-4.06-9.01,5.26,0,10.52,0,15.78,0,.66,2.11-.54,3.53-1.35,5.07-3.01,3.75-6.27,6.43-5.41,3.38Z"/><path class="cls-2" d="M119.18,30.19c-.22-.8-5.66-2.96-4.96-11.82,1.22,0,.85.56.9.56-.57,3.8,1.25,7.63,4.06,9.01,1.08.53,1.78,1.61,4.96-.56-.86,3.05,2.4.37,5.41-3.38-1.09,2.07-2.53,4.84-4.51,5.63-.25.1-.58-.84-1.8-.56-2.94.66-3.27,1.78-4.06,1.13Z"/><path class="cls-13" d="M124.14,27.38c4.04-7.09-.79.19-7.22-5.07-.85-3,5.21-1.24,10.6-1.69,1.16.98-1.34,5.36-3.38,6.76Z"/><path class="cls-1" d="M119.18,27.94c2.96-.59-3.18-2.02-2.25-5.63,6.43,5.26,11.25-2.03,7.22,5.07-3.18,2.18-3.88,1.09-4.96.56Z"/><path class="cls-15" d="M119.18,284.64c-4.62-2.65-5.69-11.45-4.06-16.89,2.9-2.52,3.08-5.78,7.22-4.5,2.97.92,2.51,2.51,2.71,2.81-2.71,4.18.59,7.4-1.13,11.26-1.81-4.63,1.41-13.76-3.61-12.38-4.03,1.1-1.84,7.28-4.28,9.85,3.12,9,1.09,1.75,2.71,2.25.56,5.84.48,8.87,4.96,3.1.15,1.36,1.67,2.61,1.8,3.94.02.18-.01.38,0,.56-1.38-.05-.76-2.41-2.25.56-1.17-.27-3.02.03-4.06-.56Z"/><path class="cls-8" d="M123.69,280.14c.09-.12-.21-1,.23-1.69.1-.15,1.38.5,2.03-.84,2.43-5.01,1.62-7.67-.9-11.54-.2-.31.27-1.9-2.71-2.81.4-2.5-.18-15.27,0-16.04.03-.14.98-.95,1.8-1.97,1.33-1.64,3.51-2.9,4.96-4.5-2.04,4.2-3.96,4.46-4.06,4.78-.25.79-.23,16.09,0,16.89.4,1.41,10.17,4.66.45,21.67-.13-1.33-1.65-2.58-1.8-3.94Z"/><path class="cls-15" d="M125.04,266.06c2.52,3.88,3.33,6.53.9,11.54-.65,1.34-1.93.69-2.03.84-.44.69-.13,1.57-.23,1.69-4.48,5.77-4.4,2.74-4.96-3.1-1.62-.5.42,6.75-2.71-2.25,2.45-2.57.25-8.75,4.28-9.85,5.02-1.37,1.8,7.76,3.61,12.38,1.72-3.86-1.59-7.08,1.13-11.26Z"/><path class="cls-8" d="M162.92,537.4q2.48-8.87,4.96-17.73l2.25.84c-1.11,4.44-6.95,23.3-7.22,16.89Z"/><path class="cls-15" d="M157.96,511.5c8.25-8.25,9,5.33,12.18,1.13,2.3,5.78.76,4.84,0,7.88l-2.25-.84q-2.48,8.87-4.96,17.73c-.8-1.25-6.65-17.3-6.76-18.3-.64-5.72,1.63-7.24,1.8-7.6Z"/><path class="cls-15" d="M169.01,516.57h-.45q-.11-.14-.23-.28l.23-.28.23-.28.23-.28.23.28v.56q-.11.14-.23.28Z"/><path class="cls-8" d="M157.96,511.5c1.22-2.53,2.6-3.25,2.71-3.66.25-.96.3-19.32,0-20.27-.17-.55-2.68.33-4.96-9.29,2.27,1.9,1.57,8.13,7.22,9.01-1.92,1.22-2.85,24.75,1.35,19.42q0-9.71,0-19.42c2.54,0,3.96-1.87,4.06-.56-.41.49-1.6.63-1.8,1.41-.24.91-.21,18.22,0,19.14.08.34,2.7,3.08,3.61,5.35-3.18,4.2-3.93-9.37-12.18-1.13Z"/><path class="cls-8" d="M162.92,487.3c.43.07.91,0,1.35,0q0,9.71,0,19.42c-4.2,5.33-3.27-18.2-1.35-19.42Z"/><path class="cls-12" d="M164.27,487.3c-.44,0-.92.07-1.35,0-5.64-.87-4.95-7.11-7.22-9.01-.07-.28.03-.76,0-1.13,6.01,0,12.02,0,18.04,0-.02,5.07-3.08,6.75-5.41,9.57-.1-1.31-1.52.57-4.06.56Z"/><path class="cls-13" d="M158.86,480.54l.23-1.69c10.36.51,13.29-1.83,9.24,3.38-3.2-.12-6.96,2.14-9.47-1.69Z"/><path class="cls-4" d="M158.86,480.54c2.51,3.83,6.27,1.57,9.47,1.69-5.24,6.75-10.48,1.2-9.47-1.69Z"/><path class="cls-15" d="M160.66,210.33c1.38-8.86-.4-156.2.45-180.42-3.65-2.86-3.92-4.98-4.51-9.85,1.35,4.01,1.74,6.92,5.41,8.44.96.4,1.68.55,2.71.56.3,0,.61.04.9,0l-.9.84c-.39,36.92.94,74,.45,110.9,0,.55-1.35.94-1.35,1.13-.13,9.76.45,59.95,0,63.05-.04.3-2.03-.04-.9,3.66-2.38.51-.58,1.47-2.25,1.69Z"/><path class="cls-8" d="M162.92,208.64c-1.13-3.7.86-3.36.9-3.66.45-3.1-.13-53.29,0-63.05,0-.18,1.35-.57,1.35-1.13.49-36.9-.84-73.98-.45-110.9l.9-.84c3.38-.43,3.44-1.93,5.41-2.81-1.39,1.99-2.01,2.66-4.06,3.66,1.44,23.07-1.88,170.11,0,178.73-1.26.18-2.91-.25-4.06,0Z"/><path class="cls-12" d="M165.62,29.07c-.29.04-.6,0-.9,0,1.19-1.5,3.36-2.76,3.16-5.07,1.7-.31,2.46-.92,2.03-3.38-8.81.67-12.04-2.26-10.6,3.38.5,1.94,1.9,2.87,2.71,4.5-3.67-1.52-4.06-4.44-5.41-8.44,0-.06-1.21-.49,0-1.13,5.71,0,11.42,0,17.14,0,.16,3.13-1.18,5.13-2.71,7.32-1.97.89-2.03,2.39-5.41,2.81Z"/><path class="cls-7" d="M167.88,24c-2.16.4-5.85-1.69-8.57,0-1.44-5.64,1.78-2.71,10.6-3.38.43,2.46-.33,3.06-2.03,3.38Z"/><path class="cls-1" d="M162.02,28.5c-.8-1.63-2.21-2.56-2.71-4.5,2.71-1.69,6.4.4,8.57,0,.2,2.31-1.96,3.57-3.16,5.07-1.03-.01-1.75-.17-2.71-.56Z"/><path class="cls-12" d="M161.57,244.67c-1.49-.59-1.72-2.13-1.8-2.25,4.07,1.56,4.88,1.83,8.12-1.69,5.87-6.39-5.45-4.56-8.57-4.5-1.53.03-2.48.52-3.16,0q0-.56,0-1.13c5.41,0,10.82,0,16.23,0-.06,3.2-1.03,5.92-3.16,7.88-.9-.27-.95.47-1.35,1.13-1.72.82-4.6,1.24-6.31.56Z"/><path class="cls-6" d="M156.15,236.23c.68.52,1.63.03,3.16,0,.05.69-.38.51-.45.56-2.12,1.59-.11,4.21.9,5.63.08.12.31,1.66,1.8,2.25-.55-.06-.4.47-.45.56-3.04-1.24-5.08-4.96-4.96-9.01Z"/><path class="cls-5" d="M167.88,244.11c.4-.65.45-1.4,1.35-1.13-.51.47-.12.54-1.35,1.13Z"/><path class="cls-13" d="M167.88,240.73q-.11-1.41-.23-2.81c-1.89,4.67-7.6,4.04-8.79-1.13.08-.06.5.12.45-.56,3.11-.06,14.44-1.89,8.57,4.5Z"/><path class="cls-4" d="M159.76,242.42c-1.01-1.42-3.02-4.04-.9-5.63,1.19,5.16,6.91,5.8,8.79,1.13q.11,1.41.23,2.81c-3.24,3.52-4.05,3.25-8.12,1.69Z"/><path class="cls-15" d="M157.06,263.25c.41-.28,1.04-.74,1.35-1.13,1.19,3.59,3.83-5.8,8.12.28.81,6.5-2.97,13.73-.45,13.79-.48,2.66.03,5.71-1.35,8.16-.55,18.04,1.29,100.35.45,107.52-.06.54-1.26.02-1.35.56-.27,1.59.3,5.3,0,6.19-.05.15-2.05,1.02-2.25,1.69-.88,2.97.8,46.65.45,49.82-.04.38-1.6,4.08-2.71,5.63q.68-1.83,1.35-3.66c-1.01-26.28,2.03-160.02.45-170.57-.56-3.72-5.94-9.48-4.06-18.3Z"/><path class="cls-8" d="M164.72,450.14c-.92-.04-1.79-.03-2.71,0,.35-3.17-1.34-46.85-.45-49.82.2-.67,2.2-1.54,2.25-1.69.3-.89-.27-4.6,0-6.19.09-.55,1.29-.02,1.35-.56.84-7.17-1-89.48-.45-107.52,1.38-2.45.87-5.5,1.35-8.16.99-5.48,6.15-13.04-.23-17.45-3.47-2.4-5.17.57-7.44,3.38-.31.38-.95.85-1.35,1.13.91-4.28,3.51-5.55,3.61-5.91.6-2.16-.78-9.5.45-12.1.05-.1-.1-.62.45-.56,1.72.68,4.59.25,6.31-.56-.99,1.59-1.42,10.83-.9,12.67.17.62,5.9,3.67,4.96,10.7-.1.77-5.28,12.94-5.41,14.07-.94,8.35,1.63,142.59,0,168.6-.6-.02-1.2.02-1.8,0Z"/><path class="cls-9" d="M158.41,262.12c2.27-2.81,3.97-5.78,7.44-3.38,6.38,4.41,1.22,11.97.23,17.45-2.52-.06,1.26-7.3.45-13.79-4.29-6.08-6.93,3.31-8.12-.28Z"/><path class="cls-15" d="M78.14,536.27c2.14-8.61-9.98-25.09,2.48-27.02,1.86,1.13-.95,9.71,2.93,10.7-.84,3.58-3.89,11.93-4.96,16.89-.02-.03-.12.17-.45-.56Z"/><path class="cls-9" d="M73.63,510.94c.86,1.77,2.6-1.96,4.73-3.38.35-.23,1.59.23,2.03,0,5.88,4.64,4.64,6.08,3.16,12.38-3.88-.98-1.07-9.57-2.93-10.7-12.46,1.93-.34,18.42-2.48,27.02-.4-.89-6.24-17.84-6.31-18.86-.24-3.17.69-3.98,1.8-6.47Z"/><path class="cls-8" d="M78.59,536.84c1.07-4.96,4.12-13.31,4.96-16.89,1.49-6.31,2.72-7.74-3.16-12.38.15-.08.5-1.3,2.71-2.25.32,1.57,4.92,5.17,4.51,10.41-.12,1.52-6.85,17.58-7.22,22.52-1.84,1.08-1.73-1.27-1.8-1.41Z"/><path class="cls-12" d="M84.45,483.36c.1-.23,2.61-2.25.68-4.5q-5.07.56-10.15,1.13c-1.87,1.98,2.82,4.85,3.61,7.32-3.66-.31-5.18-5.58-6.31-9.01v-1.13c5.71,0,11.42,0,17.14,0-1.54,8.09-4.25,8.57-4.51,9.01-4.37,2.01-2.06.9-.45-2.81Z"/><path class="cls-5" d="M78.59,487.86c-.04-.17.05-.4,0-.56,2.11.18,5-2.12,4.51-4.5.13-.01.86-2.62,1.35.56-1.61,3.71-3.92,4.82.45,2.81-.87,1.43-1.59,1.27-1.8,2.25q-2.25-.28-4.51-.56Z"/><path class="cls-8" d="M73.63,510.94c1.26-2.84,3.09-4.49,3.16-4.78.2-.87.23-17.16,0-18.01-.15-.56-4.57-2.51-4.51-9.85,1.13,3.43,2.66,8.69,6.31,9.01.05.16-.04.39,0,.56l-.9.28c.55,9.91-1.78,20.44,2.71,16.89q-.9-8.58-1.8-17.17,2.25.28,4.51.56c-.18.82-.16,16.07,0,16.89-2.2.95-2.56,2.17-2.71,2.25-.44.23-1.68-.23-2.03,0-2.13,1.42-3.88,5.15-4.73,3.38Z"/><path class="cls-8" d="M78.59,487.86q.9,8.58,1.8,17.17c-4.48,3.55-2.16-6.97-2.71-16.89l.9-.28Z"/><path class="cls-13" d="M83.1,482.79c-2.57.25-7.36.95-8.12-2.81q5.07-.56,10.15-1.13c1.93,2.26-.58,4.27-.68,4.5-.5-3.19-1.22-.58-1.35-.56Z"/><path class="cls-1" d="M78.59,487.3c-.78-2.47-5.48-5.34-3.61-7.32.75,3.76,5.55,3.06,8.12,2.81.49,2.39-2.4,4.68-4.51,4.5Z"/><path class="cls-8" d="M76.79,450.14c-.45-21.98,2.05-161.21.45-169.44l1.35-.56c.04.17-.03.38,0,.56,1.16,7.51-.67,125.24,0,146.65q.79.14,1.58.28c.04-19.61.96-39.23,1.13-58.83.16-18.52-1.26-78.28,0-89.23.06-.54-.07-1.15,0-1.69.48-3.65,2.22-6.66,2.71-10.13,1.84-.51,2.63-3.28,3.16-5.07,1.02,4.73-3.14,12.18-4.51,17.17,2.22,26.49-1.53,159.75,0,169.73h-1.35q-2.25.28-4.51.56Z"/><path class="cls-15" d="M84,267.75c1.16-8.28-2.78-12.57-8.12-8.44-.38.29-1.64,3.51-2.25,1.69,1.56-3.25,3.01-3.66,3.16-4.22.14-.53.15-10.73,0-11.26-.3-1.08-4.79-2.28-4.51-9.29,4.17.3,7.43-1.08,6.76,1.69-.23.35.14,8.18-3.83-.56-3.94,1.55-.34,4.29,1.13,5.63.11.1-.21,1.78,2.03,2.25,5.12,1.07,7.53-4.47,9.7-9.01.3,4.81-4.81,8.2-4.96,8.73-.15.53-.13,10.72,0,11.26.15.65,3.35,3.22,4.06,6.47-.52,1.78-1.32,4.55-3.16,5.07Z"/><path class="cls-15" d="M75.44,212.58c.27-.85,1.7-2.97,1.8-3.66,1.35-8.76-1.03-153.14,0-178.45-2.79-1.89-3.23-3.18-4.51-6.47.31.09.64.36.9.56,1.82,1.43.69,3.86,7.22,3.94.44,0,.92.07,1.35,0-.13.63.88,1.05.9,1.13.23,1.03-.02,7.93,0,10.7l-2.25.28q0,83.88,0,167.76l.9.28c-3.01,1.39-2.64-1.06-6.31,3.94Z"/><path class="cls-8" d="M81.75,208.64l-.9-.28q0-83.88,0-167.76l2.25-.28c.17,23.53-1.82,160.08-.45,168.32-.3.04-.72-.08-.9,0Z"/><path class="cls-12" d="M82.2,28.5c-.43.07-.91,0-1.35,0,.32-1.4,1.2-1.04,1.35-1.13,2.15-1.28,4.28-6.12,3.38-6.76q-6.65-.28-13.3-.56c0-.06-1.17-.67,0-1.13,5.56,0,11.12,0,16.68,0,.95,2.42-.82,4.49-1.8,6.19-.79.13-2.11,2.73-2.25,2.81-.85.48-1.81.42-2.71.56Z"/><path class="cls-6" d="M84.91,27.94c.15-.08,1.47-2.68,2.25-2.81-1.18,2.03-.39,1.29-2.25,2.81Z"/><path class="cls-2" d="M82.2,28.5c.89-.14,1.86-.08,2.71-.56-.21.17-.75,1.26-1.8,1.69-.02-.08-1.03-.49-.9-1.13Z"/><path class="cls-7" d="M82.2,27.38c3.7-7.14-.89-.24-8.34-5.63l-.23,2.81c-.26-.2-.59-.47-.9-.56-1.27-3.28-.48-2.59-.45-3.94q6.65.28,13.3.56c.9.64-1.23,5.48-3.38,6.76Z"/><path class="cls-4" d="M73.63,24.56l.23-2.81c7.45,5.39,12.04-1.51,8.34,5.63-.15.09-1.04-.28-1.35,1.13-6.52-.08-5.4-2.51-7.22-3.94Z"/><path class="cls-12" d="M76.34,242.98c2.51,1.17,5.26.62,7.22-1.69,3.45-4.08.64-6.91-3.16-3.94-.06.05-.97-.01-1.35.56.66-2.77-2.6-1.39-6.76-1.69,0-.06-.62.21-.45-1.13,5.57,0,11.12,0,16.68,0,.17,1.31-.43,1.07-.45,1.13-2.16,4.54-4.57,10.08-9.7,9.01-2.24-.47-1.92-2.15-2.03-2.25Z"/><path class="cls-4" d="M76.34,242.98c-1.47-1.34-5.07-4.08-1.13-5.63,3.98,8.75,3.6.91,3.83.56.39-.57,1.29-.52,1.35-.56-.53,4.97,1.83,4.35,3.61.84q-.23,1.55-.45,3.1c-1.95,2.31-4.7,2.86-7.22,1.69Z"/><path class="cls-13" d="M80.4,237.35c3.8-2.97,6.61-.14,3.16,3.94q.23-1.55.45-3.1c-1.77,3.51-4.14,4.13-3.61-.84Z"/><path class="cls-15" d="M78.59,280.7q1.35-.56,2.71-1.13c-1.26,10.95.16,70.71,0,89.23-.17,19.6-1.09,39.22-1.13,58.83q-.79-.14-1.58-.28c-.67-21.41,1.16-139.13,0-146.65Z"/><path class="cls-15" d="M78.59,263.81c-.25-2.66.15-5.94-2.71-4.5,5.34-4.13,9.27.17,8.12,8.44-.48,3.47-2.23,6.48-2.71,10.13q-.68.14-1.35.28c-.43-7.98,1.93-16.45-1.35-14.35Z"/><path class="cls-15" d="M78.59,280.7c-.03-.18.04-.39,0-.56-.26-1.28-3.63-5.96-2.03-6.19,2.76,6.26,2.55-4.63,2.03-10.13,3.28-2.1.92,6.37,1.35,14.35q.68-.14,1.35-.28c-.07.54.06,1.14,0,1.69q-1.35.56-2.71,1.13Z"/><path class="cls-15" d="M73.63,261c.61,1.82,1.87-1.39,2.25-1.69,2.85-1.44,2.45,1.84,2.71,4.5.52,5.5.73,16.39-2.03,10.13-1.6.23,1.77,4.91,2.03,6.19l-1.35.56c-.44-2.29-8.23-10.08-3.61-19.7Z"/><path class="cls-15" d="M75.66,272.26c.11-2.7.23-3.96,1.13-.84q-.56.42-1.13.84Z"/><path class="cls-8" d="M36.2,535.15q.23-1.13.45-2.25c1.1,5.72.47,2.86,3.16-6.76,1.53-5.5,5.52-13.53.23-17.45-4.82-3.57-5.96,3.62-7.89,1.69.52-1.21,2.57-3.09,2.71-3.66.21-.89.26-17.71,0-18.58-.1-.35-1.61-.88-3.16-3.66h.45c1.91,3.48,7.04,3.33,9.92,2.25-1.51,2.29-2.09,16.07-1.35,18.86.2.77,5.87,4.54,4.96,11.26-.15,1.14-6.66,17.01-7.22,21.39-1.54,1.18-1.49-1.08-2.25-3.1Z"/><path class="cls-9" d="M32.14,510.38c1.94,1.93,3.07-5.26,7.89-1.69,5.29,3.92,1.31,11.95-.23,17.45-2.89.72,1.85-12.82,0-15.48-10.89-4.87-4.56,14.96-3.16,22.24q-.23,1.13-.45,2.25c-.74-1.96-5.81-17.85-5.86-18.86-.13-2.77.87-3.75,1.8-5.91Z"/><path class="cls-12" d="M32.14,484.48c-.84-1.53-1.26-2.76-.45-4.5,1.71,6.21,6.29,7.45,10.37,3.38,6.6-6.58-6.91-4.1-9.47-4.5q-1.35,0-2.71,0c-.04-.74.03-1.5,0-2.25,5.66-.02,11.45.57,17.14.56.04,3.17-1.26,5.92-3.16,7.88-1.05-.2-1.31.93-1.8,1.69-2.89,1.08-8.01,1.23-9.92-2.25Z"/><path class="cls-6" d="M29.89,478.85q1.35,0,2.71,0v.56c-.19.06-.88.51-.9.56-.81,1.75-.39,2.98.45,4.5h-.45c-.39-.71-1.55-1-1.8-5.63Z"/><path class="cls-2" d="M42.07,486.74c.5-.76.75-1.89,1.8-1.69-.73.76-.27,1.11-1.8,1.69Z"/><path class="cls-8" d="M32.14,261c.93-2.14,3.22-3.81,3.61-5.91,2.19-11.91-4.96-10.68-4.96-18.86,3.26,9.71,8.54,12.27,14.88,4.5-1.83,3.49-6.16,6.49-4.06,14.64-6.27,5.13-.37-9.2-5.19-10.13l-.23,12.38c-.81.24-3.86,4.54-4.06,3.38Z"/><path class="cls-15" d="M35.3,281.26c-.56-3.74-7.16-10.99-3.16-20.27.2,1.16,3.25-3.14,4.06-3.38,4.22-1.24,8.67,3.09,7.22,10.41-.35,1.75-3.74,8.83-4.06,10.98.08-.66-.72-.73-.9-.56,1.31-4.04,2.06-19.52-1.58-19.14-4.43,2.48-1.81,8.92-1.13,13.79.56,3.96-.56,6.48.9,5.91.16,1.25-.15,2.37-1.35,2.25Z"/><path class="cls-12" d="M30.79,236.23v-1.13c5.52-.02,11.12-.57,16.68-.56.07,4.26-1.38,5.38-1.8,6.19-6.34,7.77-11.62,5.2-14.88-4.5Z"/><path class="cls-13" d="M42.07,240.17s.15-1.07-.23-1.13c-.46-.07-2.39,4.48-8.34-.56-1.33-2.16,12.16-3.29,10.82-.28-2.04,4.87-1.44,2.13-2.25,1.97Z"/><path class="cls-1" d="M33.5,238.48c5.95,5.04,7.88.49,8.34.56.38.06.18,1.12.23,1.13-2.63,7.8-8.77.98-8.57-1.69Z"/><path class="cls-11" d="M31.69,24.56l.45-2.25c.62,3.94,4.27,5.87,7.22,5.63-4.16,2.65-5-.14-7.67-3.38Z"/><path class="cls-13" d="M30.34,218.78c.79-.31,3.73-6.63,4.06-7.88,1.49-.18,1.23-3.63,4.96-2.81h1.35c1.14,2.19,4.67,10.13,6.31,10.7-.3.57-.59,2.05-1.13,2.25-.82.31-18.25,1.01-15.56-2.25Z"/><path class="cls-13" d="M157.51,217.65c.65-2.45,2.83-5.19,3.16-7.32,1.68-.21-.12-1.18,2.25-1.69,1.15-.25,2.79.18,4.06,0,.68,3.13,3.5,6.05,4.51,9.01,2.16,6.31-3.82,2.33-14.66,3.38-.76-.54.26-1.81.68-3.38Z"/><path class="cls-13" d="M197.64,219.34c1.23-1.42,2.98-4.89,3.61-6.76,3.35-4.19,2.42-3,7.22-3.94.1.6,4.3,9.72,5.41,10.13,1.78,3.09-10.7,2.64-16.01,2.25-.4-.03-.16-1.68-.23-1.69Z"/><path class="cls-13" d="M73.18,217.65c.66-1.79,1.69-3.3,2.25-5.07,3.67-5,3.31-2.55,6.31-3.94.18-.08.6.04.9,0,.27,1.62,4.27,7.84,4.96,10.13,2.29,4-8.94,1.63-15.56,2.25-.43-.27.96-2.92,1.13-3.38Z"/><path class="cls-13" d="M112.86,219.34c2.41-.51,3.54-3.7,4.51-6.19,3.03-1.14.71-5.73,5.41-4.5h1.8c.93,2.16,3.65,9.51,5.41,10.13,1.49,3.55-15.78,3.06-17.14.56Z"/><path class="cls-13" d="M201.25,480.54c.16-.1-.88-1.61,2.93-1.13l.68,3.94c-1.18-.2-3.8-1.06-3.61-2.81Z"/><path class="cls-13" d="M75.44,460.28c.67-4.26,3.55-7.76,5.86-10.7h1.35c.36,2.38,3.07,5.69,3.61,7.88,1.22,4.94-8.23,2.32-10.82,2.81Z"/><path class="cls-8" d="M38.91,449.02c1.45-25.33-.89-160.89.45-170.01.32-2.14,3.71-9.22,4.06-10.98,1.45-7.32-2.99-11.66-7.22-10.41l.23-12.38c4.82.93-1.08,15.26,5.19,10.13.92,3.56,10.78,2.52-.9,26.74,2.19,29.39-1.39,151.58.45,166.91q-1.13,0-2.25,0Z"/><path class="cls-13" d="M35.75,450.14c.15-.13.02-1.6,3.16-1.13q1.13,0,2.25,0c.34,2.81,3.28,8.69,3.61,9.01.32,4.19-7.35,1.51-10.6,2.25-2.51-1.36,4.32-7.95,1.58-10.13Z"/><path class="cls-15" d="M202.6,449.58c-1.14-26.73,1.49-155.69,0-167.19,3.57-.21,5.91-11.37,5.86-14.92,0-.48-1.34-2.11-1.35-2.25-.02-.2.86-.91.45-3.94-.11-.84-2.26-1.21-.45-2.53,7.72,4.97,1.65,12.46.45,19.14-.03.17-.68.25-.9,3.38q-.68.99-1.35,1.97c1.56,14.38-.9,92.12,0,96.83.08.42.6.29.9.28-.17,23.08.13,46.16,0,69.24h-3.61Z"/><path class="cls-13" d="M164.72,450.14c.6.02,1.2-.02,1.8,0,.09.49,3.8,6.32,4.51,7.88.11,3.53-11.32,2.7-11.27,1.41,4.49-5.86,1.46-8.94,4.96-9.29Z"/><path class="cls-8" d="M39.36,208.08c-.25-52.62-.54-105.29,0-157.9,0-.18-.91-3.2-.9-3.38s.9-3.2.9-3.38c.16-5.81-1.51-8.7.9-14.35,2.32.31,3.8-1.82,5.41-3.38-1.54,2.6-2.04,3.19-4.51,4.78q-.23,88.8-.45,177.61h-1.35Z"/><path class="cls-8" d="M201.25,212.58c.53-1.57.99-1.06,1.35-4.5l3.16-.28q-.23-88.1-.45-176.2.9-1.27,1.8-2.53c2.71-.2,3.76-1.67,5.86-3.38-1.65,2.71-2.33,2.97-4.51,4.78,1.08,24.74-1.41,169.44,0,178.17-4.79.94-3.87-.25-7.22,3.94Z"/><path class="cls-15" d="M202.6,208.08c1.92-18.1-1.46-146.09,0-178.17-.19-.68-4.37-2.45-4.96-9.29,2.13-.29.77,9.08,9.47,8.44q-.9,1.27-1.8,2.53.23,88.1.45,176.2l-3.16.28Z"/><path class="cls-3" d="M33.5,452.96c.27-.85,1.35-2.44,1.8-3.66-.95-24.78,1.25-159.71,0-168.04,1.2.12,1.51-1,1.35-2.25,1.79,1.61,1.44-.22,1.8-.56.18-.17.98-.1.9.56-1.34,9.12,1,144.68-.45,170.01-3.14-.47-3.01,1-3.16,1.13-.95.82-.72,2.96-2.25,2.81Z"/><path class="cls-8" d="M207.56,449.58h-1.35c.13-23.08-.17-46.16,0-69.24,0-.07.9-.44.9-.84.23-32.71-.41-65.52-.45-98.23.22-3.13.87-3.2.9-3.38q.9.84,1.8,1.69c-.18.82-.89,1.86-.9,1.97-1.38,9.93,1.05,142.24,0,168.04h-.9Z"/><path class="cls-13" d="M207.56,449.58h.9q2.25,4.78,4.51,9.57c-.06,0-.34,1.11-.68,1.13-3.06.18-8.67-1.29-10.37,1.13-2.49.13,2.19-11.15,5.64-11.82Z"/><path class="cls-15" d="M34.4,210.9c.28-1.05.89-1.86.9-1.97,1.3-8.8-.99-152.96,0-179.01-2.67-1.33-3.47-2.98-4.51-5.91.24.09.87.52.9.56,2.67,3.24,3.5,6.03,7.67,3.38,1.62-1.03,1.8-1.37,2.71-3.38.24.08.61-.04.9,0-.88,2.46-2.08,3.04-2.71,4.5-2.41,5.65-.74,8.55-.9,14.35,0,.18-.9,3.2-.9,3.38s.9,3.2.9,3.38c-.54,52.62-.25,105.28,0,157.9-3.73-.81-3.48,2.63-4.96,2.81Z"/><path class="cls-8" d="M204.41,536.27c-.21-1.95.45-1.6.45-1.69l2.71-9.01c1.59-5.61,6.09-15.19-1.35-18.01,2.51-3.12.04-2.6,0-3.1-.34-4.15.42-10.51,0-14.07-.05-.42-3.44.04.9-3.1,2.44-.3,4.02-2.27,5.86-3.94-1.74,3.07-4.4,4.94-4.51,5.35-.2.78-.18,15.54,0,16.33,1.38,5.95,10.73,1.4-2.93,34.06-1.53-1.35-1.04-2.63-1.13-2.81Z"/><path class="cls-8" d="M198.99,510.94c1.18-2.85,3.52-4.96,3.61-5.35.19-.84.23-16.63,0-17.45-.19-.67-1.95-.21-4.06-6.47.46-1.45.66.66,1.35,1.69,2.07,3.08,3.86,4.35,7.22,3.94-4.35,3.14-.95,2.68-.9,3.1.42,3.57-.34,9.93,0,14.07.04.5,2.51-.03,0,3.1-2.4-.91-2.55-.28-4.51,1.13-1.15.82-1.59,2.35-2.71,2.25Z"/><path class="cls-12" d="M207.11,487.3c-3.35.41-5.14-.86-7.22-3.94,0-.37-.02-.75,0-1.13,5.52,6.71,11,2.16,8.57.56.14-.05-.15-1.67,2.48-.56,1.86-4.87-1.44-2.57-3.83-2.81-2.46-.25-4.94-1.01-7.44-.56-.46.08.21,2.53-2.03.56-.11-.69.07-1.53,0-2.25,5.86.02,11.72,0,17.59,0-.47,3.36-.85,3.72-2.25,6.19-1.85,1.67-3.42,3.64-5.86,3.94Z"/><path class="cls-14" d="M198.99,510.94c1.12.1,1.56-1.43,2.71-2.25q.45.56.9,1.13c-5.91,3.73,2.65,18.65,2.25,24.77,0,.09-.67-.26-.45,1.69-.91-2.01-6.67-18.37-6.76-19.42-.3-3.3.34-3.47,1.35-5.91Z"/><path class="cls-5" d="M204.86,483.36l-.68-3.94c-3.81-.48-2.77,1.03-2.93,1.13-.25.15-1.21-1.74-1.35,1.69-.02.37,0,.75,0,1.13-.69-1.03-.89-3.14-1.35-1.69-.04-.12-.72-1.04-.9-2.25,2.24,1.97,1.57-.48,2.03-.56,2.5-.44,4.98.31,7.44.56-2-.06-.84,2.41-.9,3.94-.44.02-.93.07-1.35,0Z"/><path class="cls-13" d="M114.22,462.53c.92-3.24.39-3.22.45-3.38.83-2.18,4.13-6.55,4.51-9.01,1.1-1.1,3.21.03,3.61,0,.87-.06,1.32-.8,2.25-.56.32,1.8,3.53,9.1,4.73,9.57,1.29.51,25.77.5,27.06,0,.25-.1,1.98-2.68,2.48-3.38,1.1-1.55,2.66-5.25,2.71-5.63.91-.03,1.79-.04,2.71,0-3.5.35-.47,3.43-4.96,9.29-.05,1.29,11.38,2.12,11.27-1.41.16.35.31.76.45,1.13.3.78.69,2.45.9,3.38-19.39.07-38.78.02-58.17,0Z"/><path class="cls-8" d="M29.89,462.53c-.06-1.19.52-2.33.9-3.38.78-2.16,2.02-4.07,2.71-6.19,1.54.15,1.31-1.99,2.25-2.81,2.74,2.18-4.09,8.77-1.58,10.13,3.24-.74,10.92,1.93,10.6-2.25,2.28,2.2,23.58,1.08,28.41.56-.5,1.21-1.12,2.6-1.35,3.94-13.98-.03-27.96.11-41.94,0Z"/><path class="cls-13" d="M197.64,462.53c1.07-.83.61-2.39.9-3.38,1.08-3.64,3.66-6.68,4.06-9.57h3.61q.68,0,1.35,0c-3.45.67-8.12,11.96-5.64,11.82,1.7-2.42,7.32-.95,10.37-1.13.34-.02.62-1.12.68-1.13.15,0,.3,0,.45,0,0,.39-.12.98.23,1.13,1.31.57,23.72-.07,27.73-.56-.32.6-.95,2.72-1.13,2.81-1.97,1.02-36.97-.03-42.61,0Z"/><path class="cls-8" d="M75.44,462.53c.56-1.82-.05-1.96,0-2.25,2.6-.49,12.04,2.13,10.82-2.81,5.12,3.6,19.75.81,28.41,1.69-.06.15.47.14-.45,3.38-12.93-.01-25.85.03-38.78,0Z"/><path class="cls-8" d="M4.19,459.15c3.36-.86,20.3.64,26.61,0-.38,1.04-.96,2.19-.9,3.38-8.94-.07-17.89.05-26.83,0-1.31-2.98-.8-2.89,1.13-3.38Z"/><path class="cls-8" d="M172.39,462.53c-.21-.93-.6-2.6-.9-3.38q13.53,0,27.06,0c-.29.98.17,2.55-.9,3.38-8.42.05-16.84-.03-25.25,0Z"/><path class="cls-12" d="M207.11,29.07c-8.7.64-7.34-8.73-9.47-8.44-.05-.55.03-1.13,0-1.69,5.87,0,11.72,0,17.59,0,.18,2.86-.99,4.67-2.25,6.76-2.1,1.7-3.15,3.18-5.86,3.38Z"/><path class="cls-12" d="M204.86,245.23c-3.79-.99-5.54-4.44-7.22-8.44-.01-.56,0-1.13,0-1.69,5.71-.04,11.43.07,17.14,0-.15,4.37-2.65,8.02-5.86,9.57-.11.05-2.14.56-2.25.56-.28,0-1.72.02-1.8,0Z"/><path class="cls-12" d="M40.26,29.07c.63-1.47,1.83-2.05,2.71-4.5.29-.81,1.55-3.25.68-3.94-2.85.38-10.49-.52-11.72,0-1.48.62.21,4.52-2.03-.56v-1.13c6.01.06,12.03-.03,18.04,0,.21,2.84-1.02,4.68-2.25,6.76-1.61,1.56-3.09,3.68-5.41,3.38Z"/><path class="cls-13" d="M71.83,462.53c.24-1.34.86-2.73,1.35-3.94,1.17-2.84,2.56-5.52,3.61-8.44q2.25-.28,4.51-.56c-2.31,2.94-5.2,6.44-5.86,10.7-.05.29.56.43,0,2.25-1.2,0-2.41,0-3.61,0Z"/><path class="cls-15" d="M36.65,532.9c-1.4-7.28-7.73-27.11,3.16-22.24,1.85,2.66-2.89,16.2,0,15.48-2.68,9.62-2.06,12.48-3.16,6.76Z"/><path class="cls-15" d="M204.86,534.59c.4-6.12-8.17-21.04-2.25-24.77,5.98-3.76,5.13,6.73,4.96,14.35,0,.13-2.21,1.03,0,1.41l-2.71,9.01Z"/><path class="cls-9" d="M202.6,509.82q-.45-.56-.9-1.13c1.96-1.4,2.11-2.04,4.51-1.13,7.45,2.82,2.95,12.41,1.35,18.01-2.21-.38,0-1.27,0-1.41.17-7.62,1.01-18.12-4.96-14.35Z"/><path class="cls-1" d="M199.9,482.23c.15-3.43,1.11-1.54,1.35-1.69-.19,1.75,2.43,2.62,3.61,2.81.43.07.92.02,1.35,0,.82-.04,1.49-.29,2.25-.56,2.43,1.6-3.05,6.15-8.57-.56Z"/><path class="cls-13" d="M206.21,483.36c.06-1.53-1.09-4,.9-3.94,2.39.24,5.69-2.05,3.83,2.81-2.63-1.11-2.34.51-2.48.56-.77.27-1.43.53-2.25.56Z"/><path class="cls-13" d="M42.07,483.36c1.25-4.72-1.96.73-3.38-.56-1.18-9.09.12,6.55-6.09-3.38v-.56c2.56.4,16.07-2.07,9.47,4.5Z"/><path class="cls-1" d="M31.69,479.98c.03-.05.71-.5.9-.56,6.21,9.92,4.91-5.71,6.09,3.38,1.42,1.29,4.63-4.15,3.38.56-4.09,4.07-8.67,2.84-10.37-3.38Z"/><path class="cls-15" d="M199.45,260.43c2.7-2.19,4.5-3.72,7.67-1.69-1.81,1.32.34,1.69.45,2.53.41,3.03-.47,3.74-.45,3.94.02.14,1.35,1.77,1.35,2.25.04,3.54-2.29,14.7-5.86,14.92-.86-6.63-7.99-12.45-3.16-21.95Z"/><path class="cls-8" d="M207.56,277.89c1.2-6.68,7.27-14.17-.45-19.14-3.16-2.03-4.97-.5-7.67,1.69,1.2-2.37,3.03-3.69,3.16-4.22.13-.54.18-10.74,0-11.26-.17-.5-4.81-1.95-4.96-8.16,1.67,4,3.42,7.46,7.22,8.44-.65,15.65,2.54,15.83,1.8,0,.11,0,2.15-.51,2.25-.56-1.65,16.57,4.31,14.95,4.96,19.42.74,5.06-3.46,10.69-4.51,15.48q-.9-.84-1.8-1.69Z"/><path class="cls-7" d="M42.07,24.56c-1.77-.6-3.43.37-5.19,0-2.65-.55-3.83-3.26-4.73-2.25l-.45,2.25s-.67-.48-.9-.56c-.07-.19-1.22-.85-.9-3.94,2.24,5.08.55,1.18,2.03.56,1.24-.52,8.88.38,11.72,0,.87.69-.39,3.13-.68,3.94-.29-.04-.66.08-.9,0Z"/><path class="cls-7" d="M208.46,26.81c3.77-5.24-3.09-.91-8.12-3.94-1.24-4.3,2.42-1.51,11.05-2.25.57,2.85-.98,5.2-2.93,6.19Z"/><path class="cls-1" d="M200.35,22.87c5.02,3.03,11.88-1.3,8.12,3.94-3.62,1.84-6.75.83-8.12-3.94Z"/><path class="cls-13" d="M209.37,241.29c2.53-6.01-1.2-.7-1.58-.56-6.33,2.23-6.77-4.85-7.89-2.81-.05-.12-1.53.44-.68-1.69,2.76,1.05,19.27-1.24,10.15,5.07Z"/><path class="cls-4" d="M199.9,237.92c1.12-2.04,1.56,5.05,7.89,2.81.38-.13,4.11-5.45,1.58.56-4.83,3.34-7.22,2.41-9.47-3.38Z"/><path class="cls-8" d="M204.86,245.23c.09.02,1.52,0,1.8,0,.73,15.83-2.46,15.65-1.8,0Z"/><path class="cls-8" d="M206.66,281.26c.04,32.71.69,65.53.45,98.23,0,.41-.9.77-.9.84-.3,0-.82.14-.9-.28-.9-4.71,1.56-82.45,0-96.83q.68-.99,1.35-1.97Z"/><path class="cls-15" d="M203.28,277.89c-1.55-.82-2.85-6.99-.68-4.22q.34,2.11.68,4.22Z"/><path class="cls-15" d="M200.57,265.5c-.57-.51-.24-2.47.45-1.13.29.56-.4,1.17-.45,1.13Z"/><path class="cls-15" d="M36.65,279.01c-1.46.57-.35-1.95-.9-5.91-.68-4.88-3.3-11.31,1.13-13.79,3.64-.38,2.89,15.1,1.58,19.14-.36.34-.01,2.17-1.8.56Z"/><path class="cls-1" d="M39.36,27.94c-2.95.24-6.6-1.69-7.22-5.63.9-1.01,2.08,1.7,4.73,2.25,1.76.37,3.42-.6,5.19,0-.9,2.01-1.08,2.34-2.71,3.38Z"/><path class="cls-15" d="M239.58,477.17c-8.31-.62-16.11,0-24.35,0-5.86,0-11.72.02-17.59,0-7.98-.02-15.93,0-23.9,0-6.02,0-12.02,0-18.04,0-8.27,0-16.54,0-24.8,0-5.56,0-11.12,0-16.68,0-8.27,0-16.53-.01-24.8,0-5.71,0-11.42,0-17.14,0-8.42,0-16.84,0-25.25,0-5.68,0-11.48-.58-17.14-.56-6.32.02-22.19-.55-25.48,0-.38.06-.18,1.11-.23,1.13-.53.23-.47-1.29-.68-1.13-.63.48.73,2.85-2.03,2.25-.1-6.94-1.63-17.75-1.35-28.43.01-.51,1.34-.05,1.35-.56,1.07-46.12-1.11-92.33.45-138.48-1.59-2.35,0-5.86,0-6.19-.04-22.67-1.22-44.87,0-67.55C.08,226.59-.22,215.2.13,203.86c.02-.51,1.34-.05,1.35-.56.24-8.67-.47-12.83-.45-13.51,1.05-44.3,1.09-89.08.9-133.42-.02-3.73-.88-8.09-.9-11.82-.06-8.09,1.17-16.64.9-24.77,0-.2-1.72-1.79-1.8-3.38C-.06,12.78-.21,3.59,2.83,2.61h239.23c.58-.9,1.32-1.53,2.03-2.25,1.81-1.07.98.49.9,1.69-1.6,26.12-.44,64.7-.45,92.32q-.45,38.28-.9,76.56c-.07-13.8.1-27.6,0-41.38,0-.88-1.35-1.57-1.35-1.69-.28-36.64,1.12-73.57-.23-110.05-.23-.2-.89.82-2.48.56-7.69-1.25-15.92-.59-23.67-.56-.33,0-.62,1.13-.68,1.13-5.86,0-11.72,0-17.59,0-.06,0-.35-1.13-.68-1.13-7.52,0-15.03,0-22.55,0-.33,0-.62,1.13-.68,1.13-5.71,0-11.42,0-17.14,0-.06,0-.35-1.13-.68-1.13-7.97,0-15.93,0-23.9,0-.19,0-.6,1.13-1.13,1.13-5.26,0-10.52,0-15.78,0-.05,0,.32-.56-.9-.56-8.01,0-16.09-.56-24.13-.56-.19,0-.6,1.13-1.13,1.13-5.56,0-11.13,0-16.68,0-.06,0-.35-1.13-.68-1.13-7.67-.02-15.33.02-23,0-.32,0-.62,1.13-.68,1.13-6.01-.03-12.03.06-18.04,0-.06,0-.35-1.12-.68-1.13-2.87-.05-24.52-.58-25.03.84q0,99.92,0,199.84c4.3-.05,24.34.99,26.15.28-2.69,3.26,14.74,2.56,15.56,2.25.54-.2.83-1.68,1.13-2.25,1.28.44,23.42.45,26.15-1.13-.17.46-1.56,3.11-1.13,3.38,6.62-.62,17.85,1.75,15.56-2.25,6.78-.72,19.95,1.69,25.25.56,1.36,2.5,18.63,2.99,17.14-.56,1.33.47,24.73,1.21,27.51-1.13-.42,1.57-1.44,2.84-.68,3.38,10.83-1.05,16.82,2.93,14.66-3.38,4.27,3.34,17.48,1.11,26.15,1.69.07,0-.18,1.66.23,1.69,5.31.39,17.78.84,16.01-2.25,2.59.96,24.44-.84,25.7-.56.53.12.12,1.25,2.25,1.41-.16,3.97,2.1,14.48-2.25,14.92-1.77.18-17.64-.67-24.13-.56-.33,0-.62,1.13-.68,1.13-5.7.07-11.42-.04-17.14,0-.06,0-.35-1.13-.68-1.13-7.97.04-15.93-.01-23.9,0-.33,0-.62,1.13-.68,1.13-5.41,0-10.82,0-16.23,0-.06,0-.35-1.13-.68-1.13-8.12,0-16.23,0-24.35,0-.32,0-.62,1.13-.68,1.13-5.26,0-10.52,0-15.78,0-.06,0-.35-1.13-.68-1.13-8.27,0-16.53,0-24.8,0-.32,0-.62,1.13-.68,1.13-5.57,0-11.12,0-16.68,0-.06,0-.35-1.13-.68-1.13-7.88,0-15.82.57-23.67.56-5.56,0-11.16.55-16.68.56-.06,0-.35-1.13-.68-1.13-3,0-25.4-.64-25.93.84q0,112.17,0,224.33c-1.92.49-2.44.4-1.13,3.38,8.94.05,17.89-.07,26.83,0,13.98.11,27.96-.03,41.94,0,1.2,0,2.41,0,3.61,0,12.93.03,25.85-.01,38.78,0,19.39.02,38.78.07,58.17,0,8.42-.03,16.84.05,25.25,0,5.65-.03,40.65,1.02,42.61,0,.18-.09.81-2.21,1.13-2.81,2.4-4.58.43-9.21,1.35-14.64,2.25.43-.77,10.59,1.8,11.82.02,10.51-.05,21.02,0,31.52-3.43,10.94-1.45-10.69-1.8-11.54-.71-1.71-2.98.29-3.16.28Z"/></g></svg>