<?xml version="1.0" encoding="UTF-8"?><svg xmlns="http://www.w3.org/2000/svg" xmlns:xlink="http://www.w3.org/1999/xlink" viewBox="0 0 306.52 367.97"><defs><style>.cls-1{fill:url(#_ÂÁ_Ï_ÌÌ_È_ËÂÌÚ_50);}.cls-1,.cls-2,.cls-3,.cls-4,.cls-5,.cls-6,.cls-7,.cls-8,.cls-9,.cls-10,.cls-11,.cls-12,.cls-13,.cls-14,.cls-15,.cls-16,.cls-17{stroke-width:0px;}.cls-2{fill:url(#_ÂÁ_Ï_ÌÌ_È_ËÂÌÚ_842-3);}.cls-2,.cls-5,.cls-16,.cls-17{mix-blend-mode:multiply;opacity:.4;}.cls-3{fill:url(#_ÂÁ_Ï_ÌÌ_È_ËÂÌÚ_52-4);}.cls-4{fill:url(#_ÂÁ_Ï_ÌÌ_È_ËÂÌÚ_50-2);}.cls-18{isolation:isolate;}.cls-5{fill:url(#_ÂÁ_Ï_ÌÌ_È_ËÂÌÚ_842-2);}.cls-6{fill:url(#_ÂÁ_Ï_ÌÌ_È_ËÂÌÚ_52-5);}.cls-7{fill:url(#_ÂÁ_Ï_ÌÌ_È_ËÂÌÚ_629);}.cls-7,.cls-9{mix-blend-mode:screen;opacity:.5;}.cls-8{fill:url(#_ÂÁ_Ï_ÌÌ_È_ËÂÌÚ_50-3);}.cls-9{fill:url(#_ÂÁ_Ï_ÌÌ_È_ËÂÌÚ_628);}.cls-10{fill:url(#_ÂÁ_Ï_ÌÌ_È_ËÂÌÚ_52);}.cls-11{fill:#65918d;}.cls-12{fill:url(#_ÂÁ_Ï_ÌÌ_È_ËÂÌÚ_50-4);}.cls-13{fill:url(#_ÂÁ_Ï_ÌÌ_È_ËÂÌÚ_52-3);}.cls-14{fill:url(#_ÂÁ_Ï_ÌÌ_È_ËÂÌÚ_52-6);}.cls-15{fill:url(#_ÂÁ_Ï_ÌÌ_È_ËÂÌÚ_52-2);}.cls-16{fill:url(#_ÂÁ_Ï_ÌÌ_È_ËÂÌÚ_842);}.cls-17{fill:url(#_ÂÁ_Ï_ÌÌ_È_ËÂÌÚ_842-4);}</style><radialGradient id="_ÂÁ_Ï_ÌÌ_È_ËÂÌÚ_629" cx="168.37" cy="205.44" fx="168.37" fy="205.44" r="126.26" gradientTransform="translate(-53.86 -100.33) rotate(-.92) scale(1.21 1.31) skewX(-.36)" gradientUnits="userSpaceOnUse"><stop offset="0" stop-color="#ff7a00"/><stop offset=".03" stop-color="#f47400"/><stop offset=".24" stop-color="#ab5100"/><stop offset=".44" stop-color="#6e3400"/><stop offset=".62" stop-color="#3e1d00"/><stop offset=".78" stop-color="#1c0d00"/><stop offset=".91" stop-color="#070300"/><stop offset="1" stop-color="#000"/></radialGradient><linearGradient id="_ÂÁ_Ï_ÌÌ_È_ËÂÌÚ_52" x1="170.01" y1="261.87" x2="165.33" y2="123.84" gradientUnits="userSpaceOnUse"><stop offset="0" stop-color="#fa0"/><stop offset=".99" stop-color="#ff0c00"/></linearGradient><linearGradient id="_ÂÁ_Ï_ÌÌ_È_ËÂÌÚ_52-2" x1="127.69" y1="144.25" x2="186.91" y2="63.88" xlink:href="#_ÂÁ_Ï_ÌÌ_È_ËÂÌÚ_52"/><linearGradient id="_ÂÁ_Ï_ÌÌ_È_ËÂÌÚ_52-3" x1="153.27" y1="262.61" x2="148.59" y2="124.58" xlink:href="#_ÂÁ_Ï_ÌÌ_È_ËÂÌÚ_52"/><linearGradient id="_ÂÁ_Ï_ÌÌ_È_ËÂÌÚ_52-4" x1="118.59" y1="198.22" x2="175.54" y2="120.93" xlink:href="#_ÂÁ_Ï_ÌÌ_È_ËÂÌÚ_52"/><linearGradient id="_ÂÁ_Ï_ÌÌ_È_ËÂÌÚ_52-5" x1="147.21" y1="143.75" x2="161.12" y2="124.88" xlink:href="#_ÂÁ_Ï_ÌÌ_È_ËÂÌÚ_52"/><linearGradient id="_ÂÁ_Ï_ÌÌ_È_ËÂÌÚ_52-6" x1="841.11" y1="241.93" x2="849.58" y2="230.44" gradientTransform="translate(-37.62 1046.43) rotate(-94.74)" xlink:href="#_ÂÁ_Ï_ÌÌ_È_ËÂÌÚ_52"/><linearGradient id="_ÂÁ_Ï_ÌÌ_È_ËÂÌÚ_50" x1="144.73" y1="320.87" x2="144.16" y2="251.55" gradientUnits="userSpaceOnUse"><stop offset="0" stop-color="#5c7581"/><stop offset="1" stop-color="#48427a"/></linearGradient><linearGradient id="_ÂÁ_Ï_ÌÌ_È_ËÂÌÚ_842" x1="118.13" y1="313.98" x2="117.68" y2="258.77" gradientUnits="userSpaceOnUse"><stop offset="0" stop-color="#3e0f33"/><stop offset="1" stop-color="#ac53be"/></linearGradient><linearGradient id="_ÂÁ_Ï_ÌÌ_È_ËÂÌÚ_50-2" x1="208.6" y1="375.81" x2="131.95" y2="335.9" xlink:href="#_ÂÁ_Ï_ÌÌ_È_ËÂÌÚ_50"/><linearGradient id="_ÂÁ_Ï_ÌÌ_È_ËÂÌÚ_50-3" x1="160.42" y1="341.04" x2="120.11" y2="313.94" xlink:href="#_ÂÁ_Ï_ÌÌ_È_ËÂÌÚ_50"/><linearGradient id="_ÂÁ_Ï_ÌÌ_È_ËÂÌÚ_842-2" x1="149.84" y1="329.01" x2="140.79" y2="311.36" xlink:href="#_ÂÁ_Ï_ÌÌ_È_ËÂÌÚ_842"/><linearGradient id="_ÂÁ_Ï_ÌÌ_È_ËÂÌÚ_50-4" x1="165.64" y1="308.64" x2="133.02" y2="305.27" xlink:href="#_ÂÁ_Ï_ÌÌ_È_ËÂÌÚ_50"/><linearGradient id="_ÂÁ_Ï_ÌÌ_È_ËÂÌÚ_842-3" x1="993.68" y1="305.86" x2="1004.15" y2="305.86" gradientTransform="translate(1137.81) rotate(-180) scale(1 -1)" xlink:href="#_ÂÁ_Ï_ÌÌ_È_ËÂÌÚ_842"/><linearGradient id="_ÂÁ_Ï_ÌÌ_È_ËÂÌÚ_842-4" x1="170.98" y1="368.9" x2="128.71" y2="346.9" xlink:href="#_ÂÁ_Ï_ÌÌ_È_ËÂÌÚ_842"/><radialGradient id="_ÂÁ_Ï_ÌÌ_È_ËÂÌÚ_628" cx="173.43" cy="244.92" fx="173.43" fy="244.92" r="33.07" gradientTransform="translate(-53.86 -100.33) rotate(-.92) scale(1.21 1.31) skewX(-.36)" gradientUnits="userSpaceOnUse"><stop offset="0" stop-color="red"/><stop offset="1" stop-color="#000"/></radialGradient></defs><g class="cls-18"><g id="Layer_2"><g id="feu_02"><path class="cls-7" d="M306.51,162.77c.94,91.24-66.92,166.3-151.56,167.66C70.32,331.78.95,258.91,0,167.67-.93,76.43,66.93,1.37,151.57.02c84.64-1.35,154.01,71.52,154.95,162.76Z"/><path class="cls-10" d="M168.05,182.24c-12.34,4.11-5.42,12.87,1.04,14.14-1.64-6.02-10.3-21.72-10.81-28.95-.87-12.26-.27-37.77.7-46.18,2.09,29.62,29.55,54.16,9.07,60.99Z"/><path class="cls-15" d="M152.92,96.14c-2.56,10.02.46-6.04-1.39,29.61,0-13.07-4.96-12.88-5.58-13.07-2.76-.86,6.71-16.13,6.97-16.54Z"/><path class="cls-13" d="M152.93,262.05l8.14,21.18-16.06-6.68s-13.38-13.36-24.09-30.07c-1.85-2.87-2.65-6.25-2.73-9.86,3.88-4.21,8.22-10.69,10.76-20.21,2.38-8.95,2.65-13.23,2.19-15.23,1.85-3.01,3.16-4.81,3.16-4.81,0,0,2.68,13.36,10.71,6.68,8.03-6.68,0-36.75,0-36.75,0,0,10.65,9.96,21.22,22.28-3.02,3.17-6.16,9.89,2.86,21.15,7.98,9.96,12.15,6.85,14.24,2.71.7,1.37,1.31,2.71,1.82,3.98,8.03,20.05-40.36,24.46-32.22,45.64Z"/><path class="cls-3" d="M145.01,183.01l-2.68-13.36s-8.03-6.68-5.35-13.36l2.68-6.68s-8.03,6.68-5.35,16.7c2.68,10.02,10.71,16.7,10.71,16.7Z"/><path class="cls-6" d="M153.04,132.89c3.78,0,0,6.68,0,6.68,0,0-2.68-6.68,0-6.68Z"/><path class="cls-14" d="M130.04,185.42c.3,4.47-3.73-1.86-1.94-2.05,1.79-.19,1.94,2.05,1.94,2.05Z"/><path class="cls-11" d="M208.1,265.62s-57.52,35.91-63.82,35.91-64.71-33.66-64.71-33.66c0,0,33.22-10.32,62.14-10.32s66.39,8.07,66.39,8.07Z"/><path class="cls-1" d="M207.21,266.74s-12.47,8.15-26.18,16.69h-.02c-15.06,9.39-31.62,19.22-34.93,19.22-5.61,0-52.55-26.69-62.76-32.53l-.03-.02-.03-.02c-1.21-.7-1.89-1.08-1.89-1.08,0,0,3.06-.91,8.11-2.14,7.79-1.91,20.35-4.61,33.77-6.01,6.96-.72,14.15-1.1,21.03-.83,28.77,1.13,62.93,6.73,62.93,6.73Z"/><path class="cls-16" d="M142.49,299.28c-2.18,0-35.35-18.93-49.42-27.94,7.79-1.92,20.35-4.62,33.78-6.01,8.81,15.91,17.38,33.95,15.64,33.95Z"/><polygon class="cls-4" points="167.89 334.57 154.51 367.97 135.77 367.97 122.39 334.57 134.7 321.77 140.22 316.06 151.75 316.12 158.76 324.14 167.89 334.57"/><path class="cls-8" d="M167.89,334.57h-45.5l12.31-12.8,5.51-5.71,11.53.07,7.01,8.02,9.13,10.42Z"/><path class="cls-5" d="M151.75,316.12l7.01,8.02c-2.49-1.1-5.65-2.1-9.61-2.94-5.89-1.24-10.71-.63-14.45.57l5.51-5.71,11.53.07Z"/><ellipse class="cls-12" cx="145.64" cy="306.57" rx="13.93" ry="10.66"/><path class="cls-2" d="M133.66,305.96c0,4.24,3.83,7.79,8.99,8.74-2.27-2.08-3.69-5.01-3.69-8.26,0-3.91,2.05-7.36,5.17-9.4-5.88.48-10.47,4.29-10.47,8.92Z"/><polygon class="cls-17" points="127.75 337.91 135.77 364.63 141.13 364.63 138.45 337.91 127.75 337.91"/><path class="cls-11" d="M145.64,334.57s4.58,1.55,7.99,1.55,3.69-1.55,3.69-1.55h2.25l.86,1.55,1.7-2.12-16.49.57Z"/><path class="cls-11" d="M167.89,261.69s5.3,3.29,13.8,3.29,10.21-2.12,10.21-2.12l-24.01-1.16Z"/><path class="cls-9" d="M200.08,216.15c.25,23.9-17.53,43.56-39.7,43.92-22.17.35-40.34-18.73-40.59-42.64-.25-23.9,17.53-43.56,39.7-43.92,22.17-.35,40.34,18.73,40.59,42.63Z"/></g></g></g></svg>