<?xml version="1.0" encoding="UTF-8"?><svg xmlns="http://www.w3.org/2000/svg" xmlns:xlink="http://www.w3.org/1999/xlink" viewBox="0 0 272.45 372.84"><defs><style>.cls-1{fill:url(#_ÂÁ_Ï_ÌÌ_È_ËÂÌÚ_50);}.cls-1,.cls-2,.cls-3,.cls-4,.cls-5,.cls-6,.cls-7,.cls-8,.cls-9,.cls-10,.cls-11,.cls-12,.cls-13,.cls-14,.cls-15,.cls-16{stroke-width:0px;}.cls-2{fill:url(#_ÂÁ_Ï_ÌÌ_È_ËÂÌÚ_842-3);}.cls-2,.cls-5,.cls-15,.cls-16{mix-blend-mode:multiply;opacity:.4;}.cls-3{fill:url(#_ÂÁ_Ï_ÌÌ_È_ËÂÌÚ_52-4);}.cls-4{fill:url(#_ÂÁ_Ï_ÌÌ_È_ËÂÌÚ_50-2);}.cls-17{isolation:isolate;}.cls-5{fill:url(#_ÂÁ_Ï_ÌÌ_È_ËÂÌÚ_842-2);}.cls-6{fill:url(#_ÂÁ_Ï_ÌÌ_È_ËÂÌÚ_52-5);}.cls-7{fill:url(#_ÂÁ_Ï_ÌÌ_È_ËÂÌÚ_629);}.cls-7,.cls-9{mix-blend-mode:screen;opacity:.5;}.cls-8{fill:url(#_ÂÁ_Ï_ÌÌ_È_ËÂÌÚ_50-3);}.cls-9{fill:url(#_ÂÁ_Ï_ÌÌ_È_ËÂÌÚ_628);}.cls-10{fill:url(#_ÂÁ_Ï_ÌÌ_È_ËÂÌÚ_52);}.cls-11{fill:#65918d;}.cls-12{fill:url(#_ÂÁ_Ï_ÌÌ_È_ËÂÌÚ_50-4);}.cls-13{fill:url(#_ÂÁ_Ï_ÌÌ_È_ËÂÌÚ_52-3);}.cls-14{fill:url(#_ÂÁ_Ï_ÌÌ_È_ËÂÌÚ_52-2);}.cls-15{fill:url(#_ÂÁ_Ï_ÌÌ_È_ËÂÌÚ_842);}.cls-16{fill:url(#_ÂÁ_Ï_ÌÌ_È_ËÂÌÚ_842-4);}</style><linearGradient id="_ÂÁ_Ï_ÌÌ_È_ËÂÌÚ_52" x1="183.28" y1="141.72" x2="105.03" y2="65.42" gradientUnits="userSpaceOnUse"><stop offset="0" stop-color="#fa0"/><stop offset=".99" stop-color="#ff0c00"/></linearGradient><linearGradient id="_ÂÁ_Ï_ÌÌ_È_ËÂÌÚ_52-2" x1="140.47" y1="251.96" x2="130.14" y2="117.04" xlink:href="#_ÂÁ_Ï_ÌÌ_È_ËÂÌÚ_52"/><linearGradient id="_ÂÁ_Ï_ÌÌ_È_ËÂÌÚ_52-3" x1="135.18" y1="112.4" x2="160.6" y2="149.21" xlink:href="#_ÂÁ_Ï_ÌÌ_È_ËÂÌÚ_52"/><linearGradient id="_ÂÁ_Ï_ÌÌ_È_ËÂÌÚ_52-4" x1="130.1" y1="252.45" x2="119.87" y2="118.87" xlink:href="#_ÂÁ_Ï_ÌÌ_È_ËÂÌÚ_52"/><linearGradient id="_ÂÁ_Ï_ÌÌ_È_ËÂÌÚ_50" x1="-1218.71" y1="324.34" x2="-1219.3" y2="252.99" gradientTransform="translate(-1079.31) rotate(-180) scale(1 -1)" gradientUnits="userSpaceOnUse"><stop offset="0" stop-color="#5c7581"/><stop offset="1" stop-color="#48427a"/></linearGradient><linearGradient id="_ÂÁ_Ï_ÌÌ_È_ËÂÌÚ_842" x1="-1246.08" y1="317.25" x2="-1246.55" y2="260.42" gradientTransform="translate(-1079.31) rotate(-180) scale(1 -1)" gradientUnits="userSpaceOnUse"><stop offset="0" stop-color="#3e0f33"/><stop offset="1" stop-color="#ac53be"/></linearGradient><linearGradient id="_ÂÁ_Ï_ÌÌ_È_ËÂÌÚ_50-2" x1="-1152.96" y1="380.9" x2="-1231.86" y2="339.81" xlink:href="#_ÂÁ_Ï_ÌÌ_È_ËÂÌÚ_50"/><linearGradient id="_ÂÁ_Ï_ÌÌ_È_ËÂÌÚ_50-3" x1="-1202.55" y1="345.11" x2="-1244.05" y2="317.21" xlink:href="#_ÂÁ_Ï_ÌÌ_È_ËÂÌÚ_50"/><linearGradient id="_ÂÁ_Ï_ÌÌ_È_ËÂÌÚ_842-2" x1="-1213.44" y1="332.73" x2="-1222.76" y2="314.56" xlink:href="#_ÂÁ_Ï_ÌÌ_È_ËÂÌÚ_842"/><linearGradient id="_ÂÁ_Ï_ÌÌ_È_ËÂÌÚ_50-4" x1="-1197.18" y1="311.75" x2="-1230.76" y2="308.29" xlink:href="#_ÂÁ_Ï_ÌÌ_È_ËÂÌÚ_50"/><linearGradient id="_ÂÁ_Ï_ÌÌ_È_ËÂÌÚ_842-3" x1="481.93" y1="308.9" x2="492.7" y2="308.9" gradientTransform="translate(-341.91)" xlink:href="#_ÂÁ_Ï_ÌÌ_È_ËÂÌÚ_842"/><radialGradient id="_ÂÁ_Ï_ÌÌ_È_ËÂÌÚ_629" cx="-10.74" cy="203.82" fx="-10.74" fy="203.82" r="112.22" gradientTransform="translate(146.52 -120.05) rotate(-.92) scale(1.21 1.31) skewX(-.36)" gradientUnits="userSpaceOnUse"><stop offset="0" stop-color="#ff7a00"/><stop offset=".03" stop-color="#f47400"/><stop offset=".24" stop-color="#ab5100"/><stop offset=".44" stop-color="#6e3400"/><stop offset=".62" stop-color="#3e1d00"/><stop offset=".78" stop-color="#1c0d00"/><stop offset=".91" stop-color="#070300"/><stop offset="1" stop-color="#000"/></radialGradient><radialGradient id="_ÂÁ_Ï_ÌÌ_È_ËÂÌÚ_628" cx="-7.94" cy="248.95" fx="-7.94" fy="248.95" r="34.05" gradientTransform="translate(146.52 -120.05) rotate(-.92) scale(1.21 1.31) skewX(-.36)" gradientUnits="userSpaceOnUse"><stop offset="0" stop-color="red"/><stop offset="1" stop-color="#000"/></radialGradient><linearGradient id="_ÂÁ_Ï_ÌÌ_È_ËÂÌÚ_842-4" x1="-1191.69" y1="373.79" x2="-1235.19" y2="351.14" xlink:href="#_ÂÁ_Ï_ÌÌ_È_ËÂÌÚ_842"/><linearGradient id="_ÂÁ_Ï_ÌÌ_È_ËÂÌÚ_52-5" x1="144.64" y1="258.52" x2="134.39" y2="124.69" xlink:href="#_ÂÁ_Ï_ÌÌ_È_ËÂÌÚ_52"/></defs><g class="cls-17"><g id="Layer_2"><g id="feu_01"><path class="cls-10" d="M149.67,93.01c-2.64,10.32.47-6.22-1.43,30.48,0-13.45-5.11-13.26-5.75-13.45-2.84-.89,6.91-16.6,7.18-17.03Z"/><path class="cls-14" d="M169.15,274.06c-1.38,3.29-3.36,5.96-6.11,7.55-15.99,9.34-33.2,14.09-33.2,14.09l-17.27-2.97,15.24-14.92c15.23-14.94-27.84-46.49-13.12-60.45.94-.87,2-1.76,3.14-2.63.41,5.01,3.14,10.25,14.14,5.58,12.42-5.26,5.24-18.73,3.61-23.38.71-11.65,5.85-21.17,11.08-27.98-.48,5.11,0,10.86,2.56,16.63,1.88,4.24,3.95,7.3,6.02,9.5-.71,14.24-.74,28.11,1.41,32.76,4.99,10.73,12.32-.09,12.32-.09,0,0,.56,2.42,1.17,6.24-1.15,1.59-2.47,5.69-3.53,15.32-1.12,10.23.52,18.67,2.56,24.76Z"/><path class="cls-13" d="M149.78,130.84c3.9,0,0,6.88,0,6.88,0,0-2.76-6.88,0-6.88Z"/><path class="cls-3" d="M126.11,184.91c.31,4.6-3.84-1.92-2-2.11s2,2.11,2,2.11Z"/><path class="cls-11" d="M74.16,267.47s59.22,36.96,65.69,36.96,66.62-34.65,66.62-34.65c0,0-34.2-10.62-63.97-10.62s-68.34,8.31-68.34,8.31Z"/><path class="cls-1" d="M75.08,268.62s12.84,8.4,26.95,17.18h.02c15.5,9.66,32.56,19.78,35.95,19.78,5.78,0,54.1-27.48,64.6-33.49l.04-.02.03-.02c1.24-.72,1.94-1.11,1.94-1.11,0,0-3.15-.94-8.35-2.21-8.02-1.97-20.94-4.74-34.76-6.19-7.16-.74-14.57-1.14-21.65-.85-29.61,1.16-64.78,6.93-64.78,6.93Z"/><path class="cls-15" d="M141.7,302.12c2.24,0,36.39-19.49,50.87-28.76-8.02-1.98-20.95-4.76-34.77-6.19-9.07,16.38-17.89,34.95-16.1,34.95Z"/><polygon class="cls-4" points="115.56 338.44 129.33 372.84 148.62 372.84 162.39 338.44 149.72 325.27 144.04 319.39 132.17 319.46 124.95 327.71 115.56 338.44"/><path class="cls-8" d="M115.56,338.44h46.83l-12.67-13.17-5.67-5.88-11.87.07-7.22,8.25-9.39,10.73Z"/><path class="cls-5" d="M132.17,319.46l-7.22,8.25c2.56-1.13,5.81-2.17,9.89-3.03,6.06-1.27,11.02-.65,14.88.58l-5.67-5.88-11.87.07Z"/><path class="cls-12" d="M124.12,309.63c0,6.06,6.42,10.97,14.34,10.97s14.34-4.91,14.34-10.97-6.42-10.97-14.34-10.97-14.34,4.91-14.34,10.97Z"/><path class="cls-2" d="M150.79,309c0,4.36-3.94,8.02-9.25,8.99,2.34-2.14,3.8-5.16,3.8-8.51,0-4.03-2.11-7.58-5.32-9.67,6.06.5,10.77,4.42,10.77,9.19Z"/><path class="cls-7" d="M272.44,144.68c.83,81.1-59.48,147.82-134.71,149.02C62.5,294.9.84,230.13,0,149.04-.82,67.94,59.49,1.22,134.72.02c75.23-1.2,136.89,63.57,137.72,144.66Z"/><path class="cls-9" d="M181.55,205.19c.25,24.6-18.05,44.85-40.87,45.21-22.82.36-41.53-19.29-41.78-43.89-.25-24.6,18.05-44.85,40.87-45.21,22.82-.36,41.53,19.28,41.78,43.89Z"/><polygon class="cls-16" points="156.88 341.88 148.62 369.4 143.11 369.4 145.86 341.88 156.88 341.88"/><path class="cls-11" d="M138.47,338.44s-4.72,1.6-8.22,1.6-3.8-1.6-3.8-1.6h-2.32l-.88,1.6-1.75-2.19,16.98.59Z"/><path class="cls-11" d="M115.56,263.43s-5.45,3.38-14.21,3.38-10.51-2.19-10.51-2.19l24.71-1.2Z"/><path class="cls-6" d="M145.01,158.15c-4.92,3.76-12.47,10.95-12.47,19.86,0,0-7.58-13.24,1.52-22.7,8.47-8.81-1.47-25.84-2.88-28.13,1.59,2.36,13.7,20.88,13.83,30.96Z"/></g></g></g></svg>