<?xml version="1.0" encoding="UTF-8"?><svg id="Layer_2" xmlns="http://www.w3.org/2000/svg" xmlns:xlink="http://www.w3.org/1999/xlink" viewBox="0 0 1925.2 1077"><defs><style>.cls-1{fill:#70c5ef;}.cls-1,.cls-2,.cls-3,.cls-4,.cls-5,.cls-6,.cls-7,.cls-8,.cls-9,.cls-10,.cls-11,.cls-12,.cls-13,.cls-14,.cls-15,.cls-16,.cls-17,.cls-18,.cls-19,.cls-20,.cls-21,.cls-22{stroke-width:0px;}.cls-2{fill:#1c3967;}.cls-3{fill:url(#linear-gradient);}.cls-4{fill:#968ec4;}.cls-5{fill:#46c3d3;}.cls-6{fill:#2e3c4f;}.cls-7{fill:#00acd7;}.cls-8{fill:#151b28;}.cls-9{fill:#1e2e47;}.cls-10{fill:#2c4f8a;}.cls-11{fill:#58bad5;}.cls-12{fill:#90b9e3;}.cls-13{fill:#7679a4;}.cls-14{fill:#4274b3;}.cls-15{fill:#3767a5;}.cls-16{fill:#3a5c87;}.cls-17{fill:#7ab0df;}.cls-18{fill:#b1d8f3;}.cls-19{fill:#3984c5;}.cls-20{fill:#309fd1;}.cls-21{fill:#65cdf1;}.cls-22{fill:#7dd3f7;}</style><linearGradient id="linear-gradient" x1="543.58" y1="714.2" x2="544.57" y2="742.96" gradientUnits="userSpaceOnUse"><stop offset="0" stop-color="#3b73b3"/><stop offset="1" stop-color="#078dc8"/></linearGradient></defs><g id="fond"><rect class="cls-8" x="1.26" width="1923.88" height="1076.96"/><g id="Background"><path class="cls-8" d="M1.26,647.86C1.07,431.91,1.4,215.95,1.26,0h1923.88c-.14,213.85.18,427.7,0,641.55-39.35,9.14-82.41,14.33-121.18,24.19-20.14,5.12-40.84,13.37-61.06,18.93,8.23-17.71,11.55-67.51,13.15-70.99.38-.82,6.98-3.29,7.52-4.21,23.38-40.13,43.21-27.01,125.88-51.53-5.34-3.01-20.68-16.59-25.36-17.35-12.33-2-67.86,3.27-66.7-8.94,17.99-15.96,66.11-31.26,67.64-33.66,3.35-5.25-39.38-94.79-45.09-108.33-6.38-15.12-24.13-73.06-26.3-76.78-4.61-7.87-80.02-62.47-103.33-119.9-7.23-17.8-12.19-57.26-16.91-62.05-14.33-14.55-194.06-43.88-232.03-51.01-14.25-2.67-60.46-14.46-63.88-14.72-10.46-.81-161.16,11.89-186.94,15.78-20.67-.36-43.47,3.22-63.88,5.26-137.72,13.76-223.87,26.37-356.97,46.28-16.86,2.52-33.88,4.75-50.73,7.36-9.48,1.47-18.85,3.78-28.18,5.26-26.99,4.29-53.82,8.1-80.79,12.62-65.7,11.01-130.2,20.63-194.45,34.71-24.49,5.36-118.69,25.65-128.7,36.28-10.56,11.22-33.96,113.56-39.45,118.84-3.72,3.57-51.62,15.39-56.36,18.93-6.97,5.2-32.78,80.33-37.58,85.19-4.56,4.62-52.72,15.28-54.48,17.88-2.24,3.29,2.31,29.39,0,33.66-1.54,2.86-34.77,13.76-35.7,15.78-2.02,4.4,24.95,77.5,28.18,89.4,6.38,23.47,10.64,47.37,15.03,70.99-.89-.29-5.65-4.06-15.97-7.36-21.78-6.97-61.17-15.48-80.79-22.09-4.07-1.37-1.65-4.84-8.45-2.1Z"/><path class="cls-5" d="M1615.14,943.39c-34.21,7.72-206.79,60.87-218.88,62.05-16.07,1.57-106.6-8.21-127.76-6.31-9.19.82-164.89,36.54-171.91,39.97-6.79,3.31,6.55,30.51,7.52,37.86-50.1.01-100.2.01-150.3,0q-95.82-19.46-191.64-38.91c12.33-24.94,24.81-50.14,39.45-74.67,52.85-.45,105.97-2.91,158.76-3.16,1.4,0,.48,2.11,1.88,2.1,217.81-1.11,435.87-8.87,652.88-18.93Z"/><path class="cls-8" d="M1925.14,663.64c-.03,34.01.05,68.01,0,102.02-10.63.85-51.95,10.53-55.42,10.52-5.77-.02-20.85-9.6-84.55,0-5.07.76-11.45,5.58-15.97,6.31l1.88-4.73c-1.93-1.4-68.24,5.94-52.61,7.89-.38.03,2.16.44-7.52,1.05,2.14-4.68-7.59-2.68-3.76,0-11.44.73-48.97-1.97-52.61,4.73-.93,1.72.65,6.72,0,9.99h-1.88c.64-1.43-1.09-2.02-1.88-3.16-.07-.1,4.63-.78.94-2.1-2.28-.82-45.22-3.42-53.55-4.21-12.49-1.18-44.94-5.76-52.61-5.26-3.41-10.69-1.88-21.81-1.88-32.6v-23.14c.21-.02-1.5-.44,3.76-1.05l.94,5.26c53.21-.2,105.99-8.96,157.82-15.78,4.76-.63,8.46,1.7,13.15,1.05,75.13-10.33,137.51-37.36,205.73-56.79Z"/><path class="cls-9" d="M1925.14,765.65c0,5.96,0,11.92,0,17.88-29.35,3.21-58.25,9.13-87.36,12.62-9.33,1.12-28.99.59-1.88,2.1,11.04.62,73.71-.05,77.03,1.05-5.02,14.08-71.65,13.29-92.06,21.03-16.96.8-40.48,8.98-57.3,14.2,54.46-7.53,104.9-23.61,161.58-24.72-.02,10.87.02,21.74,0,32.6-47.16,14.89-173.68,42.77-222.64,34.71-14.44-2.38-.81-7,8.45-12.62,7.64-4.63,13.41-6.97,22.55-10.52,13.19-5.12-15.08-4.17-46.97-3.16.15-.74-.27-1.73,0-2.1,3.34-4.63,130.38-60.6,138.09-63.1,11.02-3.58,40.18-5.56,26.3-8.41-36.93,7.46-143.27,44.8-168.15,56.79,0-7.16-26.83-.08-30.06-2.63-.37-10.03-.11-19.98,1.88-29.97.65-3.28-.93-8.28,0-9.99,3.64-6.71,41.17-4,52.61-4.73,1.22-.08,2.53.08,3.76,0,9.68-.61,7.13-1.02,7.52-1.05,9.37-.65,48.28-2.76,50.73-3.16,4.52-.73,10.9-5.55,15.97-6.31,63.69-9.6,78.78-.02,84.55,0,3.47.01,44.79-9.67,55.42-10.52Z"/><path class="cls-8" d="M271.8,738.31c4.13,3.1,5.5,13.12,5.64,18.93.6,25.51.07,23.63-65.76,33.66-2.59.39-6.43.62-9.39,1.05-36.31,5.25-58.78,4.71-37.58,8.41-7.35,1.73-6.99,4.17-7.52,4.21-11.93.78-75.52-18.78-79.85-18.93-5.2-.18-11.02,2.65-15.97,3.68-1.48,2.41,44.32,32.73,52.61,41.54,2.49,2.65,5.12,5.21,7.52,7.89-20.43.05-26.07,6.42-31.94-5.78.03-.19,5.79-1.26,3.76-3.16-1.5-1.39-3.43,2.99-24.42-11.57-13.51-9.37-22.05-21.35-41.33-27.34-.67-.21-2.98.21-3.76,0-7.24-1.93-14.44-4.67-22.55-5.26-.05-32.25.03-64.51,0-96.76,44.91,34.71,107.52,43.08,171.91,61,10.39.94,64.01-14.81,67.64-14.72,4.25.1,34.23,15.37,31,3.16Z"/><path class="cls-6" d="M1925.14,985.46c-34.61,7.66-53.25,29.46-42.27,5.26-19.03,8.42-54.01,44.7-59.18,47.85-1.79,1.09-41.55,16.04-44.15,16.3-7.59.77-124.37-3.49-154.06,0l-.94-2.63c87.38-39.73,174.94-80.87,284.64-99.39,8.75-7.24-33.01,3.14-31-.53,19.16-7.92,32.72-19.47,46.97-29.97-.07,21.03.15,42.07,0,63.1Z"/><path class="cls-9" d="M1925.14,922.36c-14.25,10.51-27.81,22.05-46.97,29.97-2.01,3.67,39.75-6.71,31,.53-109.7,18.52-197.25,59.66-284.64,99.39l.94,2.63c29.69-3.49,146.47.77,154.06,0,2.6-.26,42.36-15.21,44.15-16.3,5.17-3.16,40.15-39.44,59.18-47.85-10.98,24.2,7.67,2.41,42.27-5.26,0,1.05,0,2.1,0,3.16-12.98,2.3-38.04,14.86-49.79,21.03-1.45.76-3.61-1.13-3.76-1.05-5.67,3.01-24.53,23.71-36.64,28.92q45.09-21.3,90.18-42.59c-.02,3.16.03,6.31,0,9.47-55.8,27.06-120.97,46.71-178.49,72.57-5.64.01-11.27,0-16.91,0q19.26-8.94,38.52-17.88c-47.54-3.59-75.59,9.42-120.24,13.67-9.84-2.24,55.74-11.51,37.58-14.72-16.07.86-60.3-1.17-67.64,0-1.86.3-18.44,10.25-24.42,11.57-24.64,5.45-65.27-.45-59.18,7.36-70.14.05-140.28-.03-210.42,0,4.11-5.06-2.47-7.16-5.64-11.57,35.38,2.75,71.37,5.06,107.09,4.73-46.63-13.98-101.94-23.23-155-21.56-8.76.28-52.21,3.98-55.42,6.31-6.89-.67-13.77-1.43-20.67-2.1,31.16-3.39,53.38-5.76,89.24-6.31.79-10.34,76.87-30.22,103.33-37.86,12.07,3.63-90.52,29.09-84.55,32.6,79.13,3.36,135.26,27.62,142.79,28.4,7.74.8,149.05-8.39,155.94-10.52,3.93-1.21,56-29.64,64.82-34.71,1.74-.06,2.43,1.09,2.82,1.05,4.75-.49,66.93-28.41,77.03-32.6,7.84-3.25,34.34-10.6,39.45-13.67.59-.35-1.94-3.48,6.58-8.94,11.1-7.11,21.22-14.68,33.82-21.03.99-1.22-5.42-2.46-6.58-2.63-14.82-2.14-119.01-7.58-150.3-10.52q-.47-1.05-.94-2.1c6.78-1.2,13.92-2.01,20.67-3.16l-3.76,1.58c34.43,2.66,66.54,7.64,104.27,7.89,1.9,4.31,5.92.44,15.03,1.05,1.14.08-1.82,1.17,20.67,2.1.68.03-.37,3.3,11.27,2.1,2.72-.28,55.82-22.56,18.79-3.16-5.12,2.68-69.74,30.72-56.36,32.6,8.24-4.38,77.04-18.15,77.97-20.51.13-.34-4.88-1.83-3.76-3.16,4.38-5.15,40.34-31.2,52.61-35.23,0,2.1,0,4.21,0,6.31Z"/><path class="cls-9" d="M106.47,679.41c17.28,5.68,35.65,10.88,52.61,16.83,20.06,7.04,40.51,14.65,60.12,22.09,7.56,2.87,50.7,18.56,52.61,19.98,3.23,12.22-26.75-3.05-31-3.16-3.63-.09-57.25,15.67-67.64,14.72-64.39-17.92-126.99-26.29-171.91-61-.01-13.67.01-27.34,0-41.02,6.8-2.74,4.39.73,8.45,2.1,19.62,6.61,59,15.12,80.79,22.09,10.32,3.3,15.08,7.07,15.97,7.36Z"/><path class="cls-9" d="M1925.14,641.55c0,7.36,0,14.72,0,22.09-68.22,19.43-130.6,46.46-205.73,56.79-4.69.65-8.39-1.68-13.15-1.05-51.83,6.82-104.61,15.58-157.82,15.78l-.94-5.26c27.72-3.21,128.79-26.45,159.7-34.71,9.1-2.43,23.43-4.75,32.88-7.36,3.63-1,2.54-3.08,2.82-3.16,20.22-5.56,40.92-13.81,61.06-18.93,38.77-9.86,81.84-15.05,121.18-24.19Z"/><path class="cls-6" d="M1925.14,877.13c-.03,12.97.04,25.94,0,38.91-12.26,4.03-48.23,30.09-52.61,35.23-1.12,1.32,3.89,2.82,3.76,3.16-.93,2.36-69.73,16.13-77.97,20.51-13.38-1.88,51.24-29.92,56.36-32.6,37.04-19.41-16.07,2.88-18.79,3.16-11.64,1.2-10.59-2.08-11.27-2.1-22.49-.93-19.53-2.03-20.67-2.1-9.11-.62-13.13,3.26-15.03-1.05-37.73-.25-69.85-5.23-104.27-7.89l3.76-1.58c16.06-2.73,29.66-5.02,46.03-7.36,1.4-.2.95-1.39.94-2.1,37.89-.42,75.75-1.44,113.67-1.05,10.66-2.34-38-31.8-21.61-33.66,11.3-.53,39.89-2.86,50.73-4.21,13.83-.5,28.15-1.84,41.33-4.21,2.07-.37,3.01-1.46,5.64-1.05Z"/><path class="cls-8" d="M1925.14,850.84c-7.78,1.65-7.78,13.9-15.03,20.51.63.8,7.77-1.13,9.39,6.84-13.18,2.37-27.51,3.71-41.33,4.21,12.74-1.59,36.3-4.83,23.48-6.31-32.56,5.4-75.85,5.15-103.33,7.36-44.68,3.59,17.1,3.72,29.12,3.16-16.39,1.85,32.27,31.32,21.61,33.66-37.92-.39-75.77.63-113.67,1.05-29.06.32-58.21,1.94-87.36,1.05-1.53-.61-1.23-12.69-.94-14.72,33.41,1.62,143.44-3.23,166.27-13.67,19.02-8.7-25.42-4.47-55.42-6.31l.94-2.1c-26.65,1.41-97.57-4.01-47.91-21.03-9.27,5.62-22.89,10.24-8.45,12.62,48.96,8.06,175.48-19.82,222.64-34.71,0,2.8,0,5.61,0,8.41Z"/><path class="cls-7" d="M953.8,1076.96c-130.26-.03-260.53.06-390.79,0,27.81-6.77,180.06-26.62,190.7-30.5,6.89-2.51,5.13-4.88,8.45-8.41q95.82,19.46,191.64,38.91Z"/><path class="cls-6" d="M1925.14,1019.12q-42.27,23.93-84.55,47.85l2.82,1.58q40.86-17.35,81.73-34.71c-.23,14.37.17,28.75,0,43.12-59.49.09-118.99-.11-178.49,0,57.51-25.86,122.68-45.51,178.49-72.57-.04,4.91.06,9.82,0,14.72Z"/><path class="cls-8" d="M1194.29,1052.77c6.89.67,13.78,1.44,20.67,2.1,34.34,3.32,68.9,7.84,103.33,10.52,3.16,4.41,9.75,6.51,5.64,11.57-73.27.03-146.55-.02-219.82,0-.96-7.36-14.31-34.55-7.52-37.86.41,1.41-1.04,4.42.94,5.26,3.91,1.65,83.48,7.13,96.76,8.41Z"/><path class="cls-7" d="M93.32,829.81c2.04,1.89-3.73,2.97-3.76,3.16-2.05,14.6,21,8.33,37.58,7.89-25.29-15.75,30.56-7.74,31.94-6.31,1.85,1.92,1.22,39.53-3.76,42.59-8.14.02-16.28-.02-24.42,0-3.13,0-6.26,0-9.39,0-14.26.03-90.2,1.51-94.88,1.05-16.2-1.58-8.54-19.28-25.36-22.09,0-2.1,0-4.21,0-6.31,35.7,14.28,58.84,8.75,95.82.53-17.28-19.14-32.5-18.94-3.76-20.51Z"/><path class="cls-6" d="M1729.74,1076.96c-65.13.11-130.26-.05-195.39,0-6.09-7.81,34.54-1.91,59.18-7.36,5.98-1.32,22.56-11.27,24.42-11.57,7.34-1.17,51.57.86,67.64,0,18.16,3.21-47.42,12.49-37.58,14.72,44.65-4.25,72.71-17.26,120.24-13.67q-19.26,8.94-38.52,17.88Z"/><path class="cls-8" d="M27.56,790.89c12.11,9.13,35.06,31.96,41.33,27.34,20.99,14.56,22.92,10.18,24.42,11.57-28.74,1.57-13.52,1.37,3.76,20.51-36.98,8.22-60.12,13.75-95.82-.53,0-3.86,0-7.71,0-11.57,28.11,8.96,17.36-1.76,0-14.72-.01-6.31,0-12.62,0-18.93,11.15,3.99,48.97,43.43,53.55,44.17,4.09.67,28.73-5.47,29.12-6.84-17.11-18.14-39.88-33.94-60.12-51.01.78.21,3.09-.21,3.76,0Z"/><path class="cls-9" d="M23.8,790.89c20.24,17.06,43.01,32.86,60.12,51.01-.39,1.37-25.03,7.5-29.12,6.84-4.58-.74-42.4-40.18-53.55-44.17,0-6.31,0-12.62,0-18.93,8.1.59,15.3,3.32,22.55,5.26Z"/><path class="cls-8" d="M1925.14,809.82c-56.67,1.11-107.12,17.19-161.58,24.72,16.83-5.22,40.34-13.39,57.3-14.2,20.42-7.75,87.04-6.95,92.06-21.03-3.32-1.1-65.99-.44-77.03-1.05-27.11-1.51-7.45-.99,1.88-2.1,29.12-3.49,58.02-9.41,87.36-12.62-.01,8.76.01,17.53,0,26.29Z"/><path class="cls-9" d="M1925.14,1033.84q-40.86,17.35-81.73,34.71l-2.82-1.58q42.27-23.93,84.55-47.85c-.06,4.91.08,9.82,0,14.72Z"/><path class="cls-6" d="M1925.14,988.62c-.02,2.1.01,4.21,0,6.31q-45.09,21.3-90.18,42.59c12.1-5.21,30.96-25.91,36.64-28.92.15-.08,2.31,1.81,3.76,1.05,11.74-6.17,36.8-18.74,49.79-21.03Z"/><path class="cls-9" d="M1925.14,877.13c-2.63-.4-3.57.68-5.64,1.05-1.63-7.97-8.76-6.04-9.39-6.84,7.25-6.61,7.25-18.85,15.03-20.51-.02,8.76.02,17.53,0,26.29Z"/><path class="cls-2" d="M1.26,838.22c0-4.91,0-9.82,0-14.72,17.36,12.96,28.11,23.68,0,14.72Z"/><path class="cls-6" d="M1665.87,1024.38c-1.15-4.28-19.12-1.76-21.61-5.26-34.42.04-63.03-4.55-93.94-3.16-11.12-3.78-48.43-1.74-65.76-2.1-1.43-.03-.45-2.08-1.88-2.1-24.51-.44-48.77,1.69-73.27,1.05-.93-.02,1.53-4.11-15.97-.53,45.51,1.68,256.89,12.62,272.42,12.09-8.81,5.07-60.89,33.49-64.82,34.71-6.89,2.13-148.2,11.31-155.94,10.52-7.52-.77-63.65-25.03-142.79-28.4-5.97-3.51,96.61-28.97,84.55-32.6-26.46,7.64-102.55,27.52-103.33,37.86-35.86.55-58.08,2.92-89.24,6.31-13.28-1.29-92.85-6.76-96.76-8.41-1.98-.84-.53-3.85-.94-5.26,7.02-3.42,162.72-39.14,171.91-39.97,21.16-1.9,111.69,7.88,127.76,6.31,12.08-1.18,184.67-54.33,218.88-62.05,20.28-4.58,20.45-6.09,21.61-6.31,4.52-.87,21.63.87,26.3,0,2.52-.47,2.12-2.7,4.7-3.16q.47,1.05.94,2.1c31.29,2.93,135.49,8.38,150.3,10.52,1.16.17,7.57,1.41,6.58,2.63-12.6,6.36-22.72,13.92-33.82,21.03-8.52,5.46-5.99,8.59-6.58,8.94-5.12,3.07-31.62,10.42-39.45,13.67-10.1,4.19-72.28,32.11-77.03,32.6-.39.04-1.07-1.11-2.82-1.05Z"/><path class="cls-7" d="M1733.5,854c-9.14,3.55-14.91,5.88-22.55,10.52-49.66,17.02,21.26,22.45,47.91,21.03l-.94,2.1c-14.17,1.59-108.05,8.47-110.85,12.09-.73.94.33,5.56,0,7.89-.29,2.04-.59,14.12.94,14.72,29.15.89,58.3-.73,87.36-1.05.02.71.46,1.9-.94,2.1-16.37,2.34-29.97,4.63-46.03,7.36-6.74,1.15-13.88,1.96-20.67,3.16-2.58.46-2.17,2.69-4.7,3.16-4.67.87-21.78-.87-26.3,0-1.15.22-1.33,1.73-21.61,6.31-217.01,10.06-435.07,17.82-652.88,18.93-1.4,0-.48-2.11-1.88-2.1-52.79.24-105.91,2.71-158.76,3.16,1.74-2.92,7.9-17.18,10.33-17.88,6.94-1.99,125.06,13.62,154.06,13.67,17.8.03,310.23-21.5,353.21-25.24,112.58-9.79,224.9-22.24,334.42-39.97,1.25-5.33-1.39-39.15,1.88-39.97,3.61-.9,65.32.95,78.91-2.1l-.94,2.1Z"/><path class="cls-14" d="M1707.2,695.19c-30.9,8.26-131.97,31.5-159.7,34.71-5.26.61-3.55,1.03-3.76,1.05-46.55,4.31-450.47-4.73-546.73,0-4.7-4.76-23.06-20.21-22.55-24.72.21-1.88,27.69-28.22,31.94-33.13,234.04,11.57,469.12,11.99,703.61,17.88,5.86,2.67-.56,1.06-2.82,4.21Z"/><path class="cls-5" d="M869.26,747.77c47.99-.07,96.61.75,144.67,1.05,68.46.43,137.23,3.52,205.73,4.21,107.94,1.09,216.13.38,324.09,1.05,0,10.79-1.53,21.91,1.88,32.6-1.41.09-2.08.14-1.88,1.05-17.44-1.77-35.13-3.69-52.61-5.26-54.5-4.89-110.46-9.32-165.33-12.62-62.69-3.77-125.01-5.62-187.88-7.36-150.27-4.16-258.14-3.43-407.7,0-79.41,1.82-159.47,3.16-238.61,7.36-65.14,3.46-130.74,9.07-195.39,14.72-27.78,2.43-55.67,6.75-84.55,6.31,65.83-10.02,66.35-8.15,65.76-33.66,197.54,1.84,394.46-9.16,591.82-9.47Z"/><path class="cls-19" d="M1543.74,730.95v23.14c-107.97-.67-216.15.04-324.09-1.05-68.5-.69-137.27-3.77-205.73-4.21-6.22-5.77-11.11-12-16.91-17.88,96.26-4.73,500.18,4.31,546.73,0Z"/><path class="cls-10" d="M1769.2,782.48c-2.45.4-41.35,2.5-50.73,3.16-15.63-1.95,50.67-9.29,52.61-7.89l-1.88,4.73Z"/><path class="cls-10" d="M1710.96,786.69c-1.23.08-2.53-.08-3.76,0-3.83-2.68,5.89-4.68,3.76,0Z"/><path class="cls-8" d="M1686.53,848.74c-21.95-12.63-9.75-11.84-3.76-14.72,24.89-12,131.22-49.33,168.15-56.79,13.87,2.85-15.29,4.83-26.3,8.41-7.71,2.5-134.75,58.48-138.09,63.1Z"/><path class="cls-3" d="M869.26,747.77c-197.36.3-394.28,11.3-591.82,9.47-.14-5.81-1.51-15.84-5.64-18.93-1.9-1.43-45.04-17.12-52.61-19.98-.04-.66,4.4-2.07,4.7-2.1,48.95-5.46,249.55-2.39,317.52-3.16,47.03-.53,235.47-7.55,254.58-6.31,14.91.96,61.05,32.48,73.27,41.02Z"/><path class="cls-9" d="M157.2,804.57c7.72,40.36-.11,20.91-43.21,26.29-8.29-8.82-54.09-39.14-52.61-41.54,4.95-1.03,10.77-3.87,15.97-3.68,4.33.15,67.92,19.71,79.85,18.93Z"/><path class="cls-6" d="M1318.29,1065.39c-34.44-2.68-69-7.2-103.33-10.52,3.21-2.33,46.67-6.03,55.42-6.31,53.06-1.67,108.37,7.59,155,21.56-35.73.33-71.71-1.98-107.09-4.73Z"/><path class="cls-15" d="M794.11,688.88c.47,5.81-1.76,12.52,1.88,17.88-19.1-1.24-207.55,5.78-254.58,6.31-67.97.77-268.56-2.3-317.52,3.16-.29.03-4.74,1.45-4.7,2.1-19.61-7.44-40.07-15.05-60.12-22.09.5-3.98,41.32-16.53,44.15-16.83,46.16-4.92,215.03,7.07,276.18,8.41,104.65,2.29,209.99-2.44,314.7,1.05Z"/><path class="cls-8" d="M114.92,697.29c36.19-3.78,29.87,9.4,51.67,19.46-1.5,2.55-53.07-16.4-59.18-16.3-3.74-1.65,4.57-2.85,7.52-3.16Z"/><path class="cls-19" d="M1878.17,882.39c-10.84,1.35-39.43,3.68-50.73,4.21-12.02.56-73.8.43-29.12-3.16,27.49-2.21,70.77-1.96,103.33-7.36,12.81,1.48-10.74,4.72-23.48,6.31Z"/><path class="cls-2" d="M1647.08,907.63c.33-2.33-.73-6.94,0-7.89,2.8-3.63,96.68-10.5,110.85-12.09,30,1.84,74.45-2.39,55.42,6.31-22.84,10.44-132.87,15.3-166.27,13.67Z"/><path class="cls-8" d="M1665.87,1024.38c-15.54.53-226.91-10.42-272.42-12.09,17.5-3.59,15.04.5,15.97.53,24.5.64,48.76-1.49,73.27-1.05,1.43.03.45,2.07,1.88,2.1,17.33.36,54.64-1.68,65.76,2.1,30.91-1.39,59.52,3.19,93.94,3.16,2.49,3.5,20.46.98,21.61,5.26Z"/></g><path class="cls-8" d="M1733.5,854l.94-2.1c-13.59,3.06-75.3,1.21-78.91,2.1-3.27.81-.63,34.64-1.88,39.97-109.52,17.73-221.84,30.17-334.42,39.97-42.98,3.74-335.41,25.28-353.21,25.24-29-.06-147.12-15.66-154.06-13.67-2.43.7-8.59,14.96-10.33,17.88-14.65,24.54-27.12,49.73-39.45,74.67-3.32,3.54-1.56,5.9-8.45,8.41-10.63,3.88-162.89,23.73-190.7,30.5-187.25-.08-374.51.06-561.76,0-.2-17.18.27-34.36,0-51.53,8.51,3.01,42.06,26.88,46.03,27.34,3.43.4,64.86-9.31,67.64-10.52,6.88-2.99-1.05-14.58,5.64-18.93,32.63,7.84,64.63,16.6,99.58,21.03,13.15-12.08-40.52-43.07-22.55-43.12,6.92,2.33,36.86,20.57,39.45,21.03,3.63.64,34.94.14,48.85,3.16,4.87-4.03-18.45-28.39-9.39-29.45,6.63,2.59,27.95,14.16,31.94,14.72,6.61.94,70.73-2.05,88.3-2.1l-2.82-12.62c36.33,3.77,84.84,12.27,89.24,11.57,2.49-.4,27.85-20.59,35.7-21.03,4.72-.27,84.36,13.35,92.06,12.62,5.34-.5,21.91-12.48,31.94-15.78,25.12-8.24,139.11-26.3,171.91-41.02,29.81,6.04,111.54,9.65,149.36,14.72,229.73-17.19,462.86-27.93,685.76-65.21,1.69-8.83-3.57-30.86-.94-36.28,3.24-6.68,19.57-4.16,37.58-4.73,31.89-1.02,60.16-1.96,46.97,3.16Z"/><path class="cls-6" d="M121.5,877.13c0,9.23,42.64,23.79,55.42,34.71,13.8.52-49.67-30.71-46.03-34.71,8.14-.02,16.28.02,24.42,0,101.3-.25,371.09-5.18,451.85,1.05,7.79.6,69.12,7.85,71.39,9.47,3.48,2.47-4.85,22.37,0,26.29,3.43,2.78,100.09,18.24,114.61,21.03,22.26,4.28,20.36,7.11,21.61,7.36-32.79,14.72-146.79,32.77-171.91,41.02-10.03,3.29-26.6,15.27-31.94,15.78-7.7.73-87.35-12.89-92.06-12.62-7.84.44-33.21,20.63-35.7,21.03-4.4.71-52.91-7.8-89.24-11.57-21.65-2.24-26.78-1.96-28.18-2.1-36.4-9.33-79.4-13.24-113.67-25.24-23.55-8.25-79.82-44.4-130.58-55.22,26.38,10.76,56.57,21.37,77.97,36.28-29.69-.83-149.56-12.68-164.39-22.61-4.65-3.11-21.87-28.58-33.82-35.23-.03-11.92.03-23.84,0-35.76,16.82,2.81,9.16,20.5,25.36,22.09,4.67.46,80.62-1.02,94.88-1.05Z"/><path class="cls-9" d="M365.74,993.88c-1.63-.17-12.14.66-32.88-2.1-66.33-8.83-117.29-34.62-124-35.76-12.24-2.08-160.72-6.8-186.94-27.87-5.97-4.8-11.04-18.71-20.67-22.61-.01-4.56.01-9.11,0-13.67,11.95,6.65,29.17,32.12,33.82,35.23,14.84,9.93,134.7,21.78,164.39,22.61-21.4-14.92-51.59-25.52-77.97-36.28,50.76,10.81,107.02,46.97,130.58,55.22,34.27,12,77.27,15.91,113.67,25.24Z"/><path class="cls-9" d="M372.32,962.32c31.31.09,56.44,3.23,84.55,4.21,1.42,1.94,17.16,2.54,29.12,4.73q-85.95-3.42-171.91-6.84c18.89-.75,39.42-2.16,58.24-2.1Z"/><path class="cls-9" d="M130.89,877.13c-3.64,3.99,59.83,35.22,46.03,34.71-12.79-10.92-55.42-25.47-55.42-34.71,3.13,0,6.26,0,9.39,0Z"/><path class="cls-6" d="M365.74,993.88c1.4.15,6.54-.14,28.18,2.1l2.82,12.62c-17.58.06-81.69,3.04-88.3,2.1-3.99-.56-25.31-12.13-31.94-14.72-9.06,1.05,14.27,25.42,9.39,29.45-13.91-3.01-45.22-2.51-48.85-3.16-2.6-.46-32.54-18.7-39.45-21.03-17.98.05,35.7,31.04,22.55,43.12-34.94-4.43-66.95-13.2-99.58-21.03-6.69,4.35,1.24,15.94-5.64,18.93-2.77,1.2-64.2,10.92-67.64,10.52-3.97-.47-37.52-24.34-46.03-27.34-.1-5.96.06-11.92,0-17.88,35.07,2.62,69.42,7.61,102.39,14.72l6.58-1.58c-32.99-10.36-74.62-16.51-108.97-28.92-.03-4.91.03-9.82,0-14.72,108.17,31.73,91.71,23.34,0-8.41-.05-9.82.03-19.63,0-29.45q94.88,29.71,189.76,59.42c-23.41-15.11-59.79-21.53-87.36-34.18-33.44-6.01-66.47-17.82-102.39-28.4-.04-10.17.03-20.33,0-30.5,9.63,3.9,14.69,17.81,20.67,22.61,26.22,21.07,174.7,25.79,186.94,27.87,6.71,1.14,57.67,26.93,124,35.76,20.73,2.76,31.25,1.93,32.88,2.1Z"/><path class="cls-8" d="M1.26,1007.55c-.05-5.26.03-10.52,0-15.78,34.35,12.42,75.98,18.56,108.97,28.92l-6.58,1.58c-32.98-7.12-67.32-12.11-102.39-14.72Z"/><path class="cls-8" d="M1.26,939.19c0-1.05,0-2.1,0-3.16,35.93,10.58,68.96,22.39,102.39,28.4,27.58,12.65,63.95,19.07,87.36,34.18q-94.88-29.71-189.76-59.42Z"/><path class="cls-8" d="M1.26,977.05c-.02-2.8.01-5.61,0-8.41,91.71,31.75,108.17,40.15,0,8.41Z"/><path class="cls-8" d="M124.32,954.96c15.23.32,21.37,3.97,22.55,4.21,40.79,8.41,79.48,18.65,118.36,29.45l2.82,3.68c-50-9.64-97.86-22.62-143.73-37.34Z"/><path class="cls-16" d="M1742.9,684.67c-.28.08.81,2.15-2.82,3.16-9.44,2.61-23.78,4.93-32.88,7.36,2.26-3.14,8.67-1.53,2.82-4.21-234.49-5.89-469.56-6.31-703.61-17.88,2.64-3.06,4.83-6.36,7.52-9.47,18.81-21.73,37.49-43.5,56.36-65.21,12.9-14.83,85.87-93,88.3-98.34,21.99-48.09-4.96-162.01-1.88-170.38.69-1.87,8.94-7.19,9.39-8.41,11.06-29.68,16.25-68.78,18.79-99.39,3.89-46.94.19-94,5.64-140.93,25.78-3.89,176.48-16.59,186.94-15.78,3.42.27,49.63,12.05,63.88,14.72,37.97,7.13,217.7,36.46,232.03,51.01,4.72,4.79,9.68,44.25,16.91,62.05,23.32,57.42,98.73,112.03,103.33,119.9,2.17,3.71,19.92,61.66,26.3,76.78,5.71,13.54,48.44,103.08,45.09,108.33-1.53,2.4-49.65,17.7-67.64,33.66-1.16,12.21,54.36,6.94,66.7,8.94,4.68.76,20.02,14.34,25.36,17.35-82.67,24.53-102.5,11.41-125.88,51.53-.53.92-7.14,3.39-7.52,4.21-1.6,3.49-4.92,53.28-13.15,70.99Z"/><path class="cls-16" d="M609.99,157.76c1.52,35.87-7.07,71.94-3.76,107.8,2.39,25.85,14.1,51.15,18.79,76.78,9.87,53.92,10.42,108.85,41.33,160.91l120.24,148.29c4.43,8.14,6.76,27.95,7.52,37.34-104.71-3.49-210.05,1.24-314.7-1.05-61.15-1.34-230.02-13.33-276.18-8.41-2.83.3-43.66,12.85-44.15,16.83-16.95-5.95-35.33-11.15-52.61-16.83-4.39-23.62-8.65-47.52-15.03-70.99-3.24-11.9-30.2-85-28.18-89.4.93-2.01,34.15-12.92,35.7-15.78,2.31-4.27-2.24-30.36,0-33.66,1.77-2.6,49.92-13.26,54.48-17.88,4.79-4.86,30.6-79.98,37.58-85.19,4.74-3.54,52.64-15.36,56.36-18.93,5.5-5.28,28.9-107.62,39.45-118.84,10.01-10.64,104.21-30.92,128.7-36.28,64.25-14.07,128.75-23.69,194.45-34.71Z"/><path class="cls-20" d="M690.77,145.14c.24,22.39,3.06,121.44,11.27,133.04,2.92,4.12,21.26,12.78,24.42,15.25,23.47,18.34,34.99,31.47,48.85,53.11,14.16,22.12,34,77.32,46.97,90.45,7.8,7.9,77.93,43.18,83.61,43.65.63.05,2.49-2.06,4.7-2.1,2.41,14.67,11.75,98.73,15.03,103.59,1.45,2.15,29.99,15.36,33.82,18.93,11.16,10.42,15.73,46.07,54.48,62.58-2.69,3.1-4.88,6.41-7.52,9.47-4.25,4.91-31.72,31.25-31.94,33.13-.51,4.5,17.85,19.95,22.55,24.72,5.8,5.88,10.69,12.11,16.91,17.88-48.06-.3-96.68-1.13-144.67-1.05-12.22-8.53-58.36-40.05-73.27-41.02-3.64-5.36-1.41-12.07-1.88-17.88-.75-9.39-3.09-29.2-7.52-37.34l-120.24-148.29c-30.91-52.06-31.46-106.99-41.33-160.91-4.69-25.62-16.4-50.93-18.79-76.78-3.32-35.87,5.28-71.93,3.76-107.8,26.97-4.52,53.79-8.33,80.79-12.62Z"/><path class="cls-18" d="M1126.65,86.24c6.76,43.56-16.77,31.23-20.67,36.28-1.95,2.53,2.02,20.29,0,24.19-1.07,2.07-30.16,15.71-46.03,34.18-38.1-60.06-31.01-46.09-29.12,5.26-5.21-.09-26.75,2.8-28.18,4.73-1.43,1.92-.24,35.95,0,41.54,1.65,38.2,11.77,55.89,22.55,90.45,8.43,27.04,28.9,75.93,31.94,99.39,3.57,27.48-4.76,70.76,0,113.06-11.12-21.42-84.41-125.93-99.58-137.25-2.13-1.59-5.32-3.17-5.64-2.1q1.41,33.92,2.82,67.84c-16.83-19.39-24.36-42.37-55.42-56.79-.08-.43-2.29-.15-3.76-8.41-2.38-13.38-1.22-35.23-3.76-47.85-5.76-28.72-13.89-58.26-22.55-86.77-2.56-8.42-6.02-16.8-8.45-25.24q-12.68,12.62-25.36,25.24c-7.9-12.69-14.55-26-16.91-39.44-3.02-4.18-10.8,5.62-21.61,13.14-4.52-35.19-6.9-70.95-27.24-105.17,133.1-19.91,219.25-32.51,356.97-46.28Z"/><path class="cls-17" d="M769.58,134.04c23.71,34.22,25.02,64.84,30.3,100.03,12.59-7.53,16.24-14.41,19.76-10.23,2.75,13.44,17.38,28.97,26.59,41.66,4.28,5.9-9.18,4.93,3.52,8.4,20.6-2.73,3.1-10.68,19.51-9.92,10.09,28.5,35.94,59.57,42.66,88.29,2.95,12.63-17.29,37.78-14.51,51.16-1.64,1.58-8.06-2.43-9.7-.85-16.41-13.25-45.67-51.76-49.19-55.49-2.21-2.35-29.92-35.38-38.64-40.17-1.59-.88-9.93-17.24-13.62-18.72-4.47-1.8-49.6-49.01-51.72-51.62-21.83-26.89-24.14-66.22-24.09-95.18,19.63-2.62,39.48-4.84,59.13-7.36Z"/><path class="cls-17" d="M892.74,401.76c1.41-1.58,2.74-3.38,4.15-4.96,1.47,8.26,2.35,9.78,2.42,10.22.67,3.84,1.21,7.71,1.88,11.57l-2.82,5.26c-61.45-32.11-90.19-85.51-106.15-130.94-7.12.69-16.94-20.03-24.42-14.72,2.78,18.52-11.17,6.54-17.85,21.56-11.81,1.57-14.36-10.3-23.48-6.31-3.17-2.47-21.51-11.13-24.42-15.25-8.21-11.6-11.03-110.65-11.27-133.04,9.33-1.48,18.71-3.79,28.18-5.26-.05,28.96,1.94,68.29,20.67,95.18,1.82,2.61,43.14,47.63,46.97,49.43"/><path class="cls-1" d="M1057.14,535.33c2.35,20.88,10.46,42.16,13.15,63.1-18.88,21.7-37.55,43.48-56.36,65.21-38.76-16.5-43.33-52.16-54.48-62.58-3.83-3.57-32.37-16.78-33.82-18.93-3.28-4.86-12.62-88.93-15.03-103.59-3.28-19.98-5.93-39.98-9.39-59.95-.67-3.86-1.21-7.73-1.88-11.57,31.06,14.42,38.59,37.41,55.42,56.79q-1.41-33.92-2.82-67.84c.32-1.07,3.51.52,5.64,2.1,15.16,11.32,88.45,115.83,99.58,137.25Z"/><path class="cls-20" d="M901.2,418.58c3.46,19.97,6.11,39.97,9.39,59.95-2.21.04-3.19,12.19-3.82,12.14-5.68-.47-85.81-23.42-93.62-31.32-12.97-13.13-29.31-75.93-43.47-98.04-13.86-21.64-19.74-49.54-43.21-67.88,9.12-3.99,11.67,7.88,23.48,6.31,6.68-15.02,20.63-3.04,17.85-21.56,7.49-5.3,17.3,15.41,24.42,14.72,15.96,45.43,44.7,98.82,106.15,130.94l2.82-5.26Z"/><path class="cls-20" d="M1025.2,322.88c-10.77-34.56-20.9-52.25-22.55-90.45,38.64-13.08,29-24.15,28.18-46.28-1.89-51.35-8.98-65.32,29.12-5.26,15.87-18.47,44.96-32.11,46.03-34.18,2.02-3.9-1.95-21.66,0-24.19,3.9-5.06,27.43,7.28,20.67-36.28,20.41-2.04,43.21-5.61,63.88-5.26-5.44,46.93-1.74,93.99-5.64,140.93-6.88.24-28.74-.11-32.88,1.05-11,3.09-49.53,34.39-51.67,41.54"/><path class="cls-20" d="M1013.93,283.86c2.13-7.16,121.16-69.76,132.16-72.85,4.14-1.16,31.93,11.14,38.81,10.9-2.54,30.61-7.72,69.7-18.79,99.39-.45,1.22-8.71,6.55-9.39,8.41-3.08,8.37,23.87,122.29,1.88,170.38-2.44,5.33-75.4,83.51-88.3,98.34-2.69-20.94-10.8-42.22-13.15-63.1-4.76-42.3,3.57-85.58,0-113.06-3.04-23.45-23.51-72.35-31.94-99.39"/><path class="cls-17" d="M1030.83,186.15c.81,22.13,10.46,33.19-28.18,46.28-.24-5.59-1.43-39.63,0-41.54,1.44-1.93,22.97-4.83,28.18-4.73Z"/><path class="cls-12" d="M869.26,263.98c-14.08-.76-.17,13.05-17.85,15.78-10.9-3.47-12.3-9.88-15.97-15.78q12.68-12.62,25.36-25.24c2.43,8.44,5.9,16.82,8.45,25.24Z"/><path class="cls-8" d="M3.93,794.69c-.73-19.85,71.68,6.65,79.44,4.77,40.64,7.34,262.61,23.57,318.19,26.38,101.55,5.13,371.13,13.11,471.84,13.76,173.74,1.12,523.42-11.43,693.88-27.53,26.48-2.5,62.54-6,86.24-11.47.99,0,5.37-5.08,6.36-5.08-2.1,10.89-6.86,22.43-6.48,33.37,3.41,2.78,30.48-3.22,30.48,4.59-6.32,3.15-12.78,1.49,10.38,15.26-.29.41-4.44,4.21-4.59,5.02-19,.63-36.7-1.37-40.12,5.92-2.78,5.92,2.77,29.94.99,39.57-235.21,40.66-481.2,52.36-723.62,71.11-39.91-5.54-126.15-9.47-157.61-16.06-1.32-.28.69-3.36-22.8-8.03-15.32-3.04-117.31-19.91-120.93-22.94-5.12-4.27,3.67-25.98,0-28.67-2.4-1.76-67.11-9.67-75.34-10.32-85.22-6.8-372.89-5.79-479.79-5.52,5.25-3.35-13.49-32.52-15.45-34.62-1.45-1.56-44.03-41.41-51.08-44.22"/><path class="cls-4" d="M1535.86,786.76c18.54,1.72,39.04,5.69,57.49,4.06,8.78.76,54.1,3.27,56.5,4.06,3.9,1.28-1.07,1.93-.99,2.03-44.05-5.6-44.1.97-46.59,1.02-12.52.23-41.57-1.96-69.39-1.02-70.77,2.41-141.41,9.43-212.13,12.18-73.6,2.86-210.46,6.09-285.48,7.11-170.99,2.32-398.76-1.72-570.96-7.11-114.21-3.57-234.09-12.93-348.78-11.6,8.52-3.72,17.22-4.42,4.81-6.68,3.12-.41,7.18-.64,9.91-1.02,30.47.42,59.9-3.74,89.21-6.09q.5,3.05.99,6.09c54.78-3.36,111.2-7.73,166.53-7.11,3.46.04,20.34,2.97,25.77,3.05,209.83,2.84,424.82,8.32,634.4,6.09,123.83-1.32,254.32-9.54,376.68-8.12,6.24.07,41.52,3.46,43.62,3.05,1.54-.31-.73-3.81,12.89-5.08,18.44,1.51,37.1,3.37,55.51,5.08Z"/><path class="cls-13" d="M120.34,770.01c12.41,4.05,3.71,5.31-4.81,11.98,114.69-2.39,234.56,14.4,348.78,20.8,172.21,9.65,399.97,16.91,570.96,12.75,75.02-1.83,211.88-7.62,285.48-12.75,70.72-4.93,141.36-17.54,212.13-21.85,27.82-1.7,56.87,2.23,69.39,1.82,2.49-.08,5.02-.6,49.08,9.44.84,1.96,4.6,6.72,3.93,9.21-23.7,8.69-64.21,14.99-90.69,18.96-170.46,25.55-520.13,29.73-693.86,27.95-100.71-1.03-497.13-5.21-598.68-13.36-55.58-4.46-228.21-38.14-268.85-49.79-22.37-6.41,78.84-6.09,117.15-15.17Z"/><path class="cls-11" d="M1105.65,768.49c57.27.89,170.53,6.8,179.42,6.09,3.47-.28,4.76-4.99,21.19-5.84,57.91,3.19,122.04,8.22,179.55,12.94-13.62,1.26-16.81,4.77-18.35,5.08-2.1.42-37.37-2.97-43.62-3.05-122.36-1.42-252.85,6.81-376.68,8.12-209.58,2.23-424.57-3.25-634.4-6.09-5.43-.07-22.31-3.01-25.77-3.05-55.33-.62-111.75,3.75-166.53,7.11q-.5-3.05-.99-6.09c68.23-5.46,137.44-10.87,206.18-14.21-2.95,5.19-24.15-.29-20.82,8.12,99.75-5.84,200.16-6.82,300.35-8.12,132.96-1.72,267.5-3.09,400.47-1.02Z"/><path class="cls-22" d="M1107.64,761.71c-10.46,2.49-5.08,2.9-1.98,6.78-132.97-2.07-267.5-.71-400.47,1.02-13.33-1.08-18.06-2.12-27.76-7.11,157.82-3.31,271.64-4.7,430.21-.69Z"/><path class="cls-21" d="M677.43,762.4c9.7,4.99,14.42,6.02,27.76,7.11-100.19,1.3-200.6,2.28-300.35,8.12-3.33-8.41,17.86-2.93,20.82-8.12,83.5-4.06,167.98-5.35,251.78-7.11Z"/><path class="cls-21" d="M1334.68,762.5c-16.42.85-43.85,17.12-47.32,17.4-8.89.71-129.89-10.52-187.16-11.41-3.09-3.88-8.47-4.29,1.98-6.78,66.34,1.68,166.34-2.85,232.49.79Z"/></g></svg>