<?xml version="1.0" encoding="UTF-8"?><svg id="Layer_2" xmlns="http://www.w3.org/2000/svg" xmlns:xlink="http://www.w3.org/1999/xlink" viewBox="0 0 1923.91 993.57"><defs><style>.cls-1{fill:url(#linear-gradient);}.cls-1,.cls-2,.cls-3,.cls-4,.cls-5,.cls-6,.cls-7,.cls-8,.cls-9{stroke-width:0px;}.cls-2{fill:#1f506f;}.cls-3{fill:#9b536f;}.cls-4{fill:#4d5774;}.cls-5{fill:#faac64;}.cls-6{fill:#605774;}.cls-7{fill:url(#linear-gradient-2);}.cls-8{fill:#7d5572;}.cls-9{fill:#ef8465;}</style><linearGradient id="linear-gradient" x1="1942.77" y1="285.6" x2="1382.15" y2="512.67" gradientUnits="userSpaceOnUse"><stop offset="0" stop-color="#de7b76"/><stop offset="1" stop-color="#ef8368"/></linearGradient><linearGradient id="linear-gradient-2" x1="317.43" y1="-62.99" x2="832.11" y2="886.62" gradientUnits="userSpaceOnUse"><stop offset="0" stop-color="#70687f"/><stop offset=".68" stop-color="#ee8567"/></linearGradient></defs><g id="nuages_arriere"><path class="cls-1" d="M1923.88,187.56c.02,27.47-.02,54.94,0,82.42-62.07,3.01-124.17,24.39-161.57,62.16-20.6,20.8-58.32,78.78-18.79,96.39-86.92,8.52-81.84,75.07-84.54,80.32-25.09-14.74-56.88-20.52-88.3-19.56-40.29,1.24-80.56,15.56-105.21,39.81-43.25,42.55-19.85,74.59-22.55,78.23-1.72,2.32-32.36.45-42.27,38.41-5.65-11.97-1.94-29.07-2.82-42.61-.07-1.05-3.75-1.92-3.76-2.1-.02-.47.01-.93,0-1.4-.83-32.92,3.01-51.2,22.55-81.02,35.44-54.11,78.08-58.24,80.79-62.16,3.12-4.52-2.48-53.55,65.76-84.51,1.12-.51,17.79-6.16,20.67-6.98,31.26-8.9,61.59-9.23,93.94-3.49-21.72-110.73,108.66-179.32,246.12-173.91Z"/><path class="cls-5" d="M1683.4,132.38c47.82,38.29,165.57,60.16,212.3,11.18,25.95-27.2-.26-40.56,28.18-37.02.03,27.01-.02,54.01,0,81.02-137.46-5.41-267.84,63.19-246.12,173.91-32.35-5.74-62.68-5.41-93.94,3.49-5.26-9.03-6.81-17.71-9.39-27.24-.31-1.14-3.49-.26-3.76-1.4-2.36-9.97-5.1-40.63-3.76-50.29.15-1.1,3.58-.29,3.76-1.4,9.69-58.71,34.89-168.06,99.57-162.62"/><path class="cls-5" d="M1563.16,371.95c-68.24,30.96-62.63,79.99-65.76,84.51-2.71,3.92-45.34,8.05-80.79,62.16-1.58-6.54-5.74-12.22-9.39-18.16,10.21-2.23,14.35-17.65,24.42-27.24,20.77-19.77,56.73-25.59,58.24-27.94,2.86-4.45-7.38-44.07,72.33-76.13l.94,2.79Z"/><path class="cls-7" d="M475.34,173.59c.07.42-4.76,6.34-.94,8.38,6.05,3.23,74.73,2.27,121.18,57.97,65.28,78.28-12.95,138.97-15.03,146.67-3.54,13.13,18.08,30.96,16.91,46.1,3.83,2.73,12.22-2.05,24.42-2.1,31.46-.12,45.87,3.23,73.27,13.97,22.24,16.56,34.61,28.76,48.85,49.59,4.02,5.88-2.85,7.84,7.52,9.08,20.31,2.44,43.35-4.31,90.18,12.57,80.43,29,70.14,79.71,73.27,84.51,2.74,4.2,29.39-3.45,53.55,44,108.03-32.33,118.56,41.97,125.88,44.7,5.06,1.89,51.59-25.99,104.27,11.18-4.5,1.35-29.19,8.78-30.06,10.48-1.74,3.39,2.13,21.13-.94,23.05-1.83,1.14-26.62-7.35-45.09,5.59-16.16-23.13-24.36-8.99-50.73-11.18-29.05-2.4-7.4-14.06-33.82-11.18-13.52-47.98-48.71-20.62-52.61-20.95-11.81-1.02-5.96-31.58-54.48-11.18-6.82-71.82-69.47-51.24-75.15-53.08-2.8-.91-.63-23.99-28.18-39.11-35.83-19.67-98.29-16.5-120.24,15.37-25.39-6.21-14.15-11.31-29.12-27.24-10.51-11.18-45.72-27.19-46.97-29.33-1.32-2.28,1.44-25.82-29.12-42.61-32.37-17.78-59.75-7.91-62.94-11.87-1.04-1.29.58-18.23-3.76-30.03-10.88-29.61-51.23-55.7-88.3-67.05-11.9-3.64-25.17-5.29-37.58-7.68,55.84-23.54,41.38-53.49,20.67-90.8-44.8-80.68-144.35-136.41-264.91-129.21-36.4,2.17-75.65,13.87-104.27,30.73-31.28,18.43-10.45,27.93-61.06,11.18C.04,181.04-.02,147.98.01,114.92c65.23,4.23,23.43-6.26,67.64-52.38C108.39,20.03,185.73-3.29,254.59.38c1.46.08.41,2.69,1.88,2.79,7.2.49,17.04-.75,22.55,0,67.48,9.15,145.09,54.21,175.67,99.88,22.32,33.33,16.58,45.9,20.67,70.54Z"/><path class="cls-5" d="M621.89,430.62c-12.21.05-20.6,4.83-24.42,2.1,1.17-15.14-20.45-32.97-16.91-46.1,2.08-7.7,80.32-68.39,15.03-146.67-46.45-55.7-115.13-54.74-121.18-57.97-3.82-2.04,1.01-7.96.94-8.38,59.69-.83,122.53,45.15,140.91,84.51,27.11,58.05-13.02,107.64-15.03,114.54-4.35,14.9,5.94,39.59,7.52,55.88q6.58,1.05,13.15,2.1Z"/><path class="cls-5" d="M751.52,503.26c-10.36-1.24-3.49-3.2-7.52-9.08-14.24-20.83-26.61-33.03-48.85-49.59,28.68,11.24,53.73,33.6,56.36,58.67Z"/><path class="cls-9" d="M1394.07,599.64c.01.47-.02.93,0,1.4-66.98-.52-76.36,47.54-81.73,48.89-4.24,1.07-35.85-11.37-62,1.4-30.12,14.7-22.05,40.44-23.48,42.61-1.43,2.15-17.28,3.86-20.67,4.89-7.68-87.89,69.28-78.27,76.09-81.02,5.89-2.38,30.2-57.53,111.79-18.16Z"/><path class="cls-4" d="M165.34,172.19c3.67,6.23,23.28-.67,39.45,6.29-28.3,26.42-14.87,26.84-16.91,34.92-.16.65-8.3,5.46-9.39,11.18-2.78,14.53,7.63,32.28-9.39,43.3q-.94,53.78-1.88,107.56c-1.39,10.06-7.29,20.04-1.88,29.33-13.3-6.19-12.61,2.7-15.97,3.49-5.77,1.37-23.28-11.21-30.06-13.97C84.97,380.33,38.59,366.86.01,362.17.04,312.81-.03,263.46.01,214.1c50.61,16.76,29.78,7.25,61.06-11.18,28.62-16.86,67.87-28.56,104.27-30.73Z"/><path class="cls-8" d="M535.46,466.94c-9.39-.88-.89-13.86-21.61-9.78-30.56,6.01-25.58,71.95-19.73,85.91,7.02,16.76,47.17,23.26,49.79,24.45,20.06,9.09,19.38,29.23,23.48,35.62,14.83,23.09,34.78,43.91,52.61,65.65,1.28,1.56-11.92,7.51,24.42,11.18-27.25,9.34,26.93,4.68,55.42,7.68,4.7.5,8.86,4.12,9.39,4.19,11.41,1.6,22.09-.27,26.3,1.4,6.29,2.49.1,6.6,7.52,9.78,2.82,1.21,22.09,3.64,28.18,5.59,17.37,5.56,30.46,15.12,43.21,9.78,26.78,13.52,50.3,22.91,82.67,27.94,7.91,17.29,13.56,3.06,15.03,2.79,1.04-.19,19.72,3.81,20.67,4.19,10.38,4.14,4.14,6.61,9.39,9.78,6.57,3.97,22.8-1.15,30.06,8.38,3.41-5.38,38.96-12.66,41.33-12.57,8.64.32,38.51,21.78,60.12,9.78.57,4.74,46.27,10.15,48.85,9.78,5.17-.74,17.55-12.38,18.79-12.57,3.54-.55,14.32,5.14,18.79,5.59,26.66,2.66,28.52-14.16,37.58-15.37,3.21-.43,20.77,3.14,30.06,1.4,6.43-1.21,23.72-17.73,26.3-18.16,7.99-1.33,26.86,10.67,35.7,9.78,3.98-.4,61.68-22.52,75.15-19.56,2.41.53,10.21,18.41,41.33,15.37,2.76-.27,33.31-10.45,53.55-9.78-5.42,4.3-19.97,16.62-24.42,20.95-35.91-1.49-41.26,22.91-69.51-21.65-42.97-4.82-67.71,31.28-109.91,7.68-37.76,35.63-46.52,2.26-77.03,32.13-56.79-5.55-31.13-.33-46.97,5.59-26.6,9.94-57.01-5.12-60.12-5.59-8.41-1.28-15.01,7.26-39.45-1.4-5.8-2.05-17.73-20.44-46.03.7-3.12,2.33-10.91,14.1-14.09,14.67-5.94,1.06-73.32-31.18-97.7-25.14-8.73,2.94,11.45,17.46,17.85,27.94,6.82,11.17,12.54,24.47,16.91,36.32,1.79,4.86,1.31,12.49,1.88,13.97l-1.88,2.79c-18.8-104.46-173.96-180.73-301.54-121.53q-1.41-2.1-2.82-4.19c58.65-23.78,58.94-7.39,0-28.64-9.19-49.06-61.3-73.97-63.88-78.23-1.03-1.69,1.03-8.21,0-9.78-12.17-18.64-58.54-8.58-88.3-34.92-48.35-42.8,9.9-133.51,7.52-149.47-1.23-8.2-11.8-1.7-13.15-17.46,37.07,11.35,77.42,37.44,88.3,67.05Z"/><path class="cls-6" d="M447.16,399.89c1.36,15.76,11.92,9.26,13.15,17.46,2.39,15.95-55.86,106.67-7.52,149.47,29.76,26.34,76.13,16.28,88.3,34.92,1.03,1.57-1.03,8.08,0,9.78,2.58,4.25,54.69,29.16,63.88,78.23,58.94,21.24,58.65,4.86,0,28.64,7.52-82.22-112.08-160.58-213.24-104.77-17.33-36.74-62.21-57.63-112.73-40.51-10.77-37.78-47.67-33.33-49.79-35.62-3.38-3.65,4.52-37.47-33.82-83.81C153.19,402.64,76.16,376.92.01,364.97c0-.93,0-1.86,0-2.79,38.57,4.69,84.96,18.16,119.3,32.13,6.78,2.76,24.29,15.34,30.06,13.97,3.36-.8,2.67-9.68,15.97-3.49-5.41-9.3.48-19.28,1.88-29.33q.94-53.78,1.88-107.56c17.03-11.02,6.61-28.77,9.39-43.3,1.09-5.71,9.23-10.53,9.39-11.18,2.04-8.09-11.39-8.5,16.91-34.92-16.17-6.96-35.78-.05-39.45-6.29,120.56-7.2,220.11,48.53,264.91,129.21,20.71,37.3,35.17,67.26-20.67,90.8,12.4,2.4,25.68,4.04,37.58,7.68Z"/><path class="cls-6" d="M1923.88,269.98c.04,61.46.03,122.93,0,184.39-11.14,14.24-5.68,44.85-7.52,46.8-3.7,3.91-65.51-1.64-90.18,59.37-8.29,20.5-10.54,41.43-5.64,62.86-57.2-2.84-73.35,24.86-84.54,30.73-23.19,12.16-21.77-7.74-24.42-10.48-4.43-4.57-17.27-11.44-20.67-15.37-3.5-4.04-5.14-11.95-5.64-12.57-2.02-2.56-11.32-7.6-16.91-18.16-6.01-11.35-25.26-71.6-20.67-81.02,1.7-3.49,6.25-3.57,7.52-6.29.12-.25,2.51,1.01,3.76-1.4,2.7-5.25-2.38-71.8,84.54-80.32-39.53-17.6-1.81-75.59,18.79-96.39,37.4-37.77,99.51-59.15,161.57-62.16Z"/><path class="cls-3" d="M535.46,466.94c4.33,11.8,2.72,28.74,3.76,30.03,3.19,3.97,30.57-5.9,62.94,11.87,30.56,16.79,27.8,40.33,29.12,42.61,1.25,2.15,36.46,18.16,46.97,29.33,14.97,15.93,3.73,21.03,29.12,27.24,21.95-31.86,84.41-35.03,120.24-15.37,27.55,15.12,25.38,38.2,28.18,39.11,5.68,1.84,68.33-18.74,75.15,53.08,48.53-20.4,42.68,10.15,54.48,11.18,3.89.34,39.09-27.02,52.61,20.95,26.41-2.89,4.77,8.77,33.82,11.18,26.37,2.18,34.57-11.96,50.73,11.18,18.48-12.93,43.26-4.44,45.09-5.59,3.07-1.92-.8-19.66.94-23.05.87-1.69,25.56-9.13,30.06-10.48.36-.11,2.33.18,7.52-1.4,3.38-1.03,19.24-2.74,20.67-4.89,1.43-2.16-6.64-27.9,23.48-42.61,26.15-12.76,57.76-.33,62-1.4,5.37-1.35,14.75-49.41,81.73-48.89,0,.17,3.69,1.05,3.76,2.1.88,13.54-2.84,30.63,2.82,42.61,9.91-37.96,40.55-36.1,42.27-38.41,2.69-3.63-20.7-35.68,22.55-78.23,24.66-24.26,64.92-38.57,105.21-39.81-23.53,43.88-30.89,81.19-28.18,127.82,9.34,7.77,4.06,17.47,5.64,26.54.82,4.73,21.01,29.24-18.79,55.88,2.07,5.08,19.42-12.99,15.03,2.1-25.78,5.77-54.84,17.65-75.15,30.73.39-2.49-7.53,1.31-9.39,2.79-20.23-.67-50.79,9.51-53.55,9.78-31.12,3.04-38.93-14.84-41.33-15.37-13.47-2.97-71.17,19.16-75.15,19.56-8.83.89-27.7-11.11-35.7-9.78-2.58.43-19.87,16.95-26.3,18.16-9.29,1.75-26.85-1.82-30.06-1.4-9.06,1.2-10.92,18.03-37.58,15.37-4.47-.45-15.25-6.14-18.79-5.59-1.24.19-13.62,11.83-18.79,12.57-2.58.37-48.28-5.03-48.85-9.78-21.61,12-51.48-9.46-60.12-9.78-2.37-.09-37.93,7.19-41.33,12.57-7.27-9.53-23.49-4.41-30.06-8.38-5.25-3.17.99-5.63-9.39-9.78-.94-.38-19.63-4.38-20.67-4.19-1.47.27-7.12,14.5-15.03-2.79-32.36-5.03-55.89-14.42-82.67-27.94-12.76,5.34-25.84-4.22-43.21-9.78-6.09-1.95-25.36-4.38-28.18-5.59-7.42-3.18-1.23-7.29-7.52-9.78-4.22-1.67-14.9.2-26.3-1.4-.54-.08-4.69-3.7-9.39-4.19-28.49-3-82.68,1.65-55.42-7.68-36.34-3.66-23.15-9.62-24.42-11.18-17.82-21.75-37.78-42.56-52.61-65.65-4.1-6.39-3.43-26.53-23.48-35.62-2.62-1.19-42.76-7.68-49.79-24.45-5.85-13.96-10.83-79.89,19.73-85.91,20.72-4.08,12.22,8.89,21.61,9.78Z"/><path class="cls-8" d="M1658.97,508.84c-1.24,2.41-3.64,1.15-3.76,1.4q-16.44-6.98-32.88-13.97c-17.47,21.64,5.62,53.65,6.58,56.57,10.15,30.95,19.4,67.6,48.85,92.19-1.1,8.46,26.05,38.45,26.3,43.3.26,5.05-12.4,8.16,2.82,14.67,6.12-1.52,11.1-28.06,17.85-29.33-15.03,37.75,9,46.53-26.3,39.11-2.63-.55-29.54-11.13-46.03-13.97-36.89-6.35-71.84-5.3-108.03,2.79,4.39-15.08-12.96,2.99-15.03-2.1,39.79-26.64,19.61-51.15,18.79-55.88-1.58-9.07,3.7-18.77-5.64-26.54-2.71-46.62,4.65-83.94,28.18-127.82,31.43-.97,63.21,4.82,88.3,19.56Z"/><path class="cls-8" d="M1655.22,510.24c-1.27,2.72-5.81,2.79-7.52,6.29-4.59,9.42,14.66,69.67,20.67,81.02,5.59,10.56,14.89,15.6,16.91,18.16.49.62,2.14,8.53,5.64,12.57,3.4,3.93,16.24,10.79,20.67,15.37,2.65,2.74,1.24,22.64,24.42,10.48-3.6,6.69-8.48,12.54-11.27,19.56-6.74,1.27-11.73,27.82-17.85,29.33-15.22-6.51-2.56-9.62-2.82-14.67-.25-4.86-27.4-34.84-26.3-43.3-29.45-24.59-38.7-61.25-48.85-92.19-.96-2.92-24.05-34.93-6.58-56.57q16.44,6.98,32.88,13.97Z"/><path class="cls-2" d="M1397.82,859.46c1.04,9.8,6.23,18.69,9.39,27.94.95,2.77,1.51,5.64,2.82,8.38-87.99-8.65-100.64,49.65-107.09,51.68-8.28,2.61-110.29-14.64-157.82,46.1-42.32-63.6-110.55-48.57-116.48-51.68-1.74-.91-.56-11.3-2.82-16.76-14.22-34.39-45.4-49.76-93-47.49-10.49.5-19.28,8.85-21.61,0-2.58-9.82.11-22.5-1.88-33.53l1.88-2.79c.32.82,2.48,5.42,2.82,5.59,2.59,1.27,52.9-.4,62,0,72.74,3.23,146.52,3.76,219.82,4.19,30.92.18,62.99-3.09,93.94-2.79,34.45.33,68.58,6.4,103.33,2.79,3.21,1.69-2.55,12.44,4.7,8.38Z"/><path class="cls-2" d="M1397.82,856.67c.06.93-.1,1.87,0,2.79-7.25,4.06-1.48-6.69-4.7-8.38-34.75,3.61-68.88-2.46-103.33-2.79-30.95-.3-63.01,2.98-93.94,2.79-73.3-.43-147.08-.96-219.82-4.19-9.1-.4-59.41,1.27-62,0-.34-.16-2.5-4.77-2.82-5.59-.57-1.48-.09-9.11-1.88-13.97h476.27c14.65,2.81,6.36,20.45,12.21,29.33Z"/><path class="cls-4" d="M1469.22,732.35c-37.65,24.25-63.5,59.73-69.51,96.39-1.53,9.3-2.49,18.55-1.88,27.94-5.85-8.89,2.44-26.53-12.21-29.33h-476.27c-4.37-11.85-10.09-25.15-16.91-36.32,17.86-3.25,37.69,4.68,55.42,5.59,25.13,1.28,47.8-4.41,62-4.19,44.27.7,88.65,5.46,133.39,4.19,38.76-1.1,97.21-8.16,140.91-9.78,32.98-1.23,87.8,2.33,107.09,1.4.61-.03,8.38-4.05,9.39-4.19,2.63-.36,6.99,3.24,9.39,2.79,2.35-.44,9.87-15.66,25.36-30.73,4.45-4.33,19-16.65,24.42-20.95,1.87-1.48,9.78-5.29,9.39-2.79Z"/><path class="cls-6" d="M1435.4,756.09c-15.5,15.07-23.01,30.3-25.36,30.73-2.4.45-6.77-3.15-9.39-2.79-1.01.14-8.79,4.16-9.39,4.19-19.29.94-74.11-2.62-107.09-1.4-43.7,1.62-102.15,8.68-140.91,9.78-44.75,1.27-89.13-3.49-133.39-4.19-14.19-.22-36.87,5.48-62,4.19-17.73-.91-37.56-8.84-55.42-5.59-6.4-10.48-26.58-24.99-17.85-27.94,24.37-6.04,91.75,26.21,97.7,25.14,3.19-.57,10.97-12.33,14.09-14.67,28.3-21.14,40.23-2.75,46.03-.7,24.44,8.65,31.04.12,39.45,1.4,3.11.47,33.52,15.53,60.12,5.59,15.84-5.92-9.82-11.14,46.97-5.59,30.51-29.87,39.27,3.5,77.03-32.13,42.2,23.59,66.94-12.5,109.91-7.68,28.26,44.57,33.61,20.16,69.51,21.65Z"/></g></svg>