<?xml version="1.0" encoding="UTF-8"?><svg id="Layer_2" xmlns="http://www.w3.org/2000/svg" xmlns:xlink="http://www.w3.org/1999/xlink" viewBox="0 0 1924 684.76"><defs><style>.cls-1{fill:url(#linear-gradient);}.cls-1,.cls-2,.cls-3,.cls-4,.cls-5,.cls-6,.cls-7,.cls-8,.cls-9,.cls-10,.cls-11{stroke-width:0px;}.cls-2{fill:#c47481;}.cls-3{fill:#a27082;}.cls-4{fill:#1f506f;}.cls-5{fill:#4d5774;}.cls-6{fill:#faac64;}.cls-7{fill:url(#linear-gradient-2);}.cls-8{fill:#6e6980;}.cls-9{fill:#dd7b79;}.cls-10{fill:#7b6b82;}.cls-11{fill:#ef8465;}</style><linearGradient id="linear-gradient" x1="626.93" y1="409.61" x2="367.3" y2="870.73" gradientUnits="userSpaceOnUse"><stop offset="0" stop-color="#525775"/><stop offset=".84" stop-color="#174e6d"/></linearGradient><linearGradient id="linear-gradient-2" x1="-38.98" y1="198.24" x2="191.61" y2="279.83" gradientUnits="userSpaceOnUse"><stop offset="0" stop-color="#726880"/><stop offset="1" stop-color="#916e81"/></linearGradient></defs><g id="nuages_avant"><path class="cls-6" d="M605.07,322.25l2.82,3.82c127.59-53.98,282.74,15.57,301.54,110.81,1.98,10.05-.7,21.61,1.88,30.57-9,.26-21.51.63-30.06,0-18.65-1.38-6.29-.66-16.91-10.19-15.11-13.57-29.13-13.52-30.06-14.65-2.38-2.89,4.03-24.28-37.58-59.86-27.5-23.52-73.05-44.54-117.42-49.04-53.08-5.38-68.42,7.32-73.27,7.64-7.11.47-40.32-14.16-74.21,6.37-60.9-57.12-155.24-93.18-261.15-82.79-37.15-23.38-88.13-9.14-93-10.19-5.75-1.24-14.38-37.16-85.48-54.13C143.09,132.04,97.79,58.28.1,24.2c0-8.07,0-16.13,0-24.2,76.15,10.9,153.18,34.35,195.39,80.88,38.34,42.26,30.44,73.09,33.82,76.42,2.12,2.09,39.02-1.97,49.79,32.48,50.52-15.61,95.4,3.44,112.73,36.94,101.17-50.89,220.76,20.56,213.24,95.53Z"/><path class="cls-9" d="M864.34,457.26c-24.07-16.16-14.81-2.79-23.48-1.27-59.44-3.61-114.9-26.4-174.73-34.39-15.87-14.75-45.63-7.47-63.88-8.92-.53-.04-3.26-5.06-7.52-5.09-6.63-.06-4.09,7.78-15.97,3.82-10.7-24.71-24.75-42.85-46.97-63.69,33.89-20.53,67.11-5.9,74.21-6.37,4.85-.32,20.19-13.02,73.27-7.64,44.37,4.49,89.92,25.52,117.42,49.04,41.61,35.59,35.2,56.98,37.58,59.86.93,1.13,14.95,1.08,30.06,14.65Z"/><path class="cls-3" d="M892.52,620.3c-49.72,8.36-23.53.78-48.85-22.29-27.74-25.27-89.14-34.59-128.7-17.2-1.9-1,1.17-10.41-10.33-31.84,6.37-.4,5.65,7.97,8.45,8.92,5.15,1.74,52.62-7.34,110.85,15.28,35.91,13.95,64.27,45.52,68.58,47.13Z"/><path class="cls-1" d="M533.98,348.39c22.31,21,36.42,39.28,47.16,64.19,20.38,47.23,10.69,68.07,13.21,71.25,3.72,4.7,80.54,6.33,113.19,67.4,11.55,21.6,8.47,31.08,10.38,32.09,39.72-17.53,101.37-8.14,129.22,17.33,25.42,23.25-.88,30.9,49.05,22.47,3.36,1.26,3.44.81,5.66,1.28,4.12.88,25.54-.47,49.99,11.55,24.61,12.1,31.28,30.11,33.96,30.81,6.88,1.79,61.49-23.62,117.9,17.97-367.86.11-735.73-.08-1103.59,0C-.01,590.15.26,495.59.1,401.02c61.85-1.74,37.93-2.09,49.05-12.2,24.03-21.83,47.76-17.27,49.99-18.61,2.14-1.28,1.44-16.04,17.92-36.59,27.46-34.23,98.82-63.18,154.69-68.68,106.34-10.47,201.07,25.87,262.22,83.44Z"/><path class="cls-4" d="M1923.97,450.9c-.15,77.95.11,155.89,0,233.84-154.69.07-309.37-.1-464.06,0,22.64-23.81,59.48-35.81,62-38.11,5.93-5.43,18.9-58.73,117.42-57.49,11.33-11.19,4.26-9.07,4.7-9.69,37.18-52.91,94.76-52.5,100.51-54.91,3.2-1.34,8.17-22.66,46.97-38.76,3.35-1.39,22.89-5.06,23.48-5.81.77-.98-.4-8.96,0-12.27,8.78,1.39,5.52-6.27,12.21-10.34,14.65-8.91,75.98-6.57,96.76-6.46Z"/><path class="cls-7" d="M270.65,264.93c-55.64,5.46-126.72,34.18-154.06,68.14-16.42,20.39-15.72,35.03-17.85,36.3-2.22,1.33-25.85-3.19-49.79,18.47-11.07,10.02,12.75,10.38-48.85,12.1C-.11,274.7.06,149.45.1,24.2c97.69,34.08,142.99,107.84,92.06,176.41,71.11,16.97,79.73,52.9,85.48,54.13,4.87,1.05,55.85-13.19,93,10.19Z"/><path class="cls-8" d="M1816.88,450.9c-1.76,6.82-1.14,10.64-1.88,16.8-.4,3.31.77,11.29,0,12.27-.59.76-20.13,4.42-23.48,5.81-38.8,16.1-43.77,37.42-46.97,38.76-5.75,2.4-63.33,2-100.51,54.91-.44.62,6.63-1.5-4.7,9.69-98.52-1.24-111.49,52.07-117.42,57.49-2.52,2.31-39.36,14.3-62,38.11-51.98.03-103.96-.02-155.94,0,15.26-10.09,33.73-17.35,50.73-25.84,4.41-2.2,9.2-.55,11.27-1.94,2.12-1.42,2.93-24.24,37.58-27.13-3.88-70.57,68-64.32,74.21-66.54,4.82-1.72.8-25.13,43.21-14.21,6.26.93.51-10.58,2.82-32.3,4.68-8.15,9.46-1.18,10.33-1.29,10.61-1.32,35.25-17.3,54.48-24.55,6.77-2.55,64.03-21.29,67.64-21.96,30.25-5.63,91.84-5.41,124-12.92,35.21,3.27,29.55-7.33,36.64-5.17Z"/><path class="cls-10" d="M1354.7,657.99c-17,8.8-35.47,16.31-50.73,26.76-68.26.03-136.52-.02-204.79,0-56.18-43.35-110.57-16.86-117.42-18.73-2.66-.73-9.31-19.5-33.82-32.11-24.35-12.53-45.68-11.12-49.79-12.04,12.51-19.24,153.58,13.43,177.54,14.72,47.01,2.53,61.67-35.39,103.33,0,51.51-36.88,97.11,8.64,116.48,10.7,12.41,1.32,39.85-11.97,59.18,10.7Z"/><path class="cls-5" d="M1923.97,329.89c-.05,40.33.08,80.67,0,121-20.77-.11-82.1-2.41-96.76,6.37-6.69,4.01-3.43,11.56-12.21,10.19.74-6.07.12-9.83,1.88-16.56,4.39-16.8,14.62-31.84,16.91-38.85,1.29-3.94-1.94-4.84-1.88-5.09.11-.47,5.57-1.27,5.64-2.55.95-19.2-29.04-2.4-24.42-27.38,11.32-13.02,17.86-21.27,35.7-31.84,23.17-9.22,47.59-16.93,75.15-15.28Z"/><path class="cls-3" d="M1923.97,262.38c-.02,22.5.03,45,0,67.51-27.56-1.64-51.98,6.06-75.15,15.28,23.27-13.79,35.38-11.46,33.82-19.74-27.88-8.01-18.14-10.92-24.42-16.56-1.24-1.11-11.56-5.03-15.03-10.19-1.24-1.84-11.44-34.18-13.15-39.49-1.07-3.3.99-9.2,0-12.74-2.19-7.81-8.54-7.44-9.39-10.83-4.9-19.54-2.65-38.62,5.64-57.32,25.98-25.37,32.75,21.7,45.09,42.67,2.72,4.62,24.08,36.74,26.3,38.21,6.56,4.35,17.75,3.01,26.3,3.18Z"/><path class="cls-3" d="M1923.97,262.38c-8.56-.17-19.75,1.16-26.3-3.18-2.22-1.47-23.58-33.59-26.3-38.21-12.34-20.96-19.12-68.03-45.09-42.67,24.67-55.63,86.48-50.56,90.18-54.13,1.84-1.77-3.63-29.68,7.52-42.67-.03,60.29.06,120.58,0,180.87Z"/><path class="cls-2" d="M1820.64,235.64c.85,3.39,7.2,3.02,9.39,10.83.99,3.54-1.07,9.44,0,12.74,1.72,5.3,11.91,37.64,13.15,39.49,3.47,5.16,13.79,9.08,15.03,10.19,6.28,5.64-3.46,8.55,24.42,16.56,1.56,8.29-10.55,5.95-33.82,19.74-17.84,10.57-24.37,18.83-35.7,31.84-6.9,7.93-14.25,21.33-15.97,21.65-2.41.45-22.54-8.92-46.97-11.46-120.5-12.57-217.79,48.98-226.39,128.64-2.31,21.42,3.44,32.76-2.82,31.84-42.41-10.76-38.39,12.32-43.21,14.01-6.21,2.18-78.1-3.98-74.21,65.6-34.64,2.85-35.46,25.35-37.58,26.75-2.08,1.37-6.87-.26-11.27,1.91-19.34-21.58-46.77-8.93-59.18-10.19-19.37-1.97-64.97-45.3-116.48-10.19-41.66-33.69-56.32,2.41-103.33,0-23.96-1.23-165.03-32.32-177.54-14.01-2.21-.47-2.29-.03-5.64-1.27-4.31-1.61-32.67-33.18-68.58-47.13-58.23-22.62-105.7-13.54-110.85-15.28-2.81-.95-2.08-9.32-8.45-8.92-32.51-60.59-109.02-62.21-112.73-66.87-2.51-3.16,7.14-23.83-13.15-70.69,11.88,3.96,9.34-3.88,15.97-3.82,4.26.04,6.99,5.05,7.52,5.09,18.25,1.44,48.01-5.83,63.88,8.92,59.83,7.99,115.29,30.78,174.73,34.39,8.67-1.51-.59-14.89,23.48,1.27,10.61,9.53-1.74,8.81,16.91,10.19,13.96,26.86,27.8,23.62,31,25.47,30.06,17.43,72,41.25,113.67,29.93v-12.1c2.26,4.98,1.08,14.45,2.82,15.28,5.94,2.84,74.16-10.86,116.48,47.13,47.53-55.38,149.54-39.66,157.82-42.03,6.45-1.85,19.1-55.02,107.09-47.13-1.31-2.5-1.87-5.11-2.82-7.64,20.85,4.96,39.12-19.61,50.73-27.38,16.78-11.25,51.04-30.22,58.24-37.57,4.82-4.92,13.91-23.02,30.06-37.57,25.07-22.6,68.44-41.03,108.03-49.04,14.74-2.98,42.77-3.93,44.15-7.64,35.3,6.76,11.27-1.24,26.3-35.66,2.79-6.39,7.67-11.73,11.27-17.83,11.19-5.35,27.34-30.61,84.54-28.02Z"/><path class="cls-9" d="M911.31,467.45c2.33,8.07,11.12.46,21.61,0,47.6-2.07,78.78,11.95,93,43.31v12.1c-41.67,11.32-83.61-12.5-113.67-29.93-3.2-1.86-17.04,1.38-31-25.47,8.55.63,21.06.26,30.06,0Z"/><path class="cls-5" d="M1816.88,450.89c-7.09-2.13-1.43,8.32-36.64,5.09-32.16,7.4-93.75,7.18-124,12.74-3.61.66-60.87,19.14-67.64,21.65-19.23,7.15-43.87,22.9-54.48,24.2-.87.11-5.66-6.76-10.33,1.27,8.6-79.67,105.89-141.21,226.39-128.64,24.43,2.55,44.56,11.91,46.97,11.46,1.72-.32,9.07-13.73,15.97-21.65-4.62,24.98,25.37,8.19,24.42,27.38-.06,1.28-5.52,2.08-5.64,2.55-.06.26,3.16,1.16,1.88,5.09-2.29,7.01-12.52,22.04-16.91,38.85Z"/><path class="cls-11" d="M1698.52,317.15c-1.38,3.72-29.41,4.66-44.15,7.64-39.59,8.01-82.96,26.44-108.03,49.04-16.15,14.56-25.24,32.65-30.06,37.57-29.35,4.37-59.3,22.51-89.24,22.93-.55,0-4.24-3.26-9.39-3.82-2.4-.26-12.78,8.83-17.85-7.64,6.02-33.42,31.86-65.78,69.51-87.89,20.31-11.93,49.37-22.76,75.15-28.02,36.19-7.38,71.14-8.34,108.03-2.55,16.49,2.59,43.4,12.23,46.03,12.74Z"/><path class="cls-9" d="M1516.28,411.41c-7.21,7.36-41.46,26.33-58.24,37.57-11.6,7.78-29.87,32.35-50.73,27.38-3.16-8.43-8.35-16.54-9.39-25.47-.1-.84.06-1.7,0-2.55-.61-8.56.35-16.99,1.88-25.47,5.06,16.48,15.44,7.38,17.85,7.64,5.16.56,8.85,3.83,9.39,3.82,29.94-.41,59.89-18.56,89.24-22.93Z"/></g></svg>