<?xml version="1.0" encoding="UTF-8"?><svg id="Layer_2" xmlns="http://www.w3.org/2000/svg" xmlns:xlink="http://www.w3.org/1999/xlink" viewBox="0 0 1923.91 746.16"><defs><style>.cls-1{fill:url(#linear-gradient);}.cls-1,.cls-2,.cls-3,.cls-4,.cls-5,.cls-6,.cls-7,.cls-8,.cls-9{stroke-width:0px;}.cls-2{fill:#1f506f;}.cls-3{fill:#9b536f;}.cls-4{fill:#4d5774;}.cls-5{fill:#faac64;}.cls-6{fill:#605774;}.cls-7{fill:url(#linear-gradient-2);}.cls-8{fill:#7d5572;}.cls-9{fill:#ef8465;}</style><linearGradient id="linear-gradient" x1="1923.16" y1="187.15" x2="1398.89" y2="399.5" gradientUnits="userSpaceOnUse"><stop offset="0" stop-color="#de7b76"/><stop offset="1" stop-color="#ef8368"/></linearGradient><linearGradient id="linear-gradient-2" x1="360.14" y1="-98.01" x2="804.91" y2="722.6" gradientUnits="userSpaceOnUse"><stop offset="0" stop-color="#70687f"/><stop offset=".68" stop-color="#ee8567"/></linearGradient></defs><g id="nuages_arriere"><path class="cls-1" d="M1923.88,140.86c.02,20.63-.02,41.26,0,61.89-62.07,2.26-124.17,18.32-161.57,46.68-20.6,15.62-58.32,59.16-18.79,72.38-86.92,6.4-81.84,56.38-84.54,60.32-25.09-11.07-56.88-15.41-88.3-14.69-40.29.93-80.56,11.68-105.21,29.9-43.25,31.95-19.85,56.02-22.55,58.75-1.72,1.74-32.36.34-42.27,28.85-5.65-8.99-1.94-21.83-2.82-32-.07-.79-3.75-1.44-3.76-1.57-.02-.35.01-.7,0-1.05-.83-24.72,3.01-38.45,22.55-60.84,35.44-40.64,78.08-43.74,80.79-46.68,3.12-3.4-2.48-40.22,65.76-63.47,1.12-.38,17.79-4.63,20.67-5.25,31.26-6.69,61.59-6.94,93.94-2.62-21.72-83.15,108.66-134.67,246.12-130.61Z"/><path class="cls-5" d="M1683.4,99.42c47.82,28.76,165.57,45.18,212.3,8.39,25.95-20.43-.26-30.46,28.18-27.8.03,20.28-.02,40.56,0,60.84-137.46-4.06-267.84,47.45-246.12,130.61-32.35-4.31-62.68-4.06-93.94,2.62-5.26-6.78-6.81-13.3-9.39-20.46-.31-.85-3.49-.2-3.76-1.05-2.36-7.49-5.1-30.51-3.76-37.77.15-.83,3.58-.22,3.76-1.05,9.69-44.09,34.89-126.21,99.57-122.12"/><path class="cls-5" d="M1563.16,279.33c-68.24,23.25-62.63,60.07-65.76,63.47-2.71,2.94-45.34,6.05-80.79,46.68-1.58-4.91-5.74-9.18-9.39-13.64,10.21-1.67,14.35-13.25,24.42-20.46,20.77-14.84,56.73-19.22,58.24-20.98,2.86-3.34-7.38-33.09,72.33-57.17l.94,2.1Z"/><path class="cls-7" d="M475.34,130.37c.07.31-4.76,4.76-.94,6.29,6.05,2.43,74.73,1.71,121.18,43.54,65.28,58.79-12.95,104.37-15.03,110.15-3.54,9.86,18.08,23.25,16.91,34.62,3.83,2.05,12.22-1.54,24.42-1.57,31.46-.09,45.87,2.43,73.27,10.49,22.24,12.43,34.61,21.6,48.85,37.24,4.02,4.42-2.85,5.89,7.52,6.82,20.31,1.83,43.35-3.24,90.18,9.44,80.43,21.78,70.14,59.86,73.27,63.47,2.74,3.15,29.39-2.59,53.55,33.05,108.03-24.28,118.56,31.52,125.88,33.57,5.06,1.42,51.59-19.51,104.27,8.39-4.5,1.01-29.19,6.6-30.06,7.87-1.74,2.55,2.13,15.87-.94,17.31-1.83.86-26.62-5.52-45.09,4.2-16.16-17.37-24.36-6.75-50.73-8.39-29.05-1.81-7.4-10.56-33.82-8.39-13.52-36.03-48.71-15.48-52.61-15.74-11.81-.77-5.96-23.72-54.48-8.39-6.82-53.94-69.47-38.48-75.15-39.86-2.8-.68-.63-18.02-28.18-29.37-35.83-14.77-98.29-12.39-120.24,11.54-25.39-4.67-14.15-8.49-29.12-20.46-10.51-8.39-45.72-20.42-46.97-22.03-1.32-1.71,1.44-19.39-29.12-32-32.37-13.35-59.75-5.94-62.94-8.92-1.04-.97.58-13.69-3.76-22.55-10.88-22.24-51.23-41.83-88.3-50.35-11.9-2.73-25.17-3.97-37.58-5.77,55.84-17.67,41.38-40.17,20.67-68.19-44.8-60.59-144.35-102.44-264.91-97.04-36.4,1.63-75.65,10.42-104.27,23.08-31.28,13.84-10.45,20.98-61.06,8.39C.04,135.96-.02,111.13.01,86.31c65.23,3.18,23.43-4.7,67.64-39.34C108.39,15.04,185.73-2.47,254.59.28c1.46.06.41,2.02,1.88,2.1,7.2.37,17.04-.56,22.55,0,67.48,6.87,145.09,40.71,175.67,75.01,22.32,25.03,16.58,34.47,20.67,52.98Z"/><path class="cls-5" d="M621.89,323.39c-12.21.03-20.6,3.63-24.42,1.57,1.17-11.37-20.45-24.76-16.91-34.62,2.08-5.78,80.32-51.36,15.03-110.15-46.45-41.83-115.13-41.11-121.18-43.54-3.82-1.53,1.01-5.98.94-6.29,59.69-.62,122.53,33.9,140.91,63.47,27.11,43.6-13.02,80.84-15.03,86.02-4.35,11.19,5.94,29.73,7.52,41.96q6.58.79,13.15,1.57Z"/><path class="cls-5" d="M751.52,377.94c-10.36-.93-3.49-2.4-7.52-6.82-14.24-15.64-26.61-24.81-48.85-37.24,28.68,8.44,53.73,25.23,56.36,44.06Z"/><path class="cls-9" d="M1394.07,450.33c.01.35-.02.7,0,1.05-66.98-.39-76.36,35.7-81.73,36.72-4.24.8-35.85-8.54-62,1.05-30.12,11.04-22.05,30.37-23.48,32-1.43,1.62-17.28,2.9-20.67,3.67-7.68-66,69.28-58.78,76.09-60.84,5.89-1.78,30.2-43.2,111.79-13.64Z"/><path class="cls-4" d="M165.34,129.32c3.67,4.68,23.28-.51,39.45,4.72-28.3,19.84-14.87,20.15-16.91,26.23-.16.49-8.3,4.1-9.39,8.39-2.78,10.91,7.63,24.24-9.39,32.52q-.94,40.39-1.88,80.78c-1.39,7.55-7.29,15.05-1.88,22.03-13.3-4.65-12.61,2.02-15.97,2.62-5.77,1.03-23.28-8.42-30.06-10.49-34.34-10.49-80.73-20.6-119.3-24.13C.04,234.92-.03,197.85.01,160.79c50.61,12.59,29.78,5.44,61.06-8.39,28.62-12.66,67.87-21.45,104.27-23.08Z"/><path class="cls-8" d="M535.46,350.67c-9.39-.66-.89-10.41-21.61-7.34-30.56,4.52-25.58,54.03-19.73,64.52,7.02,12.59,47.17,17.47,49.79,18.36,20.06,6.83,19.38,21.95,23.48,26.75,14.83,17.34,34.78,32.97,52.61,49.31,1.28,1.17-11.92,5.64,24.42,8.39-27.25,7.01,26.93,3.52,55.42,5.77,4.7.37,8.86,3.09,9.39,3.15,11.41,1.2,22.09-.21,26.3,1.05,6.29,1.87.1,4.96,7.52,7.34,2.82.91,22.09,2.73,28.18,4.2,17.37,4.17,30.46,11.35,43.21,7.34,26.78,10.15,50.3,17.21,82.67,20.98,7.91,12.98,13.56,2.3,15.03,2.1,1.04-.14,19.72,2.86,20.67,3.15,10.38,3.11,4.14,4.96,9.39,7.34,6.57,2.98,22.8-.86,30.06,6.29,3.41-4.04,38.96-9.51,41.33-9.44,8.64.24,38.51,16.35,60.12,7.34.57,3.56,46.27,7.62,48.85,7.34,5.17-.56,17.55-9.3,18.79-9.44,3.54-.41,14.32,3.86,18.79,4.2,26.66,2,28.52-10.64,37.58-11.54,3.21-.32,20.77,2.36,30.06,1.05,6.43-.91,23.72-13.31,26.3-13.64,7.99-1,26.86,8.01,35.7,7.34,3.98-.3,61.68-16.92,75.15-14.69,2.41.4,10.21,13.83,41.33,11.54,2.76-.2,33.31-7.85,53.55-7.34-5.42,3.23-19.97,12.48-24.42,15.74-35.91-1.12-41.26,17.21-69.51-16.26-42.97-3.62-67.71,23.49-109.91,5.77-37.76,26.76-46.52,1.7-77.03,24.13-56.79-4.17-31.13-.25-46.97,4.2-26.6,7.46-57.01-3.84-60.12-4.2-8.41-.96-15.01,5.45-39.45-1.05-5.8-1.54-17.73-15.35-46.03.52-3.12,1.75-10.91,10.59-14.09,11.02-5.94.8-73.32-23.42-97.7-18.88-8.73,2.21,11.45,13.11,17.85,20.98,6.82,8.39,12.54,18.38,16.91,27.28,1.79,3.65,1.31,9.38,1.88,10.49l-1.88,2.1c-18.8-78.45-173.96-135.73-301.54-91.27l-2.82-3.15c58.65-17.86,58.94-5.55,0-21.51-9.19-36.85-61.3-55.55-63.88-58.75-1.03-1.27,1.03-6.16,0-7.34-12.17-14-58.54-6.44-88.3-26.23-48.35-32.14,9.9-100.27,7.52-112.25-1.23-6.16-11.8-1.28-13.15-13.11,37.07,8.52,77.42,28.11,88.3,50.35Z"/><path class="cls-6" d="M447.16,300.31c1.36,11.84,11.92,6.95,13.15,13.11,2.39,11.98-55.86,80.11-7.52,112.25,29.76,19.78,76.13,12.23,88.3,26.23,1.03,1.18-1.03,6.07,0,7.34,2.58,3.19,54.69,21.9,63.88,58.75,58.94,15.95,58.65,3.65,0,21.51,7.52-61.75-112.08-120.59-213.24-78.68-17.33-27.59-62.21-43.28-112.73-30.42-10.77-28.37-47.67-25.03-49.79-26.75-3.38-2.74,4.52-28.14-33.82-62.94C153.19,302.38,76.16,283.07.01,274.09c0-.7,0-1.4,0-2.1,38.57,3.52,84.96,13.64,119.3,24.13,6.78,2.07,24.29,11.52,30.06,10.49,3.36-.6,2.67-7.27,15.97-2.62-5.41-6.98.48-14.48,1.88-22.03q.94-40.39,1.88-80.78c17.03-8.28,6.61-21.61,9.39-32.52,1.09-4.29,9.23-7.91,9.39-8.39,2.04-6.07-11.39-6.39,16.91-26.23-16.17-5.23-35.78-.04-39.45-4.72,120.56-5.41,220.11,36.44,264.91,97.04,20.71,28.01,35.17,50.51-20.67,68.19,12.4,1.8,25.68,3.04,37.58,5.77Z"/><path class="cls-6" d="M1923.88,202.75c.04,46.16.03,92.32,0,138.47-11.14,10.69-5.68,33.68-7.52,35.14-3.7,2.94-65.51-1.23-90.18,44.58-8.29,15.4-10.54,31.12-5.64,47.21-57.2-2.13-73.35,18.67-84.54,23.08-23.19,9.14-21.77-5.81-24.42-7.87-4.43-3.43-17.27-8.59-20.67-11.54-3.5-3.04-5.14-8.97-5.64-9.44-2.02-1.92-11.32-5.71-16.91-13.64-6.01-8.52-25.26-53.77-20.67-60.84,1.7-2.62,6.25-2.68,7.52-4.72.12-.19,2.51.76,3.76-1.05,2.7-3.94-2.38-53.92,84.54-60.32-39.53-13.22-1.81-56.77,18.79-72.38,37.4-28.36,99.51-44.42,161.57-46.68Z"/><path class="cls-3" d="M535.46,350.67c4.33,8.86,2.72,21.58,3.76,22.55,3.19,2.98,30.57-4.43,62.94,8.92,30.56,12.61,27.8,30.29,29.12,32,1.25,1.61,36.46,13.64,46.97,22.03,14.97,11.96,3.73,15.79,29.12,20.46,21.95-23.93,84.41-26.31,120.24-11.54,27.55,11.36,25.38,28.69,28.18,29.37,5.68,1.38,68.33-14.07,75.15,39.86,48.53-15.32,42.68,7.62,54.48,8.39,3.89.25,39.09-20.29,52.61,15.74,26.41-2.17,4.77,6.59,33.82,8.39,26.37,1.64,34.57-8.98,50.73,8.39,18.48-9.71,43.26-3.34,45.09-4.2,3.07-1.44-.8-14.76.94-17.31.87-1.27,25.56-6.86,30.06-7.87.36-.08,2.33.13,7.52-1.05,3.38-.77,19.24-2.05,20.67-3.67,1.43-1.62-6.64-20.95,23.48-32,26.15-9.59,57.76-.25,62-1.05,5.37-1.01,14.75-37.11,81.73-36.72,0,.13,3.69.79,3.76,1.57.88,10.17-2.84,23,2.82,32,9.91-28.51,40.55-27.11,42.27-28.85,2.69-2.73-20.7-26.8,22.55-58.75,24.66-18.22,64.92-28.97,105.21-29.9-23.53,32.95-30.89,60.97-28.18,95.99,9.34,5.83,4.06,13.12,5.64,19.93.82,3.55,21.01,21.96-18.79,41.96,2.07,3.82,19.42-9.75,15.03,1.57-25.78,4.33-54.84,13.26-75.15,23.08.39-1.87-7.53.99-9.39,2.1-20.23-.5-50.79,7.14-53.55,7.34-31.12,2.29-38.93-11.14-41.33-11.54-13.47-2.23-71.17,14.39-75.15,14.69-8.83.67-27.7-8.34-35.7-7.34-2.58.32-19.87,12.73-26.3,13.64-9.29,1.31-26.85-1.37-30.06-1.05-9.06.9-10.92,13.54-37.58,11.54-4.47-.33-15.25-4.61-18.79-4.2-1.24.14-13.62,8.88-18.79,9.44-2.58.28-48.28-3.78-48.85-7.34-21.61,9.01-51.48-7.1-60.12-7.34-2.37-.07-37.93,5.4-41.33,9.44-7.27-7.16-23.49-3.31-30.06-6.29-5.25-2.38.99-4.23-9.39-7.34-.94-.28-19.63-3.29-20.67-3.15-1.47.2-7.12,10.89-15.03-2.1-32.36-3.78-55.89-10.83-82.67-20.98-12.76,4.01-25.84-3.17-43.21-7.34-6.09-1.46-25.36-3.29-28.18-4.2-7.42-2.39-1.23-5.47-7.52-7.34-4.22-1.26-14.9.15-26.3-1.05-.54-.06-4.69-2.78-9.39-3.15-28.49-2.25-82.68,1.24-55.42-5.77-36.34-2.75-23.15-7.22-24.42-8.39-17.82-16.33-37.78-31.96-52.61-49.31-4.1-4.8-3.43-19.92-23.48-26.75-2.62-.89-42.76-5.77-49.79-18.36-5.85-10.48-10.83-60,19.73-64.52,20.72-3.06,12.22,6.68,21.61,7.34Z"/><path class="cls-8" d="M1658.97,382.14c-1.24,1.81-3.64.86-3.76,1.05q-16.44-5.25-32.88-10.49c-17.47,16.25,5.62,40.29,6.58,42.49,10.15,23.24,19.4,50.77,48.85,69.24-1.1,6.35,26.05,28.87,26.3,32.52.26,3.79-12.4,6.13,2.82,11.02,6.12-1.14,11.1-21.07,17.85-22.03-15.03,28.35,9,34.94-26.3,29.37-2.63-.42-29.54-8.36-46.03-10.49-36.89-4.77-71.84-3.98-108.03,2.1,4.39-11.33-12.96,2.24-15.03-1.57,39.79-20.01,19.61-38.41,18.79-41.96-1.58-6.81,3.7-14.1-5.64-19.93-2.71-35.01,4.65-63.04,28.18-95.99,31.43-.72,63.21,3.62,88.3,14.69Z"/><path class="cls-8" d="M1655.22,383.19c-1.27,2.04-5.81,2.1-7.52,4.72-4.59,7.07,14.66,52.32,20.67,60.84,5.59,7.93,14.89,11.72,16.91,13.64.49.47,2.14,6.4,5.64,9.44,3.4,2.95,16.24,8.1,20.67,11.54,2.65,2.06,1.24,17,24.42,7.87-3.6,5.03-8.48,9.42-11.27,14.69-6.74.96-11.73,20.89-17.85,22.03-15.22-4.89-2.56-7.23-2.82-11.02-.25-3.65-27.4-26.17-26.3-32.52-29.45-18.47-38.7-46-48.85-69.24-.96-2.19-24.05-26.23-6.58-42.49q16.44,5.25,32.88,10.49Z"/><path class="cls-2" d="M1397.82,645.45c1.04,7.36,6.23,14.04,9.39,20.98.95,2.08,1.51,4.23,2.82,6.29-87.99-6.5-100.64,37.29-107.09,38.81-8.28,1.96-110.29-11-157.82,34.62-42.32-47.76-110.55-36.47-116.48-38.81-1.74-.69-.56-8.49-2.82-12.59-14.22-25.83-45.4-37.37-93-35.67-10.49.37-19.28,6.65-21.61,0-2.58-7.38.11-16.9-1.88-25.18l1.88-2.1c.32.62,2.48,4.07,2.82,4.2,2.59.95,52.9-.3,62,0,72.74,2.43,146.52,2.82,219.82,3.15,30.92.14,62.99-2.32,93.94-2.1,34.45.25,68.58,4.81,103.33,2.1,3.21,1.27-2.55,9.34,4.7,6.29Z"/><path class="cls-2" d="M1397.82,643.35c.06.7-.1,1.41,0,2.1-7.25,3.05-1.48-5.02-4.7-6.29-34.75,2.71-68.88-1.85-103.33-2.1-30.95-.22-63.01,2.23-93.94,2.1-73.3-.32-147.08-.72-219.82-3.15-9.1-.3-59.41.95-62,0-.34-.12-2.5-3.58-2.82-4.2-.57-1.11-.09-6.84-1.88-10.49h476.27c14.65,2.11,6.36,15.35,12.21,22.03Z"/><path class="cls-4" d="M1469.22,549.99c-37.65,18.21-63.5,44.86-69.51,72.38-1.53,6.99-2.49,13.93-1.88,20.98-5.85-6.68,2.44-19.92-12.21-22.03h-476.27c-4.37-8.9-10.09-18.89-16.91-27.28,17.86-2.44,37.69,3.52,55.42,4.2,25.13.96,47.8-3.32,62-3.15,44.27.53,88.65,4.1,133.39,3.15,38.76-.82,97.21-6.12,140.91-7.34,32.98-.92,87.8,1.75,107.09,1.05.61-.02,8.38-3.04,9.39-3.15,2.63-.27,6.99,2.43,9.39,2.1,2.35-.33,9.87-11.76,25.36-23.08,4.45-3.25,19-12.5,24.42-15.74,1.87-1.11,9.78-3.97,9.39-2.1Z"/><path class="cls-6" d="M1435.4,567.82c-15.5,11.32-23.01,22.75-25.36,23.08-2.4.33-6.77-2.37-9.39-2.1-1.01.1-8.79,3.12-9.39,3.15-19.29.7-74.11-1.97-107.09-1.05-43.7,1.22-102.15,6.52-140.91,7.34-44.75.95-89.13-2.62-133.39-3.15-14.19-.17-36.87,4.11-62,3.15-17.73-.68-37.56-6.64-55.42-4.2-6.4-7.87-26.58-18.77-17.85-20.98,24.37-4.54,91.75,19.68,97.7,18.88,3.19-.43,10.97-9.26,14.09-11.02,28.3-15.88,40.23-2.07,46.03-.52,24.44,6.5,31.04.09,39.45,1.05,3.11.35,33.52,11.66,60.12,4.2,15.84-4.44-9.82-8.36,46.97-4.2,30.51-22.43,39.27,2.63,77.03-24.13,42.2,17.72,66.94-9.39,109.91-5.77,28.26,33.47,33.61,15.14,69.51,16.26Z"/></g></svg>