<?xml version="1.0" encoding="UTF-8"?><svg id="Layer_2" xmlns="http://www.w3.org/2000/svg" xmlns:xlink="http://www.w3.org/1999/xlink" viewBox="0 0 1924 563.98"><defs><style>.cls-1{fill:url(#linear-gradient);}.cls-1,.cls-2,.cls-3,.cls-4,.cls-5,.cls-6,.cls-7,.cls-8,.cls-9,.cls-10,.cls-11{stroke-width:0px;}.cls-2{fill:#c47481;}.cls-3{fill:#a27082;}.cls-4{fill:#1f506f;}.cls-5{fill:#4d5774;}.cls-6{fill:#faac64;}.cls-7{fill:url(#linear-gradient-2);}.cls-8{fill:#6e6980;}.cls-9{fill:#dd7b79;}.cls-10{fill:#7b6b82;}.cls-11{fill:#ef8465;}</style><linearGradient id="linear-gradient" x1="627.17" y1="313.43" x2="377.65" y2="756.6" gradientUnits="userSpaceOnUse"><stop offset="0" stop-color="#525775"/><stop offset=".84" stop-color="#174e6d"/></linearGradient><linearGradient id="linear-gradient-2" x1="-29.31" y1="163.95" x2="191.55" y2="242.09" gradientUnits="userSpaceOnUse"><stop offset="0" stop-color="#726880"/><stop offset="1" stop-color="#916e81"/></linearGradient></defs><g id="nuages_avant"><path class="cls-6" d="M605.07,265.41l2.82,3.15c127.59-44.46,282.74,12.82,301.54,91.27,1.98,8.28-.7,17.8,1.88,25.18-9,.21-21.51.52-30.06,0-18.65-1.14-6.29-.54-16.91-8.39-15.11-11.18-29.13-11.13-30.06-12.06-2.38-2.38,4.03-20-37.58-49.31-27.5-19.37-73.05-36.69-117.42-40.39-53.08-4.43-68.42,6.03-73.27,6.29-7.11.38-40.32-11.67-74.21,5.25-60.9-47.05-155.24-76.74-261.15-68.19-37.15-19.25-88.13-7.53-93-8.39-5.75-1.02-14.38-30.61-85.48-44.58C143.09,108.75,97.79,48,.1,19.93c0-6.64,0-13.29,0-19.93,76.15,8.98,153.18,28.29,195.39,66.61,38.34,34.8,30.44,60.2,33.82,62.94,2.12,1.72,39.02-1.62,49.79,26.75,50.52-12.86,95.4,2.83,112.73,30.42,101.17-41.91,220.76,16.93,213.24,78.68Z"/><path class="cls-9" d="M864.34,376.61c-24.07-13.31-14.81-2.3-23.48-1.05-59.44-2.97-114.9-21.75-174.73-28.32-15.87-12.15-45.63-6.16-63.88-7.34-.53-.03-3.26-4.16-7.52-4.2-6.63-.05-4.09,6.41-15.97,3.15-10.7-20.35-24.75-35.29-46.97-52.45,33.89-16.91,67.11-4.86,74.21-5.25,4.85-.26,20.19-10.72,73.27-6.29,44.37,3.7,89.92,21.02,117.42,40.39,41.61,29.31,35.2,46.93,37.58,49.31.93.93,14.95.89,30.06,12.06Z"/><path class="cls-3" d="M892.52,510.89c-49.72,6.89-23.53.64-48.85-18.36-27.74-20.81-89.14-28.49-128.7-14.16-1.9-.83,1.17-8.57-10.33-26.23,6.37-.33,5.65,6.56,8.45,7.34,5.15,1.44,52.62-6.04,110.85,12.59,35.91,11.49,64.27,37.49,68.58,38.81Z"/><path class="cls-1" d="M533.98,286.94c22.31,17.3,36.42,32.35,47.16,52.86,20.38,38.9,10.69,56.06,13.21,58.68,3.72,3.87,80.54,5.21,113.19,55.51,11.55,17.79,8.47,25.6,10.38,26.43,39.72-14.44,101.37-6.7,129.22,14.27,25.42,19.15-.88,25.45,49.05,18.5,3.36,1.04,3.44.67,5.66,1.06,4.12.73,25.54-.39,49.99,9.52,24.61,9.97,31.28,24.8,33.96,25.38,6.88,1.48,61.49-19.46,117.9,14.8-367.86.09-735.73-.07-1103.59,0C-.01,486.06.26,408.17.1,330.29c61.85-1.43,37.93-1.73,49.05-10.04,24.03-17.98,47.76-14.23,49.99-15.33,2.14-1.06,1.44-13.21,17.92-30.13,27.46-28.19,98.82-52.03,154.69-56.57,106.34-8.62,201.07,21.31,262.22,68.72Z"/><path class="cls-4" d="M1923.97,371.37c-.15,64.2.11,128.4,0,192.59-154.69.06-309.37-.08-464.06,0,22.64-19.61,59.48-29.49,62-31.39,5.93-4.47,18.9-48.37,117.42-47.35,11.33-9.22,4.26-7.47,4.7-7.98,37.18-43.57,94.76-43.24,100.51-45.22,3.2-1.1,8.17-18.66,46.97-31.92,3.35-1.15,22.89-4.17,23.48-4.79.77-.81-.4-7.38,0-10.11,8.78,1.14,5.52-5.16,12.21-8.51,14.65-7.33,75.98-5.41,96.76-5.32Z"/><path class="cls-7" d="M270.65,218.2c-55.64,4.5-126.72,28.15-154.06,56.12-16.42,16.79-15.72,28.85-17.85,29.9-2.22,1.1-25.85-2.63-49.79,15.21-11.07,8.25,12.75,8.55-48.85,9.97C-.11,226.25.06,123.09.1,19.93c97.69,28.07,142.99,88.82,92.06,145.29,71.11,13.98,79.73,43.57,85.48,44.58,4.87.86,55.85-10.86,93,8.39Z"/><path class="cls-8" d="M1816.88,371.37c-1.76,5.62-1.14,8.76-1.88,13.83-.4,2.73.77,9.3,0,10.11-.59.62-20.13,3.64-23.48,4.79-38.8,13.26-43.77,30.82-46.97,31.92-5.75,1.98-63.33,1.65-100.51,45.22-.44.51,6.63-1.24-4.7,7.98-98.52-1.02-111.49,42.88-117.42,47.35-2.52,1.9-39.36,11.78-62,31.39-51.98.03-103.96-.02-155.94,0,15.26-8.31,33.73-14.29,50.73-21.28,4.41-1.81,9.2-.45,11.27-1.6,2.12-1.17,2.93-19.96,37.58-22.35-3.88-58.12,68-52.98,74.21-54.8,4.82-1.41.8-20.69,43.21-11.71,6.26.77.51-8.71,2.82-26.6,4.68-6.72,9.46-.98,10.33-1.06,10.61-1.08,35.25-14.25,54.48-20.22,6.77-2.1,64.03-17.54,67.64-18.09,30.25-4.64,91.84-4.46,124-10.64,35.21,2.7,29.55-6.04,36.64-4.26Z"/><path class="cls-10" d="M1354.7,541.93c-17,7.24-35.47,13.44-50.73,22.04-68.26.03-136.52-.02-204.79,0-56.18-35.71-110.57-13.89-117.42-15.43-2.66-.6-9.31-16.06-33.82-26.45-24.35-10.32-45.68-9.16-49.79-9.92,12.51-15.84,153.58,11.06,177.54,12.12,47.01,2.09,61.67-29.15,103.33,0,51.51-30.37,97.11,7.11,116.48,8.82,12.41,1.09,39.85-9.86,59.18,8.82Z"/><path class="cls-5" d="M1923.97,271.7c-.05,33.22.08,66.44,0,99.66-20.77-.09-82.1-1.99-96.76,5.25-6.69,3.3-3.43,9.52-12.21,8.39.74-5,.12-8.1,1.88-13.64,4.39-13.84,14.62-26.22,16.91-32,1.29-3.24-1.94-3.98-1.88-4.2.11-.39,5.57-1.04,5.64-2.1.95-15.81-29.04-1.98-24.42-22.55,11.32-10.72,17.86-17.52,35.7-26.23,23.17-7.6,47.59-13.94,75.15-12.59Z"/><path class="cls-3" d="M1923.97,216.1c-.02,18.53.03,37.07,0,55.6-27.56-1.35-51.98,4.99-75.15,12.59,23.27-11.36,35.38-9.44,33.82-16.26-27.88-6.6-18.14-9-24.42-13.64-1.24-.92-11.56-4.14-15.03-8.39-1.24-1.52-11.44-28.16-13.15-32.52-1.07-2.72.99-7.58,0-10.49-2.19-6.43-8.54-6.12-9.39-8.92-4.9-16.09-2.65-31.81,5.64-47.21,25.98-20.89,32.75,17.88,45.09,35.14,2.72,3.81,24.08,30.26,26.3,31.47,6.56,3.58,17.75,2.48,26.3,2.62Z"/><path class="cls-3" d="M1923.97,216.1c-8.56-.14-19.75.96-26.3-2.62-2.22-1.21-23.58-27.67-26.3-31.47-12.34-17.27-19.12-56.03-45.09-35.14,24.67-45.82,86.48-41.65,90.18-44.58,1.84-1.46-3.63-24.45,7.52-35.14-.03,49.66.06,99.31,0,148.97Z"/><path class="cls-2" d="M1820.64,194.07c.85,2.79,7.2,2.49,9.39,8.92.99,2.91-1.07,7.77,0,10.49,1.72,4.37,11.91,31,13.15,32.52,3.47,4.25,13.79,7.48,15.03,8.39,6.28,4.64-3.46,7.04,24.42,13.64,1.56,6.82-10.55,4.9-33.82,16.26-17.84,8.71-24.37,15.5-35.7,26.23-6.9,6.53-14.25,17.57-15.97,17.83-2.41.37-22.54-7.34-46.97-9.44-120.5-10.35-217.79,40.34-226.39,105.95-2.31,17.64,3.44,26.99-2.82,26.23-42.41-8.86-38.39,10.14-43.21,11.54-6.21,1.8-78.1-3.28-74.21,54.03-34.64,2.35-35.46,20.88-37.58,22.03-2.08,1.13-6.87-.21-11.27,1.57-19.34-17.78-46.77-7.35-59.18-8.39-19.37-1.62-64.97-37.31-116.48-8.39-41.66-27.75-56.32,1.99-103.33,0-23.96-1.01-165.03-26.62-177.54-11.54-2.21-.39-2.29-.02-5.64-1.05-4.31-1.32-32.67-27.33-68.58-38.81-58.23-18.63-105.7-11.15-110.85-12.59-2.81-.78-2.08-7.68-8.45-7.34-32.51-49.9-109.02-51.24-112.73-55.08-2.51-2.6,7.14-19.63-13.15-58.22,11.88,3.26,9.34-3.2,15.97-3.15,4.26.03,6.99,4.16,7.52,4.2,18.25,1.19,48.01-4.81,63.88,7.34,59.83,6.58,115.29,25.35,174.73,28.32,8.67-1.25-.59-12.26,23.48,1.05,10.61,7.85-1.74,7.25,16.91,8.39,13.96,22.12,27.8,19.45,31,20.98,30.06,14.36,72,33.97,113.67,24.65v-9.97c2.26,4.1,1.08,11.9,2.82,12.59,5.94,2.34,74.16-8.95,116.48,38.81,47.53-45.62,149.54-32.66,157.82-34.62,6.45-1.53,19.1-45.31,107.09-38.81-1.31-2.06-1.87-4.21-2.82-6.29,20.85,4.09,39.12-16.15,50.73-22.55,16.78-9.26,51.04-24.89,58.24-30.95,4.82-4.05,13.91-18.96,30.06-30.95,25.07-18.62,68.44-33.79,108.03-40.39,14.74-2.46,42.77-3.23,44.15-6.29,35.3,5.57,11.27-1.02,26.3-29.37,2.79-5.27,7.67-9.66,11.27-14.69,11.19-4.41,27.34-25.21,84.54-23.08Z"/><path class="cls-9" d="M911.31,385c2.33,6.65,11.12.37,21.61,0,47.6-1.7,78.78,9.84,93,35.67v9.97c-41.67,9.32-83.61-10.29-113.67-24.65-3.2-1.53-17.04,1.14-31-20.98,8.55.52,21.06.21,30.06,0Z"/><path class="cls-5" d="M1816.88,371.36c-7.09-1.75-1.43,6.85-36.64,4.2-32.16,6.1-93.75,5.92-124,10.49-3.61.55-60.87,15.76-67.64,17.83-19.23,5.89-43.87,18.86-54.48,19.93-.87.09-5.66-5.57-10.33,1.05,8.6-65.62,105.89-116.3,226.39-105.95,24.43,2.1,44.56,9.81,46.97,9.44,1.72-.27,9.07-11.31,15.97-17.83-4.62,20.57,25.37,6.74,24.42,22.55-.06,1.06-5.52,1.71-5.64,2.1-.06.21,3.16.95,1.88,4.2-2.29,5.77-12.52,18.16-16.91,32Z"/><path class="cls-11" d="M1698.52,261.21c-1.38,3.06-29.41,3.84-44.15,6.29-39.59,6.6-82.96,21.77-108.03,40.39-16.15,11.99-25.24,26.89-30.06,30.95-29.35,3.6-59.3,18.54-89.24,18.88-.55,0-4.24-2.68-9.39-3.15-2.4-.22-12.78,7.28-17.85-6.29,6.02-27.53,31.86-54.18,69.51-72.38,20.31-9.82,49.37-18.75,75.15-23.08,36.19-6.08,71.14-6.87,108.03-2.1,16.49,2.13,43.4,10.08,46.03,10.49Z"/><path class="cls-9" d="M1516.28,338.84c-7.21,6.06-41.46,21.68-58.24,30.95-11.6,6.41-29.87,26.64-50.73,22.55-3.16-6.95-8.35-13.62-9.39-20.98-.1-.69.06-1.4,0-2.1-.61-7.05.35-14,1.88-20.98,5.06,13.57,15.44,6.08,17.85,6.29,5.16.46,8.85,3.15,9.39,3.15,29.94-.34,59.89-15.28,89.24-18.88Z"/></g></svg>