<?xml version="1.0" encoding="UTF-8"?><svg id="Layer_2" xmlns="http://www.w3.org/2000/svg" xmlns:xlink="http://www.w3.org/1999/xlink" viewBox="0 0 1924 1075.35"><defs><style>.cls-1{fill:url(#linear-gradient);}.cls-1,.cls-2,.cls-3,.cls-4{stroke-width:0px;}.cls-2{fill:#fae2b4;}.cls-3{fill:url(#linear-gradient-2);}.cls-4{fill:url(#linear-gradient-3);}</style><linearGradient id="linear-gradient" x1="710.98" y1="52.16" x2="763.69" y2="743.44" gradientTransform="translate(132.11 -184.08) scale(1.12 1.72)" gradientUnits="userSpaceOnUse"><stop offset="0" stop-color="#01273c"/><stop offset=".27" stop-color="#0e6075"/><stop offset=".47" stop-color="#598793"/><stop offset=".93" stop-color="#f5c18c"/></linearGradient><linearGradient id="linear-gradient-2" x1="826.66" y1="-55.1" x2="878.77" y2="628.36" gradientTransform="matrix(1,0,0,1,0,0)" xlink:href="#linear-gradient"/><linearGradient id="linear-gradient-3" x1="1576.31" y1="-60.61" x2="1502.26" y2="298.17" gradientUnits="userSpaceOnUse"><stop offset=".17" stop-color="#9c3b4a"/><stop offset="1" stop-color="#e17e78"/></linearGradient></defs><g id="landscape"><g id="Background"><rect class="cls-1" width="1924" height="1075.35"/><path class="cls-3" d="M1164.94.04c-63.21,47.02-49.05,123.88,15.03,168.54,64.35,44.85,197.5,66.71,290.27,38.33-.03,48.31,66.29,89.39,146.54,103.96,7.73,1.4,24.71,1.42,32.88,3.15,14.44,16.77,37.2,30.48,63.88,41.48-79.16,12.11-133.1,53.52-142.79,97.66-.18.83-3.6.22-3.76,1.05-1.34,7.26,1.4,30.31,3.76,37.8.27.85,3.45.19,3.76,1.05,2.58,7.17,4.13,13.69,9.39,20.48-2.88.62-19.54,4.87-20.67,5.25l-.94-2.1c-79.71,24.1-69.47,53.89-72.33,57.23-1.51,1.77-37.47,6.14-58.24,21-10.08,7.21-14.22,18.8-24.42,20.48-41.4-50.54-153.88-92.71-252.7-96.61-130.2-5.13-266.44,38.72-312.82,108.16-46.83-12.69-69.87-7.62-90.18-9.45-2.63-18.84-27.68-35.65-56.36-44.1-27.4-8.07-41.81-10.59-73.27-10.5l-13.15-1.58c-1.58-12.24-11.86-30.8-7.52-42,2.01-5.19,42.14-42.47,15.03-86.11-18.38-29.59-81.21-64.15-140.91-63.53-4.09-18.52,1.65-27.97-20.67-53.03-30.58-34.33-108.18-68.2-175.67-75.08-5.5-.56-15.35.37-22.55,0-1.47-.08-.42-2.04-1.88-2.1-68.85-2.76-146.2,14.77-186.94,46.73-44.21,34.68-2.4,42.56-67.64,39.38C.24,217.05,0,108.54.1.04,388.38.12,776.66-.08,1164.94.04Z"/><path class="cls-4" d="M1164.94.04c253.01.07,506.02-.06,759.03,0,.11,106.41-.14,212.82,0,319.23-28.44-2.66-2.23,7.38-28.18,27.83-46.73,36.82-164.49,20.39-212.3-8.4-10.98-6.61-24.03-22.6-33.82-24.68-8.16-1.73-25.15-1.75-32.88-3.15-80.25-14.57-146.58-55.65-146.54-103.96-92.77,28.38-225.92,6.52-290.27-38.33-64.08-44.66-78.24-121.52-15.03-168.54Z"/></g><g id="soleil"><path class="cls-2" d="M1407.31,614.78c3.66,4.46,7.82,8.73,9.39,13.64-19.53,22.4-23.38,36.12-22.55,60.84-81.59-29.57-105.89,11.85-111.79,13.64-6.81,2.06-83.77-5.16-76.09,60.84-5.19,1.18-7.16.97-7.52,1.05-52.68-27.91-99.21-6.97-104.27-8.39-7.32-2.05-17.85-57.85-125.88-33.57-24.16-35.64-50.81-29.89-53.55-33.05-3.13-3.61,7.16-41.69-73.27-63.47,46.38-69.37,182.62-113.18,312.82-108.05,98.81,3.89,211.29,46.03,252.7,96.51Z"/></g></g></svg>