<?xml version="1.0" encoding="UTF-8"?><svg id="Layer_2" xmlns="http://www.w3.org/2000/svg" viewBox="0 0 1924 1077"><defs><style>.cls-1{fill:#ad6228;}.cls-1,.cls-2,.cls-3,.cls-4,.cls-5,.cls-6,.cls-7,.cls-8,.cls-9,.cls-10,.cls-11,.cls-12,.cls-13,.cls-14,.cls-15,.cls-16,.cls-17,.cls-18,.cls-19,.cls-20,.cls-21,.cls-22,.cls-23,.cls-24,.cls-25,.cls-26,.cls-27,.cls-28,.cls-29,.cls-30,.cls-31,.cls-32,.cls-33,.cls-34,.cls-35,.cls-36,.cls-37,.cls-38,.cls-39,.cls-40,.cls-41,.cls-42,.cls-43,.cls-44,.cls-45,.cls-46,.cls-47,.cls-48,.cls-49,.cls-50,.cls-51,.cls-52,.cls-53,.cls-54,.cls-55,.cls-56,.cls-57,.cls-58,.cls-59,.cls-60,.cls-61{stroke-width:0px;}.cls-2{fill:#accf88;}.cls-3{fill:#3cb98c;}.cls-4{fill:#a65e26;}.cls-5{fill:#d793c0;}.cls-6{fill:#879446;}.cls-7{fill:#0d1611;}.cls-8{fill:#b61f3f;}.cls-9{fill:#fede46;}.cls-10{fill:#3e703a;}.cls-11{fill:#336c3e;}.cls-12{fill:#00a869;}.cls-13{fill:#c2c1c1;}.cls-14{fill:#040505;}.cls-15{fill:#0e0e0d;}.cls-16{fill:#c53860;}.cls-17{fill:#5e5835;}.cls-18{fill:#2c435d;}.cls-19{fill:#d04833;}.cls-20{fill:#00a468;}.cls-21{fill:#0a171a;}.cls-22{fill:#be5d84;}.cls-23{fill:#009e5d;}.cls-24{fill:#67532a;}.cls-25{fill:#316e3f;}.cls-26{fill:#16b46d;}.cls-27{fill:#a36a28;}.cls-28{fill:#0a1418;}.cls-29{fill:#81b884;}.cls-30{fill:#0a1215;}.cls-31{fill:#6d6a30;}.cls-32{fill:#b0d17e;}.cls-33{fill:#c1235d;}.cls-34{fill:#00a665;}.cls-35{fill:#3a623d;}.cls-36{fill:#a55555;}.cls-37{fill:#00995c;}.cls-38{fill:#2fb77a;}.cls-39{fill:#b66129;}.cls-40{fill:#c1214b;}.cls-41{fill:#bc9b9d;}.cls-42{fill:#b16c2a;}.cls-43{fill:#4b8940;}.cls-44{fill:#131921;}.cls-45{fill:#b81f57;}.cls-46{fill:#090d10;}.cls-47{fill:#b36e2b;}.cls-48{fill:#afd17f;}.cls-49{fill:#c7214d;}.cls-50{fill:#bd956e;}.cls-51{fill:#7e2929;}.cls-52{fill:#c83c6c;}.cls-53{fill:#a35d26;}.cls-54{fill:#3d673d;}.cls-55{fill:#bb2051;}.cls-56{fill:#4dbc8a;}.cls-57{fill:#00af6c;}.cls-58{fill:#009d65;}.cls-59{fill:#19545d;}.cls-60{fill:#b45257;}.cls-61{fill:#c9de8d;}</style></defs><g id="maison_jour"><g id="derriere"><g id="Background"><rect class="cls-56" width="1924" height="1077"/></g><path class="cls-56" d="M1867.05,605.11c-1.05,4.25-2.46,6.52-3.76,10.13-45.69-28.98-109.7-92.7-161.54-101.33.07-7.99.13-9.84-3.76-17.37-3.29-6.36-28.18-27.49-39.44-47.04-15.05-26.12-29.73-78.5-42.26-107.84-3.15,2-3.12,5.21-4.7,8.69-14.43,31.83-27.32,76.91-46.96,106.39-14.78,22.18-42.22,41.49-43.2,44.15-23.87-5.11-22.25,30.33-37.57,28.95-2.98-16.91-7.61-36.77-15.03-52.83-5.47,26.66-9.46,62.36-18.78,87.58-2.4,6.49,1.95,6.43-5.63,8.69,1.68-8.09-.24-17.41-1.88-25.33-12.67-61.43-28.28-123.39-43.2-184.56-2.32-9.49-4.12-25.52-7.51-20.99q-10.33,37.64-20.66,75.27c-33.13-61.66-51.88-131.21-75.13-196.86-29.39,105.46-47.25,212.72-78.89,317.73h-1.88q-15.5-53.56-30.99-107.12-13.62,47.41-27.24,94.81c-18.35,13.59-14.38-63.47-24.42-43.43-8.72,17.41.75,79.19-18.78,8.69q-12.21,57.9-24.42,115.8h-3.76q-3.76-32.57-7.51-65.14c-3.39-2.75-11.17,8.43-16.9,15.2q-25.83-26.06-51.65-52.11c-20.3,43.59-50.11,38.42-86.4,72.38-27.97-39.44,5.59-63.89-37.57-59.35-37.76,3.97-41.34,45.59-51.65,66.59-.95-13.67-12.17-40.95-9.39-71.65.87-9.58,10.52-40.82,16.9-48.49,12.79-15.37,28.05,1.61,59.17-13.03,44.05-20.72,29.11-94.2-47.9-124.49,3.67-3.88,4.21-9.4,5.63-11.58,14.83-22.78,108.79-48.29,28.17-104.22q19.72-15.92,39.44-31.85c57-5.9,105.83-6.57,155.9-30.4,2.29-1.09,9.7-1.68,14.09-4.34,9.69-5.87,34.19-41.26,25.36-52.11,1.9-6.06,4.31-12.73,5.63-18.82,225.75-4.04,471.55,117.76,534.38,288.06,161.66-16.04,229.78,145.8,205.68,243.18Z"/><path class="cls-20" d="M1136.38.04h787.02c.14,48.25-.19,96.5,0,144.75-69.87-17.84-187.77,3.3-236.67,47.04-2.19,1.96-29.45,34.09-30.05,36.19-.59,2.04-.63,32.85,0,36.19,5.74,30.49,51.21,53.61,88.28,58.62,32.45,4.39,44.28-1.92,47.9-1.45.8.1,8.53,5.75,13.15,7.24,5.88,1.9,14.26,1.15,15.03,1.45,6.53,2.56,22.01,28.65,29.11,35.46,12.3,11.81,30.71,18.16,39.44,28.95,11.14,13.77,19.05,46.57,33.81,61.52.01,11.1,0,22.2,0,33.29-7.39,9.2-8.67,20.37-13.15,30.4-11.52,25.8-23.82,51.71-35.69,77.44-.21.46-5.47,8.92-7.51,7.96,24.1-97.38-44.02-259.22-205.68-243.18-62.83-170.3-308.63-292.1-534.38-288.06,4.07-18.72,3.5-52.36,9.39-73.82Z"/><path class="cls-3" d="M1061.25,557.34c-4.15,4.9-6.15,7.75-9.39,13.03-5.85,9.51-10.99,20.36-15.03,30.4q-3.29-4.34-6.57-8.69c-3.55-.61-34.11,44.05-27.24,50.66-22.07,31.26-25.73,50.95-29.11,52.11-3.97,1.36-24.36-9.78-40.38-8.69-5.55-17.43-4.61,13.57-10.33,27.5-13.27-51.05-13.49-9.23-18.78-8.69-12.36-11.43-11.31-4.28-12.21-4.34-1.83-.12-1.98-1.37-3.76-1.45,2.44-15.02-4.99-13.67-5.63-15.2-12.34-28.99-11.67-49.43-22.54-13.75-12.76-1.43-12-14.41-15.03-23.16-7.39-21.34-12.83-26.57,5.63-45.6l-16.9.72c.41-5.43.38-11.93,0-17.37,10.31-20.99,13.89-62.61,51.65-66.59,43.16-4.54,9.59,19.91,37.57,59.35,36.29-33.96,66.1-28.78,86.4-72.38q25.83,26.06,51.65,52.11Z"/><path class="cls-20" d="M1923.4,344.55c.03,26.06-.03,52.11,0,78.17-17.22-21.56-30.22-58.34,0-78.17Z"/><path class="cls-13" d="M1679.22,865.66c2.81,1.18,11.63,2.98,8.45,5.79-11.24,1.56-83.93,25.8-87.34,22.44l-2.82-19.54c-17.45,53.39-27.64-2.25-33.81,23.16-17.4-12.72-8.5,10.44-24.42-10.13,7.83,20.02-10.61,7.88-34.75,15.2,48.54,3.87,77.59,3.42,15.97,13.75-27.37,4.59-69.66,2.89-62.92,10.86,2.39,3.28,27.48.03-.94,7.96-28.32-57.11-9.6-4.76-22.54,7.24-1.48,1.37-42.22,13.03-42.26,9.41,12.63-11.39,21.56-22.76-.94-5.07-10.79-37.61-3.33,1.41-6.57,7.96-1.65,3.33-22.61,8.84-28.17,9.41-14.22,1.45-56.38-1.66-62.92,0-3.32.84-6.26,8.77-13.15,10.13-8.1,1.61-145.17,2.64-167.17,2.9-104.83,1.21-209.15-1.49-313.68-7.24l-1.88-2.9,353.12-8.69c12.64-4.01,30.82,1.59,22.54-4.34-118.2.02-236.01-6.39-354.06-10.13l-52.59-60.8c21.48,3.87,343.82-10.93,404.78-10.13-64.21-11.06-166.38-5.25-208.49-8.69-11.07-.9-56.34-12.25-81.71-14.48-1.8-.16-1.98-1.33-3.76-1.45-.32-2.24-3.6-2.73-3.76-2.9-6.92-7.1-10.78-16.47-18.78-23.16,38.95,4.95,371.34-4.84,451.74,1.45q23.01-2.9,46.02-5.79c-13.89,7.01-41.87,6.31-60.11,12.3,5.67,1.31,53.83-.12,47.9,5.07-67.04,11.83-136.75,10.1-204.74,17.37,58.87-.63,117.79,3.51,176.56,4.34,68.9.98,306.65-2.72,334.34,0,6.05.59,27.14,6.28,32.87,8.69Z"/><path class="cls-56" d="M1384.32,778.81c-7.24,11.4-14.97,25.29-26.3,34.74-.48.4-1.34,1.06-1.88,1.45-1.59,1.15-1.97,1.99-3.76,2.9q-23.01,2.9-46.02,5.79c-80.4-6.29-412.79,3.51-451.74-1.45-1.2-.15-2.85.22-3.76,0-12.87-3.08-24.56-43.27-21.6-44.87l555.04,1.45Z"/><path class="cls-40" d="M1679.22,865.66c-5.73-2.4-26.82-8.09-32.87-8.69-27.69-2.72-265.44.98-334.34,0-58.77-.84-117.7-4.97-176.56-4.34,67.99-7.27,137.69-5.54,204.74-17.37,5.93-5.18-42.23-3.76-47.9-5.07,18.24-5.99,46.21-5.29,60.11-12.3,1.78-.9,2.17-1.74,3.76-2.9,126.69,3.98,256.56-.65,381.3,2.17q-29.11,24.25-58.23,48.49Z"/><path class="cls-3" d="M1863.29,615.24c-4.64,12.96-13.23,25.52-20.66,37.64-4.59.27-8.65-1.01-13.15-1.45-.23-.02-1.69-3.06-2.82-2.9-8.23,1.21-10.06,28.81-24.42,1.45q-3.29,7.96-6.57,15.92c-1.83.19-3.78-.11-5.63,0-.02-.3-2.44,1.23-1.88-5.79,1.71-21.32,14.94-21.7-10.33-37.64-5.2,1.13-7.2,3.86-12.21,5.79q-5.17-5.07-10.33-10.13c-18.71,1.36,25.26,59.27-.94,34.74-36.74-34.41-1.39-46.61-36.63-68.03-11.09,7.07-7.26,17.99-6.57,27.5l-22.54-4.34c-.47-3.12-1.18-7.07-1.88-10.13-.49-2.14-1.98-11.09-2.82-11.58-3.04,3.88-9.13,7.33-12.21,10.13-4.59-3.96-29.16-4.57-45.08-7.24-1.07-7.34-4.52-29.85,1.88-28.95,10.54-.09,26.42,1.27,35.69-1.45,9.06-2.66,16-15.85,16.9-16.65,9.57-8.39,20.42-1.81,20.66-28.23,51.83,8.62,115.85,72.34,161.54,101.33Z"/><path class="cls-3" d="M1521.44,500.88c-9.36,25.37,23.88,29.48,26.3,34.02,1.61,3.03-2.52,8.48,0,11.58,4.3,5.28,50.74,11.09,54.47,16.65.96,1.43,4.77,25.21,5.63,31.85.06.48-.06.97,0,1.45-9.97,17.52-24.3,51.55-28.17,69.48-27.25-77.84-35.31-136.7-36.63-15.92-38.28-56.35-28.44-85.04-29.11-145.48-11.78,2.47-16,26.16-28.17,32.57-.32-3.45-1.44-4.76-1.88-7.24,15.31,1.38,13.69-34.06,37.57-28.95Z"/><path class="cls-56" d="M1671.71,596.42c-.49.44-5.79,8.02-7.51,10.13-.14.17-1.89.21-3.76,2.9-6.67,9.61-8.03,2.44-7.51,30.4-4.77-5.31-18.94-23.67-20.66-27.5-3.99-8.86-4.33-14.22-5.63-23.16,15.92,2.66,40.49,3.27,45.08,7.24Z"/><path class="cls-40" d="M766.36,883.03c-6.74-1.22-27.13-24.68-29.11-31.85q71.85-.72,143.69-1.45c25.37,2.22,70.63,13.57,81.71,14.48,42.12,3.44,144.29-2.37,208.49,8.69-60.96-.8-383.3,14-404.78,10.13Z"/><path class="cls-16" d="M1111.03,896.06c26.64-.98,55.2-.55,81.71,2.17q-54.94,1.09-109.88,2.17c-14.34-2.5,19.03-4.01,28.17-4.34Z"/><path class="cls-4" d="M1360.84,896.06c78.32.29,48.72,7.31-18.78,4.34-56.46-2.48-.18-2.2,18.78-4.34Z"/><path class="cls-56" d="M815.19,783.15c-3.41,5.28-6.42,10.47-9.39,15.92-8.47,15.55-7.81,23.85-13.15,39.08q-13.15-29.31-26.3-58.62c1.4-1.5,45.65-1.37,47.9-.72,1.9.55.45,3.99.94,4.34Z"/><path class="cls-47" d="M783.26,603.66q10.33,34.38,20.66,68.76c2.59,2.74,17.34-17.68,18.78-20.99,1.03-2.37,11-45.6,11.27-49.22l16.9-.72c-18.47,19.03-13.02,24.26-5.63,45.6-11.92,41.74,49.56,73.7,41.32,96.98-7.46,5.2-32.44,3.81-23.48,8.69,30.55-1.34,64.45,2.78,92.98-2.17q-1.88-1.09-3.76-2.17c67.11,1,486.94-6.01,511.84-1.45,1.4.26.96,1.92.94,2.9-6.32,13.67-13.81,25.8-20.66,39.08l-13.15-1.45c-1.26-2.29,2.28-6.1-2.82-8.69-3.45-1.75-8.02,1.49-8.45,1.45-1.69-.16-10.71-3.79-20.66,0-4.52-27.44-5.21-16.91-15.03-1.45l-555.04-1.45c-2.96,1.6,8.73,41.79,21.6,44.87,3.66,7.46,2.89,14.57,9.39,19.54-33.36-9.15-21.64-41.77-45.08-58.62-.49-.35.96-3.8-.94-4.34-2.25-.64-46.5-.78-47.9.72q13.15,29.31,26.3,58.62c-.57,1.63.6,2.91-1.88,5.79-.95,1.11,2.51,1.72-3.76,2.9-17.94-42.47-40.62-84.39-56.35-127.38,23.79-.9-6.75-38-11.27-49.22,1.7-19.67,11.18-39.72,13.15-68.03.24-3.42.16-7.5,3.76-10.13,15.17,40.49,21.7,92.72,34.75,134.62q5.17-.36,10.33-.72c-6.43-41-4.21-81.55,1.88-122.32Z"/><path class="cls-30" d="M1402.71,799.19c-4.19.7-8.35.95-12.54,1.48-2.49.31-4.9.48-7.38.74-2.22.23-4.37.54-6.64.74-9.04.8-18.25,1.8-27.3,2.21-50.64,2.34-133.19.28-185.91-1.48l.37-1.48-5.16-.74c12.86-.61,25.57-3.32,38.36-4.43,27.54-2.38,136.06-4.54,151.98-11.8,1.13-.52,2.86-1.37,2.58-2.95,7.68.12,46.65,3.58,48.69,11.44,1.22,4.69-4.84,4.94,2.95,6.27Z"/><path class="cls-25" d="M1370.25,773.37c10.35.48,20.75,2.07,30.99,3.69,10.74,1.7,21.18,4.04,31.72,6.64,21.37,5.63-13.62,12.72-30.25,15.49-7.8-1.33-1.73-1.58-2.95-6.27-2.05-7.86-41.01-11.31-48.69-11.44v-.74c1.86-.76,5.41-5.04,5.16-7.38,4.66.16,9.36-.22,14.02,0Z"/><path class="cls-7" d="M1351.07,780.75v.74c.27,1.58-1.45,2.44-2.58,2.95-15.91,7.26-124.44,9.42-151.98,11.8-12.8,1.11-25.5,3.82-38.36,4.43l5.16.74-.37,1.48c-7.1-.24-14.3.28-21.39,0l6.64-7.38c.41,3.59,2.06,1.91,5.53,2.21,50.36-10.59,102.34-6.89,153.45-11.07,14.75-1.21,29.28-3.74,43.9-5.9Z"/><path class="cls-15" d="M1130.48,486.39c-11.14,16.49-92.63,117.61-95.17,125.05-2.45,7.18.48,24.67,0,29.88q-18.07-.55-36.15-1.11c43.02-52.65,81.39-108.89,122.47-163.04,2.75-1.25,7.62,7.8,8.85,9.22Z"/><path class="cls-59" d="M1330.41,758.62c1.45,1.03-2.49,3.58,8.48.74,5.91,8.28,5.38,3.21,9.59,4.43.59.17,6.08,8.39,7.75,9.59.25,2.34-3.31,6.61-5.16,7.38-14.62,2.16-29.15,4.7-43.9,5.9-51.11,4.18-103.09.47-153.45,11.07-3.48-.31-5.12,1.38-5.53-2.21,12.02-2.21,6.56-4.89,8.48-6.64.28-.26,4.27.15,7.38-2.21,2.56-1.94,2.71-5.66,5.16-7.38,1.83-1.28,5.47-.85,7.01-2.58.23-.25.26-3.76,1.84-4.8,2.18-1.42,6.16,0,7.38-.74.28-.17,1.52-5.01,2.58-5.9.04-.03-.26-.23.74-.74.35-.18,4.68-.24,5.9-.74.32,2.56-.58,5.36,3.69,3.69,11.83,1.19,4.41-3.66,12.17-3.69,2.92,6.73,3.01,2.49,13.28,4.43-3.78-7.22,5.9-1.39,6.27-4.06-3.73-4.73,1.15-2.45,2.58-10.7,9.43,10.67,4.16-15.07,11.8,6.64,14.69-8.22,19.44-8.11,32.46,2.95,4.03-16.48,13.54,7.36,14.75-11.07,4.2,2.85,10.11,3.97,12.54,8.85l2.95-7.38c4.26,3.31,7.62,3.1,8.85,3.69.78.37,3.43,3.79,3.69,3.69,1.16-.46.76-9.28,10.7-2.21Z"/><path class="cls-11" d="M1143.76,760.83c.09.1.93-.51,2.21,1.48.09.14,1.45,2.79,1.48,2.95.17,1,.17,6.25-.37,6.64-9.43-.99-4.66,2.19-7.38,4.43-.34.28-5.46,1.84-8.12,3.69-4.93,3.44-9.86,8.66-15.12,11.8-3.61-3.03-74.74-2.28-93.69-8.85-6.41-5.39-6.31-8.42-.37-14.75.67-.71,2.22,1.54,3.32-.37.44-.76-.82-2.96,1.11-4.06.65-.37,3.4.55,4.06-.37,1.57-2.19-3.34-4,3.69-4.06.86,0,1.06,1.38,2.58,1.48.74.05.26-7.18,10.33,5.9,2.02-12.17,10.97,11.83,10.33-5.9l8.85,5.16c10.16-20.43,3.22,2.98,16.23-7.38,4,1.28-5.13,14.59,11.07-.74,3.14,9.56,5.83-5.65,9.59,3.69,6.21-12.38,7.22,7.75,10.33-7.38,14.15,13.83,7.93,3.79,11.8,2.95,10.23,11.58,6.84-9.8,18.07,3.69Z"/><path class="cls-14" d="M1116.46,791.82c-1.94,1.16-3.49,3.29-5.9,3.69-4.5.75-72.19-4.92-80.78-8.12-1.26-.47-5.56-3.21-7.01-4.43,18.95,6.57,90.08,5.82,93.69,8.85Z"/><path class="cls-15" d="M1255.9,642.05c-6.96.68-13.68,1.03-20.66.74h-2.21c.08-4.18-.11-8.37,0-12.54.12-4.66.1-9.5,1.48-14.02,6.98,8.73,13.8,17.59,21.39,25.82Z"/><path class="cls-12" d="M1255.16,528.44c-.12,13.25.44,26.6,0,39.84,0,.12-2.06-.03-2.21,1.11-.28,2.1,21.15,33.37,23.61,35.04,4.58,3.12,6.8.32,11.07,1.48,3.18.86,22.18,27.37,27.3,30.99-14.19.34-28.93.96-42.79,2.95-1.96.08-3.95-.11-5.9,0-1.03-3.63-4.39-5.9-5.9-9.22q-63.82-78.57-127.63-157.14c17.51,5.77,34.52,12.99,52.01,18.81,7.93,2.64,48.61,13.44,50.9,14.75,2.24,1.28,15.04,18.12,19.55,21.39Z"/><path class="cls-43" d="M1358.44,636.89c-14.5.25-29.03-.34-43.53,0-5.11-3.62-24.12-30.12-27.3-30.99.5,0,1.35.18,1.48-.37.53-2.24,0-35.4,0-43.16,16.61,17.93,57.94,58.5,69.35,74.51Z"/><path class="cls-26" d="M1358.44,636.89c.93,1.31,4.8,2.39,1.84,4.43-5.95-1.32-12.06-.64-18.07-.74-4.08-.07-8.34-.7-12.54-.74-18.07-.16-39.91-.74-57.54,0,13.86-1.99,28.6-2.62,42.79-2.95,14.49-.34,29.03.25,43.53,0Z"/><path class="cls-61" d="M1148.18,795.5l-6.64,7.38c-3.97-.16-27.99-1.31-29.14-2.21-.49-.39-.21-3-1.84-5.16,2.41-.4,3.96-2.53,5.9-3.69.66.55-.82,1.79-.74,1.84,1.53,1.1,28.76,2.52,32.46,1.84Z"/><path class="cls-48" d="M1150.4,765.26h37.63c-1.07.89-2.31,5.74-2.58,5.9-1.22.73-5.2-.69-7.38.74-1.58,1.04-1.62,4.54-1.84,4.8-1.54,1.74-5.18,1.31-7.01,2.58-2.46,1.72-2.61,5.44-5.16,7.38-3.11,2.36-7.09,1.95-7.38,2.21-1.92,1.75,3.54,4.43-8.48,6.64-3.7.68-30.93-.74-32.46-1.84-.08-.06,1.4-1.29.74-1.84,5.26-3.15,10.19-8.37,15.12-11.8,2.66-1.85,7.77-3.41,8.12-3.69,2.72-2.24-2.05-5.42,7.38-4.43.54-.38.54-5.64.37-6.64h2.95Z"/><path class="cls-57" d="M1228.6,659.02c.28-.6.2-.65.74-1.48l3.69,1.84-4.43-.37Z"/><path class="cls-44" d="M1280.24,448.02c-.66.1-11.25.12-13.28,0-1.47-.09-6.76.4-7.38-.37.56-1.92,3.82-13.6,4.43-14.02,1.6-1.11,11.45.06,14.39-.37,3.42,13.13,8.34,13.77,1.84,14.75Z"/><path class="cls-43" d="M1280.24,448.02c-2.7-.65-1.04,7.08-1.48,14.02-1.56-.23-1.76-.69-2.21-.74-2.66-.27-6.73-.08-9.59,0v-13.28c2.03.12,12.62.1,13.28,0Z"/><path class="cls-31" d="M1255.16,568.28h21.39v36.15c-2.45-1.67-23.89-32.95-23.61-35.04.15-1.14,2.21-.98,2.21-1.11Z"/><path class="cls-18" d="M1278.77,462.04c1.77.26,9.81.68,10.33,1.84,1.99,4.5,0,85.91,0,98.49,0,7.76.53,40.92,0,43.16-.13.55-.98.38-1.48.37-4.27-1.16-6.49,1.64-11.07-1.48v-143.12c.45.05.65.51,2.21.74Z"/><path class="cls-27" d="M1266.96,461.3c2.87-.08,6.93-.27,9.59,0v106.97h-21.39c.44-13.24-.12-26.59,0-39.84.13-14.48.55-29.03.74-43.53,9.72,10.25,7.87,5.66,12.91,2.95.26-.14,1.32,3.37,3.32-1.11-6.96-6.28-6.44-2.5-8.48-3.32-2.94-1.18-5.67-7.63-7.75.74.11-7.5-.08-15,0-22.5.52-.74,9.37-.32,11.07-.37Z"/><path class="cls-27" d="M1255.9,484.91c0-.25,0-.49,0-.74,2.08-8.37,4.81-1.92,7.75-.74,2.05.82,1.53-2.96,8.48,3.32-2,4.48-3.06.97-3.32,1.11-5.04,2.71-3.19,7.3-12.91-2.95Z"/><path class="cls-27" d="M1265.12,509.26c7.19.21,2.11,2.47,7.01,5.53,1.33,5.31-13.83-.51-7.01-5.53Z"/><path class="cls-2" d="M1197.61,664.92q.37,51.27.74,102.55c-4.27,1.67-3.36-1.13-3.69-3.69-1.89-14.87,1.64-74.51-.74-98.86v-.74c3,.07,3.46.73,3.69.74Z"/><path class="cls-45" d="M1146.71,664.92c-2.01,7.78-.16,15.84,0,23.61.52,24.59-1.41,49.18-.74,73.77-1.28-1.99-2.13-1.37-2.21-1.48-1.32-10.91,1.72-80.62,0-84.47-.3-.68-4.23,1.75-6.64-12.17,2.9.23,6.81.74,9.59.74Z"/><path class="cls-2" d="M1151.14,667.14c.62,14.52-.57,29.03-.74,43.53-.21,17.7.16,35.42,0,53.12v1.48h-2.95c-.03-.16-1.39-2.81-1.48-2.95-.67-24.6,1.26-49.18.74-73.77,6.75,1.94-.1-21.37,4.43-21.39Z"/><path class="cls-29" d="M1193.93,664.18v.74c-11.85,1.65-30.09-.41-39.84.74-1.75.21-3.28-.72-2.95,1.48-4.53.03,2.32,23.33-4.43,21.39-.16-7.76-2.01-15.83,0-23.61,4.15,0,4.54-1.48,4.8-1.48,14.2-.02,28.23.41,42.42.74Z"/><path class="cls-24" d="M1154.09,665.66c-.08,1.2.63,1.55.74,2.95,1.07,13.35-1.4,27.21.74,40.58-2.21.23-3.32-.86-2.95,2.21-.07-.1-1.44-.93-2.21-.74.17-14.49,1.36-29.01.74-43.53-.33-2.2,1.2-1.27,2.95-1.48Z"/><path class="cls-6" d="M1163.68,674.51c.77,8.53-.45,24.62,0,31.35.03.41,1.99,1.2,1.48,2.58-.09.07-1.89.67-2.21.74-1.72.36-5-.25-7.38,0-2.14-13.36.33-27.22-.74-40.58,10.46,1.45,5.77,4.95,8.85,5.9Z"/><path class="cls-52" d="M1165.15,708.45c.51-1.38-1.45-2.18-1.48-2.58-.45-6.73.77-22.82,0-31.35,5.65-2.22,1.87,21.79,2.95,33.57-.33.69-1.29.23-1.48.37Z"/><path class="cls-18" d="M1155.56,709.19c2.37-.25,5.65.36,7.38,0l-1.11,8.85c-9.13,1.37-7.2-3.75-9.22-6.64-.37-3.07.74-1.98,2.95-2.21Z"/><path class="cls-45" d="M1193.93,664.92c2.37,24.34-1.15,83.99.74,98.86-1.23.5-5.55.56-5.9.74q-19.18-.37-38.36-.74c.16-17.7-.21-35.42,0-53.12.77-.19,2.15.64,2.21.74,2.02,2.89.1,8.01,9.22,6.64l1.11-8.85c.32-.07,2.12-.67,2.21-.74.19-.14,1.15.33,1.48-.37-1.09-11.78,2.7-35.79-2.95-33.57-3.08-.95,1.61-4.45-8.85-5.9-.11-1.4-.82-1.75-.74-2.95,9.75-1.15,27.99.91,39.84-.74Z"/><path class="cls-24" d="M1188.76,764.52c-1,.51-.7.7-.74.74h-37.63v-1.48q19.18.37,38.36.74Z"/><path class="cls-50" d="M1181.01,670.82l5.53.37-.37,36.52-6.27-1.11,1.11-35.78Z"/><path class="cls-46" d="M1182.49,717.3c8.1-.68,4.36,8.32-1.11,4.8l1.11-4.8Z"/><path class="cls-15" d="M1230.07,656.07c-.12.5-.47,1.06-.74,1.48-.54.83-.46.88-.74,1.48-1.83,3.91-1.59,5.73-1.84,5.9-.93.64-19.6.08-22.5,0-.84-1.11-.66-2.06-.74-2.21-.1-.21.11-.59,0-.74l.37-1.48c29.95,2.39,7.84-.17-4.43-6.64-12.83-6.77-23.29-19.51-36.52-25.08.18-.09,1.16-2.22,3.32-2.21,4.66,0,54.54,25.53,63.82,29.51Z"/><path class="cls-30" d="M1203.52,661.97c-1.3-1.76-30.44-23.22-34.67-25.82-2.74-1.68-4.69-4.81-7.75-3.69-1.99.73-28.62,23.41-32.83,26.93.23,2.58,10.55,1.82,14.75,1.84,6.26.03,18.91,2.36,20.66-5.53-.58-18.38,2.19-9.28.37,5.53,3.52-.44,21.89.59,22.87,0,.72-.43-.11-3.28,1.48-3.69.82-.21,10.48,8.64,15.12,5.16.08.15-.11,1.1.74,2.21-2.21-.06-4.43.06-6.64,0-.23,0-.69-.67-3.69-.74-14.19-.32-28.22-.75-42.42-.74-.25,0-.64,1.48-4.8,1.48-2.78,0-6.69-.5-9.59-.74-5.63-.46-11.73,1.83-11.8-6.27,8.95-6.33,31.03-25.89,37.63-29.14,13.23,5.57,23.69,18.31,36.52,25.08,12.27,6.47,34.38,9.03,4.43,6.64l-.37,1.48Z"/><path class="cls-42" d="M1203.52,661.97c.11.15-.1.53,0,.74-4.65,3.48-14.31-5.38-15.12-5.16-1.59.41-.76,3.26-1.48,3.69-.98.59-19.35-.44-22.87,0,1.83-14.81-.95-23.92-.37-5.53-1.74,7.9-14.4,5.56-20.66,5.53.16-.57-.78-.95-.74-1.11.39-1.55,18.84-20.47,21.76-23.24,7.87,6.67,18.5,23.01,24.35,19.18,28.51,14.62-8.36-8.63-19.55-19.92,4.23,2.6,33.37,24.06,34.67,25.82Z"/><path class="cls-45" d="M1168.84,636.15c11.19,11.29,48.06,34.54,19.55,19.92-5.85,3.83-16.48-12.51-24.35-19.18-2.92,2.77-21.37,21.69-21.76,23.24-.04.15.9.54.74,1.11-4.21-.02-14.52.73-14.75-1.84,4.21-3.52,30.84-26.2,32.83-26.93,3.06-1.12,5.01,2.01,7.75,3.69Z"/><path class="cls-51" d="M1235.24,642.79c1.87,7.92,33.18,39.81,33.94,42.42.8,2.74-.55,23.06,0,29.88.1,1.21-.39,5.36.37,5.9,1.32.94,26.05-1.26,32.46.74,1.8-.62.97-5.74,1.11-8.85.25-5.44-1.16-38.57,0-40.21.79-1.11,23.97.08,27.3-.37.36,28.76-.27,57.55,0,86.32-9.94-7.07-9.54,1.76-10.7,2.21-.26.1-2.9-3.31-3.69-3.69-1.23-.59-4.59-.38-8.85-3.69l-2.95,7.38c-2.43-4.88-8.34-6.01-12.54-8.85-1.21,18.43-10.72-5.41-14.75,11.07-13.02-11.06-17.77-11.17-32.46-2.95-7.64-21.71-2.38,4.03-11.8-6.64-1.44,8.25-6.31,5.97-2.58,10.7-.37,2.67-10.05-3.16-6.27,4.06-10.27-1.94-10.36,2.31-13.28-4.43-7.76.03-.34,4.88-12.17,3.69q-.37-51.27-.74-102.55c2.21.06,4.43-.06,6.64,0,2.9.08,21.58.64,22.5,0,.25-.18.01-2,1.84-5.9l4.43.37-3.69-1.84c.27-.41.62-.98.74-1.48,1.09.47,2.31,2.38,2.95,1.11.07-4.79-.1-9.59,0-14.39h2.21Z"/><path class="cls-15" d="M1342.21,640.58l-11.8,16.97c-.07-2.27-.66-4.92-.74-7.38-.11-3.46-.01-6.87,0-10.33,4.2.04,8.46.67,12.54.74Z"/><path class="cls-17" d="M1266.22,639.84c.77,2.72-.57,8.69,1.11,9.59,2.74,1.48,54.53-.68,62.34.74.08,2.46.67,5.11.74,7.38.15,4.91-.06,9.84,0,14.75-3.33.45-26.51-.74-27.3.37-1.16,1.64.25,34.77,0,40.21l-5.16-.74c.48-2.11-.08-14.77,0-19.92.01-.74,0-1.48,0-2.21-.1-7.74.08-15.49,0-23.24-4.99-.16-19.64-.86-22.13-.37-.81.16-2.5-.38-2.95.37v47.58c-1.44.09-2.35.46-3.69.74-.55-6.82.8-27.14,0-29.88-.76-2.61-32.07-34.5-33.94-42.42,6.98.29,13.7-.06,20.66-.74.53-.05,1.27-1.72,10.33-2.21Z"/><path class="cls-46" d="M1272.13,639.84c17.64-.74,39.47-.16,57.54,0-.01,3.46-.11,6.86,0,10.33-7.81-1.42-59.59.74-62.34-.74-1.68-.9-.34-6.87-1.11-9.59,1.96-.11,3.94.08,5.9,0Z"/><path class="cls-18" d="M1303.11,712.88c-.14,3.11.69,8.24-1.11,8.85-6.41-1.99-31.14.2-32.46-.74-.76-.54-.27-4.69-.37-5.9,1.34-.28,2.25-.65,3.69-.74,7.95-.48,23.62,1.38,25.08-1.48.08-.16-.06-.47,0-.74l5.16.74Z"/><path class="cls-23" d="M1297.95,690.01c-3.02.06-5.82-.68-8.85-.74-2.26-30.88-5.88-30.97-5.16,0-2.75.07-5.48,1.44-8.12,0-.04-7.62.17-15.25,0-22.87,2.49-.49,17.15.21,22.13.37.08,7.74-.1,15.5,0,23.24Z"/><path class="cls-43" d="M1297.95,692.22c-.08,5.15.48,17.81,0,19.92-.06.27.08.58,0,.74-5.19-1.64-10.93-.31-16.23-.74v-19.92h16.23Z"/><path class="cls-31" d="M1275.82,666.4c.17,7.62-.04,15.25,0,22.87,0,.98-.02,1.97,0,2.95.05,2.73-.57,18.75,0,19.55.54.76,4.69.27,5.9.37,5.3.43,11.04-.9,16.23.74-1.46,2.85-17.13,1-25.08,1.48v-47.58c.45-.75,2.14-.21,2.95-.37Z"/><path class="cls-54" d="M1283.93,689.27c1.31-.03,3.82-.03,5.16,0,3.04.06,5.83.8,8.85.74,0,.74.01,1.48,0,2.21h-22.13c-.02-.98,0-1.97,0-2.95,2.64,1.44,5.36.07,8.12,0Z"/><path class="cls-43" d="M1289.09,689.27c-1.35-.03-3.86-.03-5.16,0-.72-30.97,2.91-30.88,5.16,0Z"/><path class="cls-23" d="M1281.72,692.22v19.92c-1.21-.1-5.36.39-5.9-.37-.57-.8.05-16.82,0-19.55h5.9Z"/><path class="cls-51" d="M1143.76,502.62c-4.56,5.02-9.51,13.1-14.02,17.71-8.95,9.14-24.52,17.85-25.08,19.55-.2.61-.43,9.98-.74,12.91-7.76,13.61-66.88,90.62-68.61,96.28-.48,1.56-.5,3.22-.74,4.8-7.77,1.18-.03-4.16.74-12.54.48-5.21-2.45-22.7,0-29.88,2.54-7.44,84.02-108.55,95.17-125.05,4.66,5.37,9.24,10.32,13.28,16.23Z"/><path class="cls-57" d="M1234.5,616.23c-1.38,4.52-1.36,9.35-1.48,14.02-.42.1-1.45,2.08-1.48,2.21-6.21-5.88-43.93-62.57-47.58-61.23l-.37,1.48c-3.49-4.84-25.55-35.05-27.3-36.52-1.22-1.03-1.47-1.9-1.48.37-6.28-3.14-14.96-8.24-19.18-13.28,2.58,1.4,5.27,4.57,7.38,3.32,4.41-8.02,9.19-9.3,5.16-18.07,29.29,35.49,57.59,71.78,86.32,107.71Z"/><path class="cls-57" d="M1103.92,560.9c-.47,1.44-12.22,23.76-14.02,26.93-9.01,15.93-41.35,66.98-55.33,76.36.09-2.15-.08-9.82,0-10.33.24-1.58.26-3.24.74-4.8,1.73-5.65,60.86-82.67,68.61-96.28-.12,1.1,1.54,3.33,0,8.12Z"/><path class="cls-37" d="M1148.18,508.52c4.03,8.77-.76,10.06-5.16,18.07-2.11,1.25-4.8-1.92-7.38-3.32-.29-.16-1.93.32-5.9-2.95,4.51-4.6,9.46-12.69,14.02-17.71,1.35,1.98,2.93,2.64,4.43,5.9Z"/><path class="cls-38" d="M1231.55,632.46c-1.04,6.27,2.03,13.22-6.64,2.58-3.45-4.23-30.82-47.76-41.31-62.34l.37-1.48c3.66-1.34,41.37,55.35,47.58,61.23Z"/><path class="cls-38" d="M1183.6,572.7c10.49,14.58,37.87,58.11,41.31,62.34,8.67,10.64,5.6,3.69,6.64-2.58.02-.13,1.06-2.12,1.48-2.21-.11,4.18.08,8.37,0,12.54-.1,4.79.07,9.59,0,14.39-.64,1.27-1.86-.64-2.95-1.11-9.27-3.98-59.15-29.5-63.82-29.51-2.16,0-3.14,2.13-3.32,2.21-6.6,3.25-28.68,22.81-37.63,29.14.08,8.1,6.18,5.82,11.8,6.27,2.41,13.92,6.34,11.5,6.64,12.17,1.72,3.86-1.32,73.56,0,84.47-11.24-13.49-7.84,7.89-18.07-3.69-3.87.84,2.35,10.88-11.8-2.95-3.11,15.13-4.12-5-10.33,7.38-3.76-9.34-6.45,5.88-9.59-3.69-16.2,15.33-7.07,2.02-11.07.74-13.01,10.36-6.07-13.05-16.23,7.38l-8.85-5.16c.64,17.73-8.31-6.27-10.33,5.9-10.07-13.08-9.58-5.85-10.33-5.9-1.52-.1-1.72-1.48-2.58-1.48.95-31.65-1.28-63.55,0-95.17,13.98-9.38,46.32-60.42,55.33-76.36,1.79-3.17,13.55-25.48,14.02-26.93l1.11,40.58h49.43l.37-64.92c0-2.27.25-1.4,1.48-.37,1.74,1.47,23.81,31.68,27.3,36.52Z"/><path class="cls-45" d="M1071.09,641.31l48.32.37q-.55,40.02-1.11,80.05l-48.32-1.11,1.11-79.31Z"/><path class="cls-32" d="M1114.25,653.86c-1.15.36-1.43-.65-2.21-.74-4.96-.56-9.96.76-14.75.74-.56,0-.88-.02-1.48,0-2.28.07-15.12-1.94-16.23-.37,0,11.19,0,22.38,0,33.57,0,.25,0,.49,0,.74,0,7.38,0,14.75,0,22.13-1.23.01-2.46.12-3.69,0-1.43-12.24,1.07-44.59,0-60.86l37.26-.37c1.82,1.27.92,3.31,1.11,5.16Z"/><path class="cls-5" d="M1114.25,653.86c1.4,13.63-1.04,42.82,0,59.39q-19,.55-37.99,1.11c-.76-.54-.24-3.37-.37-4.43,1.23.12,2.46.01,3.69,0,5.46-.05,10.84-.59,16.23-.74.42-.01.98.02,1.48,0,2.23-.07,13.54,2.36,14.75-.37v-19.18l-13.28-1.11c2.99-1.05,11.18,1.81,13.28-1.48,1.42-2.21.96-28.8,0-33.94.79.09,1.07,1.09,2.21.74Z"/><path class="cls-9" d="M1095.8,653.86c-3.14,32.52,8.14,34.85-16.23,33.2,0-11.19,0-22.38,0-33.57,1.11-1.57,13.95.43,16.23.37Z"/><path class="cls-9" d="M1112.03,653.12c.96,5.14,1.42,31.73,0,33.94l-14.75-.37v-32.83c4.8.02,9.79-1.29,14.75-.74Z"/><path class="cls-9" d="M1095.8,709.19c-5.39.15-10.77.69-16.23.74,0-7.38,0-14.75,0-22.13,3.95,2.13,15.04-.83,16.23,1.84.61,1.37-.45,15.38,0,19.55Z"/><path class="cls-39" d="M1097.28,653.86v32.83l14.75.37c-2.1,3.29-10.29.42-13.28,1.48-3.14,1.11-.7,16.55-1.48,20.66-.49.02-1.06-.01-1.48,0-.45-4.17.61-18.18,0-19.55-1.19-2.68-12.28.28-16.23-1.84,0-.25,0-.49,0-.74,24.37,1.66,13.09-.68,16.23-33.2.6-.02.91,0,1.48,0Z"/><path class="cls-9" d="M1098.76,688.53l13.28,1.11v19.18c-1.21,2.73-12.53.3-14.75.37.78-4.11-1.67-19.55,1.48-20.66Z"/><path class="cls-45" d="M1135.64,523.27c4.22,5.04,12.9,10.14,19.18,13.28l-.37,64.92h-49.43l-1.11-40.58c1.54-4.78-.12-7.01,0-8.12.31-2.93.54-12.3.74-12.91.56-1.7,16.13-10.42,25.08-19.55,3.97,3.27,5.61,2.79,5.9,2.95Z"/><path class="cls-32" d="M1146.71,594.1c-1.42-3.46-.02-3.82,0-4.43.26-6.74-.19-13.54,0-20.29l-14.75-.37c1.14-2.42,16.69,1.64,14.02-2.95.9-3.37,1.26-17.21.74-19.18-.29-1.08-14.75-15.53-15.86-15.49-2.95,2.72-16.75,14.03-17.34,16.23-.45,1.71.08,14.55,0,19.18,0,.25,0,.49,0,.74-.1,7.04-.37,14.8,0,21.76.03.61,1.47.29,1.48.37.03.39-1.44,2.85-1.48,4.43-1.39-.22-2.65.55-3.69-1.11.69-8.63-.92-46.02,0-48.69.45-1.31,18.41-15.62,21.03-18.07,2.48,2.2,17.73,16.13,18.07,17.34,1.02,3.51-.76,40.52,0,50.17l-2.21.37Z"/><path class="cls-61" d="M1132.69,589.67c4.67.01,9.34,0,14.02,0-.02.6-1.42.96,0,4.43-9.02-.75-26.66,1.02-33.2,0,.03-1.57,1.51-4.04,1.48-4.43,5.11.78,10.5-.73,15.49-.74.12,0,1.68.74,2.21.74Z"/><path class="cls-9" d="M1113.51,566.8c.08-4.63-.45-17.48,0-19.18l1.11.74c21.27-19.65,13.85-18.37,15.12,16.6l-16.23,1.84Z"/><path class="cls-9" d="M1146.71,546.88c.52,1.97.16,15.81-.74,19.18l-14.02-.37v-29.51c1.38-3.86,10.12,10.8,14.75,10.7Z"/><path class="cls-9" d="M1130.48,588.93c-4.99,0-10.39,1.52-15.49.74,0-.08-1.44.24-1.48-.37-.37-6.97-.1-14.73,0-21.76,23.94,2.38,13.74-4.87,16.97,21.39Z"/><path class="cls-9" d="M1146.71,589.67c-4.67,0-9.34.01-14.02,0,.13-2.61-1.18-19.72-.74-20.66l14.75.37c-.19,6.75.26,13.55,0,20.29Z"/><path class="cls-1" d="M1146.71,546.88c-4.64.1-13.38-14.56-14.75-10.7v29.51l14.02.37c2.67,4.59-12.88.53-14.02,2.95-.44.94.87,18.05.74,20.66-.54,0-2.1-.74-2.21-.74-3.23-26.27,6.97-19.01-16.97-21.39,0-.25,0-.49,0-.74l16.23-1.84c-1.28-34.97,6.14-36.24-15.12-16.6l-1.11-.74c.59-2.2,14.38-13.51,17.34-16.23,1.11-.03,15.57,14.41,15.86,15.49Z"/><path class="cls-58" d="M1833.24,667.35c-7.5,10.99,4.2,22.35-43.2,12.3-4.77-8.47.05-13.07,0-13.75,1.85-.11,3.81.19,5.63,0,16.31-1.65,21.6,2.74,37.57,1.45Z"/><path class="cls-22" d="M1842.63,652.87c-3.1,5.05-6.02,9.54-9.39,14.48q-1.88-7.96-3.76-15.92c4.49.44,8.56,1.72,13.15,1.45Z"/><path class="cls-8" d="M1829.48,651.43q1.88,7.96,3.76,15.92c-15.97,1.29-21.25-3.1-37.57-1.45q3.29-7.96,6.57-15.92c14.35,27.36,16.18-.24,24.42-1.45,1.13-.17,2.58,2.87,2.82,2.9Z"/><path class="cls-21" d="M1512.05,807.76c-4.78,10.96-8.87,3.8-18.78,4.34q5.17-21.71,10.33-43.43c5.52,13.85,1.08,37.56,8.45,39.08Z"/><path class="cls-47" d="M1617.23,761.44c-.18-.25-2.24,1.42-5.63-3.62-.92-1.36-4.4-13.38-9.39-22.44-3.29-5.96-10.15-26.84-16.9-28.95-6.3-1.96-12.11,48.73-13.15,52.83-8.32,32.84-9.75,38.2-17.84,10.86q-4.23,8.32-8.45,16.65-5.63-25.69-11.27-51.39c-6.69-6.47,36.53-.46,39.44-3.62,1.99-2.16.13-32.86,3.76-52.83.79-4.36.99-8.9,1.88-13.03,3.87-17.94,18.2-51.96,28.17-69.48,6.39,54.69-2.26,110.6,9.39,165.02Z"/><path class="cls-21" d="M1482,768.68c2.72,14.54,8.11,28.72,9.39,43.43-19.12.98-37.21,1.43-56.35,1.45.77-3.47,2.42-6.79,3.76-10.13,1.88-4.71,3.3-9.95,5.63-14.48,6.86-13.28,14.34-25.41,20.66-39.08"/><path class="cls-36" d="M1530.83,735.38c-5.35,16.2-16.62,67.42-18.78,72.38-7.38-1.53-2.94-25.24-8.45-39.08q-5.17,21.71-10.33,43.43c-.62.03-1.26-.03-1.88,0-1.28-14.71-6.67-28.88-9.39-43.43,16.93,7.51,5.15-17.36,14.09-36.19,32.64-1.92,32.92,2.93,34.75,2.9Z"/><path class="cls-28" d="M1763.74,787.49c-.63.47-4.35,7.52-8.45,7.24-4.59-6.23-13.35-3.3-17.84-6.51-8.45-6.05-27.69-49.92-30.05-52.11-1.41-1.3-3.72-.6-5.63-.72,1.66-3.01,9.95-21.79,12.21-21.71q3.76,10.86,7.51,21.71c4.44-26.28,7.53-6.26,21.6,18.09,8.87-10.75,10.6,13.33,20.66,34.02Z"/><path class="cls-35" d="M1399.35,780.26c.46,2.78-.6,29.14,4.7,28.95q7.98-14.48,15.97-28.95c.43.04,5-3.19,8.45-1.45,5.1,2.58,1.55,6.4,2.82,8.69,2.98,5.4,5.56,10.22,7.51,15.92-1.34,3.34-2.99,6.66-3.76,10.13-25.67.02-51.34-.02-77.01,0,11.32-9.45,19.06-23.35,26.3-34.74,9.82-15.46,10.51-25.99,15.03,1.45Z"/><path class="cls-10" d="M1602.21,735.38q-5.63,11.94-11.27,23.88-2.82-26.42-5.63-52.83c6.76,2.11,13.62,22.99,16.9,28.95Z"/><path class="cls-47" d="M1754.35,652.87c-7.5,8.12,34.86,87.65,23.48,88.3-2.54.14-23.11-30.31-25.36-34.02-4.08-6.71-38.12-73.41-39.44-77.44-2.36-7.16-1.4-10.75-1.88-17.37-.69-9.51-4.52-20.43,6.57-27.5,35.23,21.42-.12,33.62,36.63,68.03Z"/><path class="cls-33" d="M1652.92,639.85c.02.9-2.39,1.58-1.88,6.51.54,5.2,23.43,83.53,28.17,102.05-29.06-40.78-39.98-90.25-46.96-136.07,1.73,3.83,15.89,22.2,20.66,27.5Z"/><path class="cls-33" d="M1788.16,660.11c-13.09-4.06-17.6-20.85-28.17-28.23-.95-8.5,2.57-2.44,5.63-3.62,5.01-1.93,7.01-4.66,12.21-5.79,25.27,15.93,12.04,16.32,10.33,37.64Z"/><path class="cls-47" d="M1763.74,787.49c-10.06-20.69-11.79-44.77-20.66-34.02-14.08-24.36-17.16-44.37-21.6-18.09q-3.76-10.86-7.51-21.71c-2.26-.07-10.55,18.7-12.21,21.71-5.4,9.79-11.41,19.27-16.9,28.95-1.73-5.82-4.07-9.82-5.63-15.92-4.75-18.52-27.63-96.85-28.17-102.05-.51-4.94,1.9-5.62,1.88-6.51-.52-27.96.84-20.79,7.51-30.4,43.97,14.76,20.01,28.49,31.93,44.87,7.44-.91,17.75-18.91,20.66-24.61,1.33,4.03,35.37,70.73,39.44,77.44,2.25,3.7,22.82,34.16,25.36,34.02,11.38-.65-30.98-80.18-23.48-88.3,26.2,24.53-17.78-33.38.94-34.74q5.17,5.07,10.33,10.13c-3.06,1.18-6.59-4.88-5.63,3.62,10.57,7.38,15.09,24.17,28.17,28.23-.56,7.02,1.86,5.49,1.88,5.79.05.69-4.77,5.28,0,13.75,47.4,10.04,35.7-1.31,43.2-12.3,3.37-4.94,6.3-9.43,9.39-14.48,7.43-12.12,16.02-24.67,20.66-37.64,1.3-3.62,2.71-5.88,3.76-10.13,2.04.96,7.3-7.5,7.51-7.96,11.87-25.74,24.16-51.65,35.69-77.44-4.06,38.23-18.68,99.07-37.57,133.9-14.71,27.12-82.66,114.48-108.94,133.9Z"/><path class="cls-47" d="M1688.61,608c2.31,15.32,1.51,30.97,3.76,46.32-11.92-16.38,12.04-30.11-31.93-44.87,1.86-2.68,3.62-2.72,3.76-2.9,11.86-.84,20.93,1.35,22.54-8.69.7,3.06,1.41,7.02,1.88,10.13Z"/><path class="cls-58" d="M1790.98,691.96q6.1,1.81,12.21,3.62c-12.47,9.13-19.14,11.58-12.21-3.62Z"/><path class="cls-41" d="M1444.43,788.94c-2.34,4.53-3.76,9.77-5.63,14.48-1.96-5.71-4.54-10.52-7.51-15.92l13.15,1.45Z"/><path class="cls-56" d="M1420.01,780.26q-7.98,14.48-15.97,28.95c-5.3.19-4.24-26.17-4.7-28.95,9.95-3.79,18.97-.16,20.66,0Z"/><path class="cls-60" d="M1682.98,770.12c-3.17,5.46-18.81,36.63-23.48,36.19-12.96-13.59-31.71-30.54-42.26-44.87-11.65-54.42-3-110.33-9.39-165.02-.06-.48.06-.97,0-1.45,2.79-.62,8.83,3.97,9.39,5.07,7.19,14.14,21.58,82.52,31.93,108.56,7.71,19.38,22.46,42.9,33.81,61.52Z"/><path class="cls-40" d="M1628.5,560.23c-6.4-.9-2.95,21.61-1.88,28.95,1.3,8.94,1.64,14.3,5.63,23.16,6.98,45.82,17.9,95.28,46.96,136.07,1.56,6.1,3.9,10.1,5.63,15.92-.16.27.46,1.77-1.88,5.79-11.35-18.62-26.1-42.14-33.81-61.52-10.36-26.05-24.74-94.42-31.93-108.56-.56-1.1-6.6-5.69-9.39-5.07-.86-6.64-4.68-30.42-5.63-31.85-1.72-4.62,7.33-2.47,19.72-2.9.75-.03,3.04-2.89,3.76-2.9,4.41-.04,2.58,2.9,2.82,2.9Z"/><path class="cls-49" d="M1613.48,421.27c-2.15,27.92-16.2,61.37,1.88,109.29,9.74,7.1,1.12-10.85,5.63-30.4,8.23-35.63,6.93,12.77,11.27,23.16,3.48,8.31,18.69,21.09,26.3,28.23,2.18,2.05,5.61,4.33,5.63,7.24-9.27,2.72-25.15,1.36-35.69,1.45-.23,0,1.59-2.93-2.82-2.9-.72,0-3.01,2.87-3.76,2.9-12.39.42-21.44-1.72-19.72,2.9-3.74-5.55-50.17-11.36-54.47-16.65-2.52-3.1,1.61-8.56,0-11.58-2.42-4.54-35.65-8.65-26.3-34.02.98-2.66,28.42-21.96,43.2-44.15,19.64-29.48,32.53-74.56,46.96-106.39,5.33,23.51,3.7,47.24,1.88,70.93Z"/><path class="cls-19" d="M1698,496.54c-8.36,22.04-6.58,26.06-29.11,43.43-5.73.12-3.03-21.31-15.97-39.08-.26-.35-.4-4.55-4.7-7.24-10.27,19.4-18.8-54.72-34.75-72.38,1.82-23.69,3.45-47.41-1.88-70.93,1.57-3.47,1.55-6.68,4.7-8.69,12.54,29.34,27.21,81.73,42.26,107.84,11.27,19.55,36.16,40.69,39.44,47.04Z"/><path class="cls-49" d="M1701.76,513.91c-.24,26.42-11.09,19.84-20.66,28.23-.91.79-7.84,13.99-16.9,16.65-.03-2.91-3.45-5.19-5.63-7.24,3.33-12.94-13.98-41.02-5.63-50.66,12.94,17.77,10.23,39.2,15.97,39.08,22.53-17.37,20.75-21.39,29.11-43.43,3.89,7.53,3.83,9.38,3.76,17.37Z"/><path class="cls-49" d="M1652.92,500.88c-8.35,9.64,8.96,37.73,5.63,50.66-7.61-7.14-22.82-19.92-26.3-28.23-4.34-10.39-3.04-58.79-11.27-23.16-4.52,19.55,4.1,37.5-5.63,30.4-18.08-47.92-4.03-81.37-1.88-109.29,15.95,17.65,24.48,91.78,34.75,72.38,4.3,2.69,4.44,6.88,4.7,7.24Z"/><path class="cls-28" d="M787.02,846.84c6.27-1.18,2.8-1.79,3.76-2.9,5.78,6.34,18.05,1.37,22.54,1.45,20,.35,40.06,3.73,60.11,0,.16.16,3.44.65,3.76,2.9-24.49-1.68-132.89,4.97-145.57,1.45-4.48-1.25-47.74-53.4-53.53-60.8,2.93-5.71,5.92-11.88,9.39-17.37,12.08-19.08,17.55-28.9,26.3-49.22,9.87,32.38,9.5,68.59,28.17,99.16,10.27,16.8,18.58,30.3,45.08,25.33Z"/><path class="cls-28" d="M725.03,703.54c1.67,5.44,3.67,10.56,5.63,15.92,15.73,42.99,38.41,84.91,56.35,127.38-26.5,4.97-34.81-8.53-45.08-25.33-18.67-30.56-18.3-66.77-28.17-99.16,3.21-7.46,5.66-19.29,11.27-18.82Z"/><path class="cls-21" d="M850.88,822.24c.9.22,2.56-.15,3.76,0,8,6.69,11.87,16.06,18.78,23.16-20.05,3.73-40.11.35-60.11,0-3.24-17.51-12.3-27.09-7.51-46.32,2.97-5.45,5.98-10.64,9.39-15.92,23.44,16.85,11.72,49.47,45.08,58.62-6.5-4.97-5.73-12.08-9.39-19.54Z"/><path class="cls-21" d="M813.31,845.4c-4.49-.08-16.76,4.9-22.54-1.45,2.48-2.88,1.31-4.16,1.88-5.79,5.33-15.23,4.68-23.53,13.15-39.08-4.78,19.23,4.28,28.81,7.51,46.32Z"/><path class="cls-20" d="M841.49,464.7c-6.38,7.67-16.04,38.91-16.9,48.49-2.78,30.7,8.44,57.98,9.39,71.65.38,5.44.41,11.94,0,17.37-.27,3.62-10.24,46.85-11.27,49.22-7.04,1.06-2.22-7.18-3.76-13.75-6.11-26.05-21.58-56-18.78-99.16.85-13.03,10.44-41.93,11.27-56.45,8.95-4.72,27.58-20.52,30.05-17.37Z"/><path class="cls-20" d="M668.68,673.14c-10.64-4.86-25.98-35-30.05-46.32-6.5-18.06-.8-25.84-8.45-24.61-8.41,1.36-10.15,39.09-17.84,43.43-9.99-28.36-21.69-56.39-31.93-84.68-.54-1.49.31-8.62-1.88-14.48-.19-.5-4.18-1.01-7.51-8.69-1-2.31,3.19-11.53-7.51-15.2-.06-.48.05-.97,0-1.45,6.43.74,3.77-5.2,0-7.24-2.68-22.04-4.99-20.51-7.51,1.45-4.35,3.13-3.18,7.74-3.76,11.58-2.35,15.59-6.53,15.2-7.51,18.09-1.88,5.53-1.45,19.44-7.51,22.44,7.66-48.41,10.43-88.81,43.2-133.17,9.63,2.57,3.07,21.35,9.39,34.02,5.49,11,27.6,22.49,43.2,21.71,8.89,19.5,48.08,77.8,50.71,91.19,5.31,26.97-15.06,75.5-15.03,91.92Z"/><path class="cls-47" d="M860.27,670.25c2.36,3.99,7.9,28.67,9.39,29.67,3.81,2.56,12.08-1,18.78-.72,1.78.07,1.93,1.33,3.76,1.45-5.83,9.13.71,23.73,0,31.85-.5,5.73-1.78,8.89-5.63,11.58,8.24-23.28-53.24-55.25-41.32-96.98,3.03,8.75,2.27,21.73,15.03,23.16Z"/><path class="cls-47" d="M822.7,651.43c-1.44,3.31-16.19,23.73-18.78,20.99q-10.33-34.38-20.66-68.76c3.27-21.9,6.64-44.61,16.9-65.14-2.8,43.15,12.68,73.11,18.78,99.16,1.54,6.57-3.28,14.81,3.76,13.75Z"/><path class="cls-33" d="M638.63,626.82c4.08,11.32,19.41,41.47,30.05,46.32.02,8.74,10.54,48.55,13.15,73.82l-1.88,22.44c-26.02-20.18-44.1-64.21-46.96-92.64-1.43-14.2-2.03-54.97,5.63-49.94Z"/><path class="cls-47" d="M638.63,626.82c-7.66-5.03-7.06,35.74-5.63,49.94,2.86,28.43,20.94,72.46,46.96,92.64l1.88-22.44c1.25,12.11-2.24,30.83,5.63,24.61-3.47,5.49-6.46,11.66-9.39,17.37-56.63-72.37-42.33-76.82-65.74-143.31,7.7-4.34,9.44-42.07,17.84-43.43,7.65-1.23,1.95,6.55,8.45,24.61Z"/><path class="cls-20" d="M661.17,409.69c-3.71,53.63,17.33,65.51,26.3,83.23,11.97,23.66,42.05,81.05,48.84,99.16-3.6,2.63-3.52,6.71-3.76,10.13-5.39,4.28-8.83,15.52-11.27,21.71-8.65-.66-15.37-19.57-18.78-27.5-4.41-10.24-7.15-24-11.27-32.57-7.53-15.66-39.8-65.43-41.32-73.82-.69-3.81,4.77-72.93,5.63-76.72.18-.78,2.99-4.6,5.63-3.62Z"/><path class="cls-47" d="M721.28,623.92c-11.92,30.23-12.67,50.14-18.78,7.96-1.24-8.54-2.26-27.05,0-35.46,3.42,7.93,10.13,26.84,18.78,27.5Z"/><path class="cls-47" d="M730.67,719.46c-1.96-5.36-3.96-10.48-5.63-15.92-4.67-15.19-7.05-16.89-5.63-33.29,4.52,11.22,35.06,48.32,11.27,49.22Z"/><path class="cls-53" d="M676.2,372.05c-10.18-1.86-14.48,29.74-15.03,37.64-2.65-.98-5.46,2.84-5.63,3.62-.86,3.78-6.32,72.91-5.63,76.72,1.52,8.4,33.79,58.16,41.32,73.82,4.12,8.56,6.86,22.33,11.27,32.57-2.26,8.42-1.24,26.93,0,35.46,6.11,42.18,6.86,22.26,18.78-7.96,2.44-6.2,5.88-17.44,11.27-21.71-1.97,28.31-11.45,48.36-13.15,68.03-1.42,16.4.97,18.1,5.63,33.29-5.61-.47-8.06,11.36-11.27,18.82-8.75,20.32-14.22,30.14-26.3,49.22-7.87,6.22-4.39-12.5-5.63-24.61-2.61-25.28-13.13-65.08-13.15-73.82-.03-16.41,20.34-64.95,15.03-91.92-2.64-13.4-41.83-71.69-50.71-91.19-15.61.78-37.71-10.71-43.2-21.71-6.33-12.67.24-31.44-9.39-34.02,4.38-5.93,9.62-13.54,15.03-18.82.13-.13,3.62-1.32,3.76-1.45,3.85,16.53,1.15,59.08,28.17,60.07q-12.21-31.48-24.42-62.97c14.18-12.1,17.36-13.81,33.81-23.16,5.5,34.11,11.85,6.64,18.78-8.69,7.8-3.87,14.13-8.11,22.54-11.58.77,2.05-1.3,2.74-1.88,4.34Z"/><path class="cls-20" d="M599.18,414.03c1.32-1.22,2.6-1.91,3.76-2.9q12.21,31.48,24.42,62.97c-27.02-.99-24.32-43.54-28.17-60.07Z"/><path class="cls-47" d="M636.75,387.98c6.19-3.52,12.7-5.67,18.78-8.69-6.94,15.33-13.28,42.79-18.78,8.69Z"/><path class="cls-55" d="M624.54,399.56c6.88,5.12,25.65,65.25,18.78,63.69-4.83-1.1-23.1-55.72-18.78-63.69Z"/><path class="cls-47" d="M852.76,327.18c77.01,30.28,91.95,103.76,47.9,124.49-31.11,14.64-46.38-2.34-59.17,13.03-2.48-3.15-21.1,12.65-30.05,17.37,1.17-20.48-15.62,2.78-28.17,1.45-.04-4.01-4.58-30.64-13.15-18.82.23-24.72,29.62-97.16,28.17-62.97h3.76c-3.13-31.89-37.5-34.99,3.76-66.59-18.48,6.12-49.3,43.16-48.84,57.9-10.11,11.19-17.32,23.81-26.3,35.46-8.36-34.25-.41-55.25,28.17-81.79-8-9.57-50.86,55.11-37.57,6.51.12-.04-.44-1.6,1.88-1.45,27.53-5.39,52.91-16.82,79.83-23.16,14.78-3.48,28.72-1.04,42.26-5.79-.19,5.75,6.34,3.88,7.51,4.34Z"/><path class="cls-53" d="M730.67,428.51c-11.44,14.86-9.63,19.56-18.78,13.03-3.25-6.17-12.47-12.71-20.66-14.48-.62-4.58-3.11-5.37,5.63-7.24,35.54,40.42,3.46-11.72,30.05-44.15-1.24-1.96-29.74,26.55-31.93,29.67q-2.82-1.45-5.63-2.9c14.21-13.43,22.83-28.58,22.54-46.32,3.3-1.13,6.31-1.88,9.39-2.9-13.3,48.6,29.56-16.09,37.57-6.51-28.59,26.53-36.54,47.54-28.17,81.79Z"/><path class="cls-47" d="M711.88,356.13c.29,17.74-8.33,32.89-22.54,46.32-25.42,23.98-18.12-16.57-13.15-30.4.57-1.6,2.65-2.29,1.88-4.34,16.04-6.63,22.39-7.68,33.81-11.58Z"/><path class="cls-47" d="M696.86,419.82c-1.77-2.01-7.45-6.08-7.51-6.51-.07-.5,4.47-6.3,5.63-7.96,2.19-3.13,30.69-31.63,31.93-29.67-26.59,32.43,5.49,84.57-30.05,44.15Z"/><path class="cls-53" d="M770.11,464.7c-.26,28.74,13.28,30.79,13.15,18.82,12.55,1.33,29.34-21.93,28.17-1.45-.83,14.52-10.42,43.42-11.27,56.45-10.27,20.53-13.63,43.24-16.9,65.14-6.09,40.77-8.3,81.32-1.88,122.32q-5.17.36-10.33.72c-13.05-41.9-19.58-94.13-34.75-134.62-6.78-18.1-36.87-75.5-48.84-99.16-8.96-17.72-30.01-29.6-26.3-83.23.55-7.9,4.84-39.49,15.03-37.64-4.97,13.83-12.27,54.37,13.15,30.4q2.82,1.45,5.63,2.9c-1.16,1.66-5.71,7.46-5.63,7.96.06.43,5.74,4.5,7.51,6.51-8.74,1.87-6.25,2.65-5.63,7.24,1.19,8.84,14.89,44.38,22.54,35.46-2.23-7.16,4.58-8.71-1.88-20.99,9.15,6.53,7.34,1.83,18.78-13.03,8.98-11.66,16.19-24.27,26.3-35.46-.46-14.74,30.36-51.79,48.84-57.9-41.25,31.6-6.89,34.7-3.76,66.59h-3.76c1.44-34.2-27.95,38.25-28.17,62.97Z"/><path class="cls-20" d="M783.26,483.51c.13,11.97-13.41,9.92-13.15-18.82,8.56-11.83,13.11,14.8,13.15,18.82Z"/><path class="cls-20" d="M725.97,448.77c5.79-.89,2.01,12.71,6.57,22.44,2.69,5.73,14.77,17.16,18.78,24.61,6.6,40.19,29.3,62.38,10.33,103.5-5.35,2.87-42.51-74.1-44.14-80.34-1.46-5.6-8.25-48.18-7.51-50.66.33-1.13,12.13-10.76,15.97-19.54Z"/><path class="cls-20" d="M679.01,416.93c2.61,39.76,49.52,134.16-2.82,36.91l2.82-36.91Z"/><path class="cls-34" d="M765.42,500.88c23.45-3.94,31.58,95.01-2.82,3.62l2.82-3.62Z"/><path class="cls-47" d="M780.44,357.58c.41,13.59,12.69,25.51,12.21,29.67-.51,4.43-27.98,36.25-32.87,84.68-16.24-18.63-28.82-19.05-21.6-45.6,1.01-3.72,35.95-58.54,42.26-68.76Z"/><path class="cls-47" d="M711.88,441.54c6.46,12.28-.35,13.83,1.88,20.99-7.65,8.92-21.35-26.62-22.54-35.46,8.19,1.77,17.42,8.31,20.66,14.48Z"/><path class="cls-20" d="M744.75,463.25c2.4-.92,29.32,33.57,10.33,23.88q-5.17-11.94-10.33-23.88Z"/></g></g></svg>