<?xml version="1.0" encoding="UTF-8"?><svg id="Layer_2" xmlns="http://www.w3.org/2000/svg" viewBox="0 0 1925.74 1982.12"><defs><style>.cls-1{fill:#23181c;}.cls-1,.cls-2,.cls-3,.cls-4,.cls-5,.cls-6,.cls-7,.cls-8,.cls-9,.cls-10,.cls-11,.cls-12,.cls-13,.cls-14,.cls-15,.cls-16,.cls-17{stroke-width:0px;}.cls-2{fill:#554980;}.cls-3{fill:#544b61;}.cls-4{fill:#485069;}.cls-5{fill:#303055;}.cls-6{fill:#4e4783;}.cls-7{fill:#0a1418;}.cls-8{fill:#5e5081;}.cls-9{fill:#4a417a;}.cls-10{fill:#060508;}.cls-11{fill:#574274;}.cls-12{fill:#21284e;}.cls-13{fill:#4b4583;}.cls-14{fill:#293e99;}.cls-15{fill:#52477e;}.cls-16{fill:#252e55;}.cls-17{fill:#655970;}</style></defs><g id="maison_nuit"><g id="devant"><path class="cls-6" d="M569.51,1523.29c2.54,16.75,27.65,61.04,28.17,64.41.63,4.03-6.97,46.15-5.63,81.06,1.66,43.41,21.37,148.41,61.98,179.49,8.91,6.82,11.17,2.89,13.15,3.62.73.27,6.53,4.43,13.15,7.24-45.06,123.23-28.53,37.58-62.92-33.29-6.21-.64-11.37,57.13-15.03,63.69q-19.72-30.4-39.44-60.8c-7.84-.69-12.09,32.78-19.72,37.64-2.88-3.49-4.9-7.66-6.57-11.58-14.31,12.05-11.78,4.12-17.84,1.45-7.42-19.35-12.62-39.05-18.78-58.62-.34-1.08-2.49-.74-3.76-.72,9.91-19.94,8.73-23.38,9.39-24.61.14-.26,2.96,1.33,5.63-3.62,7.62-14.1,58.13-98.55,58.23-104.22.05-3.02-21.93-32.81-26.3-41.98-40.93-85.85-4.28-120.57-1.88-139.69,12.83,7.88,16.88,29.04,28.17,40.53Z"/><path class="cls-11" d="M565.75,1420.51c.29,2.38-.26,4.86,0,7.24.05.48-.06.97,0,1.45,4.52,39.23,1.55,79.53,3.76,94.09-11.29-11.49-15.34-32.65-28.17-40.53.78-6.18-2.29-6.09-1.88-8.69,6.06-3,5.63-16.91,7.51-22.44.98-2.89,5.17-2.51,7.51-18.09,4.26-3.16,3.31-7.68,3.76-11.58,2.52-21.96,4.83-23.49,7.51-1.45Z"/><path class="cls-9" d="M739.5,1757.79c1.99,7.17,22.37,30.63,29.11,31.85l52.59,60.8c-34.43-1.09-68.87-1.94-103.31-2.9-1.3-7.69-3.21-15.48-4.7-23.16-1.52,0-4.18,20.74-4.7,23.16-10.87,3.55-18.99-25.64-24.42-41.25-6.4-5.27-2.29,1.84-3.76,6.51-4.08,13.04-8.21,26.21-13.15,39.08-1.98-.73-4.24,3.2-13.15-3.62-40.61-31.08-60.32-136.08-61.98-179.49-1.34-34.91,6.26-77.03,5.63-81.06-.53-3.37-25.64-47.66-28.17-64.41-2.21-14.56.77-54.86-3.76-94.09,10.71,3.67,6.51,12.89,7.51,15.2,3.33,7.67,7.33,8.18,7.51,8.69,2.19,5.85,1.34,12.98,1.88,14.48,10.24,28.29,21.94,56.32,31.93,84.68,23.41,66.49,9.11,70.94,65.74,143.31,5.79,7.4,49.05,59.55,53.53,60.8"/><path class="cls-5" d="M708.5,1847.53c-1.71,7.97-4.71,14.89-3.76,23.16-11.45-1.88,5,37.82,5.63,56.45-16.97,1.49-33.83,3.92-50.71,5.79-.16-1.48.75-3.24-.94-4.34-12.75-8.34-102.38-48.54-110.82-55.01-3.91-3-2.76-4.89-4.7-7.24,7.64-4.86,11.88-38.32,19.72-37.64q19.72,30.4,39.44,60.8c3.65-6.56,8.82-64.34,15.03-63.69,34.4,70.87,17.87,156.52,62.92,33.29.09-.23,5.19.63,5.63-.72,2.15-6.6-.22-37.41-5.63-45.6,1.46-4.67-2.64-11.79,3.76-6.51,5.43,15.62,13.55,44.81,24.42,41.25Z"/><path class="cls-6" d="M723.53,1925.7c-2.85-6.69-2.2-6.95-1.88-13.03.76-14.23,1.52-27.76,0-41.98,20.01-39.29,20.64,14.38,36.63,49.22,18.5-55.35,3.82-54.22,23.48.72-2.76,5.99-50.27,4.39-58.23,5.07Z"/><path class="cls-12" d="M717.89,1847.53c1.26,7.45,2.96,15.76,3.76,23.16,1.52,14.22.76,27.74,0,41.98-4.89-9.68-15.9-33.26-16.9-41.98-.95-8.27,2.05-15.19,3.76-23.16.52-2.42,3.17-23.16,4.7-23.16,1.49,7.68,3.4,15.47,4.7,23.16Z"/><path class="cls-6" d="M704.75,1870.69c1,8.72,12.02,32.3,16.9,41.98-.33,6.08-.97,6.33,1.88,13.03-4.23.36-8.73,1.06-13.15,1.45-.64-18.63-17.08-58.34-5.63-56.45Z"/><path class="cls-5" d="M518.79,1856.22c-22.28-9.82-58.25-24.67-50.71-46.32,1.32,1.94,9.89,20.47,14.09,18.82,3.5-10.99,8.85-21.31,14.09-31.85,1.27-.01,3.42-.35,3.76.72,6.16,19.57,11.36,39.27,18.78,58.62Z"/><path class="cls-12" d="M680.33,1859.11c-6.62-2.81-12.42-6.97-13.15-7.24,4.94-12.87,9.07-26.04,13.15-39.08,5.41,8.19,7.78,39,5.63,45.6-.44,1.35-5.55.49-5.63.72Z"/><path class="cls-4" d="M554.48,1433.54c.58-3.84-.59-8.45,3.76-11.58-.45,3.9.5,8.42-3.76,11.58Z"/><path class="cls-15" d="M565.75,1427.75c-.26-2.38.29-4.86,0-7.24,3.77,2.04,6.43,7.98,0,7.24Z"/><path class="cls-6" d="M1292.66,1903.99c-17.43,11.38-39.76,34.27-56.35,47.77h-99.55c1.66-26.07,18.24-25.11,37.57-39.08,23.79-1.04,47.68-3.81,71.38-5.79,15.58-1.3,31.23-3.1,46.96-2.9Z"/><path class="cls-7" d="M129.98,1668.04c42.51,27.26,101.02,42.96,149.33,63.69,33.96,14.58,66.66,31.36,100.49,46.32,9.55,4.22,11.42,14.96,11.27-2.17,8.53-7.24,2.45,8.24,22.54,23.88,7.33,5.7,26.99,15.81,37.57,17.37,4.66,8.79,3.85-12.13,9.39-20.27.49.6,4.25,8.26,7.51,13.03-7.54,21.66,28.43,36.5,50.71,46.32,6.07,2.67,3.53,10.6,17.84-1.45,1.68,3.92,3.7,8.09,6.57,11.58,1.94,2.35.78,4.24,4.7,7.24,8.44,6.46,98.07,46.67,110.82,55.01,1.69,1.1.78,2.86.94,4.34-17.4,1.93-122.52,14.26-128.67,15.92-1.47.4-.94,1.94-.94,2.9-88.67-.22-322.52,3.45-382.24,0-14.91-.86-33.33-3.09-47.9-5.79-18.7-3.46-59.8-14.93-63.86-31.12-4.03-16.07-2.9-305.77,1.88-327.14,1.39-6.23,6.24-18.56,11.27-23.88,11.45,42.04,37.55,76.51,80.77,104.22Z"/><path class="cls-17" d="M1925.66,1051.39c.24,58.86-.09,117.73,0,176.6-23.69-53.32-4.37-3.88-7.51,15.2-.19,1.16-3.47.28-3.76,1.45-.24.96,5.84,10.06-11.27,15.2q-15.03-7.24-30.05-14.48c-.19-.39-5.39-1.61-5.63-2.17-5.27-11.91-4.13-39.62-3.76-53.56,0-.32-3.77-5.47-3.76-5.79.35-8.19,14.3-26,8.45-26.78-9.19,26.01-15.42,18.35-15.97,19.54-.7,1.52,5.52,10.91,5.63,11.58.09.53-6.3,6.5,1.88,8.69v52.83c-10.99-11.14-19.22-8.04-20.66-8.69-17.41-7.76-29.88-34.68-30.05-36.91-.25-3.29,7.22-29.19,5.63-36.19-.38-1.66-21.5-25.74-22.54-28.95-1.08-3.32,3.01-6.6,1.88-11.58-3.81-16.74-9.21-28.7-3.76-47.04.16-.31,4.19-3.96,5.63-5.07-4.55-4.46-4.07-.18-5.63,5.07-5.02,9.85-6.8,24.88-5.63,35.46.12,1.13,3.59.31,3.76,1.45.7,4.73.59,19.8,1.88,23.16,2.93,7.64,20.47,25.92,20.66,27.5.48,3.92-6.17,5.52-1.88,21.71-2.92,3.8-12.13-14.71-30.99-28.23-27.43,5.85-42.87-2.74-53.53-23.16-1.36-5.85-2.23-11.7-4.7-17.37-2.83,6.45,1.79,11.8,4.7,17.37,5.26,22.69-3.78,16.83-3.76,19.54.04,4.38,8.19-1.13,10.33-.72,2.1.39,26.35,12.7,27.24,13.75,3.83,4.53-2.57,33.85,31.93,55.01q-21.6,1.81-43.2,3.62c-37.07-5.02-82.54-28.13-88.28-58.62-.63-3.34-.59-34.14,0-36.19.6-2.1,27.87-34.23,30.05-36.19,48.9-43.74,166.8-64.89,236.67-47.04Z"/><path class="cls-3" d="M1836.44,1138.25c-11.03,30.35,10.32,22.74,5.63,31.85-18.07-10.35-14.41-18.29-5.63-31.85Z"/><path class="cls-3" d="M1724.68,1138.25c-2.91-5.57-7.53-10.92-4.7-17.37,2.47,5.67,3.34,11.53,4.7,17.37Z"/><path class="cls-3" d="M1790.42,1080.34c1.56-5.25,1.09-9.53,5.63-5.07-1.44,1.11-5.48,4.76-5.63,5.07Z"/><path class="cls-3" d="M1845.83,1170.09c2.35-.84,6.75,2.43,1.88,4.34-.83-1.85-3.48-3.77-1.88-4.34Z"/><path class="cls-3" d="M1839.25,1241.02q17.37,18.82,34.75,37.64c10.23,4.67-12.41-27.25-14.09-28.95v-52.83c-8.18-2.18-1.79-8.16-1.88-8.69-.12-.67-6.34-10.06-5.63-11.58.55-1.19,6.78,6.47,15.97-19.54,5.85.78-8.1,18.59-8.45,26.78-.01.32,3.77,5.47,3.76,5.79-.37,13.94-1.51,41.65,3.76,53.56.25.56,5.44,1.79,5.63,2.17,8.22,16.53,26.72,56.75,30.05,14.48,17.11-5.14,11.03-14.24,11.27-15.2.29-1.17,3.57-.29,3.76-1.45,3.15-19.08-16.18-68.52,7.51-15.2.01,7.72,0,15.44,0,23.16-30.22,19.83-17.22,56.6,0,78.17.01,11.1-.01,22.2,0,33.29-14.76-14.95-22.67-47.75-33.81-61.52-8.73-10.79-27.14-17.14-39.44-28.95-7.1-6.81-22.58-32.9-29.11-35.46-.76-.3-9.14.45-15.03-1.45-4.62-1.49-12.35-7.13-13.15-7.24-3.62-.47-15.45,5.84-47.9,1.45q21.6-1.81,43.2-3.62c-34.5-21.16-28.1-50.48-31.93-55.01-.89-1.05-25.14-13.36-27.24-13.75-2.14-.4-10.29,5.11-10.33.72-.03-2.71,9.02,3.15,3.76-19.54,10.66,20.43,26.1,29.01,53.53,23.16,18.86,13.51,28.07,32.02,30.99,28.23-4.29-16.2,2.36-17.79,1.88-21.71-.19-1.58-17.74-19.87-20.66-27.5-1.29-3.36-1.18-18.43-1.88-23.16-.17-1.14-3.63-.32-3.76-1.45-1.17-10.59.61-25.61,5.63-35.46-5.45,18.34-.05,30.3,3.76,47.04,1.13,4.98-2.96,8.26-1.88,11.58,1.04,3.21,22.16,27.29,22.54,28.95,1.58,7-5.89,32.89-5.63,36.19.17,2.23,12.64,29.15,30.05,36.91Z"/><path class="cls-14" d="M1903.12,1259.84c-3.33,42.27-21.83,2.05-30.05-14.48q15.03,7.24,30.05,14.48Z"/><path class="cls-14" d="M1859.91,1249.71c1.67,1.7,24.31,33.62,14.09,28.95q-17.37-18.82-34.75-37.64c1.44.64,9.67-2.45,20.66,8.69Z"/><path class="cls-17" d="M1768.82,1167.2c35.84,4.99,30.01,30.39,30.99,32.57,2.42,5.36,7.34,5.4,7.51,5.79.67,1.46-5.09,3.66,12.21,28.23-8.13,3.71-45.89-25.93-47.9-29.67-2.91-5.43-2.82-25.02-9.39-33.29q3.29-1.81,6.57-3.62Z"/><path class="cls-7" d="M755.46,1090.48c-18.72,1.94-39.01,7.37-56.35,13.03-52.67,17.17-102.94,49.45-125.85,90.47-1.45,2.59,1.99,4.13,1.88,4.34-.2.38-5.5,1.05-7.51,5.79-8.23,19.33-12.15,45.22-7.51,65.14,2.14,9.21,24.54,51.88,37.57,52.83-5.4,5.28-10.64,12.89-15.03,18.82-32.77,44.36-35.55,84.77-43.2,133.17-.41,2.6,2.65,2.51,1.88,8.69-2.4,19.12-39.05,53.84,1.88,139.69,4.37,9.16,26.35,38.96,26.3,41.98-.1,5.67-50.6,90.12-58.23,104.22-2.68,4.95-5.49,3.36-5.63,3.62-95.22-23.59-118.38-103.74-154.02-166.47,53.88-56.89,8.8-138.68-7.51-201.21,32.82-6.25,69.21-11.3,96.73-27.5,77.57-45.66,43.5-150.56-83.59-193.97,28.94-11.02,27.66,12.49,51.65,13.03,9.74-15.54-21.05,1.74-23.48-25.33,5.24-13.96,31.19-4.17,37.57-10.13,6.41-6-6.46-15.03,6.57-23.88,2.93-1.99,16.9-4.63,18.78-5.79,5.89-3.62,8.82-9.61,15.03-13.03,44.95-24.77,69.78-25.83,73.25-27.5,1.21-.58,3.07-7.03,7.51-8.69,34.97-13.04,74.4-20.09,110.82-30.4,3.71-1.05,5.63-2.5,4.7-5.79,38.05-2.63,93.19-8.05,123.97,9.41,11.52,20.6-35.09,24.73-28.17,35.46Z"/><path class="cls-7" d="M659.67,1045.6c.93,3.29-.99,4.74-4.7,5.79-36.42,10.31-75.85,17.36-110.82,30.4-4.44,1.66-6.3,8.1-7.51,8.69-3.48,1.68-28.31,2.74-73.25,27.5-6.2,3.42-9.14,9.41-15.03,13.03-1.88,1.16-15.85,3.8-18.78,5.79-13.04,8.86-.16,17.88-6.57,23.88-6.37,5.96-32.32-3.82-37.57,10.13,2.43,27.07,33.22,9.79,23.48,25.33-23.99-.54-22.71-24.05-51.65-13.03-41.37-14.13-92.08-23.71-137.12-26.06,40.84-31.5,100.07-54.21,154.96-68.03,54.45-13.72,226.51-39.41,284.57-43.43Z"/><path class="cls-16" d="M851.26,1096.27c12.26,7.55,25.83,13.57,37.57,21.71,80.61,55.93-13.34,81.44-28.17,104.22-8.76.5-12.41,6.98-13.15,7.24-13.54,4.75-27.48,2.31-42.26,5.79-26.92,6.34-52.3,17.77-79.83,23.16-21.8-11.86,8.18-22.07.94-33.29-4.38-1.38-27.91,14.45-29.11-22.44,14.54-24.47-9.42,2.78-30.05,0,13.54-28.86,6.63-33.75,12.21-54.28-1.61-.95-33.77,23-8.45,16.65-23.12,35.6-57.28,63.62-33.81,21.71-4.6-42.69,53.57-61.19,61.98-83.23,17.34-5.65,37.63-11.09,56.35-13.03,55.04-5.71,78.96,5.89,95.79,5.79Z"/><path class="cls-16" d="M725.41,1258.39c-2.32-.16-1.76,1.41-1.88,1.45-3.08,1.02-6.1,1.77-9.39,2.9-11.42,3.9-17.77,4.95-33.81,11.58-8.41,3.47-14.74,7.71-22.54,11.58-6.08,3.02-12.59,5.17-18.78,8.69-16.45,9.35-19.63,11.06-33.81,23.16-1.16.99-2.43,1.68-3.76,2.9-.14.13-3.63,1.32-3.76,1.45-13.03-.96-35.42-43.63-37.57-52.83-4.64-19.92-.71-45.81,7.51-65.14,2.02-4.74,7.32-5.41,7.51-5.79.11-.21-3.33-1.75-1.88-4.34,22.91-41.02,73.18-73.3,125.85-90.47-8.42,22.04-66.58,40.54-61.98,83.23-23.47,41.91,10.69,13.88,33.81-21.71-25.32,6.35,6.84-17.59,8.45-16.65-5.58,20.53,1.33,25.42-12.21,54.28,20.63,2.78,44.59-24.47,30.05,0,1.2,36.88,24.73,21.05,29.11,22.44,7.24,11.22-22.74,21.43-.94,33.29Z"/><path class="cls-2" d="M1091.68,1905.43c3.53,13.11-41.87-.05-46.96,8.69-62.27.43-124.77.68-186.89-1.45v-7.24c77.95,0,155.9,0,233.85,0Z"/><path class="cls-11" d="M821.2,1850.43c118.05,3.75,235.86,10.15,354.06,10.13,8.28,5.94-9.9.33-22.54,4.34l-353.12,8.69,1.88,2.9c104.53,5.75,208.85,8.45,313.68,7.24,22-.25,159.07-1.29,167.17-2.9,6.88-1.37,9.83-9.29,13.15-10.13,6.54-1.66,48.71,1.45,62.92,0-20.97,11.86-45.82,20.28-65.74,33.29-15.73-.21-31.38,1.59-46.96,2.9-51.25-2.65-102.72-1.45-154.02-1.45-77.95,0-155.9,0-233.85,0v7.24c62.12,2.13,124.62,1.87,186.89,1.45,43.04-.3,86.64.44,129.6-1.45-19.33,13.97-35.9,13.02-37.57,39.08-202.23-.37-404.47.5-606.7,0,0-.96-.53-2.5.94-2.9,6.15-1.66,111.26-13.99,128.67-15.92,16.88-1.87,33.75-4.3,50.71-5.79,4.42-.39,8.91-1.09,13.15-1.45,7.96-.68,55.47.93,58.23-5.07-19.66-54.95-4.98-56.07-23.48-.72-15.98-34.84-16.61-88.51-36.63-49.22-.79-7.4-2.5-15.71-3.76-23.16,34.44.95,68.88,1.8,103.31,2.9Z"/><path class="cls-13" d="M793.97,1932.94c106.44-2.61,213.79.48,320.25,2.17-73.65,10.07-263.39,11.11-337.16,7.96-106.09-4.53-51.18-8.46,16.9-10.13Z"/><path class="cls-13" d="M1245.7,1906.88c-23.69,1.98-47.58,4.75-71.38,5.79-42.96,1.88-86.57,1.15-129.6,1.45,5.09-8.74,50.49,4.43,46.96-8.69,51.31,0,102.77-1.2,154.02,1.45Z"/><path class="cls-16" d="M220.14,1157.06c45.03,2.35,95.75,11.93,137.12,26.06,127.09,43.4,161.16,148.31,83.59,193.97-27.53,16.2-63.91,21.26-96.73,27.5-1.33.25-18.98-.41-27.24,1.45-12.74,2.87-20.25,7.83-30.99,13.03-17.05-60.93,47.89-81.62,45.08-86.13-39.27,4.96-62.12,63.55-71.38,40.53,15.56-23.12,11.86-50.7,22.54-75.27q-1.41-1.09-2.82-2.17c-22.13,27.89-9.09,62.97-48.84,79.61,3.62-37.26,2.66-74.26-1.88-111.46-15.58,5.69-2.76,15.64-2.82,16.65-.33,5.55-3.66,3.12-3.76,4.34-2.12,28.16,8.27,27.31-29.11,55.73-3.02-1.88,2.28-47.04-.94-55.73-1.78-4.8-6.95-3.26-7.51-4.34-2.51-4.82-1.87-12.96-14.09-25.33-22.02,19.09-10.36,34.75-10.33,36.91.22,16.58-18.27,37.59-29.11,52.83-9.83-12.99-1.08-33.74-2.82-38.36-61.43-39.45-39.81-96.56-44.14-10.86-4.11.16-38.17-47.92-49.78-49.22.73-12.03-1.92-22.07,5.63-33.29,2.75-4.09,28.31-23.71,34.75-27.5,42.52-25.06,93.38-31.67,145.57-28.95Z"/><path class="cls-7" d="M180.7,1413.28c-4.11,35.05,26.84,52.76,39.44,82.51-2.59,3.62-3.59,4.11-3.76,4.34-55.63-31.03-79.32-79.99-107.06-125.93,3.72-14.73,37.06,26.61,59.17,36.19,3.64,1.58,2.09-7.14,12.21,2.9Z"/><path class="cls-7" d="M272.73,1427.75c-4.49,3.82-7.81,7.07-11.27,11.58-3.71,4.84-6.57,4.8-7.51,11.58q-13.15,16.65-26.3,33.29c-13.29-20.15-35.78-44.76-22.54-68.03.87-1.52,25.69-24.31,30.99-23.16q12.68,19.18,25.36,38.36c1.7,1.13,9.35-2.76,11.27-3.62Z"/><path class="cls-16" d="M205.11,1416.17c-13.24,23.27,9.25,47.89,22.54,68.03.22,7.37-7.11,11.01-7.51,11.58-12.61-29.75-43.56-47.46-39.44-82.51,3.62-2.68,20.86-.27,24.42,2.9Z"/><path class="cls-16" d="M285.88,1419.07c-5.04,2.44-8.04,6.39-13.15,8.69-1.92.86-9.57,4.75-11.27,3.62q-12.68-19.18-25.36-38.36c-5.3-1.15-30.13,21.64-30.99,23.16-3.56-3.17-20.8-5.57-24.42-2.9-10.12-10.03-8.57-1.32-12.21-2.9-22.11-9.57-55.45-50.92-59.17-36.19-8.5-14.08-20.16-27.16-24.42-42.7h-3.76c-6.48,33.8-23.08,67.01-30.05,100.6-3.96-4.08-14.59-20.52-15.03-22.44-1.83-8.02-2.94-145.39-1.88-162.85,11.6,1.3,45.67,49.38,49.78,49.22,4.33-85.7-17.29-28.59,44.14,10.86,1.73,4.62-7.01,25.37,2.82,38.36,10.84-15.24,29.33-36.25,29.11-52.83-.03-2.16-11.69-17.82,10.33-36.91,12.21,12.38,11.58,20.51,14.09,25.33.56,1.09,5.74-.46,7.51,4.34,3.22,8.69-2.08,53.85.94,55.73,37.38-28.42,26.99-27.57,29.11-55.73.09-1.22,3.43,1.21,3.76-4.34.06-1.01-12.76-10.96,2.82-16.65,4.54,37.2,5.5,74.2,1.88,111.46,39.75-16.65,26.7-51.73,48.84-79.61q1.41,1.09,2.82,2.17c-10.68,24.57-6.98,52.15-22.54,75.27,9.25,23.02,32.1-35.57,71.38-40.53,2.81,4.51-62.13,25.2-45.08,86.13Z"/><path class="cls-16" d="M174.12,1303.26l4.7.72c.31,6.4-1.52,80.09-10.33,78.89-18.23-32.68-19.41-49.14,5.63-79.61Z"/><path class="cls-16" d="M221.08,1322.08c4.85,10.86-18.25,83.87-28.17,82.51-7.51-1.03-.83-61.46,28.17-82.51Z"/><path class="cls-9" d="M145.01,1581.19c-13.49,13.84-37.6,37.01-39.44,54.28-2.1,19.69,14.41,17.15,24.42,32.57-43.22-27.72-69.32-62.18-80.77-104.22-10.48-38.48-7.8-66.93-1.88-105.67,7.46,4.92,14.39,23.66,24.42,38.36,20.45,29.98,46.54,57.89,73.25,84.68Z"/><path class="cls-9" d="M351.62,1605.8c35.64,62.72,58.8,142.87,154.02,166.47-.66,1.23.52,4.67-9.39,24.61-5.24,10.53-10.59,20.86-14.09,31.85-4.19,1.66-12.76-16.88-14.09-18.82-3.26-4.77-7.02-12.43-7.51-13.03-4.51-5.51-15.2-16.63-22.54-15.92-3.41-10.14-6.32-20.38-10.33-30.4-9.02,56.63,5.64,49.88-21.6,18.09q3.76,15.56,7.51,31.12c-20.09-15.64-14.01-31.13-22.54-23.88.15,17.14-1.72,6.39-11.27,2.17-95.07-84.54-114.14-185.95-122.09-293.85-.79-10.7-5.24-22.57-3.76-33.29.94-6.78,3.8-6.74,7.51-11.58,27.71,56.27,58.84,111.36,90.16,166.47Z"/><path class="cls-8" d="M257.71,1484.2c7.95,107.9,27.02,209.31,122.09,293.85-33.83-14.96-66.53-31.74-100.49-46.32-48.3-20.73-106.82-36.43-149.33-63.69-10.01-15.42-26.52-12.88-24.42-32.57,1.84-17.27,25.95-40.44,39.44-54.28.23-.23,1.65.23,1.88,0,14.08,22.29,18.91,46.98,13.15,71.65,29.8-20.54,84.11-160.56,92.04-167.91,1.41-1.3,3.72-.6,5.63-.72Z"/><path class="cls-5" d="M438.03,1780.95c4.08,12.13,6.6,24.59,13.15,36.19-10.58-1.56-30.24-11.67-37.57-17.37q-3.76-15.56-7.51-31.12c27.24,31.79,12.58,38.53,21.6-18.09,4.01,10.02,6.92,20.26,10.33,30.4Z"/><path class="cls-11" d="M460.56,1796.87c-5.54,8.13-4.74,29.06-9.39,20.27-6.55-11.6-9.07-24.06-13.15-36.19,7.34-.71,18.03,10.42,22.54,15.92Z"/><path class="cls-6" d="M257.71,1484.2c-1.91.12-4.23-.58-5.63.72-7.93,7.35-62.24,147.37-92.04,167.91,5.77-24.67.94-49.36-13.15-71.65,40.71-42.04,34.73-33.3,69.5-81.06.17-.23,1.17-.72,3.76-4.34.41-.57,7.73-4.21,7.51-11.58q13.15-16.65,26.3-33.29c-1.49,10.73,2.97,22.59,3.76,33.29Z"/><path class="cls-6" d="M1925.66,1720.15c-.02,10.13.02,20.27,0,30.4-81.56,43.76-209.08,126.2-291.14,157.78-14.93,5.75-31.49,9.7-46.96,14.48,4.28-23.7,13.88-39.63,30.05-59.35,80.42-72.06,203.54-98.12,308.04-143.31Z"/><path class="cls-9" d="M1925.66,1644.88c-.03,25.09.04,50.18,0,75.27-104.5,45.18-227.63,71.25-308.04,143.31,38.14-46.5,154.15-108.86,213.19-149.1,32.7-22.28,62.74-46.74,94.86-69.48Z"/><path class="cls-9" d="M1925.66,1807c-51.98,23.04-254.35,94.03-281.75,108.56-3.96-3.03-11.21-1.34-9.39-7.24,82.06-31.58,209.58-114.02,291.14-157.78-.04,18.82.05,37.64,0,56.45Z"/><path class="cls-6" d="M1925.66,1807c0,1.93,0,3.86,0,5.79-104.99,63.89-205.95,81.15-298.65,118.7.48-6.19,9.66-12.08,16.9-15.92,27.4-14.53,229.76-85.52,281.75-108.56Z"/><path class="cls-11" d="M1634.52,1908.33c-1.82,5.89,5.43,4.21,9.39,7.24-7.24,3.84-16.42,9.73-16.9,15.92-13.24,5.36-31.1,12.17-41.32,20.27h-114.58c0-.96-.53-2.5.94-2.9,7.65-2.09,40.92-3.02,115.52-26.06,15.47-4.78,32.03-8.73,46.96-14.48Z"/><path class="cls-7" d="M1757.55,1701.33c4.1.28,7.82-6.77,8.45-7.24,26.28-19.42,94.24-106.77,108.94-133.9,18.88-34.83,33.51-95.66,37.57-133.9,4.48-10.03,5.76-21.2,13.15-30.4.07,82.99.11,165.98,0,248.97-32.11,22.74-62.16,47.2-94.86,69.48-59.04,40.23-175.05,102.59-213.19,149.1-16.17,19.72-25.77,35.65-30.05,59.35-74.59,23.04-107.87,23.97-115.52,26.06-1.47.4-.94,1.94-.94,2.9h-234.79c16.59-13.5,38.92-36.39,56.35-47.77,19.92-13.01,44.77-21.44,65.74-33.29,5.56-.57,26.52-6.08,28.17-9.41,3.24-6.55-4.22-45.57,6.57-7.96,22.5-17.7,13.57-6.33.94,5.07.05,3.62,40.79-8.04,42.26-9.41,12.94-12-5.78-64.34,22.54-7.24,28.42-7.93,3.33-4.68.94-7.96-6.73-7.97,35.55-6.27,62.92-10.86,61.62-10.33,32.57-9.88-15.97-13.75,24.14-7.32,42.58,4.82,34.75-15.2,15.92,20.57,7.02-2.59,24.42,10.13,6.17-25.41,16.36,30.23,33.81-23.16l2.82,19.54c3.41,3.36,76.1-20.88,87.34-22.44,3.18-2.81-5.64-4.61-8.45-5.79q29.11-24.25,58.23-48.49"/><path class="cls-1" d="M1091.88,303.31c-16-15.48,41.45,656.96,37.37,675.68-1.32,6.08-3.74,12.76-5.63,18.82-6.67,21.3-18.13,41.61-39.44,56.45-50.07,23.83-91.82,43.35-148.82,49.25-24.73,2.56-50.64,20.56-52.9,17.37-17.26-24.35-94.45-17.37-135.44-32.82-11.95-4.5,28.59-10.91,17.07-31.51-30.78-17.46-83.21-2.63-121.26,0-58.06,4.01-200.59,28.62-255.04,42.33-54.89,13.83-126.8,35.96-167.64,67.47-52.19-2.72-101.33,4.74-143.85,29.8-6.44,3.8-39.94,27.73-42.69,31.82-10.21-1.93,10.2-32.28-4.12-23.16-14.06-18.99,5.87-12.7,6.57-13.75,1.29-1.94-.94-22.52,0-28.95-20.36,15.61-1.04.39-13.15-14.48,11.3-80.31-56.81-776.78,0-834.62C316.8,13.77,567.66-203.76,1091.88,303.31Z"/><path class="cls-10" d="M22.92,313.01c-6.98,80.77,11.3,754.3,0,834.62,12.11,14.87-7.21,30.09,13.15,14.48-.94,6.43,1.29,27.01,0,28.95-.7,1.05-20.63-5.24-6.57,13.75,14.32-9.12.12,5.31,10.33,7.24-7.56,11.22-4.9,21.26-5.63,33.29-1.07,17.46.05,154.83,1.88,162.85.44,1.91,11.07,18.36,15.03,22.44-1.68,8.11-2.48,17.71-3.76,26.06-5.93,38.74-8.6,67.19,1.88,105.67-5.03,5.32-9.88,17.65-11.27,23.88-4.78,21.37-5.91,311.07-1.88,327.14,4.06,16.19,64.42,19.98,83.12,23.45,3.73,15.72-85.22,39.9-116.93,45.31V313.01c8.75-.16,11.91.22,20.66,0Z"/><path class="cls-17" d="M344.11,1404.59c16.32,62.53,61.39,144.32,7.51,201.21-31.32-55.11-62.45-110.2-90.16-166.47,3.46-4.51,6.78-7.76,11.27-11.58,5.1-2.3,8.11-6.25,13.15-8.69,10.74-5.2,18.25-10.16,30.99-13.03,8.25-1.86,25.91-1.2,27.24-1.45Z"/><path class="cls-17" d="M109.32,1374.19c27.75,45.94,51.44,94.91,107.06,125.93-34.77,47.76-28.78,39.02-69.5,81.06-.22.23-1.65-.23-1.88,0-26.71-26.79-52.8-54.7-73.25-84.68-10.03-14.7-16.96-33.44-24.42-38.36,1.28-8.35,2.07-17.95,3.76-26.06,6.97-33.59,23.57-66.8,30.05-100.6h3.76c4.26,15.54,15.92,28.63,24.42,42.7Z"/><path class="cls-10" d="M530.06,1950.28c202.23.5,404.47-.37,606.7,0h788.89c-.32,10.6.24,21.24,0,31.85H2.25v-27.5c31.71-5.41,101.4,5.59,97.67-10.13,14.57,2.7,32.99,4.93,47.9,5.79,59.72,3.45,293.57-.22,382.24,0Z"/></g></g></svg>