<?xml version="1.0" encoding="UTF-8"?><svg id="Layer_2" xmlns="http://www.w3.org/2000/svg" viewBox="0 0 228.75 251.9"><defs><style>.cls-1{fill:#284b3c;}.cls-1,.cls-2,.cls-3,.cls-4,.cls-5,.cls-6,.cls-7,.cls-8,.cls-9,.cls-10,.cls-11,.cls-12,.cls-13,.cls-14,.cls-15,.cls-16,.cls-17,.cls-18,.cls-19{stroke-width:0px;}.cls-2{fill:#675f6b;}.cls-3{fill:#19294c;}.cls-4{fill:#cab69e;}.cls-5{fill:#4f5a55;}.cls-6{fill:#92c9b7;}.cls-7{fill:#7fb59b;}.cls-8{fill:#23596f;}.cls-9{fill:#2a667a;}.cls-10{fill:#fffbf5;}.cls-11{fill:#629d8b;}.cls-12{fill:#0c1b29;}.cls-13{fill:#97d1a9;}.cls-14{fill:#0b1525;}.cls-15{fill:#94c4c2;}.cls-16{fill:#4d9594;}.cls-17{fill:#505784;}.cls-18{fill:#628873;}.cls-19{fill:#69749b;}</style></defs><g id="lune"><path class="cls-12" d="M66.35,110.39c6.54,1.26,9.11,8.8,4.78,13.96-7.77,9.26-21.9-1.76-13.96-11.39,2.18-2.65,5.99-3.19,9.19-2.57Z"/><path class="cls-5" d="M64.88,113.33c.28,4.26,3.04,8.14,1.84,9.92-8.69,2.5-10.31-10.1-1.84-9.92Z"/><path class="cls-10" d="M66.72,123.26c1.21-1.78-1.56-5.66-1.84-9.92,6.49.14,6.85,8.48,1.84,9.92Z"/><path class="cls-10" d="M184.31,212.55c-.98.02-1.96.01-2.94,0,28.58-18.41,44.92-54.68,45.93-88.01,1.33-43.82-24.67-84.1-64.31-102.34-.05-.02-.4-.06-1.1-.37-15.45-6.85-30.58-9.68-47.4-6.25,1.21-.97,1.74-1.23,2.57-1.84,47.25-6.91,91.81,30.08,106.2,73.31,14.85,44.62-1.16,97.27-38.95,125.49Z"/><path class="cls-4" d="M161.89,21.83c-2.03,1.94-.08,3.14,1.1.37,39.64,18.24,65.64,58.52,64.31,102.34-1.02,33.33-17.36,69.6-45.93,88.01-14.82-.18-25.38-3.62-38.58-9.92-48.06-22.95-73.35-74.74-62.84-126.96,4.76-23.63,15.56-44.89,34.54-60.08,16.82-3.43,31.95-.61,47.4,6.25Z"/><path class="cls-14" d="M91.15,247.83c-4.58-2.07-9.51-3.22-14.15-5.14-15.53-6.45-31.48-18.06-42.99-30.32C-13.85,161.44-10.57,81.42,39.89,33.59c.95,5.37.8-4.53,5.14,3.12-8.51,7.98-14.14,18.42-20.21,28.3-.82,1.33-3.37,3.04-5.14,6.61-5.12,10.33-9.01,32.41-11.76,44.1-.1,27.77,5.71,38.8,15.43,63.21,16.64,28.94,33.67,47.6,65.96,58.61,4.79,1.63,19.9,5.56,24.62,6.25,6.82,1,25.81,1.39,29.03,2.2.98.25,2.09,2.06,2.57,2.2,1.34.39,23.4-7.66,26.09-9.55l.18.73c-6.1,2.88-14.51,6.37-20.95,8.08-8.45,2.25-17.52,3.59-26.27,3.67-.83,1.07,1.22.69,3.86.73"/><path class="cls-12" d="M133.23.52c-.03,1.33-3.98,1.29-6.06,1.84-6.13,1.62-18.36,6.43-24.25,9.19-30.54,14.3-53.49,40.47-60.82,73.68-5.78,26.18-3.55,44.17,9.92,67.06,2.9,4.93,14.68,22.32,18.01,25.91,12.53,13.54,32.75,17.67,43.55,22.6,11.45,5.22,14.53,10.51,37.3,14.33,14.81,2.49,28.25,2.41,42.81-1.47,3.23-.86,10.17-3.15,12.31-4.78,10.27-3.19,14.4-7.65,5.51,1.47-1.95,2-2.97,2.63-3.67,3.31-3.26,1.87-20.04,7.69-22.23,6.98-.45-.15-1.2-4.71-6.98,2.94-8.37-5.77-10.41.53-11.02.73-1.6.52-16.75-5.79-17.64-5.51-.7.22-2.43,7.17-8.64,6.06,15.77,7.63,6.09,1.21,12.68-2.39,12.47.47,9.4,5.45,11.76,6.61,4.74,2.35,6.74-3.46,7.72-3.67,4.25-.92,3.13,6.96,12.49-4.04l19.29-5.14c-1.22,1.12-2.42,2.23-3.67,3.31-9.79,8.42-18.03,14.31-29.77,19.84l-.18-.73c-2.69,1.9-24.76,9.95-26.09,9.55-.48-.14-1.59-1.96-2.57-2.2-3.22-.81-22.21-1.2-29.03-2.2-4.72-.69-19.83-4.62-24.62-6.25-32.3-11.01-49.32-29.67-65.96-58.61-9.73-24.4-15.54-35.44-15.43-63.21,2.75-11.69,6.64-33.77,11.76-44.1,1.77-3.57,4.33-5.28,5.14-6.61,6.07-9.87,11.71-20.32,20.21-28.3-4.34-7.65-4.19,2.24-5.14-3.12C65.02,9.77,98.48-2.78,133.23.52Z"/><path class="cls-3" d="M207.83,213.65c-.88.85-1.65,1.73-2.57,2.57l-19.29,5.14c-9.36,11-8.24,3.12-12.49,4.04-.98.21-2.98,6.02-7.72,3.67-2.36-1.17.71-6.14-11.76-6.61-6.58,3.6,3.09,10.02-12.68,2.39,6.2,1.11,7.93-5.85,8.64-6.06.89-.27,16.04,6.03,17.64,5.51.61-.2,2.65-6.51,11.02-.73,5.78-7.65,6.53-3.09,6.98-2.94,2.19.7,18.97-5.11,22.23-6.98Z"/><path class="cls-17" d="M28.31,116.64c8.01,3.62,5.69,7.31,6.06,8.27,1.47,3.75,5.57,10.41,6.25,13.96.73,3.81-.38,8.14.73,11.76,1.46,4.73,13.03,7.39,7.9,14.15-2.08-4.05.04-3.62.18-4.23.63-2.55-7.44-5.96-8.45-9.19-.83-2.64-.01-8.17-1.1-12.86-.21-.89-6.53-16.11-6.98-16.9-1.18-2.05-3.22-3.13-4.59-4.96Z"/><path class="cls-2" d="M108.61,224.31q1.29,4.96,2.57,9.92c-4.59,6-.5-.35-8.08.18,2.95-5.77-.19-7.97.37-8.82,5.15,2.17,2.49-4.21,5.14-1.29Z"/><path class="cls-4" d="M111.18,234.23q-1.29-4.96-2.57-9.92c3.37,3.7,3.87,2.47,4.04,2.76.64,1.05.49,6.95-1.47,7.17Z"/><path class="cls-17" d="M44.85,171.4c.96.78,3.63,7.57,4.04,7.72,1.62.57,8.43-5.01,12.49,14.7-1.89-3.53-3.64-13.36-8.08-14.33-4.53-1-4.63,3.34-8.45-8.08Z"/><path class="cls-17" d="M97.77,216.23c1.34-.8,2.19,5.17,3.31,6.98,4.63-3.21,3.44-1.69-.37,1.47l-2.94-8.45Z"/><path class="cls-17" d="M73.88,202.26c3.13.07,9.87.03,11.21,3.12-3.51-2.06-7.32-2.29-11.21-3.12Z"/><path class="cls-16" d="M25.01,76.22c1.73,3.18-1.17,4.72-2.39.92.88-.31,1.05.83,2.39-.92Z"/><path class="cls-19" d="M36.03,154.86c.52.94,2.87,8.53,2.2,8.82-.42-.96-2.81-8.55-2.2-8.82Z"/><path class="cls-11" d="M40.81,59.32c2.8,1.58-1.22,4.69-1.65.55l1.65-.55Z"/><path class="cls-7" d="M28.31,67.4c2.34,2.87-.95,4.44-1.65,1.29l1.65-1.29Z"/><path class="cls-16" d="M13.25,115.17l1.29,1.29c-2.08,3.17-4.49-.63-1.29-1.29Z"/><path class="cls-11" d="M72.41,217.33c2.07,2.63.02,4.83-1.65.92l1.65-.92Z"/><path class="cls-15" d="M32.72,97.17l1.65,1.29c-2.23,3.05-4.41.16-1.65-1.29Z"/><path class="cls-6" d="M19.86,151.92l1.29,1.29c-2.16,3.01-4.38.25-1.29-1.29Z"/><path class="cls-15" d="M29.42,175.44l1.29,1.29c-1.52,3.21-3.95.44-1.29-1.29Z"/><path class="cls-15" d="M27.58,100.84l1.29,1.29c-.96,2.88-4.08,1.37-1.29-1.29Z"/><path class="cls-16" d="M144.07,233.87c2.83,1.96-.88,3.94-1.29.92l1.29-.92Z"/><path class="cls-15" d="M30.52,167.35l1.29,1.29c-1.37,2.63-3.83.29-1.29-1.29Z"/><path class="cls-15" d="M59.92,201.16l.92,1.29c-.96,2.57-3.53.21-.92-1.29Z"/><path class="cls-13" d="M46.69,196.02l1.29.92c-.87,2.4-3.43.38-1.29-.92Z"/><path class="cls-3" d="M56.24,173.97c2.08.43,12.75,6.39,13.23,6.98,1.53,1.89.97,6.12,2.57,8.08,7.1-5.46,5.41,3.33,6.98,4.78,1.14,1.05,8.55,2.32,10.66,3.67,1.89,1.22,3.47,4.96,4.78,5.14,3.31.47,7.28-5.52,9.55,5.51,10.48,1.58,5.4-4.37,6.25-4.78,2.85.29,5.39,7.01,6.61,7.35.81.23,4.3-3.3,8.45,8.08,2.85-2.51,6.16-3.59,9.55-1.47,1.56.98,11.33,12.29-.37,2.94-6.87-.34-5.8,6.34-6.25,6.61-6.55-11.71-5.54-5.88-15.8-9.19-13.17-4.24-9.54-10-10.47-12.68-1.67-4.79-6.76-1.41-8.64-2.02-.7-.23-2.8-4.32-4.41-5.14-3.64-1.86-15.19-.87-18.19-6.8-2.75-5.43,2.03-9.16-14.52-17.09Z"/><path class="cls-12" d="M117.24,211.08c4.83-1.13,6.47,6.3,5.51,6.98-9.62,1.28-9.04-6.16-5.51-6.98Z"/><path class="cls-12" d="M72.96,76.59c-.1.16-.28,1.33-.37,1.47-.78,1.16-1.34,2.76-2.2,3.86-1.73,2.19-3.58,2.86-4.41,3.49-8.31,1.79-13.82-2.87-11.02-11.39,8.03-8.74,10.86-2.18,18.01,2.57Z"/><path class="cls-5" d="M63.78,71.81c.16,3.05.29,6.13,1.84,8.82-7.49,4.22-10.24-10.1-1.84-8.82Z"/><path class="cls-10" d="M65.61,80.63c-1.55-2.69-1.67-5.77-1.84-8.82,3.54.54,5.86,6.55,1.84,8.82Z"/><path class="cls-9" d="M123.67,8.97c-2.49,1.23-4.43,3.18-6.61,4.78-.83.61-1.36.86-2.57,1.84-18.98,15.19-29.79,36.46-34.54,60.08-10.51,52.23,14.77,104.01,62.84,126.96.44,2.01,11.09,4.87,11.02,5.7-5.09.88-2.76,2.17-3.31,2.94-.81,1.14-3.75.12.37,3.86-22.77-3.83-25.85-9.11-37.3-14.33-10.79-4.93-31.02-9.05-43.55-22.6-3.32-3.59-15.11-20.98-18.01-25.91,5.48.67,9.65-3.82,11.94-3.67,1.94.12,2.54,3.67,3.12,1.47-.02-3.23,2.37-2.6,2.57-3.12.22-.58-1.08.21-.73-3.86.22-2.6-1.38,2.05-6.61-2.39l1.1-9.37c2.25-.63,8.76-4.57,7.72-6.98,4.33-5.16,1.76-12.7-4.78-13.96.15-1.32-4.81-.99-7.17.37,0-10.69,16.45-25.15,13.41-32.71.09-.14.27-1.31.37-1.47.07-.12,1.67-.67,2.2-1.65,1.15-2.13,5.32-12.25,4.41-14.33,5.33-11.67,6.35-8.23,7.72-9.55.24-.23,1.62-5.17,2.2-6.25,2.53-4.68,5.23-6.83,3.31-9.55,2.44-2.16,2.08-3.12,2.2-3.31,5.48-8.12,9.24-7.84,9.74-8.27,3.83-3.3,10.06-10.67,16.9-14.33,1.99-1.06,1.93-.32,2.02-.37Z"/><path class="cls-8" d="M181.37,212.55c.98.01,1.96.02,2.94,0,8.05-.19,14.02-1.36,21.68-3.67-2.14,1.63-9.08,3.92-12.31,4.78-14.56,3.88-28,3.96-42.81,1.47-4.11-3.74-1.18-2.72-.37-3.86.55-.77-1.78-2.06,3.31-2.94.06-.83-10.58-3.68-11.02-5.7,13.2,6.31,23.76,9.74,38.58,9.92Z"/><path class="cls-3" d="M57.16,112.97c-7.94,9.63,6.2,20.65,13.96,11.39,1.05,2.42-5.46,6.35-7.72,6.98-10.89,3.04-18.44-1.65-12.13-13.05.85-1.53,4.68-6.44,5.88-5.33Z"/><path class="cls-3" d="M65.98,85.41c-6.57,4.96-10.28,5.82-18.74,3.49,1.28-5.4,3.95-10.79,7.72-14.88-2.8,8.53,2.72,13.18,11.02,11.39Z"/><path class="cls-8" d="M123.67,8.97c-.09.04-.03-.7-2.02.37-6.85,3.66-13.08,11.04-16.9,14.33-.5.43-4.26.15-9.74,8.27-.12.18.24,1.14-2.2,3.31,1.93,2.73-.78,4.87-3.31,9.55-.58,1.08-1.97,6.02-2.2,6.25-1.37,1.33-2.39-2.11-7.72,9.55.91,2.08-3.26,12.2-4.41,14.33-.53.98-2.13,1.54-2.2,1.65-7.15-4.75-9.97-11.31-18.01-2.57-3.76,4.09-6.44,9.49-7.72,14.88,8.46,2.33,12.17,1.47,18.74-3.49.83-.63,2.68-1.3,4.41-3.49.87-1.1,1.43-2.7,2.2-3.86,3.03,7.55-13.41,22.01-13.41,32.71,2.35-1.36,7.32-1.69,7.17-.37-3.19-.62-7-.08-9.19,2.57-1.2-1.11-5.03,3.8-5.88,5.33-6.31,11.39,1.24,16.08,12.13,13.05l-1.1,9.37c5.24,4.44,6.84-.21,6.61,2.39-1.04-.68-1.89.79-2.76.73-1.85-.11-3.37-4.44-2.02,2.39-2.36,3.08.55-.17,2.94,3.86-.58,2.2-1.18-1.35-3.12-1.47-2.29-.15-6.46,4.34-11.94,3.67-13.48-22.89-15.7-40.89-9.92-67.06,7.33-33.21,30.28-59.38,60.82-73.68,5.9-2.76,18.12-7.57,24.25-9.19,2.08-.55,6.03-.5,6.06-1.84,17.41,1.65,9.92,1.36,2.02,3.67-3.93,1.15-7.89,3-11.58,4.78Z"/><path class="cls-4" d="M68.92,143.1c-.35,4.07.95,3.28.73,3.86-.2.52-2.59-.11-2.57,3.12-2.39-4.03-5.29-.77-2.94-3.86-1.35-6.83.17-2.5,2.02-2.39.87.05,1.71-1.41,2.76-.73Z"/><path class="cls-12" d="M81.41,31.75c-1.98-.24-1.75.34-1.84.37-6.78,1.97-3.45,12.27,3.31,8.82,1.98-1.01,2.89-3.45,2.57-5.51l5.14,1.65c-2.66,4.24-2.53,5.48-6.98,8.27-5.33,2.26-14.26-.24-12.86-7.35,1.01-5.11,9.4-9.69,10.66-6.25Z"/><path class="cls-3" d="M70.76,38c-1.4,7.11,7.53,9.61,12.86,7.35-3.42,2.14-2.55,1.15-5.7,2.2-1.85.62-5.08,3.62-9.92,1.47-4.73-3.19,1.95-17.13,2.76-11.02Z"/><path class="cls-10" d="M81.41,31.75c1.69.21,3.76,1.86,4.04,3.67.32,2.06-.6,4.5-2.57,5.51-.13-4.05.42-6.26-3.31-8.82.09-.03-.14-.61,1.84-.37Z"/><path class="cls-1" d="M79.58,32.12c3.73,2.56,3.17,4.77,3.31,8.82-6.76,3.45-10.09-6.85-3.31-8.82Z"/><path class="cls-18" d="M79.03,32.86c2.47-.96,6.28,13.54-.55,1.29l.55-1.29Z"/></g></svg>