<?xml version="1.0" encoding="UTF-8"?><svg id="Layer_2" xmlns="http://www.w3.org/2000/svg" viewBox="0 0 730.93 116.57"><defs><style>.cls-1{fill:#613f66;stroke:#9c4d9d;stroke-miterlimit:10;stroke-width:2px;}</style></defs><g id="titre"><path id="L" class="cls-1" d="M10.6,7.33v82.2h44.76v1.8H1V7.33h9.6Z"/><path id="e" class="cls-1" d="M67.96,63.73c.48,5.12,1.86,9.54,4.14,13.26,2.28,3.72,5.2,6.52,8.76,8.4,3.56,1.88,7.42,2.82,11.58,2.82,4.72,0,8.64-.94,11.76-2.82,3.12-1.88,5.48-4.18,7.08-6.9l1.8.12c-5.44,8.96-13.4,13.44-23.88,13.44-6.08,0-11.5-1.3-16.26-3.9-4.76-2.6-8.48-6.2-11.16-10.8-2.68-4.6-4.02-9.82-4.02-15.66,0-6.4,1.26-11.92,3.78-16.56,2.52-4.64,6.12-8.2,10.8-10.68,4.68-2.48,10.14-3.72,16.38-3.72,5.76,0,10.68,1.36,14.76,4.08,4.08,2.72,7.2,6.22,9.36,10.5,2.16,4.28,3.36,8.78,3.6,13.5h-48.72c0,1.04.08,2.68.24,4.92ZM77.92,34.99c-2.88,1.96-5.22,4.82-7.02,8.58-1.8,3.76-2.82,8.24-3.06,13.44h38.28c-.32-4.32-1.26-8.38-2.82-12.18-1.56-3.8-3.72-6.88-6.48-9.24-2.76-2.36-5.94-3.54-9.54-3.54-3.36,0-6.48.98-9.36,2.94Z"/><path id="l" class="cls-1" d="M171.64,7.33v82.2h44.76v1.8h-54.36V7.33h9.6Z"/><path id="a" class="cls-1" d="M268.12,34.75c4.96,2.84,7.44,7.42,7.44,13.74v42.84h-9.6v-11.28c-1.52,3.36-4.1,6.18-7.74,8.46-3.64,2.28-7.74,3.46-12.3,3.54-7.44.24-13.02-1.28-16.74-4.56-3.72-3.28-5.58-7.6-5.58-12.96,0-4.8,1.7-8.98,5.1-12.54,3.4-3.56,8.28-6.32,14.64-8.28,6.36-1.96,13.9-2.98,22.62-3.06v-2.16c0-5.68-1.32-9.88-3.96-12.6-2.64-2.72-6.2-4.08-10.68-4.08s-8.16,1.58-11.28,4.74c-3.12,3.16-4.68,7.86-4.68,14.1h-9.6c0-3.76,1.04-7.16,3.12-10.2,2.08-3.04,5.04-5.46,8.88-7.26,3.84-1.8,8.32-2.7,13.44-2.7,6.32,0,11.96,1.42,16.92,4.26ZM256.18,87.85c2.52-1.36,4.66-3.1,6.42-5.22,1.76-2.12,2.88-4.3,3.36-6.54v-24.12c-6.48-.32-12.14.44-16.98,2.28-4.84,1.84-8.58,4.52-11.22,8.04-2.64,3.52-3.96,7.6-3.96,12.24s1.34,8.36,4.02,11.16c2.68,2.8,6.18,4.2,10.5,4.2,2.72,0,5.34-.68,7.86-2.04Z"/><path id="b" class="cls-1" d="M332.32,34.27c4.32,2.6,7.7,6.3,10.14,11.1,2.44,4.8,3.66,10.24,3.66,16.32s-1.34,11.2-4.02,15.84c-2.68,4.64-6.26,8.24-10.74,10.8-4.48,2.56-9.24,3.84-14.28,3.84-6.32,0-12.16-2.04-17.52-6.12l-9.6,5.28V4.09l9.6-2.76v40.8c1.52-2.96,3.96-5.56,7.32-7.8,3.36-2.24,6.96-3.44,10.8-3.6,5.44-.24,10.32.94,14.64,3.54ZM299.56,83.89c4.16,4.24,8.92,6.36,14.28,6.36,3.84,0,7.44-1.14,10.8-3.42,3.36-2.28,6.08-5.6,8.16-9.96,2.08-4.36,3.12-9.46,3.12-15.3,0-9.28-1.8-16.36-5.4-21.24-3.6-4.88-8.28-7.32-14.04-7.32-2.48,0-4.94.64-7.38,1.92-2.44,1.28-4.54,2.96-6.3,5.04-1.76,2.08-2.84,4.24-3.24,6.48v37.44Z"/><path id="y" class="cls-1" d="M402.04,31.33h1.92l-26.04,60c-3.44,7.2-7.26,13.04-11.46,17.52-4.2,4.48-9.42,6.72-15.66,6.72-4.4,0-7.96-.88-10.68-2.64-2.72-1.76-4.32-4.52-4.8-8.28h10.08c.24,1.84,1.08,3.38,2.52,4.62,1.44,1.24,3.56,1.86,6.36,1.86,4.56,0,8.6-1.82,12.12-5.46,3.52-3.64,6.72-8.42,9.6-14.34l-25.68-60h10.2l20.64,48.12,20.88-48.12Z"/><path id="r" class="cls-1" d="M456.46,35.83c2.52,3.56,3.78,7.98,3.78,13.26h-9.6c0-10.32-3.48-15.48-10.44-15.48-2.4,0-4.76.78-7.08,2.34-2.32,1.56-4.28,3.6-5.88,6.12-1.6,2.52-2.56,5.1-2.88,7.74v41.52h-9.6v-57.24l9.6-2.76v12.72c1.52-3.84,4.1-7.06,7.74-9.66,3.64-2.6,7.62-3.9,11.94-3.9,5.76,0,9.9,1.78,12.42,5.34Z"/><path id="i" class="cls-1" d="M473.92,19.21c-1.12-1.12-1.68-2.48-1.68-4.08s.56-2.94,1.68-4.02c1.12-1.08,2.48-1.62,4.08-1.62s2.94.54,4.02,1.62c1.08,1.08,1.62,2.42,1.62,4.02s-.54,2.96-1.62,4.08c-1.08,1.12-2.42,1.68-4.02,1.68s-2.96-.56-4.08-1.68ZM473.2,91.33v-57.24l9.6-2.76v60h-9.6Z"/><path id="n" class="cls-1" d="M544.29,36.01c3.56,3.68,5.34,9.28,5.34,16.8v38.52h-9.6v-35.4c0-6.88-1.18-12.32-3.54-16.32-2.36-4-5.9-6-10.62-6-2.32,0-4.86.8-7.62,2.4-2.76,1.6-5.14,3.66-7.14,6.18-2,2.52-3.16,5.06-3.48,7.62v41.52h-9.6v-57.24l9.6-2.76v13.32c1.68-3.84,4.64-7.16,8.88-9.96,4.24-2.8,8.52-4.2,12.84-4.2,6.4,0,11.38,1.84,14.94,5.52Z"/><path id="t" class="cls-1" d="M595.6,77.17c-.24,4.64-1.56,8.22-3.96,10.74-2.4,2.52-5.76,3.78-10.08,3.78-12.16,0-18.24-6.12-18.24-18.36v-40.2h-4.08v-1.8h4.08v-13.44l9.6-5.28v18.72h19.44v1.8h-19.44v40.2c0,10.56,3.32,15.84,9.96,15.84,3.52,0,6.28-1.18,8.28-3.54,2-2.36,3-5.18,3-8.46h1.44Z"/><path id="h" class="cls-1" d="M653.86,36.01c3.56,3.68,5.34,9.28,5.34,16.8v38.52h-9.6v-35.4c0-6.88-1.18-12.32-3.54-16.32-2.36-4-5.9-6-10.62-6-2.32,0-4.86.8-7.62,2.4-2.76,1.6-5.14,3.66-7.14,6.18-2,2.52-3.16,5.06-3.48,7.62v41.52h-9.6V4.09l9.6-2.76v43.32c1.68-3.84,4.64-7.16,8.88-9.96,4.24-2.8,8.52-4.2,12.84-4.2,6.4,0,11.38,1.84,14.94,5.52Z"/><path id="e-2" class="cls-1" d="M681.4,63.73c.48,5.12,1.86,9.54,4.14,13.26,2.28,3.72,5.2,6.52,8.76,8.4,3.56,1.88,7.42,2.82,11.58,2.82,4.72,0,8.64-.94,11.76-2.82,3.12-1.88,5.48-4.18,7.08-6.9l1.8.12c-5.44,8.96-13.4,13.44-23.88,13.44-6.08,0-11.5-1.3-16.26-3.9-4.76-2.6-8.48-6.2-11.16-10.8-2.68-4.6-4.02-9.82-4.02-15.66,0-6.4,1.26-11.92,3.78-16.56,2.52-4.64,6.12-8.2,10.8-10.68,4.68-2.48,10.14-3.72,16.38-3.72,5.76,0,10.68,1.36,14.76,4.08,4.08,2.72,7.2,6.22,9.36,10.5,2.16,4.28,3.36,8.78,3.6,13.5h-48.72c0,1.04.08,2.68.24,4.92ZM691.36,34.99c-2.88,1.96-5.22,4.82-7.02,8.58-1.8,3.76-2.82,8.24-3.06,13.44h38.28c-.32-4.32-1.26-8.38-2.82-12.18-1.56-3.8-3.72-6.88-6.48-9.24-2.76-2.36-5.94-3.54-9.54-3.54-3.36,0-6.48.98-9.36,2.94Z"/></g></svg>