<?xml version="1.0" encoding="UTF-8"?><svg xmlns="http://www.w3.org/2000/svg" xmlns:xlink="http://www.w3.org/1999/xlink" viewBox="0 0 1921.54 1083.4"><defs><style>.cls-1{fill:url(#_ÂÁ_Ï_ÌÌ_È_ËÂÌÚ_62-3);}.cls-1,.cls-2,.cls-3,.cls-4,.cls-5,.cls-6,.cls-7,.cls-8,.cls-9,.cls-10,.cls-11,.cls-12,.cls-13,.cls-14,.cls-15,.cls-16,.cls-17,.cls-18,.cls-19,.cls-20,.cls-21,.cls-22,.cls-23,.cls-24,.cls-25,.cls-26,.cls-27,.cls-28,.cls-29,.cls-30,.cls-31,.cls-32,.cls-33,.cls-34,.cls-35,.cls-36,.cls-37,.cls-38,.cls-39,.cls-40,.cls-41,.cls-42,.cls-43,.cls-44,.cls-45,.cls-46,.cls-47,.cls-48,.cls-49,.cls-50,.cls-51,.cls-52,.cls-53,.cls-54,.cls-55,.cls-56,.cls-57,.cls-58,.cls-59,.cls-60,.cls-61,.cls-62,.cls-63,.cls-64,.cls-65,.cls-66,.cls-67,.cls-68,.cls-69{stroke-width:0px;}.cls-2{fill:url(#_ÂÁ_Ï_ÌÌ_È_ËÂÌÚ_681);}.cls-2,.cls-4,.cls-6,.cls-70,.cls-7,.cls-9,.cls-23,.cls-26,.cls-28,.cls-30,.cls-35,.cls-71,.cls-42,.cls-46,.cls-72,.cls-54,.cls-59,.cls-60,.cls-66{mix-blend-mode:multiply;}.cls-2,.cls-6,.cls-9,.cls-28,.cls-30,.cls-34,.cls-35,.cls-42,.cls-60,.cls-61,.cls-66{opacity:.2;}.cls-3{fill:url(#_ÂÁ_Ï_ÌÌ_È_ËÂÌÚ_928-4);}.cls-4{fill:url(#_ÂÁ_Ï_ÌÌ_È_ËÂÌÚ_681-10);}.cls-4,.cls-72,.cls-54,.cls-57,.cls-59{opacity:.6;}.cls-5{fill:url(#_ÂÁ_Ï_ÌÌ_È_ËÂÌÚ_733);}.cls-6{fill:url(#_ÂÁ_Ï_ÌÌ_È_ËÂÌÚ_681-7);}.cls-70{opacity:.7;}.cls-7{fill:url(#_ÂÁ_Ï_ÌÌ_È_ËÂÌÚ_24);}.cls-7,.cls-13,.cls-22,.cls-26,.cls-40,.cls-45,.cls-46,.cls-53{opacity:.4;}.cls-8{fill:#2e0d14;}.cls-9{fill:url(#_ÂÁ_Ï_ÌÌ_È_ËÂÌÚ_681-9);}.cls-10,.cls-17,.cls-24{fill-rule:evenodd;}.cls-10,.cls-24,.cls-31,.cls-33,.cls-46,.cls-61{fill:#421333;}.cls-11,.cls-13,.cls-20,.cls-22,.cls-24,.cls-40,.cls-45,.cls-53,.cls-55,.cls-57,.cls-61,.cls-73,.cls-67{mix-blend-mode:screen;}.cls-11,.cls-21,.cls-34,.cls-39{fill:#451634;}.cls-11,.cls-24,.cls-55,.cls-73{opacity:.47;}.cls-12{fill:#312d2d;}.cls-13{fill:url(#_ÂÁ_Ï_ÌÌ_È_ËÂÌÚ_828-2);}.cls-14{fill:url(#_ÂÁ_Ï_ÌÌ_È_ËÂÌÚ_84);}.cls-15{fill:#e7b959;}.cls-16{fill:url(#_ÂÁ_Ï_ÌÌ_È_ËÂÌÚ_928);}.cls-17{fill:#110723;}.cls-18,.cls-23,.cls-59{fill:#471734;}.cls-74{isolation:isolate;}.cls-19{fill:url(#_ÂÁ_Ï_ÌÌ_È_ËÂÌÚ_928-3);}.cls-20{fill:url(#_ÂÁ_Ï_ÌÌ_È_ËÂÌÚ_3-2);}.cls-20,.cls-29,.cls-67{opacity:.5;}.cls-22{fill:url(#_ÂÁ_Ï_ÌÌ_È_ËÂÌÚ_828-3);}.cls-23{opacity:.8;}.cls-25{fill:#3e1d26;}.cls-26{fill:#ee3426;}.cls-27{fill:url(#_ÂÁ_Ï_ÌÌ_È_ËÂÌÚ_745);}.cls-28{fill:url(#_ÂÁ_Ï_ÌÌ_È_ËÂÌÚ_681-5);}.cls-29{fill:url(#_ÂÁ_Ï_ÌÌ_È_ËÂÌÚ_4);mix-blend-mode:color-dodge;}.cls-30{fill:url(#_ÂÁ_Ï_ÌÌ_È_ËÂÌÚ_681-4);}.cls-32{fill:url(#_ÂÁ_Ï_ÌÌ_È_ËÂÌÚ_928-2);}.cls-33{mix-blend-mode:overlay;}.cls-35{fill:url(#_ÂÁ_Ï_ÌÌ_È_ËÂÌÚ_681-3);}.cls-36{fill:url(#_ÂÁ_Ï_ÌÌ_È_ËÂÌÚ_5);}.cls-71{opacity:.3;}.cls-37{fill:#b08bbb;mix-blend-mode:soft-light;opacity:.65;}.cls-38{fill:#330b2b;}.cls-39{opacity:.15;}.cls-40{fill:url(#_ÂÁ_Ï_ÌÌ_È_ËÂÌÚ_828-4);}.cls-41{fill:#882c52;}.cls-42{fill:url(#_ÂÁ_Ï_ÌÌ_È_ËÂÌÚ_681-8);}.cls-43{fill:#401234;}.cls-44{fill:#3f1134;}.cls-45{fill:url(#_ÂÁ_Ï_ÌÌ_È_ËÂÌÚ_828-5);}.cls-47{fill:#42153e;}.cls-48{fill:#360a2b;}.cls-49{fill:#261e1d;}.cls-50{fill:#584f50;}.cls-51{fill:#cecdcb;}.cls-52{fill:url(#_ÂÁ_Ï_ÌÌ_È_ËÂÌÚ_62);}.cls-53{fill:url(#_ÂÁ_Ï_ÌÌ_È_ËÂÌÚ_828);}.cls-54{fill:#3d123d;}.cls-55{fill:url(#_ÂÁ_Ï_ÌÌ_È_ËÂÌÚ_2-2);}.cls-56{fill:#290d24;}.cls-57{fill:url(#_ÂÁ_Ï_ÌÌ_È_ËÂÌÚ_14);}.cls-58{fill:url(#_ÂÁ_Ï_ÌÌ_È_ËÂÌÚ_916);}.cls-60{fill:url(#_ÂÁ_Ï_ÌÌ_È_ËÂÌÚ_681-2);}.cls-62{fill:#0e0e0c;}.cls-73{fill:none;stroke:url(#_ÂÁ_Ï_ÌÌ_È_ËÂÌÚ_2);stroke-miterlimit:10;}.cls-63{fill:#1a0733;}.cls-64{fill:#5f6267;}.cls-65{fill:url(#_ÂÁ_Ï_ÌÌ_È_ËÂÌÚ_62-2);}.cls-66{fill:url(#_ÂÁ_Ï_ÌÌ_È_ËÂÌÚ_681-6);}.cls-67{fill:url(#_ÂÁ_Ï_ÌÌ_È_ËÂÌÚ_3);}.cls-68{fill:#403a3f;}.cls-69{fill:url(#_ÂÁ_Ï_ÌÌ_È_ËÂÌÚ_733-2);}</style><linearGradient id="_ÂÁ_Ï_ÌÌ_È_ËÂÌÚ_5" x1="532.36" y1="502.13" x2="593.58" y2="575.4" gradientUnits="userSpaceOnUse"><stop offset="0" stop-color="#421434"/><stop offset="1" stop-color="#3d1033"/></linearGradient><radialGradient id="_ÂÁ_Ï_ÌÌ_È_ËÂÌÚ_3" cx="455.05" cy="230.69" fx="455.05" fy="230.69" r="75.95" gradientTransform="translate(151.33 -125.29) scale(.93 1.16)" gradientUnits="userSpaceOnUse"><stop offset="0" stop-color="#4b1a35"/><stop offset=".12" stop-color="#3e152b"/><stop offset=".49" stop-color="#1c0914"/><stop offset=".8" stop-color="#070205"/><stop offset="1" stop-color="#000"/></radialGradient><radialGradient id="_ÂÁ_Ï_ÌÌ_È_ËÂÌÚ_4" cx="1361.11" cy="442.31" fx="1361.11" fy="442.31" r="78.39" gradientTransform="translate(151.33 -125.29) scale(.93 1.16)" gradientUnits="userSpaceOnUse"><stop offset="0" stop-color="#4a1a36"/><stop offset="1" stop-color="#4f1738"/></radialGradient><linearGradient id="_ÂÁ_Ï_ÌÌ_È_ËÂÌÚ_2" x1="1196.69" y1="1138.38" x2="1088.89" y2="989.35" gradientUnits="userSpaceOnUse"><stop offset=".01" stop-color="#481834"/><stop offset=".04" stop-color="#451732"/><stop offset=".68" stop-color="#13060e"/><stop offset="1" stop-color="#000"/></linearGradient><radialGradient id="_ÂÁ_Ï_ÌÌ_È_ËÂÌÚ_3-2" cx="379.16" cy="343.63" fx="379.16" fy="343.63" r="57.19" xlink:href="#_ÂÁ_Ï_ÌÌ_È_ËÂÌÚ_3"/><linearGradient id="_ÂÁ_Ï_ÌÌ_È_ËÂÌÚ_2-2" x1="1009.19" y1="842.29" x2="1096.53" y2="997.17" xlink:href="#_ÂÁ_Ï_ÌÌ_È_ËÂÌÚ_2"/><linearGradient id="_ÂÁ_Ï_ÌÌ_È_ËÂÌÚ_62" x1="956.96" y1="942.56" x2="950.25" y2="186.71" gradientUnits="userSpaceOnUse"><stop offset="0" stop-color="#4e0021"/><stop offset=".02" stop-color="#4a0022"/><stop offset=".12" stop-color="#340329"/><stop offset=".24" stop-color="#25052e"/><stop offset=".38" stop-color="#1c0632"/><stop offset=".58" stop-color="#1a0733"/></linearGradient><linearGradient id="_ÂÁ_Ï_ÌÌ_È_ËÂÌÚ_62-2" x1="940.2" y1="887.9" x2="962.61" y2="233.99" xlink:href="#_ÂÁ_Ï_ÌÌ_È_ËÂÌÚ_62"/><linearGradient id="_ÂÁ_Ï_ÌÌ_È_ËÂÌÚ_84" x1="956.44" y1="63.42" x2="960.53" y2="879.66" gradientUnits="userSpaceOnUse"><stop offset="0" stop-color="#382041"/><stop offset=".53" stop-color="#6f3054"/><stop offset="1" stop-color="#432050"/></linearGradient><linearGradient id="_ÂÁ_Ï_ÌÌ_È_ËÂÌÚ_916" x1="957.36" y1="815.83" x2="957.36" y2="174.87" gradientUnits="userSpaceOnUse"><stop offset="0" stop-color="#863c56"/><stop offset="1" stop-color="#442351"/></linearGradient><linearGradient id="_ÂÁ_Ï_ÌÌ_È_ËÂÌÚ_745" x1="958.82" y1="926.65" x2="953.38" y2="13.82" gradientUnits="userSpaceOnUse"><stop offset="0" stop-color="#41314f"/><stop offset=".56" stop-color="#49325e"/><stop offset="1" stop-color="#521d37"/></linearGradient><linearGradient id="_ÂÁ_Ï_ÌÌ_È_ËÂÌÚ_733" x1="708.73" y1="512.15" x2="740.48" y2="526.23" gradientUnits="userSpaceOnUse"><stop offset="0" stop-color="#863c56"/><stop offset="1" stop-color="#572977"/></linearGradient><linearGradient id="_ÂÁ_Ï_ÌÌ_È_ËÂÌÚ_733-2" x1="818.2" y1="180.77" x2="842.31" y2="180.77" xlink:href="#_ÂÁ_Ï_ÌÌ_È_ËÂÌÚ_733"/><linearGradient id="_ÂÁ_Ï_ÌÌ_È_ËÂÌÚ_828" x1="553.78" y1="637.9" x2="781.22" y2="550.64" gradientUnits="userSpaceOnUse"><stop offset=".01" stop-color="#ff5e45"/><stop offset=".37" stop-color="#973829"/><stop offset=".68" stop-color="#461913"/><stop offset=".89" stop-color="#130705"/><stop offset="1" stop-color="#000"/></linearGradient><linearGradient id="_ÂÁ_Ï_ÌÌ_È_ËÂÌÚ_828-2" x1="1340.66" y1="519.19" x2="1106.69" y2="416.17" xlink:href="#_ÂÁ_Ï_ÌÌ_È_ËÂÌÚ_828"/><linearGradient id="_ÂÁ_Ï_ÌÌ_È_ËÂÌÚ_681" x1="835.05" y1="184.25" x2="782.31" y2="779.38" gradientUnits="userSpaceOnUse"><stop offset="0" stop-color="#3e0f33"/><stop offset="1" stop-color="#ad6043"/></linearGradient><linearGradient id="_ÂÁ_Ï_ÌÌ_È_ËÂÌÚ_681-2" x1="848.28" y1="173.94" x2="794.18" y2="784.35" xlink:href="#_ÂÁ_Ï_ÌÌ_È_ËÂÌÚ_681"/><linearGradient id="_ÂÁ_Ï_ÌÌ_È_ËÂÌÚ_828-3" x1="1038.86" y1="695.28" x2="1142.81" y2="675.16" xlink:href="#_ÂÁ_Ï_ÌÌ_È_ËÂÌÚ_828"/><linearGradient id="_ÂÁ_Ï_ÌÌ_È_ËÂÌÚ_828-4" x1="1051.36" y1="799.23" x2="1162.58" y2="777.71" xlink:href="#_ÂÁ_Ï_ÌÌ_È_ËÂÌÚ_828"/><linearGradient id="_ÂÁ_Ï_ÌÌ_È_ËÂÌÚ_681-3" x1="824.03" y1="172.36" x2="770.14" y2="780.46" xlink:href="#_ÂÁ_Ï_ÌÌ_È_ËÂÌÚ_681"/><linearGradient id="_ÂÁ_Ï_ÌÌ_È_ËÂÌÚ_828-5" x1="933.6" y1="481.24" x2="754.85" y2="388.72" xlink:href="#_ÂÁ_Ï_ÌÌ_È_ËÂÌÚ_828"/><linearGradient id="_ÂÁ_Ï_ÌÌ_È_ËÂÌÚ_681-4" x1="847.17" y1="174.94" x2="792.92" y2="787.02" xlink:href="#_ÂÁ_Ï_ÌÌ_È_ËÂÌÚ_681"/><linearGradient id="_ÂÁ_Ï_ÌÌ_È_ËÂÌÚ_681-5" x1="1119.12" y1="205.06" x2="1064.78" y2="818.14" xlink:href="#_ÂÁ_Ï_ÌÌ_È_ËÂÌÚ_681"/><linearGradient id="_ÂÁ_Ï_ÌÌ_È_ËÂÌÚ_681-6" x1="1137.07" y1="209.67" x2="1083.69" y2="812" xlink:href="#_ÂÁ_Ï_ÌÌ_È_ËÂÌÚ_681"/><linearGradient id="_ÂÁ_Ï_ÌÌ_È_ËÂÌÚ_681-7" x1="1088.3" y1="201.74" x2="1034.3" y2="811.04" xlink:href="#_ÂÁ_Ï_ÌÌ_È_ËÂÌÚ_681"/><linearGradient id="_ÂÁ_Ï_ÌÌ_È_ËÂÌÚ_681-8" x1="958.84" y1="187.46" x2="904.92" y2="795.88" xlink:href="#_ÂÁ_Ï_ÌÌ_È_ËÂÌÚ_681"/><linearGradient id="_ÂÁ_Ï_ÌÌ_È_ËÂÌÚ_681-9" x1="1024.79" y1="194.96" x2="970.92" y2="802.8" xlink:href="#_ÂÁ_Ï_ÌÌ_È_ËÂÌÚ_681"/><linearGradient id="_ÂÁ_Ï_ÌÌ_È_ËÂÌÚ_928" x1="904.72" y1="165.73" x2="889.12" y2="517.76" gradientUnits="userSpaceOnUse"><stop offset="0" stop-color="#560527"/><stop offset=".02" stop-color="#500529"/><stop offset=".13" stop-color="#3a0831"/><stop offset=".24" stop-color="#2b0936"/><stop offset=".38" stop-color="#220a39"/><stop offset=".58" stop-color="#200b3b"/></linearGradient><linearGradient id="_ÂÁ_Ï_ÌÌ_È_ËÂÌÚ_928-2" x1="816.95" y1="163.17" x2="801.47" y2="512.44" xlink:href="#_ÂÁ_Ï_ÌÌ_È_ËÂÌÚ_928"/><linearGradient id="_ÂÁ_Ï_ÌÌ_È_ËÂÌÚ_928-3" x1="1125.69" y1="176.91" x2="1110.02" y2="530.54" xlink:href="#_ÂÁ_Ï_ÌÌ_È_ËÂÌÚ_928"/><linearGradient id="_ÂÁ_Ï_ÌÌ_È_ËÂÌÚ_928-4" x1="1059.8" y1="173.68" x2="1044.13" y2="527.35" xlink:href="#_ÂÁ_Ï_ÌÌ_È_ËÂÌÚ_928"/><linearGradient id="_ÂÁ_Ï_ÌÌ_È_ËÂÌÚ_24" x1="1146.66" y1="706.31" x2="1167.01" y2="709.22" gradientTransform="translate(1.85 -3.32) rotate(.21)" gradientUnits="userSpaceOnUse"><stop offset="0" stop-color="#3e0f0f"/><stop offset="1" stop-color="#7c6043"/></linearGradient><linearGradient id="_ÂÁ_Ï_ÌÌ_È_ËÂÌÚ_681-10" x1="850.09" y1="503.84" x2="1066.38" y2="534.74" gradientTransform="translate(1.85 -3.32) rotate(.21)" xlink:href="#_ÂÁ_Ï_ÌÌ_È_ËÂÌÚ_681"/><linearGradient id="_ÂÁ_Ï_ÌÌ_È_ËÂÌÚ_14" x1="1162.62" y1="510.5" x2="1163.39" y2="509.91" gradientTransform="translate(1.85 -3.32) rotate(.21)" gradientUnits="userSpaceOnUse"><stop offset="0" stop-color="#a07700"/><stop offset="1" stop-color="#000"/></linearGradient><linearGradient id="_ÂÁ_Ï_ÌÌ_È_ËÂÌÚ_62-3" x1="972.42" y1="926.42" x2="960.18" y2="182.67" xlink:href="#_ÂÁ_Ï_ÌÌ_È_ËÂÌÚ_62"/></defs><g class="cls-74"><g id="Layer_2"><g id="fond"><g id="Layer_23"><polygon class="cls-31" points="1838.23 776.27 1831.5 869.94 1621.53 875.3 1628.91 774.02 1838.23 776.27"/><path class="cls-31" d="M0,.67v1079.33h1921.33l-1.74-815.16-190.09-2.29,5.94-91.28,184.16-20.12-3.94-150.48H0ZM1831.5,869.94l-209.97,5.36,7.37-101.27,209.33,2.25-6.74,93.66ZM1851.26,571.14l-208.94,21.67v-101.51l96.91-6.35,2.81-.2,109.23-7.18v93.57Z"/><polygon class="cls-31" points="1921.28 150.7 1921.54 759.13 1728.58 265.74 1735.44 171.27 1921.28 150.7"/><polygon class="cls-31" points="1856.94 476.9 1856.94 570.47 1642.31 592.81 1642.31 491.31 1856.94 476.9"/><g class="cls-71"><polygon class="cls-31" points="1846.8 468.4 1846.75 471.28 1838.92 471.97 1784.87 476.7 1782.77 476.9 1626.51 490.63 1621.95 491.03 1584.98 494.27 1585.05 491.39 1838.92 469.09 1846.8 468.4"/><polygon class="cls-31" points="1867.56 654.56 1571.56 694.26 1571.56 691.36 1867.56 651.66 1867.56 654.56"/><rect class="cls-31" x="1795.3" y="582.21" width="2.8" height="86.13"/><rect class="cls-31" x="1641.9" y="489.57" width="6.1" height="104.35"/><rect class="cls-31" x="1856.94" y="476.34" width="2.81" height="99.72"/><polygon class="cls-31" points="1705.51 770.8 1700.86 770.48 1705.6 678.16 1710.25 678.48 1705.51 770.8"/><polygon class="cls-31" points="1912.92 552.44 1912.92 565.67 1838.92 574.47 1829.37 575.6 1738.76 585.16 1736.68 585.39 1578.72 602.06 1578.72 598.76 1621.95 592.77 1626.51 592.14 1782.77 570.47 1784.87 570.17 1838.92 562.69 1912.92 552.44"/><polygon class="cls-31" points="1868.37 774.11 1868.16 776.99 1838.92 776.56 1775.16 775.63 1773.03 775.6 1616.49 773.35 1611.9 773.28 1574.86 772.75 1575.07 769.87 1838.92 773.68 1868.37 774.11"/><polygon class="cls-31" points="1634.65 772.35 1634.59 773.35 1627.22 874.62 1627.09 876.41 1621.02 875.94 1621.12 874.79 1628.46 773.28 1628.56 771.89 1634.65 772.35"/><polygon class="cls-31" points="1846.76 775.6 1846.76 775.63 1839.96 869.16 1839.54 875.02 1836.77 874.82 1837.18 869.26 1843.92 775.6 1843.95 775.36 1846.76 775.6"/><rect class="cls-31" x="1709.44" y="876.66" width="2.8" height="114.2" transform="translate(-6.04 11.15) rotate(-.37)"/><polygon class="cls-31" points="1898.74 864.76 1898.02 877.96 1838.92 878.82 1814.16 879.19 1674.33 879.39 1672.23 879.39 1562.8 879.55 1562.97 876.28 1606.41 874.79 1610.97 874.62 1768 869.26 1770.07 869.16 1838.92 866.81 1898.74 864.76"/></g><g class="cls-71"><polygon class="cls-31" points="1921.33 3.4 1618 17.41 1618.06 15.46 1920.27 .85 1921.33 3.4"/><polygon class="cls-31" points="1854.36 145.45 1854.36 148.36 1838.92 150.48 1693.21 170.6 1689.94 171.06 1590.66 184.76 1590.66 181.85 1757.52 158.82 1757.85 158.79 1838.92 147.57 1854.36 145.45"/><rect class="cls-31" x="1820.83" y="72.7" width="2.8" height="86.13"/><rect class="cls-31" x="1661.63" y="14.24" width="5.38" height="70.16"/><rect class="cls-31" x="1851.45" y="5.35" width="2.47" height="67.05"/><polygon class="cls-31" points="1737.31 168.65 1737.18 170.6 1731.24 261.88 1731.05 264.59 1726.39 264.26 1726.52 261.81 1731.15 171.95 1732.81 171.06 1737.31 168.65"/><polygon class="cls-31" points="1592.14 92.55 1842.78 66.08 1919.42 56.98 1921.33 43.61 1592.14 89.24 1592.14 92.55"/><polygon class="cls-31" points="1856.44 264.59 1856.22 267.47 1838.92 267.21 1794.23 266.48 1792.13 266.45 1635.58 263.9 1631 263.83 1593.95 263.24 1594.17 260.36 1685.24 261.81 1688.77 261.88 1838.92 264.3 1856.44 264.59"/><polygon class="cls-31" points="1652.64 366.89 1646.56 366.42 1654.1 262.36 1660.18 262.84 1652.64 366.89"/><polygon class="cls-31" points="1865.08 365.51 1862.29 365.29 1869.5 265.86 1872.29 266.08 1865.08 365.51"/><rect class="cls-31" x="1744.55" y="370.45" width="2.8" height="114.2" transform="translate(-2.74 11.37) rotate(-.37)"/><polygon class="cls-31" points="1589.06 370.05 1840.43 369.68 1921.54 368.49 1921.33 355.38 1589.23 366.75 1589.06 370.05"/></g><g class="cls-71"><polygon class="cls-31" points="5.75 448.13 328.72 471.13 328.65 468.23 5.68 445.23 5.75 448.13"/><polygon class="cls-31" points="97.21 634.71 346.66 671.1 346.66 668.2 97.21 631.81 97.21 634.71"/><rect class="cls-31" x="123.09" y="559.05" width="2.8" height="86.13"/><rect class="cls-31" x="273.19" y="466.41" width="6.09" height="104.35"/><rect class="cls-31" x="61.44" y="453.18" width="2.8" height="99.71"/><polygon class="cls-31" points="215.67 747.64 220.32 747.32 215.58 655 210.93 655.32 215.67 747.64"/><polygon class="cls-31" points="337.09 578.9 1.93 552.44 5.68 579.76 5.68 524.93 337.09 575.6 337.09 578.9"/><polygon class="cls-31" points="95.44 753.82 343.54 749.58 343.34 746.7 95.24 750.93 95.44 753.82"/><polygon class="cls-31" points="294.08 853.25 300.15 852.78 292.61 748.72 286.54 749.19 294.08 853.25"/><polygon class="cls-31" points="81.63 851.87 84.42 851.65 77.22 752.22 74.43 752.43 81.63 851.87"/><polygon class="cls-31" points="208.59 989.16 211.39 989.18 212.09 853.51 209.29 853.49 208.59 989.16"/><polygon class="cls-31" points="358.38 856.41 22.26 856.03 5.68 855.85 5.68 824.15 358.14 853.11 358.38 856.41"/></g><g class="cls-71"><polygon class="cls-31" points="5.76 3.23 375.77 28.86 375.69 25.63 5.68 0 5.76 3.23"/><polygon class="cls-31" points="79.15 125.19 328.6 161.58 328.6 158.69 79.15 122.29 79.15 125.19"/><rect class="cls-31" x="97.55" y="49.54" width="2.8" height="86.13"/><rect class="cls-31" x="247.65" width="6.09" height="61.25"/><rect class="cls-31" x="93.23" y="8.86" width="2.96" height="111.12"/><polygon class="cls-31" points="190.14 238.12 194.78 237.81 190.04 145.49 185.39 145.8 190.14 238.12"/><polygon class="cls-31" points="321.82 69.39 84.72 42.92 5.68 33 5.68 19.76 321.82 66.08 321.82 69.39"/><polygon class="cls-31" points="77.38 244.3 325.48 240.07 325.28 237.18 77.18 241.42 77.38 244.3"/><polygon class="cls-31" points="268.54 343.73 274.62 343.26 267.08 239.2 261 239.68 268.54 343.73"/><polygon class="cls-31" points="56.1 342.35 58.89 342.13 51.68 242.7 48.89 242.92 56.1 342.35"/><rect class="cls-31" x="118.13" y="402.99" width="114.2" height="2.8" transform="translate(-230.3 576.98) rotate(-89.63)"/><polygon class="cls-31" points="330.12 346.89 92.32 346.52 13 345.29 12.33 332.09 329.95 343.59 330.12 346.89"/></g><polygon class="cls-33" points="325.96 167.51 354.77 967.73 1564.25 967.73 1609.29 167.51 325.96 167.51"/><polygon class="cls-31" points="959.15 927.61 950.91 927.55 959.14 927.48 959.15 927.61"/><polygon class="cls-31" points="950.91 927.55 942.67 927.61 942.68 927.48 950.91 927.55"/><g class="cls-72"><polygon class="cls-31" points="1593.56 447.85 334.69 412.4 334.76 409.59 1593.63 445.04 1593.56 447.85"/><rect class="cls-31" x="961.27" y="-292.36" width="2.81" height="1272.51" transform="translate(605.49 1301.72) rotate(-89.21)"/><polygon class="cls-31" points="339.3 536.87 339.12 534.06 970.38 485.7 970.48 490.61 1593.68 534.06 1593.5 536.86 970.38 493.42 339.3 536.87"/><rect class="cls-31" x="341.45" y="596.42" width="363.26" height="2.81"/><rect class="cls-31" x="1199.53" y="600.32" width="385.32" height="2.81"/><rect class="cls-31" x="1457.01" y="526.03" width="2.71" height="74.43"/><rect class="cls-31" x="1305.14" y="438.36" width="5.91" height="77.09"/><rect class="cls-31" x="1516.79" y="445.15" width="2.71" height="85.05"/><polygon class="cls-31" points="1405.91 438.44 1403.2 438.28 1408.17 349.99 1410.88 350.15 1405.91 438.44"/><rect class="cls-31" x="1243.6" y="347.78" width="2.71" height="87.45"/><rect class="cls-31" x="858.81" y="231.89" width="2.71" height="87.45"/><rect class="cls-31" x="1001.22" y="227.32" width="2.71" height="87.45"/><polygon class="cls-31" points="578.12 515.53 572.27 417.02 574.98 416.85 580.83 515.36 578.12 515.53"/><polygon class="cls-31" points="442.92 411.11 437.05 336.69 439.76 336.46 445.62 410.88 442.92 411.11"/><polygon class="cls-31" points="598.01 417 595.3 416.86 599.08 338.75 601.79 338.89 598.01 417"/><rect class="cls-31" x="681.2" y="339.97" width="2.71" height="78.97"/><rect class="cls-31" x="329.89" y="225.96" width="1279.95" height="2.81" transform="translate(-4.99 22.46) rotate(-1.32)"/><polygon class="cls-31" points="517.78 235.01 520.49 234.85 515.89 146.54 513.18 146.69 517.78 235.01"/><polygon class="cls-31" points="464.16 338.19 466.87 338.02 462.33 237.63 459.62 237.81 464.16 338.19"/><rect class="cls-31" x="635.2" y="187.46" width="87.45" height="2.71" transform="translate(486.97 866.86) rotate(-89.73)"/><rect class="cls-31" x="591.87" y="284" width="104.74" height="7.21" transform="translate(353.68 930.51) rotate(-89.74)"/><polygon class="cls-31" points="1480.88 215.42 1487.06 141.02 1484.36 140.78 1478.18 215.18 1480.88 215.42"/><polygon class="cls-31" points="1365.31 349.99 1371.74 218.33 1369.04 217.91 1362.61 349.57 1365.31 349.99"/><polygon class="cls-31" points="1325.77 217.29 1328.48 217.16 1325.03 139.03 1322.32 139.16 1325.77 217.29"/><rect class="cls-31" x="1201.89" y="177.99" width="78.97" height="2.71" transform="translate(1056.31 1419.88) rotate(-89.74)"/><rect class="cls-31" x="1093.4" y="283.93" width="124.98" height="2.71" transform="translate(865.24 1439.84) rotate(-89.73)"/><polygon class="cls-31" points="417.98 597.84 412.95 530.4 415.66 530.18 420.69 597.62 417.98 597.84"/><polygon class="cls-31" points="625.22 597.82 620.23 515.54 622.94 515.36 627.93 597.64 625.22 597.82"/><polygon class="cls-31" points="1579.28 701.24 1209.54 686.56 695.5 683.79 344.54 684.77 344.53 681.96 695.5 680.98 1209.6 683.75 1579.38 698.43 1579.28 701.24"/><polygon class="cls-33" points="1573.05 812.63 1192.32 809.68 1192.29 809.68 701.36 781.94 348.54 794.84 348.45 792.03 701.39 779.12 701.45 779.13 1192.41 806.87 1573.07 809.81 1573.05 812.63"/><polygon class="cls-31" points="422.41 791.26 417.98 683.43 420.69 683.31 425.12 791.14 422.41 791.26"/><polygon class="cls-31" points="534.21 682.47 524.89 596.18 529.95 596.01 539.27 682.3 534.21 682.47"/><rect class="cls-31" x="662.62" y="597.93" width="2.71" height="84.46"/><rect class="cls-31" x="346.48" y="851.37" width="381.23" height="2.81"/><polygon class="cls-31" points="501.47 970.8 491.69 853.11 497 852.88 506.78 970.57 501.47 970.8"/><rect class="cls-31" x="683.55" y="852.88" width="2.85" height="109.49"/><rect class="cls-31" x="573.62" y="785.45" width="2.85" height="67.33"/><rect class="cls-31" x="643.68" y="782.98" width="2.85" height="69.8"/><rect class="cls-31" x="1170.44" y="877.97" width="423.37" height="2.81"/><polygon class="cls-31" points="1367.57 967.73 1357.79 879.65 1363.1 879.48 1372.88 967.56 1367.57 967.73"/><rect class="cls-31" x="1472.3" y="878.33" width="2.85" height="90.56"/><rect class="cls-31" x="1439.72" y="812.04" width="2.85" height="67.33"/><rect class="cls-31" x="1246.69" y="808.64" width="2.85" height="69.51"/><rect class="cls-31" x="1509.78" y="809.58" width="2.85" height="69.8"/><polygon class="cls-31" points="1332.78 690.27 1328.27 690.06 1339.06 600.36 1343.57 600.57 1332.78 690.27"/><polygon class="cls-31" points="1240.29 683.45 1235.47 600.55 1238.18 600.38 1243 683.28 1240.29 683.45"/><polygon class="cls-31" points="1465.76 808.33 1463.04 808.22 1467.2 695.39 1469.91 695.49 1465.76 808.33"/><polygon class="cls-31" points="1309.28 808.33 1305.14 689.05 1307.85 688.95 1311.99 808.23 1309.28 808.33"/></g><polygon class="cls-31" points="5.68 1079.33 354.77 967.73 1564.25 967.73 1921.33 1080 5.68 1079.33"/><polygon class="cls-31" points="5.68 0 358.84 167.51 1921.33 150.48 1921.33 0 5.68 0"/><g class="cls-70"><path class="cls-31" d="M1895.87,1045.68c-16.93-.24-1691.82-24.34-1888.99-24.34-.41,0-.8,0-1.19,0v-2.43c.38,0,.79,0,1.19,0,197.03,0,1872.11,24.1,1889.04,24.34l-.05,2.43Z"/><path class="cls-31" d="M1868.2,1075.81l-206.74,1.21-51.78-35.41-127.62-1.8-57.52-44.96h-305.42l3.89,39.98-136.33-1.86,1.65-48.81-415.95,3.61-105.77,38.38-3.89,1.29-116.72-2.78-138.18,48.67-6.89-6.78,144.62-44.33h.27s120.6-3.31,120.6-3.31l105.37-33.57h.28s419.2-3.64,419.2-3.64l-1.66,48.88,130.29,1.78-3.89-39.93h246.97l-8.3-.12-.36-.21-39.77-23.76,1.64-1.99,39.41,23.54,234.8,2.44,330.92,5.62-.17,2.41h0l-317.73-4.5,91.72,44.53,76.82,1.09,96.23,34.33ZM1662.47,1074.59l197.47-1.21-88.98-29.49-76.6-1.09-96.87-47.03-170.68-2.44,56.37,44.06,127.52,1.79,51.76,35.4Z"/><path class="cls-31" d="M746.44,1076.35l-2.55-1.09c1.47-2.51,33.69-45.12,35.06-46.93l2.4,1.31c-11.58,15.32-33.78,44.79-34.91,46.71Z"/><polygon class="cls-31" points="1064.27 1075.87 1061.89 1032.86 1070.66 1032.83 1073.05 1075.84 1064.27 1075.87"/><polygon class="cls-31" points="1314.03 1079.33 1295.51 1036.43 1298.19 1035.6 1316.71 1078.49 1314.03 1079.33"/><polygon class="cls-31" points="571.96 987.77 434.97 977.43 435.23 975.01 572.21 985.35 571.96 987.77"/><polygon class="cls-31" points="700.22 1026.73 743.89 986.28 746.38 986.26 705.09 1028.33 700.22 1026.73"/></g><polygon class="cls-61" points="5.68 27.36 260.61 167.51 504.2 167.51 454.17 7.82 504.2 7.82 532.16 167.51 601.58 167.51 593.25 14.33 734.03 13.03 710.9 167.51 860.33 167.51 954.71 7.82 1076.46 15.64 1058.4 167.51 1080.83 167.51 1160.38 0 1343.43 7.82 1179.54 167.51 1334.1 167.51 1914.83 62.35 5.68 27.36"/><polygon class="cls-10" points="636.08 1071.88 674.39 1055.33 996.77 1056.16 996.77 1079.33 636.08 1071.88"/><polygon class="cls-24" points="555.47 1054.42 492.45 1079.33 601.91 1078.55 620.67 1054.42 555.47 1054.42"/><polygon class="cls-47" points="364.88 1050.96 368.18 1054.74 430.37 1049.82 497.04 1049.82 338.97 1079.35 185.39 1079.33 364.88 1050.96"/><polygon class="cls-54" points="487.6 1051.42 428.9 1050.55 368.78 1055.46 365.32 1051.98 228.45 1073.91 208.63 1079.35 180.91 1079.34 364.88 1050.53 368.18 1052.88 430.37 1049.82 497.04 1049.82 487.6 1051.42"/><polygon class="cls-47" points="1004.75 1077.52 1005.67 1064.78 1037.89 1071.1 1111.03 1068.3 1159.94 1060.66 1272.06 1077.57 1004.75 1077.52"/><polygon class="cls-54" points="1005.67 1072.95 1005.47 1076.89 1034.97 1083.4 1115.84 1079.3 1159.94 1060.66 1234.73 1061.29 1253.54 1061.29 1282.97 1079.35 1159.94 1066.91 1111.03 1078.11 1037.89 1082.21 1005.67 1072.95"/><polygon class="cls-47" points="434.28 994.13 459.14 1005.44 487.41 1005.44 532.17 994.13 434.28 994.13"/><polygon class="cls-54" points="441.57 997.45 472.59 996.33 517.84 997.75 532.17 994.13 434.28 994.13 441.57 997.45"/><polygon class="cls-47" points="1704.38 1069.87 1597.89 1034.35 1550.08 1027.62 1535.51 1030.64 1550.65 1045.97 1529.84 1052.19 1456.41 1038.97 1529.35 1068.28 1704.38 1069.87"/><polygon class="cls-54" points="1684.42 1069.69 1594.64 1037.34 1550.23 1032.21 1539.17 1034.35 1535.51 1030.64 1550.08 1027.62 1597.89 1034.35 1704.38 1069.87 1684.42 1069.69"/></g><g id="Layer_21"><polygon class="cls-36" points="538.41 533.67 537.25 483.7 534.05 483.7 538.41 533.67"/></g><g id="Layer_20"><polygon class="cls-67" points="562.87 167.9 644.49 161.6 644.49 167.9 562.87 167.9"/></g><g id="Layer_19"><polygon class="cls-29" points="1317.3 380.7 1523.54 387.76 1523.54 398.39 1317.3 380.7"/></g><g id="Layer_18"><polygon id="troue5" class="cls-43" points="1200.11 587.63 1302.58 599.63 1310.42 595.12 1200.11 587.63"/></g><g id="Layer_17"><polygon id="troue4" class="cls-73" points="1017.58 1079.33 1017.58 1041.81 1267.36 1047.35 1276.97 1079.33 1017.58 1079.33"/></g><g id="Layer_14"><path id="ombre" class="cls-26" d="M5.68,0v1079.33l1915.65.67V0H5.68ZM1814.43,963.4l-63.92-6.24-252.59-445.48s-32.02-11.99-60.84-11.99-70.45,8-70.45,8l-96.07,419.74,144.04,10.71-812.28-6.76,53.41-3.96-96.07-415.74s-28.82-8-57.64-8-70.45,8-70.45,8l-262.58,459.71,35.86-10.43-69.33,12.91L94.19,10.39c112.27,17.63,238.12,37.58,238.12,37.58h1279.77l249.77-37.66-47.42,953.08Z"/></g><g id="Layer_13"><polygon id="troue3" class="cls-17" points="1367.18 0 1363.76 0 1361.35 4.86 1353.92 14.74 1349.31 23.39 1341.88 26.54 1330.62 44.79 1316.98 41.17 1312.9 41.75 1312.7 35.74 1313.17 27.91 1313.3 24.21 1316.45 19.1 1318.32 14.16 1326.62 .03 1323.85 0 1311.43 26.54 1311.43 44.79 1284.78 52.7 1273.88 68.9 1265.72 94.82 1244.93 100.58 1234.86 106.03 1227.32 100.58 1199.53 125.15 1154.55 111.07 1138.34 138.91 1123.33 144.24 1107.14 133.58 1086.38 144.24 1061.77 206.35 1086.38 292.82 1191.26 353.17 1215.42 294.89 1227.32 284.52 1218.8 266.43 1242.65 227.63 1244.93 191.77 1205.27 133.58 1225.49 107.04 1232.72 111.07 1244.93 103.42 1266.99 100.58 1274.35 77.23 1275.55 69.17 1285.86 54.67 1288.54 53.03 1308.21 48.75 1322.94 47.59 1332.71 46.93 1339 33.96 1343.69 26.54 1349.98 24.79 1353.26 23.3 1356.67 15.98 1356.07 13.01 1360.48 7.5 1367.18 0"/></g><path class="cls-44" d="M1171.29,895.44h76.85l57.64,31.98s16.01,15.99,28.82,19.99c12.81,4,44.83,4,44.83,4l-9.61,43.97-31.82.54-89.87-48.51-76.85-51.97Z"/><polygon class="cls-44" points="623.71 927.42 623.71 915.43 658.94 891.44 717.46 893.91 626.91 931.42 623.71 927.42"/><g id="Layer_11"><path id="bottom" class="cls-46" d="M540.45,963.4l64.04-8,111.06,1.96,55.46,10.04,6.4-4h227.36s58.37,1.86,110.84.93c52.47-.93,262.95-8.93,262.95-8.93l-8.73,39.98-112.08,83.95h-656.46l-54.44-87.95-6.4-27.98Z"/></g><g id="Layer_10"><polygon id="troue2" class="cls-20" points="447.59 255.84 498.82 251.84 598.09 263.84 447.59 255.84"/></g><g id="Layer_9"><g id="troue1"><polygon class="cls-48" points="194.89 632.74 162.62 582.14 147.16 539.83 162.62 526.81 152.42 498.62 143.38 466.63 162.62 414.15 217.98 321.19 275.89 303.4 306.84 356.44 279.65 509.98 258.86 515.35 230.51 577.34 226.07 609.04 194.89 632.74"/><polygon class="cls-37" points="258.86 515.35 258.86 493.29 251.91 455.8 270.85 444.08 279.65 509.98 258.86 515.35"/><polygon class="cls-37" points="226.07 609.04 217.98 571.92 206.33 545.27 188.81 544.14 147.16 539.83 162.62 582.14 194.89 632.74 226.07 609.04"/><polygon class="cls-54" points="306.84 356.44 275.89 382.15 251.91 379.91 200.61 399.84 162.62 471.75 143.38 466.63 162.62 414.15 217.98 321.19 275.89 303.4 306.84 356.44"/><polygon class="cls-54" points="251.91 455.8 243.08 510.45 225.11 524.31 206.33 545.27 217.98 571.92 226.07 609.04 230.51 577.34 258.86 515.35 258.86 493.29 251.91 455.8"/><polygon class="cls-48" points="252.84 534.04 261.38 530.05 268.31 535.79 272.95 572.02 268.31 608.28 249.81 626.83 249.81 671.96 261.38 689.15 252.39 672.15 251.13 638.21 257.44 623.12 270.21 609.04 278.42 568.56 273.58 548.72 270.84 533.25 261.38 515.35 252.84 534.04"/><polygon class="cls-48" points="215.96 328.82 217.34 312.92 200.59 285.44 176.19 275.44 171.98 272.59 176.61 267.6 155.53 209.51 160.43 203.31 168.61 159.22 205.33 138.39 177.61 158.35 172.72 159.33 163.1 198.33 161.84 210.41 183.03 272.44 185.34 275.62 201.22 283.86 222.68 310.35 229.5 318.42 220.5 321.19 215.96 328.82"/><polygon class="cls-54" points="217.98 321.19 216.05 311.83 206.06 295.02 198.59 284.39 179.5 275.52 175.72 267.6 157.58 210.41 157.58 207.5 167.04 163.94 170.2 159.33 159.63 203.25 159.31 210.41 178.85 267.6 182.81 275.62 198.7 283.86 226.97 318.42 217.98 321.19"/><polygon class="cls-54" points="257.28 524.31 264.11 528.59 269.37 535.41 274.84 563.64 278.42 568.56 273.58 548.72 270.84 533.25 261.38 515.35 257.28 524.31"/></g></g><g id="Layer_8"><path id="toile4" class="cls-34" d="M1096.94,414.66l-.83-4.04s-45.25,5.2-61.98-89.04l-3.56-2.22s.1,24.01-1.58,25.37c-11.6,9.38-28.17-53.96-28.17-53.96l-5.58-1.94s22.84,78.9,20.86,94.26c-2,15.34-30.53-9.21-39.48-46.13l-2.6-.42s18.8,36.15-5.44,43.34c-24.22,7.2-33.05-42.01-33.05-42.01l-2.54.5s46.91,189.24,164.91,206.62l.23-5.83s-43.95,2.94-59.99-36.03c-16.04-38.97,60.62,18.95,60.62,18.95l.27-6.7s-20.06-4.45-20.78-18.29c-.7-13.87,21.84-8.3,21.84-8.3l.12-3.34s-22.05-10.98-23.11-42.15c-1.06-31.17,19.83-28.64,19.83-28.64ZM990.4,376.27c4.93,6.73,30.23,48.38,22.42,51.75-7.81,3.34-35.8-33.16-35.8-39.37s8.43-19.08,13.38-12.38ZM1010.97,449.69c-2.22.6-10.8-17.33-7.39-21.61,1.06-1.35,5.39,2.01,7.39,4.98,1.98,2.94,2.2,16.03,0,16.64ZM1074.6,500.32c-2.22.6-19.03-7.82-17.19-17.72.38-2.06,6.48-4.75,11.69,0,2.35,2.15,7.71,17.12,5.51,17.72ZM1015.99,481.67c-20.66-1.72-55.49-65.54-55.23-80.36.11-6.68,2.48-6.1,13.13-3.34,10.65,2.76,56.27,84.88,42.11,83.7ZM1032.71,392.44c-4.38,1.21-21.39-34.97-14.65-43.63,2.13-2.73,10.69,4.09,14.65,10.04,3.94,5.96,4.38,32.41,0,33.59Z"/></g><g id="Layer_7"><path id="toile3" class="cls-39" d="M236.91,562.87s-84.81,164.81-88.87,149.51c-4.07-15.28,32.83-101.54,32.83-101.54l-5.11-8.11C141.11,742.2,1.33,845.96,1.33,845.96l.43,26.79c53.49-26.14,105.63-116.08,111.57-93.43,5.77,22.03-110.02,139.32-110.02,139.32l-.76,2.22s24.83-4.44,23.86,6.6c-.95,11.01-23.48,16.55-23.48,16.55l.03,1.78s86-33.42,67.21-7.67c-18.79,25.79-66.86,41.21-66.86,41.21v4.06c210.23-88.43,241.4-436.73,241.4-436.73l-7.81,16.22ZM132.66,867.69c-18.98,32.68-47.45,46.54-50.62,47.52-12.2,3.73,58.75-123.87,76.59-130.29,17.87-6.39-6.99,50.09-25.97,82.78ZM168.8,803.68c-3.44-1.6,7.02-48.11,17.87-47.87,10.84.27-12.82,50.21-17.87,47.87ZM187.48,715.19c-7.02,12.94-27.19,21.08-33.08,18.74-8.59-3.4,28.36-63.03,32.75-64.13,4.42-1.12,7.46,32.24.33,45.38Z"/></g><g id="Layer_6"><path id="toile2" class="cls-39" d="M1316.95,0s-56.84,48.81-103.08,55.41C1167.63,61.96,1219.41,0,1219.41,0h-5.54s-54.25,46.05-87.07,34.5C1093.97,22.99,1148.32,0,1148.32,0h-6.31s-86.46,32.46-223.77,28.46C780.96,24.46,755.76,0,755.76,0h-9.95s63.97,23.99,70.79,39.98C823.39,55.97,699.03,0,699.03,0h-10.43s16.28,23.75-12.51,34.5C647.26,45.29,541.05,0,541.05,0h-12.87s128.67,88.03,360.86,132.96C1121.19,177.89,1327.54,0,1327.54,0h-10.6ZM855.95,121.4c-79.54-10.51-190.53-60.08-179.87-62.76,81.62-20.67,272.73,50.61,271.13,55.29-1.6,4.68-11.75,17.99-91.26,7.48ZM927.84,132.16c-3.43-1.16,25.84-14.71,44.83-11.75,19.02,3.04,30,11.71,29.65,15.03-.38,3.28-54.47,3.56-74.48-3.28ZM1002.33,47.45c-49.6,8.47-107.53-12.87-99.43-12.95,101.96-.96,157.71-14.99,158.8-8.51,1.09,6.48-9.73,12.99-59.37,21.47ZM1186.58,44.29c-6.15,6-18.41,2-21.62,0-3.91-2.4,25.33-26.3,31.73-26.3s-4,20.31-10.12,26.3Z"/></g><g id="Layer_5"><path id="toile1" class="cls-39" d="M1670.72,621.67s-37.06,35.18-59.84,29.71c-22.79-5.44,28.58-59.34,28.58-59.34l-5.31.69s-19.01,38.58-38.69,34.61c-19.68-3.97-.54-68.76-.54-68.76l.33-9.58s-48.7,69.29-74.32,56.86c-37.96-18.43-46.57-84.1-46.57-84.1l-1.9,1.12s8.52,28.76,6.81,41.21c-1.7,12.42-24.73-63.18-24.73-63.18l-2.27-.22s8.64,37.4-3.69,38.6c-12.3,1.22-14.02-39.56-14.02-39.56l-1.47-.03s-6.91,79.76,60.58,136.51c83.35,70.08,185.1-14.54,185.1-14.54h-8.07ZM1453.24,580.48c-8.45-12.44-15.05-36.41-10.59-38.07,1.9-.68,6.55,1.54,9.93,5.52,3.38,3.99,9.15,44.97.66,32.55ZM1582.9,620.45c1.34.31,7.72,6.91,8.25,9.49.54,2.55-9.47,1.6-11.16-1.34-1.02-1.8,1.55-8.43,2.91-8.15ZM1570.58,593.51c3.93.08,14.97,30.12,5.7,33.75-9.23,3.62-37.07-1.55-35.58-9.8,1.49-8.25,24.76-24.04,29.87-23.95ZM1516.46,630.61c-1.84-3.24,20.71-5.04,28-4.26,7.27.74,11.57,5.16,11.55,6.43.02,1.25-6.96,7.86-9.25,8.8-8.84,3.58-26.45-4.07-30.3-10.97ZM1555.35,659.5c-22.36-1.83-26.33-7.67-28.11-10.18-5.34-7.54,62.54-4.95,69.1,2.11,6.56,7.06-18.63,9.9-40.99,8.07Z"/></g><path class="cls-21" d="M1366.85,996.05l-819-3.76s-4.97-18.49-7.05-30.69l2.49-9.3,1.2-4.51s14.43-5.05,25.38-6.84c10.99-1.83,23.9-4.65,37.15-13.06l17.77.08.03-11.31c.16-.08.29-.2.45-.28,2.5-1.59,4.94-3.1,7.28-4.56,2.25-1.39,4.4-2.74,6.45-4.05.1-.08.19-.12.29-.16,2.05-1.31,4.01-2.5,5.84-3.65,2.89-1.79,5.49-3.41,7.7-4.8.58-.36,1.12-.67,1.64-.99,4.01-2.5,6.35-3.93,6.35-3.93l47.52-.3,23.98-.13.84,8.08,32.63.15,18.82-19.3.93-.96,5.06-.02,8.45-.04,16.36-.09,7.72-.04h.03s23.7-.13,23.7-.13l99.33-.46,8.26-.04,8.26.12,91.42,1.3,30.84.42h.03l28.95.41,9.45.12.16.16,13.98,14.58,5.46,5.7,32.63.15.89-8.07h.48s12.65.18,12.65.18l58.41.91s37.08,23.28,70.64,45.26c27.39,17.91,55.65,10.97,56.22,13.81,0,.08.03.16.03.24.97,6.76-8.12,39.82-8.12,39.82Z"/><path class="cls-21" d="M769.6,961.48l5.8,31.86-227.55-1.04s-.22-.8-.58-2.2c-1.38-5.24-4.84-18.87-6.47-28.5l2.5-9.31,1.18-4.52s14.44-5.04,25.39-6.84c10.98-1.8,23.89-4.64,37.15-13.03l17.77.08v-2.72l.03-8.59c.16-.08.29-.2.45-.28,2.5-1.6,4.93-3.12,7.27-4.56,2.27-1.4,4.42-2.76,6.47-4.08.1-.08.19-.12.29-.16,2.05-1.24,4-2.48,5.83-3.64,2.88-1.8,5.51-3.4,7.72-4.8.58-.36,1.12-.68,1.63-1,4-2.48,6.34-3.92,6.34-3.92l47.52-.32,23.98-.12.83,8.07,32.63.16,18.83-19.31.93-.96h5.06l8.45-.04,16.36-.08-45.82,79.83Z"/><path class="cls-18" d="M1282.46,959.12s91.38,7.71,91.57,6.64.93-9.54.93-9.54l-92.5,2.9Z"/><path class="cls-21" d="M1366.85,996.05l-819-3.76s-4.97-18.49-7.05-30.69l2.49-9.3,59.84,2.43h.03l197.81,8.02s10.42,7.68,11.2,4.17c.49-2.12.56-3.95.56-3.95l192.11-1.36h1.12s34.16,3.88,34.64,2.8l.06-.12,60.39.28s.59,6.68,3.63,6.69c3.07.01,2.26-6.67,2.26-6.67l63.67-1.99,6.28-.21,198.08-6.17c.97,6.76-8.12,39.82-8.12,39.82Z"/><polygon class="cls-18" points="603.15 954.73 540.8 961.6 540.8 961.6 540.8 961.6 543.29 952.3 544.5 947.8 544.5 947.79 544.5 947.79 603.15 954.73"/><polygon class="cls-18" points="725.34 959.68 771.01 967.4 769.6 961.48 725.34 959.68"/><polygon class="cls-11" points="973.21 926.46 796.87 928.77 815.44 881.63 965.98 881.1 973.21 926.46"/><path class="cls-18" d="M707.34,929.74l-82.55-1.76.03-11.33c.15-.09.3-.19.45-.28,25.27,3.89,82.07,13.37,82.07,13.37Z"/><polygon class="cls-59" points="775.4 993.33 769.6 961.48 810.1 892.55 776.6 962.98 779.01 993.35 775.4 993.33"/><path class="cls-23" d="M974.12,994.25l2.87-32.44-8.02-32.46-162.73-1.93,166.52-8-2.78-26.14,4.9,34.39,10.19,35.05s1.16,31.58.74,31.57c-.42,0-11.68-.05-11.68-.05Z"/><path class="cls-23" d="M1176.89,962.4l2.24,32.79-8.61-.04.1-33.58-36.38-21.35-29.62-53.38,30.21,48.67,18.77-2.91,164.57,9.63c-10.22,1.07-161.85-6.98-162.91-6.98-1.12,0,21.57,26.36,21.57,26.36l.06.8Z"/><polygon class="cls-55" points="1132.87 939.41 982.54 954.03 985.56 959.4 1164.89 959.4 1132.87 939.41"/><path class="cls-44" d="M624.8,927.98l-17.77-.08c-13.26,8.39-26.16,11.23-37.15,13.03-10.95,1.8-25.39,6.84-25.39,6.84l-1.18,4.52-2.5,9.31c1.63,9.63,5.09,23.27,6.47,28.5l-.42,1.28-9.61-27.98,6.4-19.99s32.02-4,41.63-8c9.61-4,19.21-8,19.21-8l20.3.56Z"/><polygon class="cls-44" points="604.5 927.42 683.63 929.5 598.09 931.42 604.5 927.42"/><polygon class="cls-44" points="1321.8 943.41 1295.5 942.05 1322.33 941.06 1321.8 943.41"/><g id="cadre_porte"><polygon class="cls-52" points="722.33 893.86 720.68 789.65 722.64 789.66 717.46 702.88 689.64 702.75 716.13 696.96 712.54 581.91 706.92 481.3 714.73 479.63 711.43 370.33 722.88 270.5 794.8 170.26 864.35 114.02 953.8 47.11 1008.66 85.53 1120.06 179.89 1167.53 239.03 1187.59 287.17 1205.66 373.48 1206.46 488.42 1218.13 489.36 1205.04 496.91 1200.23 588.84 1195.32 587.43 1186.42 895.99 1162.73 895.88 722.33 893.86"/><path class="cls-65" d="M1167.03,389.41c-4.6,162.98-17.89,460.56-20.4,514.38l-380.82-1.75c-2.98-70.06-14.7-354.93-18.2-511.36-1.96-87.77,55.79-159.94,104.58-205.02,46.92-43.35,94.81-70.7,105.99-76.83,11.15,6.07,58.69,33.05,105.31,76.06,48.6,44.83,106.01,116.71,103.53,204.52Z"/><path class="cls-14" d="M1200.88,368.62l-2.99,114.93-3.78,4.81-17.43,415.56-30.05-.14c2.52-53.82,15.79-351.4,20.4-514.38,2.48-87.81-54.93-159.69-103.53-204.52-46.62-43.01-94.16-69.99-105.31-76.07-11.18,6.13-59.07,33.49-105.99,76.83-48.78,45.09-106.54,117.25-104.58,205.02,3.49,156.43,15.21,441.29,18.19,511.36l-32.63-.15s-3.04-74.13-6.72-172.97c-.19-4.99-3.32-8.63-3.51-13.74-2.22-60.32-4.62-128.51-6.7-194.15-.15-4.76,2.07-22.75,1.92-27.48-1.47-47.3-2.16-81.02-3.05-120.83-3.92-175.62,213.65-295.66,239.74-309.42.27-.13.51-.26.73-.38,1.19-.62,1.82-.94,1.82-.94,0,0,159.4,81.85,218.67,211.29,7.16,15.64,12.86,31.98,16.64,48.95,2.79,12.52,4.54,25.39,5.05,38.58.06,1.5.13,4.49.13,4.49l2.98,3.34Z"/><path class="cls-58" d="M1177.36,371.59c-.12-2.03-.34-4.17-.63-6.4-.07-.58-.16-1.18-.25-1.77-5.39-36.13-30.92-94.63-30.92-94.63l-6.64-3.16-1.38-.66h-.02s-59.19-80.26-59.19-80.26l-1.09-1.15s-12.71,2.29-14.83.34c-28.26-26.07-67.21-65.21-67.21-65.21l-35.26-10.74-1.09-10.78-.7-.36-.72.38-1.71.89s-.74.51-1.97,1.4c-14.86,10.62-108.56,78.2-108.56,78.2l-7.43,10.71-2.27,3.28-.44.64-.03.05,3.26,7.55c-5.44,5.51-53.5,43.65-68.48,69.89-.46.82-.92,1.63-1.38,2.45-.27.49-.54.97-.81,1.46-.01.01-.02.03-.03.05-16.19,29.43-26.01,59.39-29.34,89.45-.13,1.15-.24,2.44-.35,3.82-.04.58-.08,1.17-.12,1.77-.62,9.59-.76,22.12-.76,22.12l10.17,101.01-.19,1.77-2.87,26.75-.3,2.75.02.31c.25,3.36,2.49,33.67,4.98,75.86.25,4.17.5,8.47.75,12.87l.16,2.86c1.98,34.86,3.98,75.8,5.21,115.72,0,.13,0,.29-.04.48-.04.34-.14.77-.28,1.26-.01.04-.02.08-.03.12-.51,1.83-1.5,4.45-2.37,6.64-.88,2.22-1.63,3.99-1.63,3.99,0,0,.51,16.49,1.18,38.4,0,0,6.45-2.19,6.45-2.17,1.33,43.18-3.14,109.61-3.1,110.35l-.11,12.13,10.82.05c-.95-22.39-2.8-66.7-4.98-121.75-.6-15.22-1.23-31.27-1.87-47.91-.02-.47-.04-.95-.06-1.42-2.89-74.6-6.05-160.77-8.45-237.26-.02-.59-.04-1.18-.05-1.77-1.15-36.84-2.11-71.39-2.78-101.25-.05-2.47-.06-4.92-.02-7.36.02-1.19.04-2.38.09-3.56.02-.62.04-1.24.07-1.86.06-1.48.14-2.96.24-4.43.03-.54.07-1.07.11-1.6,0,0,0-.01,0-.02.03-.46.07-.91.11-1.36.03-.38.06-.77.1-1.15.01-.18.03-.35.04-.52.05-.6.11-1.19.17-1.77.03-.35.07-.71.11-1.07.13-1.27.27-2.54.43-3.81.16-1.32.33-2.63.53-3.93.09-.63.18-1.26.28-1.89.06-.42.13-.84.2-1.26.09-.59.19-1.17.29-1.76.07-.43.14-.87.22-1.3.06-.33.12-.67.18-1,.14-.78.28-1.55.44-2.33.1-.53.2-1.06.31-1.59.33-1.68.69-3.35,1.07-5.01.2-.89.41-1.77.62-2.65.5-2.08,1.03-4.15,1.58-6.2.12-.45.24-.9.37-1.34.68-2.45,1.4-4.88,2.16-7.29.19-.6.38-1.21.58-1.8.19-.6.39-1.2.59-1.8,3.05-9.15,6.65-18.04,10.7-26.66.19-.41.39-.83.59-1.23.41-.87.83-1.74,1.25-2.6.25-.51.5-1.01.75-1.52.77-1.56,1.57-3.11,2.37-4.65.21-.41.43-.82.65-1.23l.13-.26c.25-.46.49-.92.74-1.38.59-1.09,1.18-2.18,1.78-3.26.5-.91,1.01-1.81,1.52-2.71.6-1.06,1.21-2.11,1.82-3.16.42-.72.84-1.43,1.26-2.14.71-1.19,1.43-2.37,2.15-3.55,1.18-1.92,2.38-3.83,3.6-5.72.75-1.17,1.51-2.32,2.28-3.48.6-.91,1.21-1.82,1.82-2.72.53-.78,1.06-1.56,1.6-2.34.39-.58.79-1.15,1.2-1.72.33-.47.66-.95,1-1.42.27-.39.55-.78.83-1.17.5-.71,1.01-1.42,1.52-2.11.06-.08.11-.16.18-.24.58-.81,1.17-1.61,1.77-2.4,4.43-6,9.01-11.79,13.68-17.36.68-.82,1.36-1.62,2.04-2.42.98-1.15,1.96-2.29,2.95-3.42.49-.58.99-1.14,1.48-1.69.09-.11.19-.22.28-.32.61-.69,1.21-1.37,1.82-2.05.58-.66,1.16-1.3,1.74-1.94.45-.51.91-1.01,1.37-1.5,1.39-1.52,2.78-3.02,4.17-4.5.55-.58,1.09-1.16,1.63-1.73,2.35-2.47,4.7-4.88,7.04-7.24.13-.13.25-.25.38-.38.03-.04.07-.07.11-.1.21-.22.41-.43.62-.63.28-.28.57-.57.85-.85,1.76-1.75,3.52-3.47,5.27-5.15.76-.73,1.52-1.45,2.27-2.16,1.51-1.43,3.01-2.85,4.51-4.23,1.74-1.61,3.48-3.19,5.22-4.75,6.33-5.69,12.65-11.07,18.86-16.15,34.92-28.53,66.68-47.37,78.96-54.29.71-.4,1.37-.77,1.95-1.09.19-.11.38-.21.55-.3.15-.09.31-.17.45-.25.14.08.28.15.43.23,11.9,6.5,58.84,33.36,104.88,75.83,2.73,2.51,5.48,5.11,8.25,7.8.37.36.75.72,1.12,1.09,21.5,20.97,43.84,46.93,61.37,76.95.29.5.58,1.01.88,1.52,15.72,27.28,27.41,57.88,30.9,91.12.06.59.12,1.18.18,1.77.77,7.94,1.06,16.03.83,24.26-.81,28.63-1.88,61.41-3.13,96.3-.03.84-.06,1.68-.09,2.52,0,.16-.01.31-.01.46-.02.43-.04.88-.05,1.32-1.26,35.2-2.68,72.42-4.14,109.61-.03.71-.06,1.43-.09,2.14-.1,2.61-.21,5.22-.31,7.83-.76,19.28-1.54,38.51-2.31,57.38-.02.46-.04.92-.06,1.38-1.08,26.24-2.15,51.8-3.18,75.87-.02.59-.05,1.18-.08,1.77-3.21,75.51-5.94,136.23-6.95,157.8l9.33.04,1.16-10.83c.06-1.18-1.55-107.45-.72-138.27.14-5.23,4.71-8.24,4.71-8.24l.02-.35.09-1.77s3.68,19.16.48-68.79c-3.2-87.95,11.62-174.73,11.62-174.73l-1.6-10.8-.14-.99-.12-.8s.08-1.09.23-3.04l.07-1.04c.57-7.8,1.87-25.72,3.11-44.42.61-9.25,1.21-18.69,1.7-27.18v-.22c.54-9.11.93-17.13,1.09-22.64.17-6.05.08-12.09-.28-18.13Z"/><path class="cls-27" d="M1139.35,386.32c-.28,9.79-.59,20.55-.93,32.08h0c-.1,3.53-.21,7.13-.31,10.78-1.96,65.87-4.75,153.91-7.41,236.32-.3,9.4-.6,18.74-.9,27.95-.11,3.79-.24,7.56-.36,11.31-2.25,69.27-4.27,130.91-5.46,166.8-.69,20.76-1.09,32.9-1.09,32.9l-147.51-.21-190.2-1.34s-10.09-369.5-13.41-518.29c-.03-1.31-.04-2.62-.04-3.93.04-18.77,3.38-36.68,9.14-53.63,1.37-4.02,2.86-7.97,4.49-11.88,12.5-30.11,32.36-56.92,54.18-79.78,25.37-26.6,53.41-47.86,75.64-62.76,23.89-15.99,41.08-24.64,41.08-24.64,0,0,20.8,10.68,48.38,30.2,6.81,4.81,14.02,10.16,21.44,16.03,6.32,4.99,12.79,10.35,19.27,16.07,9.98,8.79,20,18.42,29.58,28.82,20.16,21.88,38.39,47.17,50.28,75.3,1.36,3.21,2.63,6.47,3.81,9.75,5.91,16.38,9.61,33.64,10.28,51.7.13,3.45.14,6.93.05,10.44Z"/><polygon class="cls-8" points="957.86 147.63 956.44 147.59 957.44 96.81 955.38 62.72 956.8 62.59 958.86 96.77 958.86 96.81 957.86 147.63"/><polygon class="cls-63" points="1057.76 218.88 1056.62 217.82 1091.64 159.63 1092.77 160.69 1057.76 218.88"/><polygon class="cls-63" points="851.8 222.04 817.06 163.66 818.2 162.6 852.94 220.98 851.8 222.04"/><polygon class="cls-63" points="1197.95 365.29 1139.54 365.02 1139.54 363.24 1197.95 363.51 1197.95 365.29"/><polygon class="cls-56" points="1194.1 490.14 1139.17 489.89 1139.17 488.11 1194.11 488.36 1194.1 490.14"/><polygon class="cls-63" points="1183.75 746.59 1129.08 745.5 1129.1 743.72 1183.78 744.81 1183.75 746.59"/><polygon class="cls-63" points="773.47 368.94 715.06 368.67 715.06 366.89 773.48 367.16 773.47 368.94"/><polygon class="cls-63" points="776.15 493.82 718.17 493.55 718.17 491.78 776.16 492.04 776.15 493.82"/><polygon class="cls-63" points="727.72 734.39 726.63 733.53 781.44 729.16 781.55 730.93 727.72 734.39"/><polygon class="cls-63" points="793.77 297.32 773.24 283.78 767.49 273.58 745.93 254.58 746.75 253.13 768.51 272.31 774.21 282.41 794.43 295.75 793.77 297.32"/><polygon class="cls-63" points="1113.81 286.83 1113.15 285.26 1133.45 272.1 1139.21 262.06 1139.31 261.97 1161.08 243.08 1161.89 244.53 1140.22 263.34 1134.41 273.48 1113.81 286.83"/><polygon class="cls-41" points="726.18 735.54 758.95 732.38 752.05 739.46 726.18 735.54"/><polygon class="cls-5" points="716.67 513.26 744.11 520.44 743.81 523.19 716.64 523.06 716.67 513.26"/><polygon class="cls-69" points="818.2 162.6 842.31 194.36 838.81 198.93 818.2 162.6"/><polygon class="cls-53" points="716.64 523.06 743.81 523.19 748.81 599.35 718.82 599.21 719.17 609.39 749.56 612.22 749.72 615.08 719.47 618.18 716.64 523.06"/><polygon class="cls-13" points="1196.44 483.55 1171.67 485.22 1171.8 483.43 1196.46 476.47 1198.02 439.86 1174.85 439.75 1176.56 412.36 1199.63 416.66 1196.44 483.55"/><polygon class="cls-63" points="955.38 62.72 949.25 66.33 955.24 110.46 956.44 147.59 958.15 96.79 955.38 62.72"/><polygon class="cls-2" points="778.72 599.3 815.77 602.21 815.7 623.16 778.62 630.89 778.72 599.3"/><polygon class="cls-60" points="778.6 641.01 818.25 645.28 820.55 806.08 784.9 810.58 778.6 641.01"/><path class="cls-22" d="M1130.69,665.5c-.3,9.4-.6,18.74-.9,27.95l-30.99-4.54-.25-20.96,32.14-2.45Z"/><path class="cls-40" d="M1129.43,704.77c-2.25,69.27-4.27,130.91-5.46,166.8l-33.41-6.17,3.25-160.77,35.61.14Z"/><path class="cls-35" d="M843.84,337.59l-18.57,32.9-53.54,10.21c.04-18.77,3.38-36.68,9.14-53.63l62.97,10.52Z"/><polygon class="cls-45" points="784.54 390.82 779.66 433.08 811.21 433.22 820.12 390.99 784.54 390.82"/><path class="cls-30" d="M886.21,291.74l-34.6,38.31s-47.51-10.77-66.27-14.86c12.5-30.11,32.36-56.92,54.18-79.78l46.68,56.33Z"/><path class="cls-28" d="M1139.31,375.88l-48.48-9.71-18.38-33.07,56.58-8.91c5.91,16.38,9.61,33.64,10.28,51.7Z"/><polygon class="cls-66" points="1134.97 386.89 1139.6 429.19 1108.05 429.05 1099.39 386.73 1134.97 386.89"/><path class="cls-6" d="M1125.21,314.43c-21.79,4.62-57.09,12.3-57.09,12.3l-34.37-38.64,41.18-48.96c20.16,21.88,38.39,47.17,50.28,75.3Z"/><path class="cls-42" d="M1004.64,178.21c-4.95,33.7-15.04,98.58-19.37,98-5.84-.78-47.24-2.82-47.24-2.82l-22.85-100.74c23.89-15.99,41.08-24.64,41.08-24.64,0,0,20.8,10.68,48.38,30.2Z"/><path class="cls-9" d="M1045.35,210.3l-36.02,72.15-13.67-6.19s21.12-58.9,30.42-82.03c6.32,4.99,12.79,10.35,19.27,16.07Z"/><polygon class="cls-25" points="1053.92 889 1053.9 889.68 847 888.68 846.99 888 1053.92 889"/><path class="cls-16" d="M859.64,259.67s33.26,46.53,35,46.02,45.57-17.6,45.57-17.6l-17.13-80.57s12.81,69.13,12.43,71.25c-.38,2.13-38.97,17.64-43.04,17.41-4.08-.23-32.84-36.5-32.84-36.5Z"/><path class="cls-32" d="M782.13,390.81c1.29.07,40.49-1.27,40.48.19,0,1.45-9.3,42.24-9.3,42.24l-31.31-.14,44.93.21,4.87-47.4-49.67,4.92Z"/><polygon class="cls-38" points="820.72 625.97 781.42 632.26 820.7 631.08 820.72 625.97"/><path class="cls-19" d="M1134.63,433.41l-28.99,1.87-.09,29.88,29.54.14s-37.81,4.18-37.81,3.48c0-.69-4.88-40.97-4.88-40.97l42.23,5.6Z"/><polygon class="cls-3" points="1045.19 264.53 1025.82 288.48 1060.97 327.56 1105.98 318.54 1054.75 335.64 1001.61 299.87 1045.19 264.53"/><path class="cls-7" d="M1144.63,902.05l18.25-388.76c-5.82,158.88-14.28,348.6-16.27,390.48l-1.98-1.73Z"/><path class="cls-4" d="M1167.02,389.39c-1,35.37-2.4,77.1-4.04,121.27l-27.66,9.43-2.76,87.49-1.06.99c2.29-102.89,3.38-202.3.05-232.74-14.34-131.18-175.41-189.45-175.41-189.45,0,0-155.74,48.85-173.96,187.84-12.15,92.73,10.52,505.9,10.52,505.9l-26.9,21.9c-2.96-70.05-14.71-354.93-18.19-511.37-1.95-87.75,55.77-159.92,104.58-204.99,46.91-43.36,94.8-70.72,106-76.87,11.13,6.09,58.66,33.09,105.29,76.08,48.61,44.84,106.03,116.7,103.53,204.51Z"/><path class="cls-57" d="M1163.01,510.66l-.07,1.08c.03-.36.03-.72.04-1.08h.03Z"/><polygon class="cls-63" points="1137.17 487.4 1197.89 483.55 1194.1 490.14 1137.17 487.4"/><path class="cls-1" d="M1107.24,489.07l-15.98,417.02-261.52-1.27-5.98-411.12s-.02-5.04.72-13.37c-.15-3.29-.22-6.6-.21-9.93.28-94.35,63.84-170.54,141.97-170.18,78.13.36,141.24,77.13,140.97,171.48-.01,4.04-.14,8.05-.38,12.01.33,3.43.41,5.36.41,5.36Z"/><g id="Background"><path class="cls-68" d="M1079.83,828.02c.18.01,2.45-1.99,3.16-.28.35.85-1.63,22.48,1.8,11.54.07,13.04-.05,26.08,0,39.12q1.8,0,3.61,0V350.93c-.92-1.83-1.34.66-3.16,1.97.07-1.2.91-2.76-.9-1.69.17-.17,1.99-3.83,2.48-4.5q-124.35.28-248.7.56c-2.31-2.24-2.4-1.74-1.8,2.81q0,263.46,0,526.91l.23,2.81c7.26,1.26,1.6-6.15,5.19-6.19.08,2.76-.75,3.81,1.35,6.19-.95,2.29-18.57,30.92-21.19,23.08q.9.14,1.8.28c1.12-180.98.44-362.19.45-543.24-.92-3.36-.2-6.52-1.8-10.41.27-5.58-4.19-14.87,0-16.89,145.72-70.27,146.51-72.27,281.84,0,6.16,3.29.21,16.52,0,24.77-.4,15.46-.75,30.98-.9,46.44-1.61,165.46,1.43,331.04,0,496.51-.85,3.89-3.86,4.51-6.54,3.1-1.16-.62-16.56-21.85-16.91-23.36-.68-2.9.51-43.03,0-52.07Z"/><path class="cls-62" d="M1104.18,357.4c.21-8.25,1.15-16.52,0-24.77,3.01.02,6.01-.04,9.02,0-.42,3.15.55,22.95,0,23.92-.26.46-7.77.49-9.02.84Z"/><path class="cls-64" d="M815.12,332.63c2.4-.02,4.81.02,7.22,0-.2,5.6.27,11.31,0,16.89-.16,3.44.63,6.08-1.35,9.01.2-2.43-5.21-.26-5.86-1.41-.57-1,.43-21.28,0-24.49Z"/><path class="cls-50" d="M821.89,902.89q-.45-.7-.9-1.41,0-271.48,0-542.95c1.99-2.93,1.19-5.56,1.35-9.01,1.6,3.9.89,7.05,1.8,10.41-.01,181.05.67,362.26-.45,543.24q-.9-.14-1.8-.28Z"/><path class="cls-68" d="M841.73,873.61c-.42-14.59.2-29.3,0-43.91,2.75.6,1.4-1.77,2.03-2.25.21-.16.14,1.35.68,1.13-.56,9.77.74,45.97,0,49.82-.1.52-1.31,1.31-1.35,1.41-2.1-2.38-1.27-3.43-1.35-6.19Z"/><path class="cls-15" d="M1084.79,839.28c-.05-10.51.02-21.02,0-31.52-.23-120.84-.03-241.69,0-362.53,0-27.62-1.15-66.2.45-92.32,1.82-1.31,2.24-3.8,3.16-1.97v527.47q-1.8,0-3.61,0c-.05-13.04.07-26.08,0-39.12Z"/><path class="cls-15" d="M836.32,876.99q0-263.46,0-526.91,1.58,2.11,3.16,4.22,0,262.05,0,524.1c-.53,1.5-3.7,1.38-3.16-1.41Z"/><path class="cls-51" d="M843.08,353.46c-1.79-1.17-3.71-4.98-4.96-6.19q124.35-.28,248.7-.56c-.49.67-2.31,4.33-2.48,4.5-.71.72-1.45,1.35-2.03,2.25h-239.23Z"/><path class="cls-49" d="M836.32,876.99c-.54,2.78,2.63,2.9,3.16,1.41q0-262.05,0-524.1-1.58-2.11-3.16-4.22c-.59-4.55-.51-5.05,1.8-2.81,1.25,1.21,3.17,5.02,4.96,6.19-3.05.98-2.9,10.17-2.71,13.79.08,1.59,1.8,3.17,1.8,3.38.26,8.13-.96,16.68-.9,24.77.03,3.73.89,8.1.9,11.82.19,44.33.15,89.11-.9,133.42-.02.68.69,4.84.45,13.51-.01.51-1.34.05-1.35.56-.35,11.34-.05,22.73,1.8,33.78-1.22,22.68-.04,44.89,0,67.55,0,.33-1.59,3.84,0,6.19-1.56,46.15.62,92.36-.45,138.48-.01.51-1.34.05-1.35.56-.28,10.68,1.26,21.48,1.35,28.43.2,14.61-.42,29.32,0,43.91-3.59.04,2.08,7.45-5.19,6.19l-.23-2.81Z"/><path class="cls-12" d="M1053.67,810c8.7-.4,17.45.53,26.15-.28q0-112.17,0-224.33c4.36-.43,2.09-10.95,2.25-14.92-2.14-.15-1.72-1.29-2.25-1.41q0-99.92,0-199.84c1.59.26,2.25-.77,2.48-.56,1.34,36.48-.06,73.42.23,110.05,0,.12,1.35.81,1.35,1.69.1,13.77-.07,27.58,0,41.38.16,30.48.11,61,0,91.48,0,.42-.9.14-.9.56-.21,60.64-.5,121.42,0,182.11-.92,5.42,1.05,10.06-1.35,14.64-4.01.5-26.42,1.13-27.73.56-.35-.15-.23-.73-.23-1.13Z"/><path class="cls-68" d="M1082.98,795.93c-.5-60.69-.21-121.47,0-182.11,0-.42.9-.14.9-.56.11-30.48.16-61,0-91.48q.45-38.28.9-76.56c-.03,120.84-.23,241.69,0,362.53-2.58-1.24.45-11.4-1.8-11.82Z"/></g></g></g></g></g></svg>