<?xml version="1.0" encoding="UTF-8"?><svg xmlns="http://www.w3.org/2000/svg" xmlns:xlink="http://www.w3.org/1999/xlink" viewBox="0 0 1920 1080"><defs><style>.cls-1{fill:url(#_ÂÁ_Ï_ÌÌ_È_ËÂÌÚ_8-6);}.cls-1,.cls-2,.cls-3,.cls-4,.cls-5,.cls-6,.cls-7,.cls-8,.cls-9,.cls-10,.cls-11,.cls-12,.cls-13,.cls-14,.cls-15,.cls-16,.cls-17,.cls-18,.cls-19,.cls-20,.cls-21,.cls-22,.cls-23,.cls-24,.cls-25,.cls-26,.cls-27,.cls-28,.cls-29,.cls-30,.cls-31,.cls-32,.cls-33,.cls-34,.cls-35,.cls-36,.cls-37,.cls-38,.cls-39,.cls-40,.cls-41,.cls-42,.cls-43,.cls-44,.cls-45,.cls-46,.cls-47,.cls-48,.cls-49,.cls-50,.cls-51,.cls-52,.cls-53,.cls-54,.cls-55,.cls-56,.cls-57,.cls-58,.cls-59,.cls-60,.cls-61,.cls-62,.cls-63,.cls-64,.cls-65,.cls-66,.cls-67,.cls-68,.cls-69,.cls-70,.cls-71,.cls-72,.cls-73,.cls-74,.cls-75,.cls-76,.cls-77,.cls-78,.cls-79,.cls-80{stroke-width:0px;}.cls-1,.cls-4,.cls-12,.cls-20,.cls-25,.cls-27,.cls-43,.cls-47,.cls-63,.cls-65,.cls-66{mix-blend-mode:multiply;}.cls-1,.cls-4,.cls-12,.cls-25,.cls-27,.cls-43,.cls-47,.cls-63,.cls-66{opacity:.2;}.cls-2{fill:#644646;}.cls-3{fill:#525a55;}.cls-4{fill:url(#_ÂÁ_Ï_ÌÌ_È_ËÂÌÚ_8-9);}.cls-5{fill:#81493c;}.cls-6{fill:url(#_ÂÁ_Ï_ÌÌ_È_ËÂÌÚ_12-2);}.cls-7{fill:#4f1e05;}.cls-8{fill:url(#_ÂÁ_Ï_ÌÌ_È_ËÂÌÚ_10-3);}.cls-9{fill:#4b5661;}.cls-10{fill:#386f7d;}.cls-11{fill:url(#linear-gradient);}.cls-12{fill:url(#_ÂÁ_Ï_ÌÌ_È_ËÂÌÚ_8-5);}.cls-13{fill:#d3d5d1;}.cls-14{fill:#54707a;}.cls-15{fill:#46163d;}.cls-16{fill:#de8369;}.cls-17{fill:url(#_ÂÁ_Ï_ÌÌ_È_ËÂÌÚ_10-2);}.cls-18{fill:#552531;}.cls-19{fill:#9be2e8;}.cls-20{fill:url(#_ÂÁ_Ï_ÌÌ_È_ËÂÌÚ_8-10);}.cls-20,.cls-71{opacity:.6;}.cls-21{fill:#686b64;}.cls-22{fill:#6b2c39;}.cls-23{fill:#a35e2c;}.cls-81{isolation:isolate;}.cls-24{fill:#49909e;}.cls-25{fill:url(#_ÂÁ_Ï_ÌÌ_È_ËÂÌÚ_8-3);}.cls-26{fill:#6e7b79;}.cls-27{fill:url(#_ÂÁ_Ï_ÌÌ_È_ËÂÌÚ_8-7);}.cls-28{fill:#381a33;}.cls-29{fill:#4d7f88;}.cls-30{fill:#3b1f2c;}.cls-31{fill:url(#_ÂÁ_Ï_ÌÌ_È_ËÂÌÚ_13);}.cls-32{fill:url(#linear-gradient-5);}.cls-33{fill:#6b3212;}.cls-34{fill:url(#_ÂÁ_Ï_ÌÌ_È_ËÂÌÚ_10-4);}.cls-35{fill:#c46a2d;}.cls-36{fill:#240e49;}.cls-37{fill:#3f1a1c;}.cls-38{fill:url(#_ÂÁ_Ï_ÌÌ_È_ËÂÌÚ_15);}.cls-39{fill:url(#_ÂÁ_Ï_ÌÌ_È_ËÂÌÚ_11-4);}.cls-39,.cls-46,.cls-53,.cls-62,.cls-65,.cls-79{opacity:.4;}.cls-39,.cls-46,.cls-53,.cls-62,.cls-71,.cls-79{mix-blend-mode:screen;}.cls-40{fill:#d79151;}.cls-41{fill:#907e71;}.cls-42{fill:#edb67d;}.cls-43{fill:url(#_ÂÁ_Ï_ÌÌ_È_ËÂÌÚ_8-8);}.cls-44{fill:#934f36;}.cls-45{fill:url(#linear-gradient-2);}.cls-46{fill:url(#_ÂÁ_Ï_ÌÌ_È_ËÂÌÚ_11);}.cls-47{fill:url(#_ÂÁ_Ï_ÌÌ_È_ËÂÌÚ_8);}.cls-48{fill:#0f0c0f;}.cls-49{fill:url(#linear-gradient-3);}.cls-50{fill:#f8bf7d;}.cls-51{fill:#09474f;}.cls-52{fill:#2c2121;}.cls-53{fill:url(#_ÂÁ_Ï_ÌÌ_È_ËÂÌÚ_11-5);}.cls-54{fill:#df775a;}.cls-55{fill:#191724;}.cls-56{fill:#4f4c54;}.cls-57{fill:#261e1d;}.cls-58{fill:#70afba;}.cls-59{fill:url(#_ÂÁ_Ï_ÌÌ_È_ËÂÌÚ_6);}.cls-60{fill:url(#_ÂÁ_Ï_ÌÌ_È_ËÂÌÚ_10);}.cls-61{fill:url(#_ÂÁ_Ï_ÌÌ_È_ËÂÌÚ_62);}.cls-62{fill:url(#_ÂÁ_Ï_ÌÌ_È_ËÂÌÚ_11-3);}.cls-63{fill:url(#_ÂÁ_Ï_ÌÌ_È_ËÂÌÚ_8-4);}.cls-64{fill:#42616d;}.cls-65{fill:url(#_ÂÁ_Ï_ÌÌ_È_ËÂÌÚ_9);}.cls-66{fill:url(#_ÂÁ_Ï_ÌÌ_È_ËÂÌÚ_8-2);}.cls-67{fill:#1b1008;}.cls-68{fill:#8d4d22;}.cls-69{fill:url(#_ÂÁ_Ï_ÌÌ_È_ËÂÌÚ_12);}.cls-70{fill:#271b27;}.cls-71{fill:url(#_ÂÁ_Ï_ÌÌ_È_ËÂÌÚ_7);}.cls-72{fill:#0e0e0c;}.cls-73{fill:url(#linear-gradient-4);}.cls-74{fill:#ec895a;}.cls-75{fill:#a98d79;}.cls-76{fill:#604f50;}.cls-77{fill:#d6a582;}.cls-78{fill:#d38b62;}.cls-79{fill:url(#_ÂÁ_Ï_ÌÌ_È_ËÂÌÚ_11-2);}.cls-80{fill:#103e4b;}</style><linearGradient id="_ÂÁ_Ï_ÌÌ_È_ËÂÌÚ_62" x1="969.69" y1="1129.23" x2="947.32" y2="-230.65" gradientUnits="userSpaceOnUse"><stop offset="0" stop-color="#4e0021"/><stop offset=".02" stop-color="#4a0022"/><stop offset=".12" stop-color="#340329"/><stop offset=".24" stop-color="#25052e"/><stop offset=".38" stop-color="#1c0632"/><stop offset=".58" stop-color="#1a0733"/></linearGradient><linearGradient id="linear-gradient" x1="1569.87" y1="158.36" x2="1431.57" y2="842.86" gradientUnits="userSpaceOnUse"><stop offset="0" stop-color="#455360"/><stop offset=".37" stop-color="#594d51"/><stop offset=".64" stop-color="#85493b"/><stop offset="1" stop-color="#cc702c"/></linearGradient><linearGradient id="linear-gradient-2" x1="1049.81" y1="911.03" x2="1048.92" y2="1016.14" gradientUnits="userSpaceOnUse"><stop offset="0" stop-color="#f9d295"/><stop offset="1" stop-color="#f7b672"/></linearGradient><linearGradient id="linear-gradient-3" x1="1315.72" y1="503.44" x2="1207.39" y2="840.83" gradientUnits="userSpaceOnUse"><stop offset="0" stop-color="#c97562"/><stop offset="1" stop-color="#804045"/></linearGradient><linearGradient id="linear-gradient-4" x1="952.08" y1="463.7" x2="1015.66" y2="916.1" gradientUnits="userSpaceOnUse"><stop offset="0" stop-color="#f7bb81"/><stop offset="1" stop-color="#e19766"/></linearGradient><linearGradient id="linear-gradient-5" x1="660.44" y1="494.69" x2="681.9" y2="897.42" gradientUnits="userSpaceOnUse"><stop offset="0" stop-color="#c67360"/><stop offset="1" stop-color="#783b41"/></linearGradient><linearGradient id="_ÂÁ_Ï_ÌÌ_È_ËÂÌÚ_15" x1="968.08" y1="536.1" x2="969.89" y2="896.87" gradientUnits="userSpaceOnUse"><stop offset="0" stop-color="#4b3f57"/><stop offset=".53" stop-color="#7f3e4c"/><stop offset="1" stop-color="#683e4b"/></linearGradient><linearGradient id="_ÂÁ_Ï_ÌÌ_È_ËÂÌÚ_13" x1="966.81" y1="868.34" x2="966.81" y2="602.77" gradientUnits="userSpaceOnUse"><stop offset="0" stop-color="#94494e"/><stop offset="1" stop-color="#69414c"/></linearGradient><linearGradient id="_ÂÁ_Ï_ÌÌ_È_ËÂÌÚ_12" x1="802.94" y1="740.58" x2="822.89" y2="749.43" gradientUnits="userSpaceOnUse"><stop offset="0" stop-color="#94494e"/><stop offset="1" stop-color="#98e1e8"/></linearGradient><linearGradient id="_ÂÁ_Ï_ÌÌ_È_ËÂÌÚ_12-2" x1="874.51" y1="605.22" x2="890.5" y2="605.22" xlink:href="#_ÂÁ_Ï_ÌÌ_È_ËÂÌÚ_12"/><linearGradient id="_ÂÁ_Ï_ÌÌ_È_ËÂÌÚ_11" x1="725.77" y1="801.54" x2="842.67" y2="756.68" gradientUnits="userSpaceOnUse"><stop offset=".01" stop-color="#da7a58"/><stop offset=".28" stop-color="#96543c"/><stop offset=".63" stop-color="#46271c"/><stop offset=".88" stop-color="#130a07"/><stop offset="1" stop-color="#000"/></linearGradient><linearGradient id="_ÂÁ_Ï_ÌÌ_È_ËÂÌÚ_11-2" x1="1197.63" y1="752.12" x2="1078.09" y2="699.49" xlink:href="#_ÂÁ_Ï_ÌÌ_È_ËÂÌÚ_11"/><linearGradient id="_ÂÁ_Ï_ÌÌ_È_ËÂÌÚ_8" x1="877.25" y1="595.58" x2="854.05" y2="857.41" gradientUnits="userSpaceOnUse"><stop offset="0" stop-color="#61202f"/><stop offset="1" stop-color="#da7a58"/></linearGradient><linearGradient id="_ÂÁ_Ï_ÌÌ_È_ËÂÌÚ_8-2" x1="882.45" y1="601.11" x2="859.9" y2="855.55" xlink:href="#_ÂÁ_Ï_ÌÌ_È_ËÂÌÚ_8"/><linearGradient id="_ÂÁ_Ï_ÌÌ_È_ËÂÌÚ_11-3" x1="1023.07" y1="821.59" x2="1088.8" y2="808.87" xlink:href="#_ÂÁ_Ï_ÌÌ_È_ËÂÌÚ_11"/><linearGradient id="_ÂÁ_Ï_ÌÌ_È_ËÂÌÚ_11-4" x1="1035.56" y1="862.99" x2="1097.02" y2="851.1" xlink:href="#_ÂÁ_Ï_ÌÌ_È_ËÂÌÚ_11"/><linearGradient id="_ÂÁ_Ï_ÌÌ_È_ËÂÌÚ_8-3" x1="874.38" y1="601.74" x2="851.85" y2="855.95" xlink:href="#_ÂÁ_Ï_ÌÌ_È_ËÂÌÚ_8"/><linearGradient id="_ÂÁ_Ï_ÌÌ_È_ËÂÌÚ_11-5" x1="935.85" y1="739.07" x2="837.38" y2="688.1" xlink:href="#_ÂÁ_Ï_ÌÌ_È_ËÂÌÚ_11"/><linearGradient id="_ÂÁ_Ï_ÌÌ_È_ËÂÌÚ_8-4" x1="890.88" y1="602.89" x2="868.56" y2="854.75" xlink:href="#_ÂÁ_Ï_ÌÌ_È_ËÂÌÚ_8"/><linearGradient id="_ÂÁ_Ï_ÌÌ_È_ËÂÌÚ_8-5" x1="1070.79" y1="615.3" x2="1048.52" y2="866.57" xlink:href="#_ÂÁ_Ï_ÌÌ_È_ËÂÌÚ_8"/><linearGradient id="_ÂÁ_Ï_ÌÌ_È_ËÂÌÚ_8-6" x1="1081.86" y1="614.51" x2="1059.03" y2="872.1" xlink:href="#_ÂÁ_Ï_ÌÌ_È_ËÂÌÚ_8"/><linearGradient id="_ÂÁ_Ï_ÌÌ_È_ËÂÌÚ_8-7" x1="1051.46" y1="613.94" x2="1028.99" y2="867.43" xlink:href="#_ÂÁ_Ï_ÌÌ_È_ËÂÌÚ_8"/><linearGradient id="_ÂÁ_Ï_ÌÌ_È_ËÂÌÚ_8-8" x1="968.04" y1="608.19" x2="945.53" y2="862.2" xlink:href="#_ÂÁ_Ï_ÌÌ_È_ËÂÌÚ_8"/><linearGradient id="_ÂÁ_Ï_ÌÌ_È_ËÂÌÚ_8-9" x1="1010.48" y1="610.98" x2="987.93" y2="865.33" xlink:href="#_ÂÁ_Ï_ÌÌ_È_ËÂÌÚ_8"/><linearGradient id="_ÂÁ_Ï_ÌÌ_È_ËÂÌÚ_10" x1="930.72" y1="598.6" x2="924.2" y2="745.57" gradientUnits="userSpaceOnUse"><stop offset="0" stop-color="#a61837"/><stop offset=".02" stop-color="#991739"/><stop offset=".09" stop-color="#781741"/><stop offset=".16" stop-color="#5c1647"/><stop offset=".24" stop-color="#46164c"/><stop offset=".33" stop-color="#37164f"/><stop offset=".43" stop-color="#2e1651"/><stop offset=".58" stop-color="#2c1652"/></linearGradient><linearGradient id="_ÂÁ_Ï_ÌÌ_È_ËÂÌÚ_10-2" x1="871.32" y1="595.19" x2="864.74" y2="743.78" xlink:href="#_ÂÁ_Ï_ÌÌ_È_ËÂÌÚ_10"/><linearGradient id="_ÂÁ_Ï_ÌÌ_È_ËÂÌÚ_10-3" x1="1075.45" y1="604.2" x2="1068.98" y2="750.23" xlink:href="#_ÂÁ_Ï_ÌÌ_È_ËÂÌÚ_10"/><linearGradient id="_ÂÁ_Ï_ÌÌ_È_ËÂÌÚ_10-4" x1="1033.24" y1="602.51" x2="1026.77" y2="748.52" xlink:href="#_ÂÁ_Ï_ÌÌ_È_ËÂÌÚ_10"/><linearGradient id="_ÂÁ_Ï_ÌÌ_È_ËÂÌÚ_9" x1="1096.12" y1="822.73" x2="1102.54" y2="823.65" gradientTransform="translate(1.85 -3.31) rotate(.21)" gradientUnits="userSpaceOnUse"><stop offset="0" stop-color="#48130d"/><stop offset="1" stop-color="#8b6b3b"/></linearGradient><linearGradient id="_ÂÁ_Ï_ÌÌ_È_ËÂÌÚ_8-10" x1="900.15" y1="739.08" x2="1040.93" y2="759.19" gradientTransform="translate(1.85 -3.31) rotate(.21)" xlink:href="#_ÂÁ_Ï_ÌÌ_È_ËÂÌÚ_8"/><linearGradient id="_ÂÁ_Ï_ÌÌ_È_ËÂÌÚ_7" x1="1103.9" y1="741.47" x2="1104.23" y2="741.21" gradientTransform="translate(1.85 -3.31) rotate(.21)" gradientUnits="userSpaceOnUse"><stop offset="0" stop-color="#edb67d"/><stop offset="1" stop-color="#000"/></linearGradient><linearGradient id="_ÂÁ_Ï_ÌÌ_È_ËÂÌÚ_6" x1="967.84" y1="913.98" x2="965.7" y2="554.73" gradientUnits="userSpaceOnUse"><stop offset="0" stop-color="#535263"/><stop offset=".56" stop-color="#5a5371"/><stop offset="1" stop-color="#60252f"/></linearGradient></defs><g class="cls-81"><g id="Layer_2"><g id="piece_entree"><g id="Background"><path class="cls-61" d="M0,0v1080h1920V0H0ZM1050.06,902.13h-161.39v-225.33h161.39v225.33Z"/><path class="cls-55" d="M1910.63.04c-.16,116.37-1.64,232.72-1.87,349.09-52.32-5.01-78.99-19.33-83.41-20.04-6.05-.97-38.4.43-50.61-4.22h-117.15c-7.07-13.61-35.7-84.02-39.36-88.06-3.85-4.25-12.17-3.89-15-6.33-5.48-4.73-19.48-62.32-99.34-95.45-18.66-7.74-40.45-13.06-59.98-20.04-71.36-25.51-64.29-24.05-144.33-44.3-14.75-3.73-30.05-7.04-44.99-10.55-36.89-8.66-72.75-16.89-110.59-24.26-23.92-4.66-142.83-26.67-158.39-27.42-30.99-1.49-62.24,7.96-90.91,12.66-25.82,4.23-50.61,9.55-53.42,9.49-7.71-.15-5.13-4.35-9.37-5.27-10.56-2.31-130.65,22.33-150.89,26.37-9.5,1.9-12.45,3.03-13.12,3.16-29.3,6-59.27,11.13-88.1,17.93-26.03,6.14-51.59,12.96-76.85,20.04-19.15,5.37-37.76,10.78-56.23,16.87-17.09,5.64-34.6,11.35-50.61,17.93-4.39,1.8-8.83,3.36-13.12,5.27-73.63,32.88-101.2,79.72-112.46,87.01-4.39,2.84-10.4,3.35-15,5.8-13,6.93-17.75,28.12-24.37,38.49-21.34,33.47-44.65,66.63-65.6,100.19h-7.5c5.88-19.46-57.08-42.25-70.29-43.77-7.1-.82-36.13.31-50.61,0-1.22-.03-8.53-5.16-15.93.53,2.42,13.16-7.27,10.93-7.5,11.6-1.44,4.18.38,22.51,0,31.11-1.1,24.55.16,49.25,0,73.83-.24,36.88-1.23,73.88,1.87,110.74,4.82,57.32,19.91,113.85,37.49,170.33q14.06.26,28.12.53c.86,3.02,24.58,22.89,29.99,28.48q16.87,20.3,33.74,40.6c-2.89,2.08-30.77-7.13-44.05-5.8-37.25,3.74-17.63,57.54-8.43,66.44-33.63-13.53-15.58-1.27-1.87,7.91,19.38,12.98,39.69,19.79,41.24,21.09.84.71-.84,4.53,0,5.27,46.86,41.57,37.44,40.39,126.52,73.3,4.74-1.99,1.27-1.75-.94-4.22h1.87c7.45,3.04,55.69,26.88,56.23,29,.34,1.36-8.77,9.69-7.5,13.71.87,2.74,25.49,14.5,26.24,15.82.78,1.36-.47,5.8,0,8.96.25,1.71.05,3.55,0,5.27-.13,4.63.97,9.2-1.87,13.71l-.94,3.16c-106.28-.93-212.91-4.67-317.71-14.77,0-.35,0-.7,0-1.05-5.56-2.41,0-6.43,0-6.86.67-34.07,1.52-68.24,1.87-102.3.02-1.62-7.07-3.94-5.62-31.64.02-.35,5.58-1.15,5.62-6.33.12-15.59,1.74-108.29,0-113.9-.41-1.32-7.89-1.45-5.62-4.22.88-1.07,5.38-.03,5.62-1.05,1.72-7.15.33-16.11-15-15.29-.18-147.65-.22-295.3,0-442.95,12.2,2.28,3.72,13.56,11.25,11.07.75-8.61-2.95-16.39,3.75-24.26Q14.67,144.26,13.73.04h1896.9Z"/><path class="cls-48" d="M1910.63.04h9.37v1079.96h-9.37v-74.88c-1.03-176.48-1.92-352.96-1.87-529.44,0-13.71-.02-27.42,0-41.13.02-20.74-.04-41.48,0-62.22.01-7.73-.02-15.47,0-23.2.23-116.37,1.71-232.72,1.87-349.09Z"/><path class="cls-48" d="M13.73.04q.94,144.22,1.87,288.45c-6.7,7.87-3,15.64-3.75,24.26-7.52,2.48.95-8.8-11.25-11.07C.76,201.12.49,100.58.61.04,4.94-.11,9.41.24,13.73.04Z"/><path class="cls-48" d="M13.73,1026.21q-6.56,1.05-13.12,2.11c-1.42-94.54.11-189.15,0-283.7,15.33-.82,16.71,8.15,15,15.29-.25,1.03-4.75-.01-5.62,1.05-2.27,2.76,5.21,2.9,5.62,4.22,1.74,5.61.12,98.31,0,113.9-.04,5.18-5.6,5.97-5.62,6.33-1.45,27.7,5.64,30.02,5.62,31.64-.36,34.07-1.21,68.23-1.87,102.3,0,.43-5.56,4.45,0,6.86Z"/><path class="cls-67" d="M13.73,1026.21c0,.35,0,.7,0,1.05-.45,17.53-5.1,35.19,0,52.73H.61c-.19-17.22.26-34.45,0-51.68q6.56-1.05,13.12-2.11Z"/><path class="cls-11" d="M1503.88,135.03c27.55,15.35,75.9,94.83,68.42,98.08-.89.39-16.45.73-21.56,3.69,46.59,61.61,84.96,124.85,125.59,187.73-27.62,23.67,6.45,41.94,7.5,44.3,1.26,2.82,5.53,51.44,5.62,58.01.37,26.61-10.33,10.62-16.87,15.82-5.87,4.67,9.36,101.82,5.62,114.43-2.62,8.86-139.92,139.34-159.32,155.56-26.47,22.12-64.51,45.41-76.85,56.42-1.15-7.77-29.08-21.87-33.74-26.37-.85-.82-1.34-8.63-1.87-8.96-2.8-1.78-72.09,7.7-82.47,8.96,12.51-114.25,5.42-228.76-9.37-342.76-1.13-7.99,4.1-14.02,0-22.15-2.69-5.33-8.11-4.22-16.87-7.38q7.97-5.8,15.93-11.6,16.87,9.49,33.74,18.98c7.26-12.21,25.99-57.13,21.56-66.97-.45-1-13.36-6.75-13.12-13.71.05-1.43,11.24-18.91,13.12-24.26,12.81-36.43,25.72-73.42,24.37-110.74,2.57-3.56,45.68,7.51,48.73,3.16q.94-75.14,1.87-150.29c19.53,6.98,41.32,12.3,59.98,20.04Z"/><path class="cls-19" d="M1144,35.89c14.12,27.89,26.25,56.08,37.49,84.37,2.96,7.45,4.77,14.79,7.5,22.15-24.45,50.56-68.49,97.64-86.22,149.23q-55.3,50.62-110.59,101.25c-7.25,5.75-18.42-12.07-32.8-20.57-12.95,10.58-44.82,27.24-35.61,37.97-23.37-26.39-41.24-64.88-62.79-90.17-9.43-11.07-37.51-28.77-54.36-61.17-4.03-7.74-6-22.39-11.25-22.68,5.94-34.59,19.42-68.29,28.12-102.83,24.39-32.96,85.2-78.66,71.23-112.32,28.67-4.7,59.92-14.15,90.91-12.66,15.56.75,134.46,22.76,158.39,27.42Z"/><path class="cls-9" d="M669.77,457.76c-12.29.43-23.1,6.29-27.18,7.38-.95.25-.93-2.37-1.87-2.11-1.54.43-20.89,9.18-28.12,9.49-16.23-10.97,11.36-15.3,10.31-18.46-.25-.74-16.14-8.91-19.68-6.86,5.32,9.03-4.65,7.48-6.56,11.07-2.72,5.1-6.36,24.1-5.62,29.53.13.98,5.44.07,5.62,1.05.3,1.57-3.8,3.98-3.75,4.22.71,3.14,2.91,1.99,3.75,4.75-50.87,8.27-31.65-.93-77.79-21.09-3.97,1.81,17.73,37.41,19.68,43.24,2.54,7.61,5.66,20.78-1.87,17.93-.47-.37-4.14-1.36-9.37-7.38-11.96-13.77-23.2-45.92-31.86-53.79,3.25-1.6,15.63-.71,16.87-2.64,1.22-1.9-12.43-34.2-9.37-40.08-13.72-.76-9.38,32.38-20.62,35.33-5.84-7.37.61-38.15-1.87-49.04-1.62-7.1-35.65-66.88-42.17-69.08-6.64-2.24-14.3-1.84-21.56-2.11-10.81-.41-15.99,3.35-15-1.58q18.74-31.11,37.49-62.22c-18.17-6.39-96.12-46.41-102.16-47.99-12.77-3.34-26.23-.4-32.8-5.27,22.51-34.16,44.22-68.08,78.73-99.14,4.29-1.92,8.73-3.47,13.12-5.27,22.05,11.49,154.34,66.09,161.2,73.3.25.26,1.1,3.86,1.87,5.8,5.43,13.6.89,144.15,10.31,176.13,2.94.14,18.78-27.97,19.68-31.11,6.38-22.26,5.58-115.18,7.5-148.71.81-14.11,8.1-40.09,7.5-42.19-2.31-7.99-85.15-57.95-101.22-68.03,25.26-7.08,50.82-13.9,76.85-20.04,4.34,28.19,16.67,52.27,33.74,78.57,4.48,6.9,14.79,13.92,15,14.77.49,2.01-10.59,33.48-11.25,40.08-1.67,16.8,3.01,71.17,5.62,90.7,7.27,54.38,25.82,107.65,46.86,160.83Z"/><path class="cls-54" d="M304.26,232.06c-7.05,7.05,30.47,2.91,31.86,7.91-23.82,26.39-46.21,53.15-65.6,80.68-5.31,7.54-10.36,14.42-15,22.15-2.87,4.79-7.45,8.49-9.37,13.71-24.8,35.32-51.33,70.57-73.1,106.52-17.03,28.13-5.01,10.81,1.87,19.51,2.55,3.22,7.42,63.6,11.25,70.13,3.78,6.47,8.96,4.25,11.25,5.27q-4.69.26-9.37.53c3.2,14.53,41.6,105.37,55.3,109.16,1.87.52,26.82.84,40.3,5.8,7.68,14.01,54.7,99.8,59.98,104.41,8.83,7.71,25.1-9.83,37.49-1.05,4.6,3.26,42.22,68.47,48.73,78.57-8.32.51-31.3,3.87-43.11,5.27-42.52-53.22-41.39-57.67-13.12,1.58,3.48,2.68,3.47.51,5.62.53,4.64,39.52,1.97,56.72,28.12,94.92-16.8-.65-33.81-1.56-50.61-2.11-44.74-58.69-74.51-120.43-110.59-180.87-18.75-31.41-52.71-74.4-67.48-103.36-22.9-44.88-30.63-105.39-33.74-110.74-1.36-2.33-52.3-36.39-56.23-37.44-3.65-.97-19.91,1.76-24.37,3.16,15.39-40.3,67.54-97.91,78.73-121.29.84-1.76,1.25-3.5,1.87-5.27,40.87-57.17,77.56-115.27,110.59-174.02,4.6-2.45,10.61-2.96,15-5.8,11.27-7.29,38.83-54.12,112.46-87.01-34.5,31.05-56.22,64.97-78.73,99.14Z"/><path class="cls-14" d="M1443.9,114.99q-.94,75.14-1.87,150.29c-3.05,4.35-46.17-6.72-48.73-3.16,1.35,37.32-11.55,74.31-24.37,110.74-1.88,5.35-13.07,22.83-13.12,24.26-.24,6.96,12.67,12.71,13.12,13.71,4.43,9.84-14.3,54.76-21.56,66.97q-16.87-9.49-33.74-18.98-7.97,5.8-15.93,11.6c-7.13-2.57-15-5.19-22.49-7.38,21.67-27.19,18.91-60.4,54.36-83.84q-21.56-1.32-43.11-2.64c1.85-3.46,4.26-61.59,5.62-72.24,1.33-10.41,13.73-58.11,13.12-61.17-.24-1.18-11.9-12.14-15-22.15-12.65-40.82-4.65-85.43,1.87-126.56,1.06-6.69,3.32-18.97,7.5-23.73,80.04,20.25,72.97,18.79,144.33,44.3Z"/><path class="cls-9" d="M894.7,21.13c13.98,33.66-46.84,79.36-71.23,112.32-8.69,34.54-22.18,68.24-28.12,102.83-5.37,31.26-6.66,63.04-11.25,94.39-1.58,10.79-15.52,62.11-15,65.39.18,1.16,12.67,17.95,15,21.62,11.59,20.27-13.77,10.65-44.99,23.2-1.18.12-2.53-.06-3.75,0-3.42.18-6.31-.82-5.62,2.11-1.23.07-2.52-.07-3.75,0-11.25.66-8.93-.08-9.37,0q2.81-12.39,5.62-24.78-6.56-75.93-13.12-151.87c15.52-2.52,15.05-15.12,18.74-28.48,12.69-45.88,15.13-92.95,20.62-139.21-26.87,31.98-32.52,55.57-41.24,89.12q-3.75-.26-7.5-.53c-14.29-44.88-21.74-89.91-18.74-135.52,20.24-4.04,140.33-28.67,150.89-26.37,4.24.93,1.66,5.13,9.37,5.27,2.81.05,27.6-5.26,53.42-9.49Z"/><path class="cls-54" d="M1657.58,324.87c6.04,11.63,12.21,23.25,18.74,34.8,7.98,14.11,16.75,27.33,26.24,41.13,6.48,9.43,10.86,19.26,18.74,28.48,3.57,4.17,6.71,10.68,7.5,11.07,1.96.98,13.23.79,15,3.16,4.01,5.4-4.32,80.92,0,84.37,1.01.81,20.68,1.04,24.37,2.11-5.64,4.63-39.97,18.64-41.24,21.09-1.91,3.7-1.51,64.78-3.75,76.99,6.47,1.89,8.91-.59,9.37-.53,1.41.18,4.66,1.23,11.25,1.58q-6.56,8.7-13.12,17.4c-8.17,6.26-11.06,14.24-16.87,21.09-4.16,4.91-7.28,9.95-11.25,14.77-11.31,13.74-22.07,28.6-35.61,41.66-.75.72.75,3.54,0,4.22-3.69,3.35-79.44,46.88-87.16,60.64,7.62-3.38,16.81-5.01,25.3-7.38-6.72,13.1-7.77,7.96-8.43,8.44-8.49,6.14-81.8,44.28-89.97,47.46-6.38,2.48-6.61,3.11-14.06,2.11,19.71-16.07,40.67-31.74,59.98-47.99,19.58-16.48,126.9-115.93,131.21-126.56,1.2-2.96,1.93-7.95-5.62-7.91,3.73-12.61-11.5-109.76-5.62-114.43,6.54-5.2,17.24,10.79,16.87-15.82-.09-6.56-4.37-55.19-5.62-58.01-1.05-2.36-35.12-20.63-7.5-44.3-40.63-62.88-79-126.12-125.59-187.73,5.11-2.96,20.66-3.3,21.56-3.69,7.49-3.25-40.86-82.73-68.42-98.08,79.87,33.12,93.87,90.72,99.34,95.45,2.83,2.44,11.14,2.08,15,6.33,3.67,4.04,32.29,74.46,39.36,88.06Z"/><path class="cls-14" d="M667.9,54.88c-15.13,46.1-20.51,66.98,3.75,113.38,1.88,3.6,20.49,31.85,22.49,33.22l-3.75.53c7.13,82.24,5.54,164.5,1.87,246.79,12.18.74,23.08-5.56,24.37-5.8.45-.08-1.87.66,9.37,0-15.11,5.86-37.66,10.71-56.23,15.82v-1.05c-21.04-53.18-39.59-106.45-46.86-160.83-2.61-19.53-7.3-73.9-5.62-90.7.66-6.59,11.74-38.07,11.25-40.08-.21-.84-10.52-7.87-15-14.77-17.07-26.3-29.4-50.38-33.74-78.57,28.82-6.8,58.8-11.93,88.1-17.93Z"/><path class="cls-22" d="M356.74,955.55c-.65-.02-4.53.29-13.12,0-48.74-70.04-114.88-134.59-183.69-198.8q-21.56-2.37-43.11-4.75c-4.36-4.58-5.4-3.99-5.62-4.22-5.41-5.58-29.13-25.45-29.99-28.48-.1-.35,5.36-.64,3.75-6.86-9.2-35.44-17.58-70.93-30.93-105.99q57.64,66.18,115.28,132.36c7.33-34.54-73.31-135.05-71.23-142.38,1.17-4.11,10.63-2.86,15-3.69,2.9-.55,6.75-.27,7.5-2.64,1.08-3.42-34.67-57.03-31.86-66.97,3.94,1.05,54.88,35.11,56.23,37.44,3.11,5.35,10.84,65.86,33.74,110.74,14.77,28.95,48.73,71.95,67.48,103.36,36.08,60.45,65.85,122.18,110.59,180.87Z"/><path class="cls-9" d="M1299.57,70.7c-4.18,4.76-6.44,17.04-7.5,23.73-6.53,41.13-14.52,85.73-1.87,126.56,3.1,10.01,14.76,20.97,15,22.15.61,3.06-11.79,50.76-13.12,61.17-1.36,10.65-3.77,68.78-5.62,72.24-2.19,4.09-13.31,5.97-18.74,2.64-3.5,11.07,0,56.04-1.87,59.06-.5.81-2.45.53-3.75.53-.04-7.76,1.56-50.75,0-53.26-.81-1.31-14.74-4.63-16.87-7.38-.52-.67-.99-8.29-1.87-11.07-4.89-15.28-7.22-31.88-11.25-47.46-.37-1.45-3.51-6.36-3.75-7.38-4.35-18.4-8.51-36.87-11.25-55.37-2.04-13.75-.03-50.51-1.87-55.9-.27-.79-6.9-3.53-7.5-5.27-6.12-17.78-12.18-35.53-18.74-53.26-2.72-7.36-4.54-14.7-7.5-22.15,12.09-.44,2.45-4.9,7.5-4.75l33.74,40.08h3.75c1.37-32.4,8.11-64.92,28.12-95.45,14.93,3.51,30.24,6.82,44.99,10.55Z"/><path class="cls-54" d="M113.07,592.75c-4.36.83-13.83-.42-15,3.69-2.08,7.33,78.56,107.84,71.23,142.38q-57.64-66.18-115.28-132.36c13.34,35.06,21.73,70.56,30.93,105.99,1.61,6.21-3.85,6.5-3.75,6.86q-14.06-.26-28.12-.53c-17.58-56.48-32.66-113.01-37.49-170.33q21.56-4.22,43.11-8.44c.22,2.88,35.36,51.96,40.3,52.73.68.11,8.51-3.01,14.06,0Z"/><path class="cls-14" d="M502.95,92.85c16.07,10.07,98.91,60.04,101.22,68.03.61,2.09-6.69,28.08-7.5,42.19-1.92,33.53-1.12,126.44-7.5,148.71-.9,3.14-16.74,31.25-19.68,31.11-9.41-31.97-4.88-162.53-10.31-176.13,8.22-2.51,19.02-32.68,16.87-35.33-3.52-4.34-116.08-51.96-129.33-61.7,18.47-6.1,37.08-11.5,56.23-16.87Z"/><path class="cls-54" d="M343.62,955.55c-28.17-.96-56.22-1.84-84.35-3.16h-1.87c-1.75-1.96-12.86-9.74-16.87-12.66q24.37,2.9,48.73,5.8-56.23-61.96-112.46-123.92c-1.93-3.62-3.21-5.13-5.62-8.44-7.98-10.94-41.92-48.1-54.36-61.17q21.56,2.37,43.11,4.75c68.81,64.21,134.96,128.76,183.69,198.8Z"/><path class="cls-30" d="M144.94,399.75c-.62,1.77-1.03,3.51-1.87,5.27-8.67,1.01-16.23,23.65-21.56,25.31-6.73,2.1-62.67-4.91-107.78,7.38.16-24.57-1.1-49.27,0-73.83,17.21-7.47,21.81-5.73,42.17-7.38,2.87-.23,10.62-3.14,11.25-3.16,1.42-.04,26.89,1.71,28.12,2.11,2.15.69-.24,3.8,1.87,4.22,12.21,2.4,21.54-1.75,34.68,8.96,1.12.91,16.56,18.94,16.87,20.04.66,2.37-2.42,7.29-3.75,11.07Z"/><path class="cls-18" d="M143.06,405.02c-11.19,23.38-63.33,80.99-78.73,121.29-1.84,4.82-6.02,8.39-5.62,13.71q-21.56,4.22-43.11,8.44c-3.1-36.85-2.11-73.86-1.87-110.74,45.11-12.29,101.05-5.28,107.78-7.38,5.33-1.66,12.89-24.3,21.56-25.31Z"/><path class="cls-70" d="M1908.75,349.13c-.02,7.73.01,15.47,0,23.2-9.74-1.71-35.93-7.79-40.3-8.44-19.66-2.92-42.96-3.52-48.73-4.22-2.15-.26-9.67-5.57-41.24-7.38-18.01-1.03-95.32-1.12-102.16,7.38-6.53-11.55-12.7-23.17-18.74-34.8h117.15c12.21,4.65,44.56,3.25,50.61,4.22,4.42.71,31.09,15.03,83.41,20.04Z"/><path class="cls-14" d="M1254.59,60.15c-20,30.53-26.74,63.04-28.12,95.45h-3.75l-33.74-40.08c-5.05-.15,4.59,4.3-7.5,4.75-11.24-28.3-23.37-56.48-37.49-84.37,37.84,7.37,73.7,15.59,110.59,24.26Z"/><path class="cls-64" d="M559.18,206.75c-.78-1.94-1.63-5.54-1.87-5.8-6.86-7.21-139.15-61.81-161.2-73.3,16.01-6.58,33.52-12.29,50.61-17.93,13.26,9.74,125.82,57.36,129.33,61.7,2.15,2.66-8.65,32.82-16.87,35.33Z"/><path class="cls-70" d="M255.53,225.73c-33.03,58.75-69.72,116.85-110.59,174.02,1.33-3.79,4.41-8.7,3.75-11.07-.31-1.1-15.75-19.13-16.87-20.04-13.13-10.71-22.47-6.56-34.68-8.96-2.11-.42.27-3.53-1.87-4.22-1.23-.4-26.7-2.15-28.12-2.11-.63.02-8.38,2.93-11.25,3.16-20.37,1.65-24.97-.08-42.17,7.38.38-8.61-1.44-26.93,0-31.11.23-.67,9.91,1.56,7.5-11.6,7.4-5.68,14.71-.55,15.93-.53,14.48.31,43.51-.82,50.61,0,13.21,1.52,76.17,24.3,70.29,43.77h7.5c20.96-33.56,44.26-66.72,65.6-100.19,6.61-10.37,11.36-31.56,24.37-38.49Z"/><path class="cls-64" d="M681.02,51.71c-3,45.61,4.45,90.64,18.74,135.52q3.75.26,7.5.53c-1.72,6.61-1.46,21.7-13.12,13.71-2-1.37-20.61-29.63-22.49-33.22-24.25-46.4-18.88-67.28-3.75-113.38.67-.14,3.62-1.27,13.12-3.16Z"/><path class="cls-70" d="M116.82,752c12.44,13.07,46.38,50.22,54.36,61.17-7.05,1.55-6.74-6.44-14.06-9.49-1.96-.82-35.97-7.85-46.86-6.33-25.49,3.57-11.8,50.13,2.81,61.17-5.68-1.25-17.96-6.92-20.62-9.49-9.19-8.9-28.81-62.71,8.43-66.44,13.28-1.33,41.16,7.88,44.05,5.8q-16.87-20.3-33.74-40.6c.22.23,1.26-.36,5.62,4.22Z"/><path class="cls-55" d="M1908.75,475.68c-.04,176.48.84,352.96,1.87,529.44-24.19,3.25-145.95,10.62-154.64,13.71-3.24,1.15-7.09,6.75-8.43,7.38-16.87-.05-33.74.06-50.61,0-18.08-.07-38.49.48-56.23,0-.92-2.51,1.51-3.21,1.87-4.22.23-.63,1.32-2.26,1.87-3.16,2.34-3.85,6.65-7.66,9.37-11.6,1.45-2.09,13.45-15.77,10.31-16.87-71.08,10.08-172.89,22.35-240.86,5.8-1.42-1.9,26.14-20.15,29.99-23.2,1.75-1.38-2.05-3.03-1.87-3.16,3.3-2.56,62.45-41.14,73.1-47.99,5.24-3.37,13.44-6.14,18.74-9.49l-3.75,3.69c8.86-4.55,90.06-36.93,91.85-40.08,2.55-4.49-6.67-11.95.94-16.35,4.81-2.78,111.91-22.97,127.46-29.53,8.87-3.7-18.38-4.45-21.56-4.22,13.11-20.48,54.75-46.83,69.35-62.22.27-.28,8.65.22,0-4.22,6.31-8.14,28.26-53.11,26.24-57.48-1.16-2.5-10.83-2.44-11.25-13.18,6.18-8.61,10.99-17.57,18.74-25.84-30.17-7.01-30.21,3.99-50.61,21.62-5.86-2.46,9.05-10.74,13.12-16.35-24.52-13.61-19.55-20.93-66.54-26.89-1.98,1.91-4.26,3.51-6.56,5.27q6.56-8.7,13.12-17.4c-6.59-.35-9.84-1.4-11.25-1.58,28.91-29.66,52.51-60.8,80.6-90.7,19.48-20.74,41.19-40.75,59.98-61.7l35.61.53Z"/><path class="cls-30" d="M1908.75,372.33c-.04,20.74.02,41.48,0,62.22-2.72-12.34-48.32-10.98-72.16-14.77-10.49-1.67-33.83-8.12-50.61-10.55-26.73-3.86-55.16-5.37-83.41-8.44-9.49-13.8-18.26-27.02-26.24-41.13,6.84-8.51,84.15-8.42,102.16-7.38,31.57,1.81,39.08,7.12,41.24,7.38,5.77.7,29.08,1.3,48.73,4.22,4.37.65,30.56,6.73,40.3,8.44Z"/><path class="cls-18" d="M1908.75,434.55c-.02,13.71,0,27.42,0,41.13l-35.61-.53c-18.79,20.95-40.5,40.96-59.98,61.7-7.59-30.85-4.64-62.27-5.62-93.34-29.48-3.18-56.27-17-86.22-14.24-7.89-9.22-12.26-19.05-18.74-28.48,28.25,3.07,56.68,4.58,83.41,8.44,16.78,2.42,40.12,8.88,50.61,10.55,23.84,3.79,69.44,2.43,72.16,14.77Z"/><path class="cls-51" d="M1408.29,842.7c4.66,4.5,32.58,18.59,33.74,26.37-17.93,16.01-45.52,58.43-50.61,60.12-3.3,1.1-55.75,3.93-74.04,10.55-6.39,2.31-13.93,9.29-15,9.49-3.86.75-70.37,1.86-81.54,2.11,9.48-27.28,26.86-56,39.36-83.84,54.25-4.37,99.48-9.6,148.08-24.78Z"/><path class="cls-77" d="M1408.29,842.7c-48.59,15.19-93.83,20.41-148.08,24.78-12.5,27.84-29.89,56.56-39.36,83.84-10.99.24-29.08,5.62-65.6-6.86,13.81-12.37,21.86-26.73,33.74-39.55.37-.4,5.13-3.04,9.37-7.38,6.2-6.34,41.51-42.08,44.99-43.77,7.61-3.71,20.98-2.89,26.24-3.69,17.85-2.71,36.3-5.19,54.36-7.38,10.39-1.26,79.67-10.74,82.47-8.96.53.34,1.02,8.14,1.87,8.96Z"/><path class="cls-74" d="M1492.64,839.54c-1.34,1.1-8.67,3.8-28.12,21.09-26.95,23.96-42.73,47.4-67.48,71.72-.74-.76-3.75-2.99-5.62-3.16,5.09-1.69,32.68-44.11,50.61-60.12,12.34-11.02,50.38-34.3,76.85-56.42,19.4-16.22,156.7-146.7,159.32-155.56,7.56-.04,6.82,4.95,5.62,7.91-4.31,10.63-111.63,110.08-131.21,126.56-19.31,16.25-40.27,31.91-59.98,47.99Z"/><path class="cls-58" d="M1228.34,312.21c-39.99,17.47-27.03,19.15-28.12,22.15-3.96,10.91-5.88,21.76-9.37,32.69-7.25,22.7-15.64,44.98-24.37,67.5-.04.12-2.57-.38-1.87,2.11-121.62-23.03-249.3-26.18-373.01-6.33-1.78-4.35-4.84-8.47-7.5-12.66-2.32-3.67-14.81-20.46-15-21.62-.52-3.28,13.42-54.59,15-65.39,4.59-31.35,5.88-63.13,11.25-94.39,5.24.29,7.22,14.93,11.25,22.68,16.85,32.4,44.93,50.1,54.36,61.17,21.55,25.29,39.42,63.78,62.79,90.17-9.21-10.72,22.67-27.38,35.61-37.97,14.38,8.5,25.56,26.32,32.8,20.57q55.3-50.62,110.59-101.25c17.74-51.6,61.77-98.68,86.22-149.23,6.56,17.73,12.63,35.48,18.74,53.26.6,1.75,7.23,4.49,7.5,5.27,1.85,5.38-.16,42.14,1.87,55.9,2.74,18.5,6.9,36.97,11.25,55.37Z"/><path class="cls-2" d="M416.73,349.13c7.25.27,14.92-.13,21.56,2.11,6.52,2.2,40.55,61.98,42.17,69.08,2.49,10.9-3.96,41.67,1.87,49.04,4.28,5.4,5.47.43,13.12,7.38,8.66,7.86,19.91,40.02,31.86,53.79l-8.43-2.11c-25.7,11.77,3.18,18.75-19.68,27.42-5.78-6.09-10.11-4.67-11.25-6.86-2.18-4.18,11.18-14.87-1.87-9.49-1.57-2.23-2.6-12.41-6.56-12.13-5.39,5.82-23.01,7.87-33.74,11.6-3.6,1.25-7.2,5.4-13.12,7.38-54.16,18.14-86.42,20.71-140.58,33.75-15.73-3.21-26.56,4.52-41.24,6.33-8.49,1.04-10.65-2.12-11.25-2.11-1.41.02,1.96,6.85-21.56-1.05-2.29-4.14-8.51-19.62-9.37-20.57-3.39-3.71-7.43-3.04-11.25-4.75-2.28-1.02-7.46,1.2-11.25-5.27,6.39-.47,1.11,4.99,9.37,2.64-5.96-31.63,1.85-63.96-13.12-94.92-6.28-2.15-4.52,1.69-9.37,2.64,21.77-35.95,48.3-71.2,73.1-106.52-1.43,3.87-4.3,6.51-3.75,8.96.59,2.62,49.65,36.55,57.17,41.66,14.32,3.25-8.1-13.59-17.81-26.89-8.76-12.01-14.38-27.74-26.24-37.44,4.63-7.73,9.69-14.61,15-22.15,10.03,8.37,102.45,54.92,109.65,55.9,17.64,2.38,17.79-17.42,36.55-27.42Z"/><path class="cls-5" d="M527.32,530.53c5.23,6.03,8.9,7.01,9.37,7.38,2.73,2.14,8.24,8.9,12.18,10.55,3.17,1.32,28.42,7.52,29.99,4.22,2.72,14.04-19.79-5.45-17.81,3.69,11.78.78,11.26,7.72,23.43,12.13,8.52,3.08,17.61-.32,19.68,6.33-1.11,20.03-2.86,40.11-3.75,60.12-2.82-19.16-15.05-6.54-25.3-5.27-15.36,1.9-54.59,3.17-71.23,5.27-20.57,2.6-39.41,5.31-54.36,13.71-19.65.56-36.81,5.13-54.36,8.44-2.92.55-10.13-.55-13.12,0-2.18.4-10.07,5.06-11.25,5.27-13.26,2.41-36.18,4.19-48.73,6.33-1.79.3-2.9,3.43-7.5,4.22-5.48.94-7.37-4.38-10.31,0-14.93-11.84-48.96-6.69-50.61-7.91-1.06-.78-1.84-13.44-3.75-17.93-5.91-13.89-13.66-27.9-20.62-41.66,19.15,3.25,82.35-6.87,98.41-11.6,2.3-.68,3.79-5.49,28.12-11.6,10.61-2.67,23.3-2.93,33.74-5.27.63-.14,6.15-3.08,11.25-4.22,2.81-.63,12.28.63,15,0,14.6-3.37,42.25-16.72,44.99-16.87,13.61-.76,14.85,8.94,38.43,0,22.86-8.67-6.01-15.65,19.68-27.42l8.43,2.11Z"/><path class="cls-56" d="M416.73,349.13c-18.77,10-18.91,29.8-36.55,27.42-7.21-.97-99.62-47.53-109.65-55.9,19.39-27.54,41.79-54.29,65.6-80.68-1.4-5-38.92-.86-31.86-7.91,6.58,4.87,20.04,1.93,32.8,5.27,6.03,1.58,83.99,41.59,102.16,47.99q-18.74,31.11-37.49,62.22c-1,4.93,4.18,1.17,15,1.58Z"/><path class="cls-76" d="M606.04,518.92c-2.61,18.79-.84,37.16-1.87,55.9-2.08-6.64-11.16-3.24-19.68-6.33-12.17-4.4-11.65-11.35-23.43-12.13-1.98-9.15,20.53,10.35,17.81-3.69-1.57,3.3-26.82-2.9-29.99-4.22-3.95-1.65-9.45-8.41-12.18-10.55,7.53,2.86,4.41-10.32,1.87-17.93,13.72,10.68,49.62-3.47,59.98-12.66,1.14,3.88.17,10.2,7.5,11.6Z"/><path class="cls-2" d="M596.67,497.83c.1.34-.11.71,0,1.05.83,2.68,1.06,5.68,1.87,8.44-10.36,9.18-46.26,23.34-59.98,12.66-1.95-5.83-23.65-41.43-19.68-43.24,46.14,20.16,26.92,29.36,77.79,21.09Z"/><path class="cls-56" d="M669.77,457.76v1.05c-10.87,2.99-49.53,13.54-54.36,15.82-9.87,4.66-.92,31.07,0,40.08h-3.75c1.11-5.66-.28-23.47-15-15.82-.11-.34.1-.71,0-1.05-.84-2.75-3.04-1.6-3.75-4.75-.05-.23,4.04-2.65,3.75-4.22-.19-.98-5.49-.07-5.62-1.05-.73-5.43,2.91-24.44,5.62-29.53,1.91-3.59,11.88-2.05,6.56-11.07,3.54-2.06,19.43,6.11,19.68,6.86,1.05,3.16-26.54,7.49-10.31,18.46,7.23-.31,26.58-9.07,28.12-9.49.95-.26.92,2.36,1.87,2.11,4.08-1.09,14.89-6.96,27.18-7.38Z"/><path class="cls-76" d="M495.45,476.74c-7.65-6.95-8.84-1.98-13.12-7.38,11.24-2.95,6.9-36.09,20.62-35.33-3.05,5.87,10.59,38.18,9.37,40.08-1.24,1.93-13.62,1.03-16.87,2.64Z"/><path class="cls-77" d="M457.96,859.58c8.59,2.28,23.85,6.12,29.99,10.02,3.59,2.28,43.8,44.87,52.48,53.26,10.12,9.78,21.95,19.12,29.99,29.53-8.5.35-17.19-1.18-20.62,1.58-5.36,29.1-4.48,16.75-61.86,18.46-5.88-9.66-57.1-83.16-61.86-87.01-1.1-.89-21.24-9.26-28.12-13.18-4.73-2.69-12.51-7.09-13.12-10.55,2.59-.26,1.74-1.04,1.87-1.05,11.81-1.4,34.79-4.77,43.11-5.27,20.22-1.23,11.57-.18,28.12,4.22Z"/><path class="cls-74" d="M197.42,557.95c3.81,1.71,7.85,1.03,11.25,4.75.86.94,7.09,16.43,9.37,20.57,4.02,7.27,7.53,14.81,11.25,22.15,6.96,13.76,14.71,27.77,20.62,41.66,1.91,4.49,2.69,17.14,3.75,17.93,1.65,1.22,35.68-3.93,50.61,7.91,2.2,1.74,15.55,26.06,18.74,31.64,7.71,13.44,13.07,27.58,20.62,41.13,2.38,4.28,11.28,24.79,13.12,25.84,2.59,1.48,24.62.47,32.8,3.69,3.98,1.57,17.96,20.95,21.56,25.31,15.73,19.07,26.68,40.62,46.86,58.01v1.05c-16.55-4.4-7.9-5.45-28.12-4.22-6.51-10.1-44.13-75.31-48.73-78.57-12.39-8.77-28.66,8.77-37.49,1.05-5.28-4.61-52.3-90.4-59.98-104.41-13.48-4.96-38.43-5.28-40.3-5.8-13.7-3.79-52.1-94.63-55.3-109.16q4.69-.26,9.37-.53Z"/><path class="cls-74" d="M192.73,630.72c3.53-.77,33.72,21.91,36.55,24.78,3.48,3.53-.21,5.04,0,5.27,41.88,45.75,68.94,96.67,108.72,143.43-8.46,16.21-31.06-12.34-43.11-26.37-7.9-9.19-91.62-120.06-95.59-126.56-2.04-3.34-13.42-19.07-6.56-20.57Z"/><path class="cls-41" d="M384.86,861.69c.61,3.46,8.4,7.85,13.12,10.55-6.13,12.93,55.29,81.38,54.36,85.95-.54,2.64-7.34,2.4-7.5,2.64-9.62-3.82-25.61-2.7-37.49-3.16-26.15-38.2-23.48-55.39-28.12-94.92.8,0,1.69-.66,5.62-1.05Z"/><path class="cls-74" d="M88.7,523.14c-2.81,9.94,32.94,63.55,31.86,66.97-.75,2.37-4.6,2.09-7.5,2.64-5.55-3.01-13.38.11-14.06,0-4.94-.78-40.08-49.85-40.3-52.73-.4-5.32,3.78-8.89,5.62-13.71,4.46-1.4,20.72-4.14,24.37-3.16Z"/><path class="cls-9" d="M186.17,552.67c-3.82-6.54-8.7-66.92-11.25-70.13-6.89-8.7-18.9,8.62-1.87-19.51,4.85-.95,3.09-4.78,9.37-2.64,14.97,30.96,7.16,63.29,13.12,94.92-8.26,2.35-2.98-3.11-9.37-2.64Z"/><path class="cls-9" d="M246.15,356.51c1.92-5.22,6.5-8.92,9.37-13.71,11.86,9.7,17.48,25.43,26.24,37.44,9.7,13.3,32.13,30.14,17.81,26.89-7.52-5.11-56.58-39.04-57.17-41.66-.55-2.45,2.32-5.09,3.75-8.96Z"/><path class="cls-5" d="M386.74,860.63c-.13.02.71.79-1.87,1.05-3.93.4-4.83,1.06-5.62,1.05-2.15-.02-2.14,2.15-5.62-.53-28.27-59.25-29.39-54.8,13.12-1.58Z"/><path class="cls-9" d="M1275.2,463.03c-3.96-1.15-8.93-2.01-13.12-3.16.37-7.02.04-14.07,0-21.09,1.3,0,3.25.28,3.75-.53,1.87-3.02-1.63-47.99,1.87-59.06,5.43,3.33,16.56,1.45,18.74-2.64q21.56,1.32,43.11,2.64c-35.45,23.45-32.69,56.66-54.36,83.84Z"/><path class="cls-9" d="M1311.75,159.29c21.35,30.6,37.96,62.24,49.67,94.39l-2.81,1.58c-30.19-24.61-57.75-66.44-46.86-95.97Z"/><path class="cls-9" d="M1379.23,122.38c-6.43,26.49-18.08,52.32-20.62,79.1-1.92-4.95-19.84-50.84-15-50.62,22,17.9,18.62-5.6,35.61-28.48Z"/><path class="cls-29" d="M716.63,442.99c-1.29.24-12.18,6.54-24.37,5.8,3.66-82.29,5.25-164.55-1.87-246.79l3.75-.53c11.66,7.99,11.4-7.1,13.12-13.71,8.72-33.55,14.37-57.14,41.24-89.12-5.49,46.27-7.93,93.33-20.62,139.21-3.69,13.36-3.22,25.95-18.74,28.48q6.56,75.93,13.12,151.87-2.81,12.39-5.62,24.78Z"/><path class="cls-14" d="M791.61,430.33c-17.78,2.85-33.56,8.62-52.48,10.55,31.22-12.55,56.57-2.94,44.99-23.2,2.65,4.19,5.72,8.31,7.5,12.66Z"/><path class="cls-22" d="M1758.8,712.98c-15.89,15.19-30.4,30.87-46.86,45.88,1.5,1.09,44.32-1.86,48.73-2.64q.94,6.06,1.87,12.13l15-.53c-8.46,1.45-33.09,4.8-34.68,5.27-8,2.4-41.48,32.79-53.42,40.6-30.72,20.1-66.5,32.07-86.22,43.24-25.66,14.54-64.11,47.69-91.85,64.86-9.12,2.59-16.85,7.51-26.24,10.55,62.39-60.78,138.73-116.35,208.06-174.54-1.26-2.02-26.45,6.98-29.99,7.91-19.71,5.17-38.64,10.37-58.11,15.82-8.5,2.38-17.68,4-25.3,7.38,7.72-13.76,83.47-57.29,87.16-60.64.75-.68-.75-3.5,0-4.22,13.54-13.06,24.3-27.91,35.61-41.66,31.45,5.99,33.23,21.65,56.23,30.58Z"/><path class="cls-22" d="M1813.16,536.85c-28.09,29.9-51.69,61.04-80.6,90.7-.46-.06-2.9,2.42-9.37.53,2.23-12.21,1.84-73.29,3.75-76.99,1.27-2.45,35.59-16.47,41.24-21.09-3.69-1.07-23.36-1.3-24.37-2.11-4.32-3.45,4.01-78.97,0-84.37-1.76-2.38-13.04-2.19-15-3.16-.79-.39-3.93-6.91-7.5-11.07,29.95-2.76,56.74,11.06,86.22,14.24.98,31.07-1.97,62.49,5.62,93.34Z"/><path class="cls-54" d="M1663.21,765.71c12.6,5.46-41.21,31.1-59.04,40.08-20.34,10.23-115.8,52.9-134.96,55.9-.24.04-1.54-1.54-4.69-1.05,19.45-17.3,26.77-20,28.12-21.09,7.45,1,7.68.37,14.06-2.11,8.18-3.18,81.48-41.32,89.97-47.46.67-.48,1.71,4.66,8.43-8.44,19.47-5.45,38.39-10.65,58.11-15.82Z"/><path class="cls-30" d="M1790.67,684.51c-1.7,1.47-4.01,2.79-5.62,4.22-18.56,13.27-24.51-7.48-71.23-21.09,5.81-6.86,8.7-14.83,16.87-21.09,2.3-1.77,4.59-3.37,6.56-5.27,46.99,5.96,42.02,13.29,66.54,26.89-4.08,5.6-18.98,13.89-13.12,16.35Z"/><path class="cls-30" d="M1785.04,688.72c-8.89,7.85-17.84,16.23-26.24,24.26-23-8.94-24.78-24.6-56.23-30.58,3.97-4.82,7.09-9.86,11.25-14.77,46.72,13.61,52.67,34.37,71.23,21.09Z"/><path class="cls-29" d="M1262.08,438.77c.04,7.02.37,14.07,0,21.09-22.92-6.3-74.54-18.86-97.47-23.2-.7-2.49,1.83-1.99,1.87-2.11q19.68,3.95,39.36,7.91c3.04-1.51,2.19-37.38,1.87-42.71,19.34-8.62,9.8-28.25,35.61-32.69.89,2.78,1.35,10.4,1.87,11.07,2.13,2.76,16.06,6.07,16.87,7.38,1.56,2.51-.04,45.5,0,53.26Z"/><path class="cls-29" d="M1232.09,319.6c4.03,15.58,6.36,32.18,11.25,47.46-25.81,4.45-16.27,24.08-35.61,32.69-1.24-21.06,2.33-33.86-16.87-32.69,3.49-10.93,5.41-21.78,9.37-32.69q15.93-7.38,31.86-14.77Z"/><path class="cls-10" d="M1232.09,319.6q-15.93,7.38-31.86,14.77c1.09-3-11.87-4.68,28.12-22.15.24,1.03,3.37,5.94,3.75,7.38Z"/><path class="cls-22" d="M240.53,939.73c-19.88-14.49-47.37-30.28-69.35-44.82-7.44-4.92-13.11-12.5-20.62-17.4-1.39-8.23-23.9-45.58-8.43-48.51,31.46-2.69,44.54,11.1,34.68-7.38q56.23,61.96,112.46,123.92-24.37-2.9-48.73-5.8Z"/><path class="cls-30" d="M171.18,813.17c2.41,3.31,3.69,4.82,5.62,8.44,9.86,18.48-3.22,4.69-34.68,7.38-15.46,2.94,7.05,40.29,8.43,48.51-9.36-6.11-28.57-12.25-37.49-18.98-14.61-11.04-28.3-57.6-2.81-61.17,10.89-1.52,44.9,5.51,46.86,6.33,7.32,3.05,7.01,11.04,14.06,9.49Z"/><path class="cls-75" d="M487.95,972.43c1.18,1.94,8.08,10.78,6.56,11.6q-30.46,3.16-60.92,6.33c-2.1-.75-3.66-1.38-5.62-2.11,7.72-8.62,10.89-18.54,16.87-27.42.16-.23,6.96,0,7.5-2.64.93-4.57-60.49-73.03-54.36-85.95,6.88,3.92,27.02,12.29,28.12,13.18,4.76,3.85,55.97,77.35,61.86,87.01Z"/><path class="cls-54" d="M1807.54,763.6c-14.61,15.4-56.25,41.75-69.35,62.22-6.03.44-105.15,27.23-109.65,29.53-1.74.89-13.36,13.02-27.18,21.62-19.11,11.89-39.17,23.36-58.11,35.33-5.3,3.35-13.5,6.12-18.74,9.49-3.53-3.56-7.9-1.48-13.12,0,27.74-17.17,66.18-50.32,91.85-64.86,19.72-11.17,55.5-23.14,86.22-43.24,11.94-7.81,45.42-38.21,53.42-40.6,1.58-.48,26.22-3.83,34.68-5.27,11.48-1.96,28.49-6.34,29.99-4.22Z"/><path class="cls-54" d="M1822.53,688.72c-4.74,6.61-9.96,13.49-15,20.04-7.34,9.55-33.12,45.03-46.86,47.46-4.41.78-47.24,3.73-48.73,2.64,16.46-15.01,30.97-30.69,46.86-45.88,8.4-8.03,17.35-16.41,26.24-24.26,1.62-1.43,3.92-2.75,5.62-4.22,20.4-17.63,20.44-28.63,50.61-21.62-7.76,8.27-12.56,17.22-18.74,25.84Z"/><path class="cls-80" d="M1543.24,912.31c18.94-11.97,39-23.44,58.11-35.33,13.81-8.6,25.44-20.73,27.18-21.62,4.5-2.3,103.62-29.09,109.65-29.53,3.17-.23,30.43.52,21.56,4.22-15.55,6.56-122.65,26.75-127.46,29.53-7.61,4.4,1.61,11.86-.94,16.35-1.79,3.15-82.99,35.53-91.85,40.08l3.75-3.69Z"/><path class="cls-30" d="M1807.54,759.39c8.65,4.44.27,3.94,0,4.22-1.5-2.13-18.51,2.26-29.99,4.22l-15,.53q-.94-6.06-1.87-12.13c13.74-2.43,39.52-37.91,46.86-47.46,24.89,7.52-10.27,48.16-4.69,51.68,1.31.82,3.84-1.49,4.69-1.05Z"/><path class="cls-70" d="M1807.54,759.39c-.85-.44-3.38,1.88-4.69,1.05-5.59-3.52,29.58-44.16,4.69-51.68,5.03-6.55,10.25-13.43,15-20.04.41,10.74,10.09,10.69,11.25,13.18,2.02,4.37-19.94,49.34-26.24,57.48Z"/><path class="cls-54" d="M1485.14,932.35c-.87.28-8.17,4.65-12.18,5.27-6.51,1.01-65.16,1.84-69.35,1.05-4.45-.83-6.09-5.84-6.56-6.33,24.74-24.32,40.53-47.75,67.48-71.72,3.15-.49,4.44,1.09,4.69,1.05,19.15-2.99,114.62-45.67,134.96-55.9,17.84-8.97,71.64-34.61,59.04-40.08,3.54-.93,28.73-9.93,29.99-7.91-69.33,58.19-145.67,113.77-208.06,174.54Z"/><path class="cls-24" d="M1207.73,399.75c.31,5.33,1.17,41.21-1.87,42.71q-19.68-3.95-39.36-7.91c8.72-22.52,17.11-44.8,24.37-67.5,19.2-1.16,15.63,11.64,16.87,32.69Z"/><path class="cls-5" d="M499.2,555.84c-23.57,8.94-24.82-.76-38.43,0-2.74.15-30.39,13.51-44.99,16.87-2.72.63-12.18-.63-15,0-5.1,1.13-10.62,4.08-11.25,4.22-10.44,2.34-23.13,2.61-33.74,5.27-24.33,6.11-25.82,10.92-28.12,11.6-16.06,4.74-79.26,14.85-98.41,11.6-3.71-7.34-7.23-14.88-11.25-22.15,23.52,7.9,20.15,1.08,21.56,1.05.59-.01,2.75,3.15,11.25,2.11,14.67-1.8,25.51-9.54,41.24-6.33,54.16-13.04,86.42-15.61,140.58-33.75,5.92-1.98,9.52-6.13,13.12-7.38,10.73-3.73,28.34-5.78,33.74-11.6,3.96-.28,4.99,9.9,6.56,12.13,13.05-5.38-.31,5.31,1.87,9.49,1.14,2.18,5.46.76,11.25,6.86Z"/><path class="cls-44" d="M600.42,634.94c-.34,7.76-1.63,15.4-1.87,23.2-6.98-.64-1.71,4.49-4.69,6.33-1.54.95-22.83,1.76-24.37,2.11-10.25,2.3-21.12,9.32-22.49,9.49-7.04.88-7.68-2.62-13.12-2.11-3.46.32-11.74,4.64-16.87,5.27-2.95.37-9.59-5.05-24.37,2.11-58.39,5.07-111.34,16.77-169.63,23.2-3.2-5.58-16.55-29.9-18.74-31.64,2.94-4.38,4.83.94,10.31,0,4.59-.78,5.71-3.91,7.5-4.22,12.56-2.14,35.48-3.92,48.73-6.33,1.17-.21,9.07-4.88,11.25-5.27,2.99-.55,10.2.55,13.12,0,17.55-3.31,34.71-7.88,54.36-8.44,14.95-8.4,33.78-11.11,54.36-13.71,16.63-2.1,55.87-3.37,71.23-5.27,10.25-1.27,22.48-13.88,25.3,5.27Z"/><path class="cls-9" d="M611.66,514.71c-.22,1.1-5.59,3.96-5.62,4.22-7.33-1.4-6.35-7.72-7.5-11.6-.81-2.76-1.05-5.75-1.87-8.44,14.72-7.65,16.1,10.16,15,15.82Z"/><path class="cls-41" d="M576.05,875.4q-17.81,23.73-35.61,47.46c-8.68-8.39-48.9-50.98-52.48-53.26-6.14-3.9-21.4-7.73-29.99-10.02v-1.05c3.72-16.77,1.48-33.79,1.87-50.62,5.7,7.27,34.67,56.66,44.05,56.95q27.18-6.86,54.36-13.71c4.15.7,15.45,20.76,17.81,24.26Z"/><path class="cls-75" d="M619.16,951.33c-16.06.38-32.84.4-48.73,1.05-8.04-10.41-19.87-19.75-29.99-29.53q17.81-23.73,35.61-47.46c16.78,24.85,29.11,50.58,43.11,75.93Z"/><path class="cls-23" d="M596.67,683.45c-.86,30.49,1.25,60.35,3.75,90.7-19.5-19.66-28.44-1.78-47.8,6.33-1.64.69-3.58-1.13-3.75-1.05-20.43,8.77-41.2,11.68-19.68,22.15-7.04-1.93-63.88-15.47-67.48-15.82-13.49-1.31-38.97,10.03-50.61,14.77-3.6-4.36-17.57-23.74-21.56-25.31-8.18-3.22-30.21-2.22-32.8-3.69-1.84-1.05-10.74-21.56-13.12-25.84,58.31-12.79,120.26-15.5,177.13-29.53,24.88,1.82,47.47-8.74,71.23-7.38,3.64-10.33-3.34-25.38,4.69-25.31Z"/><path class="cls-23" d="M598.54,658.14c-.26,8.39-1.63,16.84-1.87,25.31-8.03-.06-1.05,14.98-4.69,25.31-23.76-1.36-46.35,9.2-71.23,7.38-56.87,14.03-118.82,16.74-177.13,29.53-7.54-13.55-12.91-27.69-20.62-41.13,58.3-6.43,111.25-18.14,169.63-23.2,14.78-7.16,21.42-1.74,24.37-2.11,5.13-.64,13.41-4.95,16.87-5.27,5.45-.51,6.08,2.99,13.12,2.11,1.37-.17,12.24-7.19,22.49-9.49,1.54-.35,22.83-1.16,24.37-2.11,2.98-1.84-2.3-6.97,4.69-6.33Z"/><path class="cls-80" d="M461.71,785.75c-2.18,7.38-1.7,14.72-1.87,22.15-.39,16.84,1.85,33.86-1.87,50.62-20.18-17.39-31.13-38.94-46.86-58.01,11.64-4.73,37.12-16.08,50.61-14.77Z"/><path class="cls-77" d="M529.19,801.57c6.3,1.73,27.64,7.32,29.99,8.96,3.98,2.79,33.1,46.49,50.61,54.31,3.63,13.23,63.89,39,73.1,45.35,1.25.86,1.8.99,1.87,1.05,8.11,6.34,9.53,24.28,15,33.22-18.91,2.71-37.81,5.3-57.17,6.86-1.58.13-.75,2.1-.94,2.11-.84.06-1.96-.49-16.87,0-2.31.08-3.29-2.16-5.62-2.11-14-25.36-26.33-51.09-43.11-75.93-2.36-3.5-13.66-23.55-17.81-24.26q-27.18,6.86-54.36,13.71c-9.37-.29-38.35-49.68-44.05-56.95.17-7.43-.31-14.76,1.87-22.15,3.6.35,60.44,13.89,67.48,15.82Z"/><path class="cls-75" d="M641.65,953.44q14.06,5.54,28.12,11.07c-11.6,12.95-30.72,6.46-55.3,7.91-8.98-2.4,8.62-15.35,10.31-18.98,14.91-.49,16.03.06,16.87,0Z"/><path class="cls-35" d="M600.42,774.15c1.41,17.14,7.49,83.86,9.37,90.7-17.51-7.82-46.63-51.53-50.61-54.31-2.35-1.65-23.69-7.23-29.99-8.96-21.52-10.47-.75-13.38,19.68-22.15.17-.07,2.11,1.74,3.75,1.05,19.36-8.11,28.29-25.99,47.8-6.33Z"/><path class="cls-80" d="M92.45,849.03c2.66,2.58,14.94,8.24,20.62,9.49,8.91,6.73,28.13,12.88,37.49,18.98,7.51,4.9,13.18,12.48,20.62,17.4,21.98,14.55,49.47,30.34,69.35,44.82,4.01,2.92,15.12,10.7,16.87,12.66,2.2,2.47,5.68,2.23.94,4.22-89.08-32.91-79.67-31.73-126.52-73.3-.84-.75.84-4.57,0-5.27-1.55-1.3-21.86-8.11-41.24-21.09-13.7-9.18-31.75-21.44,1.87-7.91Z"/><path class="cls-14" d="M735.37,440.88c.69,2.95-2.3,1.92-5.62,2.11-.68-2.93,2.2-1.93,5.62-2.11Z"/><path class="cls-55" d="M450.46,997.74c-2.56,6.75-13.83,19.63,1.87,20.04-12.01-.99-87.51-5.29-89.97-8.96,2.27-3.04,5.15-5.96,7.5-8.96q39.36-1.58,78.73-3.16c2.44.8,1.76,1.02,1.87,1.05Z"/><path class="cls-41" d="M427.97,988.25c1.96.73,3.52,1.36,5.62,2.11,9.18,3.26,14.19,6.06,15,6.33q-39.36,1.58-78.73,3.16c6.86-8.78,17.38-16.83,25.3-25.31,10.79,4.67,21.44,9.48,32.8,13.71Z"/><path class="cls-80" d="M486.08,1019.88c-2.52.2-9.23-.35-16.87,0-5.45-.49-11.52-1.67-16.87-2.11-15.71-.41-4.44-13.28-1.87-20.04,44.58,14.39,100.85,16.99,35.61,22.15Z"/><path class="cls-52" d="M486.08,1019.88c.7,2.49-1.83,1.99-1.87,2.11-5.29-2.45-9.77-1.64-15-2.11,7.64-.35,14.35.2,16.87,0Z"/><path class="cls-50" d="M343.62,955.55c8.59.29,12.47-.02,13.12,0,16.8.55,33.81,1.46,50.61,2.11,11.87.46,27.87-.66,37.49,3.16-5.98,8.88-9.15,18.8-16.87,27.42-11.36-4.23-22.01-9.04-32.8-13.71-7.93,8.48-18.45,16.54-25.3,25.31-2.35,3.01-5.23,5.92-7.5,8.96,2.46,3.67,77.96,7.97,89.97,8.96,5.35.44,11.42,1.62,16.87,2.11-.3.01-3.6,2.07-4.69,2.11-8.42.34-51.45.19-63.73,0-1.42-.02-.45-2.08-1.87-2.11-21.11-.41-43.42.92-64.67,0-.47-3.17.78-7.6,0-8.96-.75-1.32-25.37-13.08-26.24-15.82-1.27-4.02,7.84-12.35,7.5-13.71-.54-2.12-48.78-25.96-56.23-29,28.13,1.32,56.18,2.21,84.35,3.16Z"/><path class="cls-7" d="M1910.63,1005.12v74.88H13.73c-5.1-17.54-.45-35.2,0-52.73,104.8,10.1,211.43,13.83,317.71,14.77l.94-3.16c52.65,5.09,105.84,10.88,158.39,17.93,357.33,1.51,714.5,2.23,1072.16,0,40.51,5.07,79.67-1.58,119.96-3.16,22.35-8.48,43.96-17.72,64.67-27.42,1.34-.63,5.2-6.23,8.43-7.38,8.69-3.09,130.45-10.46,154.64-13.71Z"/><path class="cls-33" d="M349.25,1024.1c-12.28,2.22,16.71,4.74,23.43,5.27,61.45,4.85,123.69,7.62,185.57,9.49,116.35-3.34,742.78,5.49,791,0,1.47-.17,7.99-1.41,6.56-3.16,8.22.15-9.81-6.58,11.25-3.16.82.13-7.92,3.01,12.18,2.11,74.19-3.07,148.83-2.25,223.05-4.22,8.98-.24,31.86-.08,34.68-4.22,1.25.03,2.5-.03,3.75,0h56.23c16.87.06,33.74-.05,50.61,0-20.71,9.7-42.31,18.94-64.67,27.42-40.29,1.59-79.45,8.23-119.96,3.16-357.66,2.23-714.83,1.51-1072.16,0-52.55-7.04-105.74-12.84-158.39-17.93,2.84-4.51,1.75-9.08,1.87-13.71q7.5-.53,15-1.05Z"/><path class="cls-23" d="M469.21,1019.88c5.23.47,9.7-.34,15,2.11-1.92,5.43,5.03,6.16,13.12,6.33,5.36,1.12,9.71,4.92,9.37-1.05,172.04,2.24,345.19.04,517.34,0l18.74,1.58c-35.71,1.76-9.37,1.05,11.25,2.11l-38.43,1.58,9.37,3.16c-38.28-.18-96.98.77-60.92-1.58-14.26-4.09-16.1,1.48-17.81,1.58-65.69,3.95-310.04-3.09-401.12,0q-97.94-5.8-195.88-11.6-7.5.53-15,1.05c.05-1.73.25-3.56,0-5.27,21.24.92,43.56-.41,64.67,0,1.42.03.45,2.09,1.87,2.11,12.28.19,55.31.34,63.73,0,1.08-.04,4.39-2.1,4.69-2.11Z"/><path class="cls-68" d="M1024.03,1027.27c10.62,0,21.24,0,31.86,0l-4.69,2.11c26.32-2.22,20.43,5.21,21.56,5.8,10.33,5.46,250.79-1.79,283.04.53,1.43,1.75-5.09,3-6.56,3.16-48.21,5.49-674.65-3.34-791,0-61.88-1.87-124.12-4.65-185.57-9.49-6.72-.53-35.71-3.06-23.43-5.27q97.94,5.8,195.88,11.6c91.08-3.09,335.44,3.95,401.12,0,1.7-.1,3.55-5.67,17.81-1.58-36.07,2.35,22.64,1.4,60.92,1.58l-9.37-3.16,38.43-1.58c-20.62-1.06-46.96-.35-11.25-2.11l-18.74-1.58Z"/><path class="cls-23" d="M1340.81,1024.1c8.98,6.02,26.9,2.49,41.24,3.16q-7.5,2.64-15,5.27c-21.05-3.42-3.03,3.32-11.25,3.16-32.25-2.32-272.71,4.93-283.04-.53-1.12-.59,4.77-8.02-21.56-5.8l4.69-2.11c82.79-.02,165.57.01,248.36,0q-15.46-1.05-30.93-2.11c5.49.02,29.42.81,31.86-1.05,11.84.06,23.81.93,35.61,0Z"/><path class="cls-23" d="M1642.59,1021.99c-.36,1-2.79,1.71-1.87,4.22-1.24-.03-2.5.03-3.75,0-.84-.02-3.84-2.83-15.93-3.16-1.36-.04-.51,2.15-1.87,2.11-9.71-.27-6.04-2.07-7.5-2.11-1.36-.04-.51,2.14-1.87,2.11-2.58-.07-33.68-4.47-50.61-2.11-.38.05-1.5,4.17-1.87,4.22-3.18.44-61.93.39-65.6,0-.79-.08-1.62-2.98-3.75-3.16-2.6-.22,2.69,3.31-1.87,4.22-1.94.39-34.52.87-41.24,1.05-.5.01-.88-2.16-9.37-2.11-2.23.01-2.1,3.18-43.11,2.11-.63-.02,2.72-1.49-10.31-2.11-14.34-.68-32.26,2.85-41.24-3.16-1.12-.75-7.57-4.44-4.69-5.27,89.76,2.43,184.23-1.32,277.41,0,4.18,5.65,18.41-1.71,29.05,3.16Z"/><path class="cls-68" d="M1636.96,1026.21c-2.82,4.13-25.69,3.98-34.68,4.22-74.23,1.97-148.86,1.15-223.05,4.22-20.11.91-11.37-1.98-12.18-2.11q7.5-2.64,15-5.27c13.03.62,9.68,2.09,10.31,2.11,41.02,1.07,40.88-2.09,43.11-2.11,8.49-.06,8.87,2.12,9.37,2.11,6.72-.19,39.29-.67,41.24-1.05,4.56-.91-.73-4.44,1.87-4.22,2.13.18,2.96,3.08,3.75,3.16,3.67.39,62.42.44,65.6,0,.38-.05,1.5-4.17,1.87-4.22,16.93-2.36,48.02,2.04,50.61,2.11,1.36.03.51-2.15,1.87-2.11,1.46.04-2.21,1.84,7.5,2.11,1.36.04.51-2.15,1.87-2.11,12.09.33,15.09,3.14,15.93,3.16Z"/><path class="cls-23" d="M1696.95,1026.21h-56.23c17.75.48,38.16-.07,56.23,0Z"/><path class="cls-40" d="M1569.49,1011.45c2.37,9.22,51.27-.2,74.98,7.38-.55.91-1.65,2.54-1.87,3.16-10.64-4.87-24.88,2.48-29.05-3.16-93.18-1.32-187.65,2.43-277.41,0-2.88.83,3.56,4.52,4.69,5.27-11.8.93-23.77.06-35.61,0v-1.05c2.46-.03,33.27.66,25.3-2.11-22.18,2.01-1.46-5.96,1.87-6.33,13.05-1.45,95.42-.08,106.84,2.11,43.36-2.15,86.85-3.55,130.27-5.27Z"/><path class="cls-40" d="M1653.83,1007.23c-2.72,3.94-7.03,7.75-9.37,11.6-23.71-7.59-72.61,1.83-74.98-7.38,28.19-1.12,56.29-.37,84.35-4.22Z"/><path class="cls-45" d="M1149.62,904.93c13.08.3,26.27-.22,39.36,0-11.88,12.82-19.93,27.18-33.74,39.55,36.52,12.47,54.62,7.1,65.6,6.86,11.17-.25,77.68-1.36,81.54-2.11,1.07-.21,8.61-7.18,15-9.49,18.29-6.62,70.73-9.45,74.04-10.55,1.87.17,4.88,2.4,5.62,3.16.47.48,2.11,5.49,6.56,6.33,4.19.79,62.85-.04,69.35-1.05,4.01-.62,11.32-4.99,12.18-5.27,9.39-3.04,17.12-7.95,26.24-10.55,5.22-1.48,9.59-3.56,13.12,0-10.65,6.84-69.8,45.43-73.1,47.99-.17.13,3.62,1.78,1.87,3.16-3.85,3.05-31.41,21.31-29.99,23.2,67.98,16.55,169.78,4.28,240.86-5.8,3.14,1.1-8.86,14.78-10.31,16.87-28.06,3.85-56.16,3.1-84.35,4.22-43.42,1.73-86.91,3.12-130.27,5.27-11.42-2.19-93.79-3.56-106.84-2.11-3.34.37-24.05,8.34-1.87,6.33,7.97,2.77-22.85,2.08-25.3,2.11l-63.73-.53c21.16.77,42.55.78,63.73.53v1.05c-27.4-.14-98.5.84-31.86,1.05q15.46,1.05,30.93,2.11c-82.79.01-165.57-.02-248.36,0-10.62,0-21.24,0-31.86,0-172.15.04-345.3,2.24-517.34,0-9.66-.13-8.89,1.06-9.37,1.05-8.09-.17-15.04-.9-13.12-6.33.04-.12,2.57.38,1.87-2.11,65.24-5.15,8.96-7.76-35.61-22.15-.11-.04.56-.25-1.87-1.05-.81-.27-5.81-3.07-15-6.33q30.46-3.16,60.92-6.33c1.52-.83-5.38-9.66-6.56-11.6,57.37-1.7,56.5,10.64,61.86-18.46,3.43-2.76,12.12-1.23,20.62-1.58,15.89-.65,32.68-.67,48.73-1.05,2.33-.06,3.31,2.18,5.62,2.11-1.69,3.64-19.29,16.58-10.31,18.98,24.57-1.45,43.7,5.04,55.3-7.91q-14.06-5.54-28.12-11.07c.19-.01-.64-1.98.94-2.11,19.36-1.55,38.26-4.14,57.17-6.86-5.47-8.94-6.89-26.88-15-33.22,14.97-1.12,32.05-3.54,46.86-4.22,3.07-.14,22.05.47,33.74,0,15.54-.63,31.23-2.59,46.86-3.16,6.55-.24,19.84,1.34,29.05,1.05,74.39-2.28,90.12-4.79,179.01-3.16,3.12.06,6.26-.07,9.37,0,42.62.92,97.04,9.03,86.22-5.27,1.79,12.33,14.16,7.99,33.74,8.44Z"/><path class="cls-23" d="M506.7,1027.27c.34,5.97-4.01,2.17-9.37,1.05.48,0-.28-1.18,9.37-1.05Z"/><path class="cls-40" d="M1305.19,1024.1c-2.44,1.86-26.37,1.07-31.86,1.05-66.64-.22,4.46-1.19,31.86-1.05Z"/><path class="cls-54" d="M1364.24,962.93c6.49-.29,36.37,10.18,45.92,12.13-10.11,20.08-47.9,8.46-91.85,3.16-.68-1.45,43.26-15.17,45.92-15.29Z"/><path class="cls-40" d="M1305.19,1023.05c-21.18.25-42.57.25-63.73-.53l63.73.53Z"/></g><path class="cls-49" d="M1314.57,499.94c-12.71,93.91-16.63,188.24-29.99,282.12-1.62,11.38-8.32,58.16-9.37,61.17-.13.37-4.04-.43-5.62,6.86-5.26.8-18.63-.01-26.24,3.69-3.47,1.69-38.78,37.42-44.99,43.77,27.02-128.86,38.26-258.51,46.86-388.11l7.5-13.71c15.07,1.97,46.52-13.03,61.86-17.93,4.1,8.13-1.13,14.16,0,22.15Z"/><path class="cls-50" d="M1164.61,436.66c22.93,4.34,74.55,16.9,97.47,23.2,4.19,1.15,9.16,2.01,13.12,3.16,7.5,2.19,15.36,4.81,22.49,7.38,8.76,3.16,14.18,2.06,16.87,7.38-15.34,4.89-46.78,19.9-61.86,17.93-5.88-.77-58.61-16.55-74.04-20.04-178.49-40.35-339.01-32.49-505.15,21.09-2.38-1.47-52.79-15.49-58.11-22.15,4.83-2.28,43.49-12.83,54.36-15.82,18.57-5.11,41.12-9.96,56.23-15.82,1.23-.07,2.52.07,3.75,0,3.32-.19,6.31.84,5.62-2.11,1.22-.06,2.57.12,3.75,0,18.92-1.93,34.7-7.69,52.48-10.55,123.71-19.85,251.39-16.7,373.01,6.33Z"/><path class="cls-22" d="M1323.94,842.7c-18.06,2.19-36.51,4.68-54.36,7.38,1.59-7.28,5.49-6.48,5.62-6.86,1.05-3.01,7.75-49.79,9.37-61.17,13.36-93.88,17.28-188.21,29.99-282.12,14.79,114.01,21.89,228.51,9.37,342.76Z"/><path class="cls-73" d="M1245.21,509.43c-8.6,129.6-19.84,259.25-46.86,388.11-4.24,4.34-9,6.98-9.37,7.38-13.09-.22-26.28.3-39.36,0l7.5-6.86c3.45-74.93,37.9-293.97,15-350.67-.89-2.2,5.23-2.98-.94-6.33-2.85-1.54-64.51-15.23-73.1-16.87-17.43-3.33-123.79-18.94-133.08-18.98-22.41-.1-197.7,28.25-205.25,36.91-3.13,3.6-14.36,70.93-15,79.63-5.06,69.39,30.57,201.58,24.37,282.65q-1.87,1.32-3.75,2.64c-11.69.47-30.67-.14-33.74,0-27.3-132.77-38.84-266.3-50.61-399.71,213.29-60.77,352.49-61.99,564.2,2.11Z"/><path class="cls-54" d="M1252.71,495.72l-7.5,13.71c-211.7-64.1-350.91-62.88-564.2-2.11-3.59-3.4-2.53-7.49-7.5-10.55,166.14-53.58,326.66-61.44,505.15-21.09,15.43,3.49,68.16,19.27,74.04,20.04Z"/><path class="cls-32" d="M673.52,496.78c4.97,3.05,3.9,7.15,7.5,10.55,11.77,133.42,23.31,266.95,50.61,399.71-14.81.68-31.89,3.1-46.86,4.22-.08-.06-.63-.2-1.87-1.05-24.02-13.63-26.98-57.7-31.86-83.84-19.34-103.61-24.95-207.72-35.61-311.65-.92-9.01-9.87-35.41,0-40.08,5.31,6.65,55.72,20.68,58.11,22.15Z"/><path class="cls-22" d="M615.41,514.71c10.67,103.93,16.27,208.04,35.61,311.65,4.88,26.14,7.85,70.22,31.86,83.84-9.21-6.35-69.47-32.12-73.1-45.35-1.88-6.84-7.96-73.56-9.37-90.7-2.49-30.35-4.61-60.21-3.75-90.7.24-8.47,1.61-16.92,1.87-25.31.24-7.8,1.53-15.44,1.87-23.2.88-20.01,2.64-40.09,3.75-60.12,1.04-18.74-.74-37.11,1.87-55.9.04-.26,5.41-3.12,5.62-4.22h3.75Z"/><path class="cls-78" d="M829.1,601.18c7.5,155.56-18.47,147.26-10.97,302.82-15.63.57-37.22,2.42-52.76,3.04q1.87-1.32,3.75-2.64c6.2-81.07-29.42-213.26-24.37-282.65.63-8.69,11.86-76.03,15-79.63,13.88,15.45,52.31,45.73,69.35,59.05Z"/><path class="cls-74" d="M1149.62,904.93c-19.58-.44-31.94,3.9-33.74-8.44,3.22-67,10.56-133.94,15-200.91,1.14-17.27-61.06-145.93,1.55-108.19,2.21,1.33,36.79-37.54,41.12-44.58,22.9,56.7-12.98,280.34-16.43,355.27l-7.5,6.86Z"/><path class="cls-18" d="M1172.11,547.4c-4.33,7.05-49.23,52.88-50.12,55.31-27.32-2.68-153.82-47.32-164.5-46.87-8.63.37-122.18,52.94-144.01,56.91-17.05-13.32-39.86-55.16-53.74-70.62,7.55-8.67,182.83-37.01,205.25-36.91,9.3.04,115.66,15.65,133.08,18.98,8.59,1.64,70.26,15.33,73.1,16.87,6.17,3.34.05,4.13.94,6.33Z"/><g id="porte"><path class="cls-38" d="M966,607.55c-7.42,2.54-37.82-18.26-68.94-.3-32.36,18.68-70.66,48.58-69.36,84.95,2.32,64.81,10.09,182.84,12.07,211.87l-21.64-.06s-2.02-30.71-4.46-71.67c-.12-2.07-2.2-3.58-2.33-5.69-1.47-24.99-3.07-53.24-4.44-80.44-.1-1.97,1.37-9.42,1.27-11.38-.97-19.6.6-33.77-2.02-50.06-15.8-97.99,131.54-155.99,156.1-147.83,0,0,3.24,19.52,3.39,19.47.79-.26-3.39-19.47-3.39-19.47,40.23-11.63,153.63,47.06,169.19,101.28,2.22,7.72.03,20.6,0,27.49-.03,5.51-.45,7.24-.1,12.71.04.62-.06,4.39-.06,4.39l-.17,7.76-2.83,40.81-.78,3.81-11.56,172.18-39.34-3.08c1.67-22.3,2.69-151.61,5.74-219.14"/><path class="cls-31" d="M1080.7,776.95,1078.94,811.85c-.02.24,1.78,27.11,1.76,27.35-2.13,31.29-3.43,56.13-4.1,65.07l21.93.53.77-4.49c.04-.49-1.03-44.52-.48-57.29.09-2.17,3.12-3.41,3.12-3.41v-.14s.07-.73.07-.73c0,0,2.44,7.94.32-28.5s7.7-72.4,7.7-72.4l-1.06-4.48-.1-.41-.08-.33s.05-.45.15-1.26l.05-.43c.38-3.23,1.24-10.66,2.06-18.4.4-3.83.8-7.74,1.13-11.26v-.09c.36-3.77.62-7.1.72-9.38.11-2.51.05-5.01-.18-7.51-.08-.84-.22-1.73-.42-2.65-.05-.24-.11-.49-.17-.74-3.58-14.97-20.5-39.21-20.5-39.21l-4.41-1.31-.91-.27h-.01s-39.26-33.25-39.26-33.25l-.72-.48s-8.43.95-9.83.14c-18.74-10.8-44.58-27.02-44.58-27.02l-23.38-4.45-.72-4.47-.46-.15-.48.16-1.14.37s1.23,36.52.28,36.6c-12.41.98-68.75,25.11-68.45,25.85l-9.06-21.02-.49.3-.17.11h0l-.33.2c-3.61,2.28-35.18,18.22-45.11,29.09-.31.34-.61.68-.91,1.02-.18.2-.36.4-.54.6,0,0-.01.01-.02.02-10.74,12.19-17.25,24.61-19.46,37.06-.09.48-.16,1.01-.23,1.58-.03.24-.05.48-.08.73-.41,3.97-.51,9.17-.51,9.17l6.75,41.85-.13.73-1.9,11.08-.2,1.14v.13c.18,1.39,1.66,13.95,3.32,31.43.17,1.73.33,3.51.5,5.33l.11,1.19c1.31,14.44,2.64,31.41,3.45,47.95,0,.05,0,.12-.03.2-.03.14-.1.32-.19.52,0,.02-.01.03-.02.05-.34.76-.99,1.84-1.57,2.75-.58.92-1.08,1.66-1.08,1.66,0,0,.34,6.83.78,15.91,0,0,4.28-.91,4.28-.9.88,17.89-2.08,45.41-2.06,45.72l-.07,5.03,20.02-.41c-.63-9.28.99-27.82-.46-50.63-.4-6.31.22-16.11-.21-23-.01-.19-.38-42.29-.39-42.49-.93-31.2,1.04-27.98-.54-59.67-.01-.24-.97-39.1-.95-39.35,1.4-13.47,8.66-21.54,8.48-22.36-.24-1.06-23.83-1.09-24.05-2.06-.63-2.89-8.11,20.97-6.76,23.6.12.24.03-.52.05-.77.04-.61.1-1.23.16-1.84.02-.22.05-.44.08-.66,0,0,0,0,0,0,.02-.19.05-.38.07-.56.02-.16.04-.32.06-.48,0-.07.02-.14.03-.21.03-.25.07-.49.11-.73.02-.15.04-.3.07-.44.09-.53.18-1.05.29-1.58.11-.55.22-1.09.35-1.63.06-.26.12-.52.18-.78.04-.17.08-.35.13-.52.06-.24.12-.49.19-.73.05-.18.1-.36.15-.54.04-.14.08-.28.12-.41.09-.32.19-.64.29-.96.07-.22.14-.44.21-.66.22-.69.46-1.39.71-2.08.13-.37.27-.73.41-1.1.33-.86.68-1.72,1.05-2.57.08-.19.16-.37.24-.55.45-1.02.93-2.02,1.43-3.02.12-.25.64-1.25.38-.75s23.91,2.31,24.05,2.06c2.02-3.79,2.23-2.92,4.91-6.49.13-.17.58-.66.71-.83.27-.36.22-.41.5-.76.16-.21-.17.21,0,0,.51-.65.22-.22.75-.86.14-.17.3-.33.45-.5l.65-.44c.16-.19.38-.37.54-.56.39-.45.3-.26.7-.71.33-.38,23.8-17.96,24.14-18.33.4-.44-9.36-19.75-9.9-20.09-1.45-.91-33.58,25.38-31.49,25.73.79.13.95-.98,1.43-1.47.78-.8,1.58-1.59,2.39-2.37.5-.48,1-.96,1.51-1.44.4-.38.8-.75,1.21-1.13.35-.32.7-.65,1.06-.97.26-.24.53-.48.79-.71.22-.2.44-.39.66-.59.18-.16.37-.32.55-.49.33-.29.67-.59,1.01-.88.04-.03.08-.07.12-.1.38-.33.78-.67,1.17-1,2.94-2.49,5.98-4.88,9.07-7.19.45-.34.9-.67,1.35-1,.65-.48,1.3-.95,1.96-1.42.33-.24.66-.47.98-.7.06-.04.12-.09.19-.13.4-.29.8-.57,1.21-.85.38-.27.77-.54,1.16-.8.3-.21.6-.42.91-.62.92-.63,1.84-1.25,2.77-1.86.36-.24,9.54,20.33,9.9,20.09,1.56-1.02,4.09-2.26,5.64-3.24.08-.05-9.62-20.67-9.54-20.72.02-.02.05-.03.07-.04.14-.09.28-.18.41-.26.19-.12.38-.24.56-.35,1.17-.73,2.34-1.44,3.5-2.14.5-.3,1.01-.6,1.51-.9,1-.59,2-1.18,2.99-1.75,1.15-.67,2.31-1.32,3.46-1.97,4.2-2.36,8.39-4.59,12.51-6.69,23.16-11.82,44.22-19.63,52.37-22.49.47-.17.91-.32,1.29-.45.13-.04.25-.09.37-.13.1-.04.2-.07.3-.1.09.03.19.06.28.1,7.89,2.69,39.02,13.82,69.56,31.42,1.81,1.04,3.63,2.12,5.47,3.23.25.15.5.3.75.45,14.26,8.69,29.08,19.44,40.7,31.88.19.21.39.42.58.63,10.42,11.3,18.18,23.98,20.5,37.75.04.24.08.49.12.74.51,3.29.7,6.64.55,10.05-.54,11.86-1.25,25.44-2.07,39.9-.02.35-.04.7-.06,1.04,0,.06,0,.13,0,.19-.01.18-.02.36-.03.55-.84,14.58-1.78,30.01-2.75,45.42-.02.3-.04.59-.06.89"/><polygon class="cls-37" points="967.14 591.49 966.2 591.47 966.86 570.43 965.5 556.31 966.44 556.25 967.8 570.41 967.8 570.43 967.14 591.49"/><polygon class="cls-36" points="1033.4 621.01 1032.64 620.57 1055.87 596.46 1056.62 596.9 1033.4 621.01"/><polygon class="cls-36" points="896.8 622.32 873.76 598.13 874.51 597.69 897.56 621.88 896.8 622.32"/><polygon class="cls-36" points="1126.37 681.67 1087.63 681.56 1087.64 680.82 1126.38 680.93 1126.37 681.67"/><polygon class="cls-28" points="1123.82 733.4 1087.39 733.29 1087.39 732.56 1123.83 732.66 1123.82 733.4"/><polygon class="cls-36" points="1116.96 839.65 1080.7 839.2 1080.71 838.46 1116.97 838.91 1116.96 839.65"/><polygon class="cls-36" points="844.85 683.18 806.11 683.07 806.11 682.33 844.85 682.44 844.85 683.18"/><polygon class="cls-36" points="846.63 734.92 808.17 734.81 808.17 734.08 846.63 734.19 846.63 734.92"/><polygon class="cls-36" points="814.51 834.59 813.78 834.24 850.13 832.43 850.21 833.16 814.51 834.59"/><polygon class="cls-36" points="858.31 653.51 844.69 647.9 840.88 643.67 826.58 635.8 827.13 635.2 841.56 643.15 845.34 647.33 858.75 652.86 858.31 653.51"/><polygon class="cls-36" points="1070.57 649.16 1070.13 648.51 1083.6 643.06 1087.42 638.9 1087.48 638.86 1101.92 631.03 1102.46 631.64 1088.09 639.43 1084.23 643.63 1070.57 649.16"/><polygon class="cls-16" points="813.48 835.07 835.22 833.76 830.64 836.69 813.48 835.07"/><polygon class="cls-69" points="807.18 742.98 825.37 745.95 825.18 747.09 807.16 747.04 807.18 742.98"/><polygon class="cls-6" points="874.51 597.69 890.5 610.85 888.18 612.74 874.51 597.69"/><polygon class="cls-46" points="807.16 747.04 825.18 747.09 828.49 778.65 808.6 778.59 808.83 782.8 828.99 783.98 829.1 785.16 809.03 786.45 807.16 747.04"/><polygon class="cls-79" points="1125.37 730.66 1108.95 731.36 1109.03 730.62 1125.39 727.73 1126.42 712.57 1111.06 712.52 1112.19 701.17 1127.49 702.95 1125.37 730.66"/><polygon class="cls-36" points="965.5 556.31 961.43 557.8 965.4 576.09 966.2 591.47 967.33 570.42 965.5 556.31"/><polygon class="cls-47" points="848.33 778.63 872.9 779.83 872.86 788.51 848.27 791.71 848.33 778.63"/><polygon class="cls-66" points="848.25 795.91 874.54 797.68 876.07 864.3 852.42 866.16 848.25 795.91"/><path class="cls-62" d="M1081.77,806.05c-.2,3.9-.4,7.76-.6,11.58l-20.55-1.88-.17-8.68,21.32-1.02Z"/><path class="cls-39" d="M1080.93,822.32c-1.49,28.7-2.83,54.24-3.62,69.11l-22.16-2.56,2.16-66.61,23.62.06Z"/><path class="cls-25" d="M891.52,670.19l-12.32,13.63-35.51,4.23c.03-7.78,2.24-15.2,6.06-22.22l41.77,4.36Z"/><polygon class="cls-53" points="852.19 692.25 848.95 709.76 869.88 709.82 875.78 692.32 852.19 692.25"/><path class="cls-63" d="M919.62,651.2l-22.95,15.87s-31.51-4.46-43.95-6.16c8.29-12.47,21.46-23.58,35.94-33.06l30.96,23.34Z"/><path class="cls-12" d="M1087.48,686.06l-32.15-4.02-12.19-13.7,37.53-3.69c3.92,6.78,6.37,13.94,6.82,21.42Z"/><polygon class="cls-1" points="1084.6 690.62 1087.68 708.14 1066.75 708.08 1061.01 690.55 1084.6 690.62"/><path class="cls-27" d="M1078.13,660.6c-14.45,1.92-37.86,5.09-37.86,5.09l-22.79-16.01,27.31-20.29c13.37,9.06,25.46,19.54,33.35,31.2Z"/><path class="cls-43" d="M998.17,604.16c-3.28,13.96-9.98,40.84-12.85,40.61-3.87-.32-31.33-1.17-31.33-1.17l-15.16-41.74c15.84-6.63,27.25-10.21,27.25-10.21,0,0,13.8,4.43,32.09,12.51Z"/><path class="cls-4" d="M1025.17,617.45l-23.89,29.89-9.06-2.57s14.01-24.4,20.18-33.99c4.19,2.07,8.48,4.29,12.78,6.66Z"/><path class="cls-60" d="M902,637.91s22.06,19.28,23.21,19.07,30.23-7.29,30.23-7.29l-11.36-33.38s8.49,28.64,8.24,29.52c-.25.88-25.84,7.31-28.55,7.21-2.7-.09-21.78-15.12-21.78-15.12Z"/><path class="cls-17" d="M850.59,692.24c.86.03,26.85-.53,26.85.08,0,.6-6.17,17.5-6.17,17.5l-20.76-.06,29.8.09,3.23-19.64-32.95,2.04Z"/><polygon class="cls-15" points="876.18 789.67 850.12 792.28 876.17 791.79 876.18 789.67"/><path class="cls-8" d="M1084.38,709.89l-19.23.77-.06,12.38,19.59.06s-25.08,1.73-25.08,1.44c0-.29-3.24-16.97-3.24-16.97l28.01,2.32Z"/><polygon class="cls-34" points="1025.06 639.92 1012.21 649.85 1035.53 666.04 1065.38 662.3 1031.4 669.39 996.15 654.56 1025.06 639.92"/><path class="cls-65" d="M1091.01,904.06l12.1-161.07c-3.86,65.83-9.47,144.43-10.79,161.79l-1.31-.72Z"/><path class="cls-20" d="M1105.86,691.65c-.66,14.66-1.59,31.94-2.68,50.24l-18.35,3.91-1.83,36.25-.7.41c1.52-42.63,2.24-83.82.03-96.43-9.51-54.35-116.33-78.49-116.33-78.49,0,0-103.29,20.24-115.37,77.83-8.06,38.42,6.98,209.6,6.98,209.6l-17.84,9.07c-1.97-29.02-9.76-147.06-12.06-211.87-1.29-36.36,36.99-66.26,69.36-84.93,31.11-17.96,62.88-29.3,70.3-31.85,7.38,2.52,38.91,13.71,69.83,31.52,32.24,18.58,70.33,48.35,68.67,84.73Z"/><path class="cls-71" d="M1103.21,741.9l-.04.45c.02-.15.02-.3.02-.45h.02Z"/><polygon class="cls-36" points="1086.07 732.26 1126.34 730.67 1123.82 733.4 1086.07 732.26"/><g id="Background-2"><path class="cls-3" d="M1049.98,876.67c.12,0-.32-4.11.15-3.4.23.35-1.08,9.31,1.2,4.78.04,5.4-.03,10.81,0,16.21h2.39q0-109.27,0-218.55c-.61-.76-.89.27-2.09.82.05-.5.6-1.14-.6-.7.11-.07,1.32-1.59,1.64-1.87q-82.47.12-164.94.23c-1.53-.93-1.59-.72-1.2,1.17q0,109.16,0,218.31l.15,1.17c4.82.52,1.06-2.55,3.44-2.57.05,1.14-.5,1.58.9,2.57-.63.95-12.32,12.81-14.06,9.56l1.2.12c.74-74.98.29-150.06.3-225.08-.61-1.39-.13-2.7-1.2-4.31.18-2.31-2.78-6.16,0-7,96.65-29.11,97.17-29.94,186.93,0,4.09,1.36.14,6.84,0,10.26-.27,6.4-.5,12.84-.6,19.24-1.07,68.56.95,137.16,0,205.72-.57,1.61-2.56,1.87-4.34,1.28-.77-.25-8.95-1.89-9.19-2.51-.45-1.2.26-21.71-.08-25.46Z"/><path class="cls-72" d="M1064.18,678.4c.14-3.42.76-6.85,0-10.26,1.99,0,3.99-.02,5.98,0-.28,1.3.37,9.51,0,9.91-.17.19-5.16.2-5.98.35Z"/><path class="cls-26" d="M872.47,668.14c1.59,0,3.19,0,4.79,0-.13,2.32.18,4.68,0,7-.11,1.43.42,2.52-.9,3.73.13-1.01-3.46-.11-3.89-.58-.38-.41.29-8.82,0-10.15Z"/><path class="cls-21" d="M876.96,904.41l-.6-.58q0-112.48,0-224.96c1.32-1.21.79-2.3.9-3.73,1.06,1.61.59,2.92,1.2,4.31,0,75.01.44,150.09-.3,225.08l-1.2-.12Z"/><path class="cls-3" d="M890.12,892.28c-.28-6.05-.4-12.15,0-18.19.13-2.01-1.08-2.94-.21-2.54.14.07-.14,2.39.22,2.29-.37,4.05,2.28,18.82,1.78,20.42-.07.21-.87.54-.9.58-1.4-.99-.84-1.42-.9-2.57Z"/><path class="cls-42" d="M1051.32,878.05c-.04-4.35.01-8.71,0-13.06-.16-50.07-.02-100.14,0-150.21,0-11.44-.76-27.43.3-38.25,1.21-.54,1.48-1.57,2.09-.82q0,109.27,0,218.55h-2.39c-.03-5.4.04-10.81,0-16.21Z"/><path class="cls-42" d="M886.53,893.68q0-109.16,0-218.31l2.09,1.75q0,108.57,0,217.15c-.35.62-2.45.57-2.09-.58Z"/><path class="cls-13" d="M891.01,676.77c-1.18-.49-2.46-2.06-3.29-2.57q82.47-.12,164.94-.23c-.32.28-1.53,1.79-1.64,1.87-.47.3-.96.56-1.35.93h-158.66Z"/><path class="cls-57" d="M886.53,893.68c-.36,1.15,1.74,1.2,2.09.58q0-108.57,0-217.15l-2.09-1.75c-.39-1.89-.34-2.09,1.2-1.17.83.5,2.11,2.08,3.29,2.57-2.02.41-1.92,4.21-1.79,5.71.06.66,1.19,1.32,1.2,1.4.18,3.37-.64,6.91-.6,10.26.02,1.54.59,3.35.6,4.9.13,18.37.1,36.92-.6,55.28-.01.28.46,2.01.3,5.6,0,.21-.89.02-.9.23-.23,4.7-.03,9.42,1.2,13.99-.81,9.4-.03,18.6,0,27.99,0,.14-1.05,1.59,0,2.57-1.03,19.12.41,38.27-.3,57.38,0,.21-.89.02-.9.23-.19,4.42.83,8.9.9,11.78.14,6.05-.28,12.15,0,18.19-2.38.02,1.38,3.09-3.44,2.57l-.15-1.17Z"/><path class="cls-3" d="M1050.13,860.09c-.33-25.15-.14-50.33,0-75.45,0-.17.6-.06.6-.23.07-12.63.11-25.27,0-37.9q.3-15.86.6-31.72c-.02,50.07-.16,100.14,0,150.21-1.71-.51.3-4.72-1.2-4.9Z"/></g><path class="cls-59" d="M876.96,904.41l1.54-236.26s68.35-22.16,95.49-22.16,89.26,22.14,89.26,22.14l.94,236.93,12.41-.8,5.74-218.23s-2.48-46.14-116.33-78.49c0,0-105.99,23.86-115.37,77.83l1.98,218.25,24.35.79Z"/></g></g></g></g></svg>