<svg id="Layer_2" class="morphing" xmlns="http://www.w3.org/2000/svg" viewBox="0 0 250.18 250.77"><defs><style>.cls-1{fill:#231f20;}.cls-1,.cls-2,.cls-3{stroke-width:0px;}.cls-2{fill:#3c8b72;}.cls-3{fill:#fdde46;}</style></defs>
    <g id="morph"><g id="fond">
        <path class="cls-1" d="M116.44.23c87.79-5.1,153.91,76.51,128.09,162.54-14.35,47.81-58.54,83.58-108.31,87.57C54.21,256.92-10.54,186.07,1.43,105.03,9.85,48.05,59.05,3.56,116.44.23Z"/>
        <path class="cls-3" d="M120.91,11.39c81.81-2.52,139.44,78.43,110.22,155.21-32.17,84.56-147.58,99.16-199.39,23.61-51.33-74.84.02-176.07,89.17-178.81Z"/></g>
        <path class="cls-2" d="M211.22,71.69c1.32,5.83-.78,8.63-4.06,13.05q-40.84,46.44-81.69,92.87c-7.9,7.89-14.24,18.92-26.33,10.24-2.95-2.11-48.7-44.84-53.09-49.41-4.38-4.56-7.93-7.35-7.47-14.29.78-11.75,14.05-17.5,23.44-10.79,5.61,4.01,34.81,33.39,44.67,40.42,11.17-11.06,76.34-88.43,81.4-91.91,8.12-5.58,21.01.43,23.13,9.81Z"/>
        <path class="cls-1" d="M59,46.4c4.39-.47,9.34.82,12.91,3.44,3.59,2.64,44.93,45.36,53.07,52.79,9.46-7.22,49.07-50.36,54.79-53.65,15.56-8.94,34.42,8.87,23.67,25.1-3.16,4.77-44.7,44.12-52.79,53.07,6.91,9.25,45.45,44.54,49.06,50.2,9.97,15.68-8.91,34.38-24.81,23.95-4.17-2.73-41.44-41.4-49.34-48.77-8.82,7.26-44.62,46.07-50.49,49.34-16.32,9.09-33.91-9.58-23.95-24.81,2.47-3.78,42.03-41.63,49.06-49.34-7.74-9.47-50.72-49.09-54.22-55.37-5.83-10.45.91-24.68,13.05-25.96Z"/>
    </g>
</svg>