<?xml version="1.0" encoding="UTF-8"?><svg id="Layer_2" xmlns="http://www.w3.org/2000/svg" xmlns:xlink="http://www.w3.org/1999/xlink" viewBox="0 0 1924 1077.53"><defs><style>.cls-1{fill:#1f253a;}.cls-1,.cls-2,.cls-3,.cls-4,.cls-5,.cls-6,.cls-7,.cls-8,.cls-9,.cls-10,.cls-11,.cls-12,.cls-13,.cls-14,.cls-15,.cls-16,.cls-17,.cls-18,.cls-19,.cls-20,.cls-21,.cls-22,.cls-23,.cls-24,.cls-25,.cls-26,.cls-27,.cls-28,.cls-29,.cls-30,.cls-31,.cls-32,.cls-33,.cls-34,.cls-35,.cls-36,.cls-37,.cls-38,.cls-39,.cls-40,.cls-41,.cls-42,.cls-43,.cls-44,.cls-45,.cls-46,.cls-47,.cls-48,.cls-49,.cls-50,.cls-51,.cls-52,.cls-53,.cls-54,.cls-55,.cls-56,.cls-57,.cls-58{stroke-width:0px;}.cls-2{fill:#1f3249;}.cls-3{fill:#836d53;}.cls-4{fill:url(#linear-gradient);}.cls-5{fill:#333047;}.cls-6{fill:#231f20;}.cls-7{fill:#df6047;}.cls-8{fill:#fbbb99;}.cls-9{fill:#a79d6b;}.cls-10{fill:#f9a72d;}.cls-11{fill:#434542;}.cls-12{fill:#c65f53;}.cls-13{fill:#251c31;}.cls-14{fill:#678b8c;}.cls-15{fill:#6494a8;}.cls-16{fill:#b93626;}.cls-17{fill:#fcb96b;}.cls-18{fill:#103f60;}.cls-19{fill:#a57b56;}.cls-20{fill:#f6da8a;}.cls-21{fill:#422538;}.cls-22{fill:#0a1a26;}.cls-23{fill:#1a517b;}.cls-24{fill:#fcd4ae;}.cls-25{fill:#a091a2;}.cls-26{fill:#8c3e45;}.cls-27{fill:url(#linear-gradient-2);}.cls-28{fill:#571f3a;}.cls-29{fill:#5a2e36;}.cls-30{fill:#26848e;}.cls-31{fill:#6a374a;}.cls-32{fill:url(#linear-gradient-3);}.cls-33{fill:#375067;}.cls-34{fill:#efc173;}.cls-35{fill:#6da7c1;}.cls-36{fill:#65526e;}.cls-37{fill:#b99f9d;}.cls-38{fill:#1a6d78;}.cls-39{fill:#3e6076;}.cls-40{fill:#76503e;}.cls-41{fill:#0f111a;}.cls-42{fill:#4d5070;}.cls-43{fill:#641724;}.cls-44{fill:#433630;}.cls-45{fill:#c65675;}.cls-46{fill:#40969a;}.cls-47{fill:#f68b27;}.cls-48{fill:#882026;}.cls-49{fill:#9b362e;}.cls-50{fill:#4382a6;}.cls-51{fill:#251a1f;}.cls-52{fill:#c34946;}.cls-53{fill:#366f92;}.cls-54{fill:#e67648;}.cls-55{fill:#3c141d;}.cls-56{fill:url(#linear-gradient-4);}.cls-57{fill:#544642;}.cls-58{fill:#dcaba4;}</style><linearGradient id="linear-gradient" x1="1513.49" y1="-86.65" x2="1372.62" y2="477.01" gradientUnits="userSpaceOnUse"><stop offset="0" stop-color="#176970"/><stop offset=".48" stop-color="#619f94"/><stop offset="1" stop-color="#a6c3a2"/></linearGradient><linearGradient id="linear-gradient-2" x1="403.76" y1="-82.04" x2="542.39" y2="420.13" gradientUnits="userSpaceOnUse"><stop offset="0" stop-color="#18666f"/><stop offset="1" stop-color="#89b5a0"/></linearGradient><linearGradient id="linear-gradient-3" x1="317.97" y1="440.56" x2="4.63" y2="447.55" gradientUnits="userSpaceOnUse"><stop offset="0" stop-color="#4b4e69"/><stop offset="1" stop-color="#2f4058"/></linearGradient><linearGradient id="linear-gradient-4" x1="520.41" y1="547.37" x2="795.81" y2="935.37" gradientUnits="userSpaceOnUse"><stop offset=".27" stop-color="#27253b"/><stop offset="1" stop-color="#5b1926"/></linearGradient></defs><g id="jour_arriere"><g id="Background"><rect class="cls-6" x="0" width="1924" height="1077.53"/><path class="cls-4" d="M992.14,1.47c310.6.1,621.2-.07,931.8,0,.11,89.18-.15,178.35,0,267.53-63.02-12.03-108.5,31.96-118.35,75.2-23.69,5.82-45.56,46.57-48.84,65.07-54.68-.1-101.22,39.18-113.66,78.09-48.38-35.34-112.68-34.31-156.87,5.06-18.79,16.74-22.36,36.04-30.06,36.88-62.63-56.66-86.72-97.68-1.88-155.45.61-3.84-5.66-1.43-7.51-2.17-5.02-2.02-9.81-4.06-15.03-5.78-6.26-44.93-23.36-38.94-24.42-41.21-1.18-2.54,15.78-11.21,13.15-22.41-.38-1.6.25-3.43,0-5.06-40.69-17.53-32.76-35.23-33.82-37.6-.63-1.4-26.93-16.78-31.94-15.18,20.4-10.9,41.91-5.51-3.76-23.14,3.04-7.98-16.28-40.51-24.42-54.23-20.85-35.12-46.62-68.83-72.33-101.95l-6.58.72c-16.56,33.24-34.78,11.72-40.39,13.74-1.08.39-4.96,11.14-15.03,13.01-66.48-44.27-47.42-66.22-88.3-21.69-22.25-21.49-7.72-33.44-46.97-20.25-6.34-3.55-20.28-33.86-22.54-34.71-9.91-3.71-34.77,9.89-42.27-14.46Z"/><path class="cls-27" d="M823.06,1.47q-26.77,38.32-53.54,76.64c-33.6-17.11-24.44-28.27-54.48-8.68-11.36-22.76-4.48-40.48-26.3-36.15-37.06,53.07-74.03,108.85-108.02,162.68,21.85,9.42-3.36,9.84-9.39,15.91-1.61,1.62-17.56,29.98-22.54,36.88-14.6,20.2-39.97,52.6-41.33,72.3q-9.39,3.25-18.79,6.51c97.43,38.03,56.19,86.06,3.76,138.1-.42-.38-4.75,1.7-11.27-5.06-8.02-8.32-25.38-49.83-33.82-63.63-3.61-5.62-9.59,6.52-13.15,12.29-72.7,10.14-55.02-12.03-65.75-29.64-5.4-8.86-18.34-10.55-20.66-13.01-1.48-1.58-5.75-20.23-18.79-36.15-22.08-26.96-53.02-32.18-54.48-34.71-1.29-2.23-1-22.01-18.79-46.27-41.63-56.8-118.6-49.51-123.99-26.75-12.33-28.76-14.07-61.31-40.39-85.32q-8.92,9.76-17.85,19.52c-.67-26.98,10.43-100.42-1.88-120.03-1.99-3.17-21.76-10.43-20.66-35.43,257.06-3.35,514.96.09,772.11,0Z"/><path class="cls-32" d="M50.95,1.47c-1.09,25,18.68,32.26,20.66,35.43,12.3,19.61,1.21,93.05,1.88,120.03q8.92-9.76,17.85-19.52c26.32,24.01,28.06,56.56,40.39,85.32-.46,1.96.04,4.93,0,7.23-7.72.71-10.69-3.04-15.03,2.17-2.97,7.18,28.48,131.57,46.97,145.33,29.21,76.68,10.78,55.63,22.54-5.78,2.44,10.82,3.2,22.53,5.64,33.26-7.68-.61-2.37,28.18,0,39.77,9.69,47.35,33.29,82.24,33.82,86.77.15,1.3-5.5,11.79-3.76,26.03,3.37,27.44,83.99,178.23,107.08,215.47q16.91,17.71,33.82,35.43c-20.76,4.23-70.47,26.2-69.51,44.83-25.54.6-54.23,10.95-78.9,5.78.21-1.75,9.97-31.23,11.27-33.98,1.76-3.71,18.04-17.75,9.39-19.52,5.9-9.83,3.45-14.96,3.76-26.03h5.64c49.05,2.27,37.92-17.52,41.33-26.75,2.57-6.96,24.62-3.32-15.97-23.86-2.26-1.14-12.3-1.03-13.15-1.45-2.08-1.01-6.13-15-29.12-20.25-22.91-5.23-27.8,2.5-30.06,2.89-5.02.88-15.52-.93-19.73,0-16.66,3.68-15.1,17.12-15.97,18.08-1.74,1.93-12.35.62-15.03,10.12-2.45,8.71.24,29.12,10.33,35.43,17.54,10.97,44.08-3.69,53.54,40.49,1.09,5.09,4.78,8.4,3.76,16.63-.26,2.1-13.72,38.64-15.03,40.49-3.98,5.64-4.75,4.26-11.27,6.51-13.51,4.65-47.83,5.33-52.6,13.01-71.48-43.59-85.26-27.91-114.6-27.48-7.21.11-13.55-1.44-20.66-1.45C-.48,575.09.75,288.28.22,1.47c16.9-.16,33.82.22,50.72,0Z"/><path class="cls-41" d="M246.32,895.15c.4,1.18-2.72,1.81-1.88,3.62,19.46,41.66,50.48,41.65,66.69,49.89,18.95,9.63,43.82,27,60.12,34.71,61.23,28.97,142.3,56.44,202.89,88.21q3.29-1.08,6.58-2.17c-7.2-15.1-8.11-80.15-11.27-85.32-4.37-7.14-37.79-16.21-45.09-22.41,4.54,1.22,8.78,2.83,13.15,4.34,40.5,14.01,44.95,29.51,47.9,30.37,3.88,1.13,26.52-3.06,38.51-1.45-18.17,1.84-39.88,2.94-35.69,6.51q43.68,35.79,87.36,71.58c31.32-33.2,25.8-21.98,41.33-20.25,16.89,1.88,64.2,8.66,67.63,8.68,7.48.03,59.37-9.72,67.63-10.12,9.67-.47,18.55,5.88,23.48,0,14.14,3.88,22.69,6.12,37.57,8.68,5.63,11.09,19.51,3.06,15.03,17.35-197.88-.06-395.76.21-593.64,0-60.05-79.35-97.97-118.35-189.74-177.15-.52-.33.44-3.34,0-3.62,10.58-2.6,22.84-6.19,33.82-7.23,21.22-2,47.6-1.08,67.63,5.78Z"/><path class="cls-38" d="M1901.39,503.26c9.46,11.17,6.51,26.96,20.66,20.25,1.19,3.72-3.45,2.54-3.76,3.62-1.7,5.93-1.91,115.58,0,121.47.13.4,4.07,5.84,5.64,6.51-.03,27.48.04,54.95,0,82.43-3.27,6.02-5.12,4-5.64,4.34-47.6,31.11-87.74,64.97-133.38,95.44,8.57-24.65,14.86-50.98,28.18-74.47,35.42-62.48,109.65-81.97,86.42-170.64q-2.35-.36-4.7-.72c-28.33,29.65-16.25,74.62-34.75,93.27-9.18,9.26-47.77,20.59-61.06,28.2-10.79,6.19-16.6,14.44-25.36,21.69-30.18,24.99-57.91,52.31-81.72,80.98,19.64-38.42,49.34-76.74,79.84-112.07-29.86,23.05-54.11,50.27-86.42,71.58-.68-.04-1.97-3.43-1.88-3.62,1.11-2.1,25.95-33.91,30.06-39.04,29.81-37.18,80.64-93.23,114.6-129.42,3.72-3.97,13.1-9.16,18.79-16.63,15.52-20.41,19.34-44.43,24.42-67.24,2.76,27.93,18.15-6.99,16.91-17.35,8.93-2.85,4.38-8.91,13.15,1.45Z"/><path class="cls-41" d="M20.89,863.34c10.37,22.37,23.09,44.26,39.45,64.35,70.69,48.86,131.24,107.25,208.53,149.67-89.55-.14-179.1.11-268.64,0-.13-71.82.18-143.64,0-215.47,7.12,0,13.46,1.55,20.66,1.45Z"/><path class="cls-22" d="M135.49,890.81c2.99,1.83,6.49,3.94,9.39,5.78.44.28-.52,3.28,0,3.62,91.77,58.79,129.69,97.8,189.74,177.15-21.92-.02-43.83.03-65.75,0-77.29-42.42-137.84-100.81-208.53-149.67-16.36-20.1-29.08-41.98-39.45-64.35,29.33-.44,43.12-16.12,114.6,27.48Z"/><path class="cls-22" d="M1923.93,898.04c-.02,8.68.03,17.35,0,26.03-7.68,7.97-4.73,18.14-9.39,26.75-6.17,11.39-37.87,29.17-46.97,39.04-32.15,34.91-14.43,58.99-133.38,87.49-6.89.02-13.78-.01-20.66,0,15.12-19.17,30.77-38.24,43.21-58.57,8.58-14.03,8.71-22.73,9.39-23.86,5.01-8.24,9.48-16.52,15.03-24.58,1.72-2.49,17.18-21.5,18.79-23.14,17.81-18.1,20.47-19.4,45.09-28.92,25-9.67,51.82-15.47,78.9-20.25Z"/><path class="cls-22" d="M1754.86,994.93c2.26,6.25-16.65,9.16-25.36,13.01-34.09,15.07-60.91,36.56-86.42,59.29q-24.42-25.31-48.84-50.61c-32.79,16.89-60.62,38.62-87.36,60.74-8.77,0-17.53,0-26.3,0-2.36-4.21-24.49-25.15-26.3-26.03,67.94-97.18,134.69-35.42,143.71-36.15,2.49-.2,22.31-22.02,32.88-27.48q61.99,3.62,123.99,7.23Z"/><path class="cls-8" d="M1923.93,387.58c.01,11.09-.01,22.17,0,33.26-17.29,7.02-21.03,7.29,0,10.12.01,10.6,0,21.21,0,31.81-21.85,2.05-45.29-5.57-65.75,1.45-16.4-28.78-59.94-54.87-101.45-54.95,3.28-18.51,25.15-59.25,48.84-65.07,28.86-7.09,66.03,39.63,68.57,59.29,18.92-9.86,23.8-21.5,49.78-15.91Z"/><path class="cls-24" d="M1923.93,269c.07,39.53-.04,79.05,0,118.58-25.98-5.59-30.86,6.05-49.78,15.91-2.54-19.66-39.71-66.38-68.57-59.29,9.85-43.24,55.34-87.23,118.35-75.2Z"/><path class="cls-41" d="M1766.13,994.93c-.69,1.13-.81,9.83-9.39,23.86-12.43,20.33-28.08,39.4-43.21,58.57-68.88.13-137.77-.06-206.65,0,26.73-22.12,54.56-43.85,87.36-60.74q24.42,25.31,48.84,50.61c25.51-22.73,52.33-44.22,86.42-59.29,8.72-3.85,27.63-6.76,25.36-13.01h11.27Z"/><path class="cls-41" d="M1923.93,992.04c-3.85-1.11-8.56,3.66-11.27,6.51-21.81,22.87-36.53,52.2-48.84,78.81-43.19.42-86.43-.1-129.62,0,118.96-28.5,101.23-52.58,133.38-87.49,9.1-9.88,40.8-27.65,46.97-39.04,4.66-8.62,1.72-18.79,9.39-26.75-.08,22.65.18,45.31,0,67.97Z"/><path class="cls-39" d="M1923.93,843.09c-5.87.46-10.25,3.63-15.03,5.78-29.55,13.33-62.16,21.94-91.11,36.15l-2.82-1.45c5.96-26.42,106.15-100.49,103.32-141.72.52-.34,2.36,1.68,5.64-4.34-.05,35.19.07,70.38,0,105.56Z"/><path class="cls-22" d="M1923.93,992.04c-.23,28.44.17,56.88,0,85.32-20.03.15-40.08-.2-60.12,0,12.31-26.61,27.04-55.94,48.84-78.81,2.72-2.85,7.43-7.62,11.27-6.51Z"/><path class="cls-22" d="M1427.98,1046.99c34.68,4.4-9.87,10.01-35.69,30.37-25.05.02-50.1-.01-75.14,0,25.79-36.77,62.17-36.85,110.84-30.37Z"/><path class="cls-58" d="M1923.93,462.77c0,9.64,0,19.28,0,28.92-10.49,1.27-20.07,2.97-22.54,11.57-8.77-10.36-4.22-4.3-13.15-1.45-2.05.65-12.66,3.94-13.15,4.34-7.87-7.6-7.9-26.13-16.91-41.94,20.46-7.02,43.91.61,65.75-1.45Z"/><path class="cls-30" d="M1923.93,860.45c-.03,12.53.03,25.07,0,37.6-27.09,4.78-53.9,10.58-78.9,20.25,23.95-10.72,21.14-17.7,33.82-36.15q22.54-10.85,45.09-21.69Z"/><path class="cls-41" d="M1454.28,1051.33c1.82.88,23.94,21.82,26.3,26.03-29.43.02-58.86-.02-88.3,0,25.83-20.36,70.38-25.97,35.69-30.37,6.99.93,19.91,1.26,26.3,4.34Z"/><path class="cls-13" d="M1010.92,1071.57c6.88,1.06,21.25,1.22,20.66,5.78-34.44,0-68.88.01-103.32,0,4.48-14.29-9.4-6.26-15.03-17.35,32.34,5.56,65.29,6.58,97.69,11.57Z"/><path class="cls-38" d="M1923.93,655.1c-1.56-.67-5.51-6.11-5.64-6.51-1.91-5.9-1.7-115.54,0-121.47.31-1.08,4.95.11,3.76-3.62h1.88c.03,43.86.05,87.73,0,131.59Z"/><path class="cls-8" d="M1923.93,491.69c0,10.6,0,21.21,0,31.81h-1.88c-14.16,6.72-11.2-9.07-20.66-20.25,2.47-8.6,12.06-10.3,22.54-11.57Z"/><path class="cls-38" d="M1923.93,843.09c-.01,5.78.01,11.57,0,17.35q-22.54,10.85-45.09,21.69c3.08-4.48,6.12-8.64,9.39-13.01,5.1-2.69,30.74-19.41,20.66-20.25,4.78-2.16,9.16-5.32,15.03-5.78Z"/><path class="cls-37" d="M1923.93,430.96c-21.03-2.83-17.29-3.1,0-10.12,0,3.37,0,6.75,0,10.12Z"/><path class="cls-24" d="M1756.74,409.27c41.51.08,85.04,26.17,101.45,54.95,9.01,15.8,9.04,34.33,16.91,41.94-6.73,5.54-2.38,6.85-3.76,13.01-5.09,22.81-8.9,46.83-24.42,67.24-5.68,7.47-15.06,12.66-18.79,16.63-11.66-10.99-28.75-102.62-35.69-104.84-47.24,49.44-31.61,69.05-37.57,104.12-10.5,61.73-59.56,106.37-114.6,148.22-3.98,3.03-9.06,5.72-13.15,8.68-6.23-38.14-19.35-75.45-31-112.79-21.67,47.23-18.81,13.05-28.18,10.12-19.31,7.45-4.05,45.65-23.48,5.06h-5.64q-15.5,29.28-31,58.57c-5.98.81-10.64-26.18-15.97-22.41-13.15,45.44-29.52,90.71-61.06,130.87-19.73-29.07-37.17-58.83-51.66-89.66,17.79-64.1,57.71-69.24,108.96-108.46.24-.18.76,1.17,5.64-2.89,10.34-8.63,28.74-19.35,3.76-39.04-26.62,2.81-16.87-5.65-24.42-11.57q12.21-6.87,24.42-13.74c-14.87-10.63-28.19-22.1-41.33-33.98,7.69-.83,11.27-20.14,30.06-36.88,44.19-39.37,108.49-40.4,156.87-5.06,12.44-38.91,58.98-78.19,113.66-78.09Z"/><path class="cls-24" d="M434.19,409.27c-9.82,15.92-16.73,33.73-26.3,49.89-5.99,10.11-36.79,52.8-37.57,57.84-1.74,11.19,7.4,21.04,9.39,25.31,7.56,16.18,18.23,34.09,31.94,47.72,19.6,19.5,65.77,40.72,90.17,87.49,11.9,22.8,19.03,37.01,3.76,58.57-79.62-40.95-84.54-61.96-118.35-112.07-2.95-4.37-14.65-11.23-16.91-14.46-7.08-10.16-14.2-35.84-20.66-46.27-10.45-16.86-35.13-44.16-39.45-53.51-8.85-19.15-9.31-52.34-15.03-67.97-4.06-11.11-20.15-24.62-35.69-70.14-4.6-13.48-7.57-28.95-11.27-25.31.03,31.2-46.25,70.21-46.97,80.26-3.47,4.89-7.37-12.77-9.39-21.69-2.44-10.73-3.2-22.44-5.64-33.26.31-1.6,9.89,4.09,5.64-29.64-2.58-20.46-15.72-43.06-45.09-47-4.96-21.16-15.42-42.97-15.03-65.07.04-2.3-.46-5.27,0-7.23,5.38-22.75,82.35-30.05,123.99,26.75,17.79,24.27,17.5,44.04,18.79,46.27,1.46,2.52,32.4,7.74,54.48,34.71,13.04,15.92,17.3,34.58,18.79,36.15,2.32,2.46,15.26,4.15,20.66,13.01,10.74,17.62-6.95,39.78,65.75,29.64Z"/><path class="cls-36" d="M201.24,426.62c-.51,7.12,17.38,38.81,23.48,47.72-7.87-63.45-.43-39.65,19.73,11.57,6.61,16.81,10.66,34.88,18.79,51.34,12.67,25.64,32.8,49.96,46.97,75.2,18.62,33.18,24.92,73.49,61.06,99.06,12.4.54,1.04-12.53,4.7-18.8,8.59,16.31,18.5,33.19,28.18,49.17-62.66-17.44-53.29,37.94-9.39,30.37.32,48.07-12.6,32.22-31.94,36.15q-16.91-17.71-33.82-35.43c-23.09-37.24-103.72-188.03-107.08-215.47-1.75-14.24,3.91-24.73,3.76-26.03-.52-4.53-24.13-39.41-33.82-86.77-2.37-11.59-7.68-40.38,0-39.77,2.02,8.92,5.93,26.58,9.39,21.69Z"/><path class="cls-55" d="M197.48,710.05c31.28,10.67-1.18,13.65,15.03,38.32,15.25,23.21,45.95,15.93,35.69,26.75-.2.21-4.55.8-3.76,4.34h-5.64c-1.57-13.95-31.32,7.86-31.94,9.4-1.45,3.62,9.24,22.66,11.27,28.2-6.82.39-1.15-6.43-7.51-2.89-9.46-44.18-36-29.52-53.54-40.49-10.09-6.31-12.79-26.71-10.33-35.43,2.68-9.5,13.28-8.19,15.03-10.12.87-.96-.69-14.39,15.97-18.08,4.21-.93,14.7.88,19.73,0Z"/><path class="cls-8" d="M186.21,371.67c-11.76,61.42,6.67,82.47-22.54,5.78.58-28.41-10.49-55.01-16.91-82.43,29.37,3.93,42.51,26.54,45.09,47,4.26,33.73-5.33,28.05-5.64,29.64Z"/><path class="cls-48" d="M244.45,779.47c-.79-3.54,3.56-4.13,3.76-4.34,45.11,4.58,2.81-10.11-5.64-18.08-20.74-19.54-8.71-39.31-15.03-49.89,22.99,5.25,27.04,19.24,29.12,20.25.85.41,10.89.3,13.15,1.45,40.59,20.54,18.53,16.91,15.97,23.86-3.41,9.24,7.72,29.03-41.33,26.75Z"/><path class="cls-36" d="M131.73,229.95c-.39,22.1,10.07,43.91,15.03,65.07,6.42,27.42,17.49,54.02,16.91,82.43-18.48-13.76-49.93-138.15-46.97-145.33,4.34-5.21,7.31-1.46,15.03-2.17Z"/><path class="cls-43" d="M227.54,707.16c6.32,10.58-5.71,30.35,15.03,49.89,8.45,7.96,50.75,22.65,5.64,18.08,10.25-10.82-20.44-3.54-35.69-26.75-16.21-24.67,16.25-27.65-15.03-38.32,2.26-.4,7.15-8.12,30.06-2.89Z"/><path class="cls-51" d="M214.39,859c-1.65,13.53,2.89,10.61,20.66,12.29,0,1.85-16.5-1.28-8.45,3.62,61.79,1.61-13.73,4.9-34.75,4.34-2.1-.06-3.9.44-3.76-1.45,6.52-2.25,7.29-.87,11.27-6.51,1.31-1.85,14.77-38.39,15.03-40.49,1.02-8.23-2.67-11.54-3.76-16.63,6.36-3.54.7,3.28,7.51,2.89.96,4.97,16.37-10.68,16.91-11.57,8.65,1.77-7.64,15.81-9.39,19.52-1.3,2.75-11.06,32.24-11.27,33.98Z"/><path class="cls-33" d="M238.81,779.47c-.3,11.07,2.15,16.2-3.76,26.03-.53.89-15.95,16.54-16.91,11.57-2.03-5.54-12.72-24.58-11.27-28.2.62-1.54,30.37-23.35,31.94-9.4Z"/><path class="cls-30" d="M1814.97,883.58c-.7,3.11-2.04,9.89,6.58,10.12,16.8-7.08,53.63-17.7,66.69-24.58-3.27,4.38-6.31,8.53-9.39,13.01-12.67,18.45-9.87,25.44-33.82,36.15-24.62,9.52-27.28,10.82-45.09,28.92-17.55-4.2-36.47-3.82-54.48-5.78-4.37-6.61-28.08-6.88-41.33-7.95,7.2-18.57,43.48-64.64,30.06-64.35,15.29-9.05,36.17-22.1,50.72-31.81,45.64-30.47,85.78-64.33,133.38-95.44,2.83,41.22-97.36,115.3-103.32,141.72Z"/><path class="cls-30" d="M1773.64,734.64c2.74-.25,4-.23,3.76,2.17-.84,8.31-75.36,105.41-79.84,154.01,10.94-8.46,24.45-14.48,36.63-21.69,13.42-.29-22.86,45.78-30.06,64.35,13.25,1.07,36.96,1.34,41.33,7.95-13.77-1.51-27.62-3.94-41.33-5.78-39-5.26-77.36-12.62-116.47-17.35-1.84-.94-3.59-2.36-5.64-2.89-2.95-3.57-6.85-7.15-7.51-11.57,5.29.4,5.17,6.82,8.45,8.68,9.22,5.22,26.86,4.07,37.57,5.78,1.88.3,29.86,10.96,32.88,3.62-4.88-29.6,4.14-65.74,3.76-86.77,0-.32-6.6-1.35-3.76-5.78,1.83-2.85,9.04,5.37-.94-18.08-14.38,11.93-22.99.11-24.42,0-1.6-.12-12.41,9.57-14.09,1.45,24.16-12.54,49.05-22.86,71.39-37.6,32.3-21.31,56.56-48.53,86.42-71.58-30.5,35.33-60.2,73.65-79.84,112.07,23.81-28.67,51.54-55.99,81.72-80.98Z"/><path class="cls-22" d="M800.52,1019.52c21.35,15.06,48.17,24.42,75.14,31.81-4.93,5.88-13.81-.47-23.48,0-8.26.4-60.15,10.15-67.63,10.12-3.43-.01-50.74-6.79-67.63-8.68-15.53-1.73-10.01-12.96-41.33,20.25q-43.68-35.79-87.36-71.58c-4.19-3.56,17.53-4.66,35.69-6.51,119.43-12.12,103.7,8.81,121.17,14.46,5.56,1.8,23.59,1.62,30.06,2.89,7.82,1.53,18.91,6.57,25.36,7.23Z"/><path class="cls-7" d="M909.48,863.34c31.07,19.26,26.98,15.96,28.18,2.89,7.47-14.16,11.64-1.77,16.91,0,.53.18,1.37-.18,1.88,0,13.63,4.91,20.84,6.28,33.82,15.91,5.17,3.84,19.38,16.9,20.66,21.69,1.32,4.93-.95,15.3,0,21.69-.71.05.12,3.24-13.15,4.34-35.94-31.78-48.44-35.07-5.64,0-10,.85-25.53,4.65-39.45,5.78-36.06-27.69-67.57-58.45-99.57-88.93-3.05-2.73-4.04-3.03-3.76.72-3.45.82,5.31,6.19-5.64,8.68-3.29-6.87-11.77-24.85-13.15-29.64-1.28-4.44,2.88-10.29-3.76-9.4.53-1.1,3.46-1.62,5.64-7.23,10,14.14,10.57,3.55,21.6,5.78,4.03.82,24.21,28.37,55.42,47.72Z"/><path class="cls-7" d="M1582.03,915.4c2.04.53,3.8,1.95,5.64,2.89,1.62.83,23.69,20.37,24.42,21.69.7,1.26,1.77,1.85,1.88,2.89-3.72.18-7.57-.27-11.27,0-25.64-8.94-43.36-1.12-31.94-28.2,1.55-1.08,9.42.24,11.27.72Z"/><path class="cls-22" d="M522.48,961.67h1.88c7.3,6.21,40.72,15.27,45.09,22.41,3.16,5.17,4.08,70.22,11.27,85.32q-3.29,1.08-6.58,2.17c-60.59-31.77-141.66-59.24-202.89-88.21-16.29-7.71-41.16-25.08-60.12-34.71-16.21-8.24-47.23-8.23-66.69-49.89-.85-1.81,2.28-2.43,1.88-3.62,21.87,7.5,39.44,31.41,57.3,40.49,20.53,10.44,62.07,12.88,92.05,28.92,30.27-3.7,60.04,2.55,90.17,1.45,23.55-.86,34.79-4.21,36.63-4.34Z"/><path class="cls-38" d="M1828.12,603.04c-33.95,36.2-84.79,92.24-114.6,129.42-4.11,5.13-28.95,36.94-30.06,39.04-.1.18,1.19,3.58,1.88,3.62-22.34,14.74-47.23,25.06-71.39,37.6-9.08,4.71-19.08,9.38-26.3,15.91-1.21-.1-2.77.21-3.76,0,6.01-13.48,59.72-66.8,60.12-74.47.03-.56-3.7-1.91-3.76-3.62,55.03-41.85,104.1-86.49,114.6-148.22,5.96-35.07-9.67-54.67,37.57-104.12,6.95,2.22,24.04,93.85,35.69,104.84Z"/><path class="cls-30" d="M1784.92,837.31c-14.55,9.71-35.44,22.77-50.72,31.81-12.18,7.21-25.7,13.23-36.63,21.69,4.48-48.6,79-145.7,79.84-154.01.24-2.4-1.02-2.42-3.76-2.17,8.76-7.25,14.57-15.51,25.36-21.69,13.28-7.61,51.87-18.94,61.06-28.2,18.5-18.65,6.43-63.63,34.75-93.27q2.35.36,4.7.72c23.23,88.67-51,108.16-86.42,170.64-13.32,23.49-19.61,49.83-28.18,74.47Z"/><path class="cls-30" d="M1888.24,501.82c1.24,10.36-14.15,45.28-16.91,17.35,1.37-6.16-2.97-7.47,3.76-13.01.49-.4,11.1-3.68,13.15-4.34Z"/><path class="cls-58" d="M1892.94,435.3c1.34-.27,27.57,4.57,23.48,6.51-39.35,6.79-35.64-4.05-23.48-6.51Z"/><path class="cls-30" d="M1888.24,869.12c-13.06,6.88-49.89,17.5-66.69,24.58-8.61-.23-7.28-7.01-6.58-10.12l2.82,1.45c28.96-14.21,61.57-22.82,91.11-36.15,10.08.84-15.57,17.56-20.66,20.25Z"/><path class="cls-30" d="M1583.9,828.63c-1.09-.23-21.42-1.54-22.54-1.45-17.37,1.52-20.1,8.63-24.42,10.12-16.74,5.78-43.79,11.68-62.93,14.46-16.45,2.39-41.41-5.09-29.12,11.57-1.02,2.19,2.62,5.16-5.64,4.34-5.59-4.31-12.65-7.67-16.91-13.01,52.89-17.94,130.75-44.74,175.65-72.3,16.74-10.27,25.13-20.26,29.12-23.14,4.1-2.95,9.17-5.65,13.15-8.68.06,1.7,3.79,3.05,3.76,3.62-.4,7.67-54.1,60.99-60.12,74.47Z"/><path class="cls-16" d="M909.48,341.3c.41.17-.94,3.69.94,4.34,1.35.47,8.01-1.53,29.12,4.34,6.15,1.71,8.95,1.31,9.39,1.45.59.18-3.19,1.27,10.33,5.78,6.96,2.33,13.45,1.21,14.09,1.45,1.94.7,16.63,12.9,17.85,13.01,1.04.1,5.77-4.84,20.66-2.89,3.38.44,28.05,13.37,63.87,17.35,7.52,6.59-40.26,1.35-44.15,4.34-7.08,23.32,10,27.23-20.66,41.94-42.41,3.02-13.91,15.61-15.03,22.41-.21,1.27-20.01,19.16-21.6,19.52-4.37,1-16.63-6.8-21.6-8.68-5.18-1.95-7.18-1.29-7.51-1.45-3.17-1.45-22.23-9.85-22.54-10.85-1.76-5.64,31.02-21.83-15.03-10.12,25.73-19.93,22.04-19.96-5.64-3.62-6.67,3.94-16.92,11.17-22.54,15.91-1.23-9.73-30.4,3.04-37.57-20.25-3.81-12.38,4.54-29.32,3.76-32.54-.19-.79-11.35-7.72-9.39-14.46.91-3.14,57.27-35.31,3.76-13.74-4.97-21.3-18.63-18.28,6.58-34.71,14.94,30.24,38.59-8.87,62.93,1.45Z"/><path class="cls-36" d="M505.57,736.08c-14.68,20.71-42.67,31.88-63.87,47.72-10.47-.49-11.98-11.17-15.97-17.35-4.21,30.47-17.26,41.34-29.12,5.78,1.29-.33,20.46-12.7,20.66-13.74.8-4.11-11.34-13.64-13.15-16.63-9.68-15.98-19.59-32.85-28.18-49.17-16.61-31.53-28.99-64.53-45.09-96.16-19.21-37.76-36.35-51.43-61.99-117.86-5.08-13.15-31.05-87.44-28.18-94.72,1.51-3.83,15.14-7.59,18.79-12.29,15.54,45.51,31.63,59.03,35.69,70.14,5.72,15.62,6.18,48.82,15.03,67.97,4.32,9.35,29.01,36.65,39.45,53.51,6.46,10.43,13.59,36.12,20.66,46.27,2.25,3.23,13.96,10.09,16.91,14.46,33.81,50.11,38.74,71.12,118.35,112.07Z"/><path class="cls-33" d="M259.47,371.67c-3.64,4.71-17.28,8.46-18.79,12.29-2.87,7.28,23.1,81.57,28.18,94.72-10.36,4.59.31,18.96-24.42,7.23-20.15-51.22-27.59-75.02-19.73-11.57-6.1-8.91-23.99-40.6-23.48-47.72.72-10.05,47-49.06,46.97-80.26,3.7-3.65,6.67,11.83,11.27,25.31Z"/><path class="cls-43" d="M909.48,341.3c-24.34-10.31-47.99,28.8-62.93-1.45-25.2,16.43-11.54,13.41-6.58,34.71-2.52,1.02-5.11,2.9-7.51,4.34-14.7-11.52-24.54,16.64-20.66,21.69,4.3,5.6,5.31.42,7.51,5.78-26.38,1.77-30.4-14.67-39.45-5.06,1.05,4.95,18.92,29.47,20.66,31.09-1.4,25.23,20.56,12.7-11.27,47.72-5.67,3.92-9.08,9.04-15.03,10.12-11.6-20.35-17.86-14.26-18.79-15.18-4.81-4.78-26.98-32.79-10.33-20.97q.47-1.81.94-3.62c-37.19-23.04-8.53,5.4,13.15,39.77-32.29,18.07-133.55,13.74-159.68-5.06-17.11-12.31-25.39-39.86-9.39-54.23,10.81-5.63,41.1-15.82,46.97-20.97,10.63-9.33,16.09-39.83,20.66-44.83,7.57-8.27,27.99-6.07,32.88-7.95,6.25-2.41,18.11-28.92,26.3-31.81,17.42-6.16,46.41,3.31,48.84,2.89,3.89-.67,25.42-27.47,36.63-30.37,30.54-7.89,125.95,3.96,107.08,43.38Z"/><path class="cls-55" d="M404.13,741.87c1.81,2.99,13.95,12.52,13.15,16.63-.2,1.04-19.37,13.4-20.66,13.74-.54.14-1.27-.11-1.88,0-43.89,7.57-53.27-47.8,9.39-30.37Z"/><path class="cls-28" d="M655.86,867.68c-.25,9.55,2.78,18.45-13.15,13.74l-1.88-51.34c16.33-30.3,15.31,26.89,15.03,37.6Z"/><path class="cls-42" d="M268.87,478.68c25.65,66.42,42.78,80.09,61.99,117.86,16.09,31.64,28.48,64.63,45.09,96.16-3.66,6.27,7.7,19.34-4.7,18.8-36.14-25.57-42.43-65.88-61.06-99.06-14.16-25.23-34.3-49.56-46.97-75.2-8.13-16.46-12.17-34.53-18.79-51.34,24.74,11.73,14.06-2.64,24.42-7.23Z"/><path class="cls-21" d="M597.63,915.4c-11.94-1.03-23.73-2-35.69-2.89-3.75-2.42-14.31-22.85-15.97-23.14-7.17-1.24-42.04,9.53-49.78,14.46-4.74-3.66-7.13-6.38-11.27-10.12-5.07-4.59-9.47-10.18-18.79-11.57.39-.07-2.6-.08,4.7-1.45,4.88-.91,11.5-5.72,12.21-5.78.3-.03,3.84,2.95,4.7,2.89,37.05-2.56,74.46,1.85,110.84-5.78,3.7.78-4.43,31.89-.94,43.38Z"/><path class="cls-13" d="M466.12,882.14c9.31,1.39,13.71,6.98,18.79,11.57-14.98,1.65-78.1,4.87-85.48,2.89-1.44-.39-.95-1.89-.94-2.89,3.05-.59,6.43-.89,9.39-1.45,19.31-3.62,38.88-6.48,58.24-10.12Z"/><path class="cls-12" d="M832.45,809.83c-2.17,5.61-5.1,6.13-5.64,7.23-1.69,3.49-2.15,14.57-8.45,14.46-56.8-44.64-.04,19.24,37.57,49.17,3.76-1.26-8.88-17.63-12.21-24.58,10.95-2.49,2.18-7.86,5.64-8.68,17.67,32.83,39.21,63.03,67.63,91.1-11.21.84-23,.68-33.82,1.45-16.61-13.53-22.28-30.31-46.97-33.26-1.23-.85-2.29-1.9-3.76-2.89-5.08-13.83,7.98-15.11,7.51-19.52-.42-3.99-45.81-44.82-54.48-67.97-4.28-11.42-7.15-41.25-7.51-54.23-.21-7.5-1.07-20.15,1.88-19.52,47.76,40.37,45.79,57.6,52.6,67.24Z"/><path class="cls-21" d="M952.69,935.64c-11.88.97-23.81,2-35.69,2.89-28.42-28.07-49.96-58.28-67.63-91.1-.28-3.75.71-3.45,3.76-.72,31.99,30.49,63.51,61.25,99.57,88.93Z"/><path class="cls-52" d="M832.45,903.83c1.47.99,2.52,2.05,3.76,2.89,10.15,6.97,32.55,25.67,41.33,34.71-5.55.39-11.35-.38-16.91,0-.31-2.23-3.6-2.73-3.76-2.89-13.87-13.9-65-62-24.42-34.71Z"/><path class="cls-21" d="M883.18,939.98c-1.35.1-1.59,1.16-5.64,1.45-8.78-9.03-31.18-27.73-41.33-34.71,24.69,2.95,30.35,19.73,46.97,33.26Z"/><path class="cls-16" d="M997.77,929.86c-1.85.15-3.79-.16-5.64,0-42.81-35.07-30.3-31.78,5.64,0Z"/><path class="cls-46" d="M1574.51,903.83c-1.83-12.26,6.87-19.14-3.76-28.2,33.76-12.76,26.39,4.52,37.57-15.18,10.48-18.46,3-8.99-20.66-31.81,7.22-6.52,17.22-11.19,26.3-15.91,1.68,8.13,12.49-1.57,14.09-1.45,1.43.11,10.04,11.93,24.42,0,9.98,23.45,2.77,15.22.94,18.08-2.84,4.43,3.75,5.46,3.76,5.78.38,21.02-8.64,57.17-3.76,86.77-3.02,7.35-30.99-3.31-32.88-3.62-10.71-1.71-28.35-.56-37.57-5.78-3.29-1.86-3.16-8.28-8.45-8.68Z"/><path class="cls-21" d="M1574.51,903.83c.66,4.42,4.57,7.99,7.51,11.57-1.85-.48-9.72-1.81-11.27-.72-11.43,27.08,6.3,19.26,31.94,28.2-36.03,2.59-33.4,2.07-67.63,0-.14-1.15.24-2.57,0-2.89,9.52-.89,12.64-4,18.79-8.68,15.51-11.8,8.75-8.01,11.27-13.01,2.55-5.06,5.35-8.81,5.64-14.46,1.24.04,2.52-.09,3.76,0Z"/><path class="cls-28" d="M1305.87,815.62c10.09,2.56,20.94,28.89,38.51,31.81,1.91-.82-20.1-39.7-.94-16.63,5.56,6.7,6.13,18.53,9.39,23.14,2.36,3.32,17.51,16.86,24.42,25.31,14.47,17.69,29.92,34.73,45.09,52.06-25.64-2.7-51.4-5.79-77.02-8.68-31.12-3.5-88.27-5.85-90.17-14.46.06-2.41-.09-4.82,0-7.23.07-1.88-.38-4.14,0-5.78,2.93-12.6,42.66-58.68,43.21-62.18,1.24-7.87-8.4-8.46-7.51-15.91,6.92-.85,8.93-2.99,15.03-1.45Z"/><path class="cls-12" d="M1565.12,918.29c-2.52,5.01,4.24,1.22-11.27,13.01-22.93-16.77-26.97-38.19-61.06-44.83,5.48,19.86,38.08,47.88,42.27,53.51.24.32-.14,1.74,0,2.89-10.7-.65-21.28-1.98-31.94-2.89q-27.24-22.41-54.48-44.83c-8.8-10.45-15.16-14.09-3.76-21.69,48.46,37.4,21.16,10.4,3.76-18.8,17.27-4.42,21.12,19.67,31,24.58,9.28,4.62,41.09-1.11,85.48,39.04Z"/><path class="cls-52" d="M1384.77,874.91c17.15,22.97,64.41,57.48,39.45,56.4-.61-.06-1.26.06-1.88,0-15.16-17.33-30.62-34.37-45.09-52.06,4.46-5.49,7.15-4.11,7.51-4.34Z"/><path class="cls-48" d="M1444.89,932.75c-6.8-.66-14-.75-20.66-1.45,24.95,1.08-22.3-33.42-39.45-56.4.69-.44-1.76-7.21,3.76-2.17l56.36,60.01Z"/><path class="cls-49" d="M1474.94,937.09c-.68-.06-1.9-.91-7.51-1.45-9.5-12.77-23.17-22.49-33.82-34.71,12.61,9.68,38.42,26.33,41.33,36.15Z"/><path class="cls-16" d="M1503.12,939.98c-1.3-.11-1.64-1.09-5.64-1.45-13.98-15.78-35.29-27.29-48.84-43.38q27.24,22.41,54.48,44.83Z"/><path class="cls-21" d="M826.82,817.06c6.64-.89,2.48,4.96,3.76,9.4,1.38,4.79,9.86,22.77,13.15,29.64,3.33,6.95,15.97,23.33,12.21,24.58-37.61-29.93-94.37-93.81-37.57-49.17,6.3.11,6.76-10.97,8.45-14.46Z"/><path class="cls-16" d="M1583.9,828.63c.99.21,2.55-.1,3.76,0,23.66,22.82,31.15,13.35,20.66,31.81-3.92,7.73-23.74-1.06-46.97,5.78-16.45-14.21,2.16-15.23,3.76-19.52,1.91-5.13-8.82-11.23-3.76-19.52,1.12-.1,21.45,1.22,22.54,1.45Z"/><path class="cls-21" d="M1412.95,857.55q11.27,13.38,22.54,26.75c-.22,5.27-10.28-3.69-18.79-7.95.31-8.01-9.94-14.7-3.76-18.8Z"/><path class="cls-1" d="M862.51,487.36c-1.19,3.7-15.75,13.4-18.79,18.08-3.71,5.73-5.06,18.3-9.39,23.86-4.32,5.54-37.34,19.02-60.12,62.18-5.88-.85-2.77-4.75-13.15-1.45,7.87-16.92,22.79-34.84,22.54-52.06-.21-14.8-12.2-29.73-20.66-43.38-.45-5.94,7.89-1.79,11.27-1.45,1.82.18,1.99,1.31,3.76,1.45q11.74,21.69,23.48,43.38c39.34-23.8,26.65-29.86,25.36-40.49,4.64.41,6.94.13,11.27-1.45,3.9-1.42,16.55-13.55,20.66-17.35-.15,3.08,4.87,5.19,3.76,8.68Z"/><path class="cls-21" d="M875.66,474.34c-3.86,4.17-9.85,7.63-11.27,13.01h-1.88c1.12-3.49-3.91-5.6-3.76-8.68,5.56-5.15,13.75-17.32,20.66-23.14,5.63-4.73,15.87-11.96,22.54-15.91,3.6,4.46-15.32,22.83-26.3,34.71Z"/><path class="cls-31" d="M1444.89,873.46c-.33-.26-.95-2.17-5.64-5.78,8.25.83,4.61-2.15,5.64-4.34,1.81-3.88-.03-7.71,3.76-8.68,17.4,29.2,44.7,56.2-3.76,18.8Z"/><path class="cls-49" d="M1433.61,900.94c-2.21-1.7-5.68-2.91-7.51-5.06,6.06-2.18,7.24,4.74,7.51,5.06Z"/><path class="cls-46" d="M1536.94,837.31c-2.26,4.76-12.33,19.77-11.27,23.14,2.73,8.71,47.21,1.25,45.09,43.38-.28,5.66-3.09,9.4-5.64,14.46-44.39-40.16-76.19-34.43-85.48-39.04-9.87-4.91-13.73-29.01-31-24.58-3.79.97-1.95,4.79-3.76,8.68-12.29-16.66,12.67-9.17,29.12-11.57,19.14-2.79,46.19-8.68,62.93-14.46Z"/><path class="cls-43" d="M1561.36,866.23c3.57,3.08,14.07,3.76,4.7,8.68-10.17-9.23-25.45-12.17-40.39-14.46-1.05-3.37,9.01-18.37,11.27-23.14,4.32-1.49,7.06-8.6,24.42-10.12-5.07,8.29,5.66,14.39,3.76,19.52-1.6,4.29-20.21,5.32-3.76,19.52Z"/><path class="cls-43" d="M841.85,435.3c-3.36-2.6-25.62,22.53-22.54,27.48-4.4-.54-3.56,1.38-3.76,1.45-8.65,2.73-18.12,10.26-26.3,15.91,31.83-35.02,9.87-22.49,11.27-47.72,15.57,14.48,20.56-21.7,18.79-26.03-2.2-5.36-3.22-.19-7.51-5.78,9.17-12.52,5.61-12.68,20.66-21.69,2.41-1.44,4.99-3.32,7.51-4.34,53.51-21.58-2.85,10.6-3.76,13.74-1.96,6.75,9.2,13.67,9.39,14.46.79,3.22-7.57,20.16-3.76,32.54Z"/><path class="cls-48" d="M841.85,435.3c7.17,23.29,36.34,10.51,37.57,20.25-6.91,5.82-15.1,17.99-20.66,23.14-4.12,3.81-16.76,15.93-20.66,17.35-1.28-30.11-15.98-28.75-18.79-33.26-3.07-4.94,19.18-30.07,22.54-27.48Z"/><path class="cls-12" d="M766.7,740.42c9.26,91.61-8.87,77.73-13.15-5.78,3.7-4.18-3.26-12.8,13.15,5.78Z"/><path class="cls-13" d="M774.22,490.25c.27.47-.14,1.84,0,2.89-3.38-.34-11.72-4.49-11.27,1.45-.15-.24-.78.38-3.76-4.34-21.68-34.37-50.34-62.81-13.15-39.77q-.47,1.81-.94,3.62c-16.65-11.82,5.52,16.19,10.33,20.97.93.92,7.19-5.16,18.79,15.18Z"/><path class="cls-55" d="M815.55,464.22c10.83,13.33,9.58,20.84,11.27,30.37-15.93-.89-33.06,1.19-48.84,0-1.77-.13-1.94-1.26-3.76-1.45-.14-1.06.27-2.43,0-2.89,5.95-1.08,9.36-6.21,15.03-10.12,8.18-5.65,17.65-13.17,26.3-15.91Z"/><path class="cls-16" d="M819.3,406.38c1.78,4.33-3.21,40.51-18.79,26.03-1.74-1.62-19.61-26.14-20.66-31.09,9.05-9.61,13.07,6.83,39.45,5.06Z"/><path class="cls-16" d="M769.52,404.93c24.42,15.47,25.39,37.05-4.7,5.06l4.7-5.06Z"/><path class="cls-49" d="M737.58,371.67q17.38,8.31,34.75,16.63c-1.25,1.98-47.22-8.86-34.75-16.63Z"/><path class="cls-16" d="M832.45,378.9c-15.05,9.01-11.5,9.17-20.66,21.69-3.88-5.05,5.97-33.22,20.66-21.69Z"/><path class="cls-28" d="M398.49,893.71c0,1-.5,2.51.94,2.89,7.37,1.98,70.49-1.24,85.48-2.89,4.14,3.75,6.53,6.47,11.27,10.12.2.15-.11,1.71,0,2.89-43.52-2.41-86.94-3.51-130.56-2.89-10.38-2.59,17.18-7.07,32.88-10.12Z"/><path class="cls-13" d="M561.93,912.5c-22.02-1.65-43.58-4.56-65.75-5.78-.11-1.18.2-2.74,0-2.89,7.75-4.93,42.62-15.71,49.78-14.46,1.66.29,12.22,20.72,15.97,23.14Z"/><path class="cls-29" d="M1561.36,866.23c23.22-6.84,43.05,1.95,46.97-5.78-11.18,19.7-3.81,2.43-37.57,15.18,10.62,9.05,1.92,15.94,3.76,28.2-1.23-.09-2.51.04-3.76,0,2.12-42.14-42.36-34.67-45.09-43.38,14.94,2.29,30.22,5.23,40.39,14.46,9.38-4.92-1.13-5.6-4.7-8.68Z"/><path class="cls-26" d="M1553.85,931.3c-6.15,4.68-9.27,7.78-18.79,8.68-4.19-5.62-36.79-33.64-42.27-53.51,34.09,6.64,38.13,28.06,61.06,44.83Z"/><path class="cls-13" d="M819.3,462.77c2.8,4.51,17.51,3.15,18.79,33.26-4.33,1.57-6.64,1.86-11.27,1.45-.11-.95.17-1.96,0-2.89-1.69-9.53-.44-17.03-11.27-30.37.19-.06-.64-1.98,3.76-1.45Z"/></g><path class="cls-25" d="M1627.11,759.22c-3.99,2.88-12.38,12.86-29.12,23.14-44.91,27.56-122.76,54.36-175.65,72.3-3.25,1.1-6.19.77-9.39,2.89-6.18,4.1,4.07,10.79,3.76,18.8-11.68-5.85-45.12-20.75-48.84-29.64-4.07-9.71,7.1-92.7,11.27-107.73,14.49,30.83,31.93,60.59,51.66,89.66,31.53-40.16,47.9-85.43,61.06-130.87,5.33-3.76,9.99,23.23,15.97,22.41q15.5-29.28,31-58.57h5.64c19.44,40.59,4.17,2.39,23.48-5.06,9.37,2.93,6.51,37.1,28.18-10.12,11.64,37.35,24.77,74.66,31,112.79Z"/><path class="cls-34" d="M1225.09,893.71v10.12c-16.21.76-31.26-1.58-46.97-1.45-12.29-19.94,30.74-9.03,46.97-8.68Z"/><path class="cls-48" d="M1255.14,895.15c-.38,1.65.07,3.91,0,5.78-9.14-1.12-17.61,2.11-26.3,2.89-4.68.42-3.57,0-3.76,0v-10.12c6.5.14,30.9-6.03,30.06,1.45Z"/><path class="cls-14" d="M1202.54,1068.68c5.57,2.01,19.34,5.45,24.42,5.78l3.76,2.89c-66.38.03-132.76-.02-199.13,0,.58-4.56-13.78-4.72-20.66-5.78,1.35-1.64,2.16-4.24,2.82-4.34,9.25-1.45,160.15,4.14,188.8,1.45Z"/><path class="cls-3" d="M1781.16,970.35c-5.55,8.06-10.02,16.35-15.03,24.58h-11.27q-61.99-3.62-123.99-7.23c.3-.16-1.69-2.26,4.7-4.34,14.09-4.59,119.26-13.15,145.59-13.01Z"/><path class="cls-17" d="M1061.65,903.83c13.15-.02,26.3.03,39.45,0,13.38,2.5,27.67,3.38,41.33,4.34,19.55,1.37,39.75,1.28,59.18,2.89,32.27,2.67,64.66,8.75,96.75,11.57q11.27,6.87,22.54,13.74c3.01,16.14-143.85,25.57-162.5,26.75-6.12,5.14,62.52,9.89,67.63,10.12,57.86,2.64,377.11-11.36,387.94-23.86v-6.51c-.11-1.04-1.18-1.64-1.88-2.89,24.38-5.89,69.21,2.56,91.11-1.45,1.4-.26.96-1.92.94-2.89,13.71,1.85,27.56,4.28,41.33,5.78,18.01,1.97,36.93,1.59,54.48,5.78-1.61,1.64-17.07,20.65-18.79,23.14-26.33-.13-131.5,8.42-145.59,13.01-6.39,2.08-4.39,4.18-4.7,4.34-10.57,5.45-30.38,27.27-32.88,27.48-9.03.73-75.77-61.03-143.71,36.15-6.39-3.08-19.31-3.41-26.3-4.34-48.67-6.48-85.04-6.4-110.84,30.37-1.25,0-2.5,0-3.76,0,.18-9.72-72.03-1.94-86.42-2.89-5.08-.34-18.85-3.77-24.42-5.78-8.21-2.97-20.89-12.6-29.12-15.91-51.51-20.73-180.01-26.43-242.34-30.37-37.21-2.35-111.66-.97-130.56-2.89-6.45-.66-17.54-5.7-25.36-7.23-6.47-1.27-24.5-1.09-30.06-2.89-17.48-5.66-1.74-26.58-121.17-14.46-11.99-1.61-34.63,2.57-38.51,1.45-2.96-.86-7.41-16.36-47.9-30.37,140.68-4.67,397.79,24.5,525.08,11.57,52.48-5.33-41.95-10.06-44.15-18.08-2.24-8.18,47.8-8.99,68.57-12.29,44.56-7.08,19.72-7.87-9.39-14.46-2.78-.63-5.18-5.69-5.64-5.78-2.96-.58-58.01-1.64-61.06-1.45-.95-6.39,1.32-16.76,0-21.69h50.72Z"/><path class="cls-20" d="M1313.38,1077.36c-27.55.01-55.11-.01-82.66,0l-3.76-2.89c14.39.96,86.6-6.83,86.42,2.89Z"/><path class="cls-10" d="M537.51,966.01c-4.37-1.51-8.61-3.12-13.15-4.34h-1.88c.19-.01-.62-2.79.94-2.89,40.58-2.63,96.81-1.96,140.9-4.34,65.42-3.54,130.97-8.55,196.32-13.01,5.56-.38,11.35.39,16.91,0,4.04-.28,4.28-1.35,5.64-1.45,10.82-.76,22.61-.61,33.82-1.45,11.89-.89,23.81-1.92,35.69-2.89,13.92-1.13,29.45-4.93,39.45-5.78,1.84-.16,3.79.15,5.64,0,13.28-1.1,12.44-4.29,13.15-4.34,3.04-.2,58.1.86,61.06,1.45.45.09,2.86,5.16,5.64,5.78,29.11,6.59,53.95,7.38,9.39,14.46-20.77,3.3-70.81,4.11-68.57,12.29,2.2,8.02,96.63,12.74,44.15,18.08-127.29,12.93-384.4-16.24-525.08-11.57Z"/><path class="cls-3" d="M1202.54,1068.68c-28.66,2.69-179.55-2.9-188.8-1.45-.65.1-1.47,2.7-2.82,4.34-32.4-4.99-65.35-6.01-97.69-11.57-14.89-2.56-23.43-4.8-37.57-8.68-26.97-7.4-53.79-16.76-75.14-31.81,18.91,1.92,93.36.54,130.56,2.89,62.33,3.94,190.83,9.64,242.34,30.37,8.23,3.31,20.91,12.94,29.12,15.91Z"/><path class="cls-10" d="M1345.32,922.63c25.62,2.89,51.39,5.97,77.02,8.68.61.06,1.26-.06,1.88,0,6.66.69,13.87.78,20.66,1.45,7.5.73,14.95,2.17,22.54,2.89,5.62.53,6.83,1.38,7.51,1.45,7.49.7,15.17.79,22.54,1.45,4,.36,4.34,1.33,5.64,1.45,10.66.92,21.23,2.24,31.94,2.89,34.23,2.07,31.6,2.59,67.63,0,3.7-.27,7.55.18,11.27,0v6.51c-10.83,12.5-330.08,26.5-387.94,23.86-5.11-.23-73.75-4.98-67.63-10.12,18.66-1.19,165.51-10.61,162.5-26.75q-11.27-6.87-22.54-13.74c14.64,1.29,32.2,1.64,46.97,0Z"/><path class="cls-19" d="M1225.09,903.83c.19,0-.93.42,3.76,0l26.3,4.34c1.9,8.61,59.05,10.96,90.17,14.46-14.76,1.64-32.33,1.29-46.97,0-32.08-2.82-64.48-8.9-96.75-11.57-19.42-1.61-39.63-1.52-59.18-2.89v-4.34c6.26-.03,12.52.04,18.79,0,14.45-.08,16.06-1.44,16.91-1.45,15.71-.13,30.76,2.21,46.97,1.45Z"/><path class="cls-10" d="M1704.14,935.64c.02.97.46,2.64-.94,2.89-21.9,4.01-66.73-4.45-91.11,1.45-.74-1.32-22.8-20.86-24.42-21.69,39.11,4.73,77.48,12.1,116.47,17.35Z"/><path class="cls-9" d="M1119.88,903.83c6.89,0,13.78.03,20.66,0,.63,0,1.25,0,1.88,0v4.34c-13.66-.96-27.95-1.84-41.33-4.34,6.26-.01,12.52,0,18.79,0Z"/><path class="cls-40" d="M407.89,892.26c-2.96.56-6.34.85-9.39,1.45-15.69,3.06-43.25,7.53-32.88,10.12,43.63-.62,87.04.48,130.56,2.89,22.17,1.23,43.73,4.14,65.75,5.78,11.96.9,23.75,1.86,35.69,2.89,34.08,2.95,68.38,5.14,102.38,8.68,51.89,5.39,104.18,18.9,156.87,14.46.16.16,3.45.66,3.76,2.89-65.34,4.47-130.89,9.48-196.32,13.01-44.09,2.38-100.32,1.71-140.9,4.34-1.56.1-.75,2.88-.94,2.89-1.85.12-13.08,3.48-36.63,4.34-30.14,1.1-59.9-5.14-90.17-1.45-29.98-16.04-71.52-18.48-92.05-28.92-17.85-9.08-35.42-32.99-57.3-40.49-1.78-5.31-5.04-.97-5.64-5.06,1.53-1.64,5.77-.14,7.51-.72,22.53,1.53,45.04,1.71,67.63,1.45,30.02-.35,83.25-5.5,87.36-4.34.42.12,2.17,3.43,4.7,5.78Z"/><path class="cls-57" d="M293.29,853.22c45.86-1.07,178.01,19.45,189.74,18.8v2.89c-.71.07-7.33,4.87-12.21,5.78-7.29,1.36-4.3,1.37-4.7,1.45-19.35,3.64-38.92,6.5-58.24,10.12-2.52-2.35-4.28-5.67-4.7-5.78-4.11-1.16-57.33,3.99-87.36,4.34-1.79-3.62-60.6-5.02-64.81-4.34-1.59.26-2.6,2.82-2.82,2.89-1.74.58-5.98-.91-7.51.72.59,4.09,3.85-.25,5.64,5.06-20.03-6.87-46.41-7.79-67.63-5.78.71-7.13,16.27,3.03,13.15-10.12,21.02.56,96.55-2.72,34.75-4.34-8.04-4.89,8.46-1.77,8.45-3.62-17.78-1.69-22.32,1.24-20.66-12.29,24.67,5.17,53.36-5.19,78.9-5.78Z"/><path class="cls-11" d="M188.09,877.8c-.14,1.89,1.65,1.39,3.76,1.45,3.12,13.16-12.44,2.99-13.15,10.12-10.97,1.04-23.23,4.63-33.82,7.23-2.91-1.84-6.4-3.96-9.39-5.78,4.77-7.68,39.09-8.36,52.6-13.01Z"/><path class="cls-44" d="M315.83,890.81c-22.59.26-45.1.08-67.63-1.45.22-.07,1.23-2.63,2.82-2.89,4.21-.69,63.03.72,64.81,4.34Z"/><path class="cls-20" d="M1255.14,900.94c-.09,2.41.06,4.82,0,7.23l-26.3-4.34c8.69-.78,17.16-4.01,26.3-2.89Z"/><path class="cls-1" d="M945.17,1.47c5.19,28.88.35,57.9,0,86.77-.26,21.15-.61,42.49,0,63.63-47.29,14.99-24.25,10.08-43.21,34.71-25.17,8.94-32.2-6.14-42.27-4.34-1.9.34-10.65,14.27-33.82,8.68-7.33-1.77-12.83-25.51-26.3-23.14-60.89,52.42-54.87,14.19-65.75,11.57-22-5.3-31.42,26.54-33.82,27.48-2.55.99-18.04-1-20.66,0-4.2,1.59.11,11.15-13.15,17.35-37.16,17.38-28.86-10.84-58.24,0-7.76,4.79.24,18.4-3.76,26.03-35.23-7.3-24.42,10.29-55.42-1.45,4.98-6.89,20.93-35.26,22.54-36.88,6.04-6.06,31.24-6.49,9.39-15.91,34-53.84,70.96-109.62,108.02-162.68,21.83-4.33,14.95,13.4,26.3,36.15,30.04-19.59,20.88-8.43,54.48,8.68q26.77-38.32,53.54-76.64c40.7-.01,81.41.01,122.11,0Z"/><path class="cls-45" d="M992.14,1.47c7.5,24.35,32.36,10.75,42.27,14.46,2.27.85,16.2,31.16,22.54,34.71,39.25-13.2,24.72-1.24,46.97,20.25,40.88-44.53,21.81-22.57,88.3,21.69,10.07-1.88,13.95-12.63,15.03-13.01,5.61-2.02,23.83,19.5,40.39-13.74l6.58-.72c25.7,33.12,51.47,66.83,72.33,101.95,8.15,13.72,27.46,46.25,24.42,54.23-24.66-9.52-147.58-47.72-191.62-62.18-71.46-23.47-143.57-45.84-214.16-70.86.35-28.86,5.19-57.89,0-86.77,15.66,0,31.31,0,46.97,0Z"/><path class="cls-28" d="M1027.83,250.2c91.28,24.28,323.94,89.21,403.9,115.69,5.22,1.73,10.01,3.77,15.03,5.78-3.88,3.03-10.7,4.81-15.03,7.23-3.36.07-7.95-4.27-8.45-4.34-13.43-1.89-48.79-2.68-78.9-8.68-40.25-8.01-127.29-47.16-135.26-26.03.94-18.36-64.43-21.95-90.17-28.92-1.01-.27-15.68-9.76-16.91-10.12-11.06-3.29-28.17-5.22-35.69-7.23-1.59-.42-.29-2.49-1.88-2.89-4.5-1.15,1.53,4.56-5.64,2.89-2.03-.47-4.51-9.12-35.69-10.12-8.17,10.81,17.65,2.59,10.33,13.01-38.24-.15-72.74,28.35-84.54,54.95-.44-.14-3.24.26-9.39-1.45q-.94-59.65-1.88-119.3,4.23-1.81,8.45-3.62c26.25,9.88,54.25,15.83,81.72,23.14Z"/><path class="cls-12" d="M1456.16,529.29c13.14,11.89,26.46,23.36,41.33,33.98q-12.21,6.87-24.42,13.74c-.52-.4-8.23.62-13.15-5.06-7.63-8.81,6.1-23.22-33.82-7.95-4.67-11.11-8.89-26.14-24.42-28.92-39.02-49.47-33.76-120.55,30.06-156.18,4.33-2.42,11.15-4.2,15.03-7.23,1.85.74,8.12-1.67,7.51,2.17-84.84,57.77-60.75,98.79,1.88,155.45Z"/><path class="cls-1" d="M866.27,247.31c11.14,5.53,33.63,2.17,15.03,7.95,16.61,6.55-67.78,31.33-77.96,38.32-1.67,1.15-.79,2.84-.94,4.34-11.21,2.9-32.74,29.7-36.63,30.37-2.43.42-31.42-9.05-48.84-2.89-8.19,2.89-20.05,29.4-26.3,31.81-4.89,1.88-25.31-.32-32.88,7.95-4.57,5-10.03,35.5-20.66,44.83-5.86,5.15-36.16,15.34-46.97,20.97-63.08,32.85-51.91,37.88-55.42,39.04-6.23,2.07-6.33-8.7-36.63,11.57,4-7.48.52-10.28-5.64-15.91,52.43-52.04,93.68-100.07-3.76-138.1q9.39-3.25,18.79-6.51,179.41-36.88,358.82-73.75Z"/><path class="cls-28" d="M901.96,186.57c4.5,6.15,16.39,45.98,15.03,48.44-2.19,3.96-43.68,8.22-50.72,12.29q-179.41,36.88-358.82,73.75c1.36-19.71,26.73-52.11,41.33-72.3,31,11.73,20.19-5.85,55.42,1.45,4-7.63-4-21.24,3.76-26.03,29.37-10.84,21.07,17.38,58.24,0,13.26-6.2,8.95-15.76,13.15-17.35,2.63-1,18.12.99,20.66,0,2.39-.93,11.81-32.78,33.82-27.48,10.88,2.62,4.87,40.86,65.75-11.57,13.47-2.37,18.97,21.37,26.3,23.14,23.16,5.59,31.91-8.34,33.82-8.68,10.07-1.8,17.1,13.28,42.27,4.34Z"/><path class="cls-2" d="M492.42,465.66c6.16,5.63,9.64,8.43,5.64,15.91-14.22,9.51-20.76,19.98-23.48,20.25-1.95.19-13.74-7.98-24.42-2.89-4.78,2.28-8.19,18.58-15.03,20.25-4.3,1.05-21.3-5.87-55.42,23.14-1.99-4.27-11.13-14.12-9.39-25.31.78-5.04,31.58-47.73,37.57-57.84,9.57-16.16,16.49-33.97,26.3-49.89,3.56-5.77,9.54-17.91,13.15-12.29,8.44,13.8,25.79,55.31,33.82,63.63,6.52,6.76,10.85,4.68,11.27,5.06Z"/><path class="cls-22" d="M655.86,867.68c.28-10.71,1.3-67.89-15.03-37.6-14.87,27.58-2.59,40.64-55.42,31.81-10.17-1.7-13.97-8.75-35.69-8.68-31.42.11-21.36,6.81-26.3,8.68-1.91.72-38.27,10.01-40.39,10.12-11.73.65-143.88-19.87-189.74-18.8-.96-18.63,48.75-40.6,69.51-44.83,19.34-3.94,32.26,11.92,31.94-36.15.61-.11,1.34.14,1.88,0,11.86,35.56,24.91,24.68,29.12-5.78,3.99,6.18,5.5,16.86,15.97,17.35,5.9.28,89.3-25.94,106.14-28.92,11.59,51.53-26.82,58.87,37.57,49.17,5.31-4.51-6.46-79.62-2.82-88.93.84-2.15,9.42-5.87,11.27-7.95,7.01-7.89,1-7.62,1.88-17.35,2.46-27.35,5.24-37.49,38.51-53.51,9.67-.6,31.99,35.93,31,55.67-.07,1.43-10.67,1.69-1.88,26.03,2.59,7.16,6.82,4.53,7.51,5.78,1.74,3.12,1.41,12.47,1.88,13.01,1.35,1.56,7.29-.55,9.39,2.89,2.32,3.8,4.57,79.72,3.76,83.87-.49,2.51-26.04,40.56-30.06,44.11Z"/><path class="cls-28" d="M1350.95,221.28c45.67,17.63,24.16,12.23,3.76,23.14-.4.21-1.18-.71-3.76,1.45-12.04,10.08-1.79,28.1-19.73,13.01-16.25,21.38-11.7,8.23-26.3,7.23-13.38-.91-13.36,8.2-34.75,1.45-18.56-5.86-5.17-8.5-9.39-15.18-1.63-2.58-15.3,4.81-26.3-31.81-22.05,2.84-13.98-1.23-16.91-5.06,2.91-18.18-18.29-3.86-27.24-5.78-2.56-.55-8.38-9.78-11.27-10.12-4.88-.58-9.82,12.71-36.63-10.85.73-4.35,21.39,5.91,22.54,4.34-13.51-14.66-1.97-19.53-1.88-21.69.17-4.09-8.09-5.72-3.76-12.29,44.04,14.47,166.96,52.66,191.62,62.18Z"/><path class="cls-28" d="M1159.33,159.09c-4.33,6.57,3.93,8.2,3.76,12.29-.09,2.16-11.63,7.03,1.88,21.69-1.15,1.58-21.81-8.69-22.54-4.34,26.81,23.55,31.76,10.26,36.63,10.85,2.89.35,8.71,9.57,11.27,10.12,8.95,1.92,30.15-12.4,27.24,5.78-11.12-14.58-16.34.08-27.24-1.45-2.99-.42-10.56-11.46-13.15-11.57-3.19-.13-9.96,17.57-46.97-23.14-5.57,20.13-29.08-2.7-46.97,14.46-3.86,3.7-.95,17.72-13.15,14.46-4.34-1.16-.94-6.3-5.64-8.68-12.81-6.48-42.12-1.1-29.12-26.75-21.72-10.27-28.44,7.54-32.88,7.95-2.94.28-10.6-5.76-11.27-5.78-.43-.02-5.55,4.07-6.58,4.34-4,1.06-11.03,4.05-11.27,3.62l1.88-20.97q-.47-2.17-.94-4.34c-40.76,13.53-28.81,4.85-29.12-5.78-.61-21.14-.26-42.48,0-63.63,70.59,25.02,142.7,47.39,214.16,70.86Z"/><path class="cls-13" d="M975.23,161.99c-46.87,3.13-20.52,21.02-30.06,61.46q41.33,13.38,82.66,26.75c-27.47-7.3-55.47-13.26-81.72-23.14q-4.23,1.81-8.45,3.62.94,59.65,1.88,119.3c-21.11-5.87-27.77-3.87-29.12-4.34-1.88-.65-.53-4.16-.94-4.34,18.87-39.43-76.54-51.27-107.08-43.38.15-1.5-.73-3.19.94-4.34,10.19-6.99,94.57-31.77,77.96-38.32,18.6-5.78-3.89-2.42-15.03-7.95,7.04-4.07,48.53-8.34,50.72-12.29,1.36-2.46-10.53-42.3-15.03-48.44,18.96-24.62-4.08-19.71,43.21-34.71.31,10.63-11.64,19.31,29.12,5.78q.47,2.17.94,4.34Z"/><path class="cls-28" d="M950.81,530.74q271.46,48.44,542.92,96.89c-4.87,4.06-5.4,2.71-5.64,2.89-10.27.03-19.07,4.4-28.18,7.23l2.82-4.34c-72.31-6.02-143.86-17.42-215.1-28.92-102.81-16.59-203.9-39.81-308.09-50.61-.42-5.65,1.46-5.83-4.7-10.12-40.36-12.55-54.87-22.19-100.51-14.46,4.33-5.56,5.68-18.14,9.39-23.86,3.03-4.67,17.6-14.37,18.79-18.08h1.88c10.96.02,20.09-4.81,30.06-7.23,5.95-1.45,44.51-10.65,46.97-7.95,2.7,22.96-7.43,61.18,9.39,58.57Z"/><path class="cls-12" d="M1488.09,630.52c-51.25,39.22-91.17,44.35-108.96,108.46-4.17,15.03-15.34,98.03-11.27,107.73,3.73,8.89,37.17,23.79,48.84,29.64,8.5,4.26,18.57,13.22,18.79,7.95q-11.27-13.38-22.54-26.75c3.2-2.12,6.14-1.79,9.39-2.89,4.26,5.35,11.32,8.71,16.91,13.01,4.68,3.61,5.3,5.53,5.64,5.78-11.4,7.6-5.05,11.24,3.76,21.69,13.56,16.09,34.87,27.6,48.84,43.38-7.38-.66-15.05-.75-22.54-1.45-2.91-9.83-28.72-26.47-41.33-36.15-.28-.32-1.46-7.24-7.51-5.06,1.83,2.15,5.3,3.36,7.51,5.06,10.65,12.22,24.31,21.93,33.82,34.71-7.6-.72-15.05-2.16-22.54-2.89l-56.36-60.01c-5.51-5.04-3.07,1.73-3.76,2.17-.36.23-3.06-1.16-7.51,4.34-6.91-8.45-22.07-21.98-24.42-25.31-3.27-4.61-3.83-16.44-9.39-23.14-19.16-23.07,2.84,15.81.94,16.63-17.57-2.93-28.42-29.25-38.51-31.81,69.6-69.06,27.28-138.43,154.05-177.87,9.11-2.83,17.91-7.2,28.18-7.23Z"/><path class="cls-47" d="M975.23,161.99l-1.88,20.97c.24.43,7.27-2.56,11.27-3.62,12.73-1.78,7.43,3.68,13.15,9.4,18.83,18.83,27.86,28.13,59.18,32.54,32.42,4.56,99.07-3.01,97.69,20.25,9.19-5.44,37.18,7.61,39.45,7.23,2.8-.47,2.25-6.73,9.39-5.78,3.85.51-.47,5.96,3.76,8.68,2.57,1.66,56.1,19.08,62.93,15.91,21.4,6.76,21.37-2.36,34.75-1.45,14.6,1,10.05,14.15,26.3-7.23,17.94,15.08,7.68-2.93,19.73-13.01q16.91,23.5,33.82,47c-30.1-6.94-48.65-18.23-60.12,8.68,32.44,18.43,74.37,26.04,98.63,52.78-.38-41.5-39.49-10.38-2.82-52.06,2.63,11.21-14.33,19.88-13.15,22.41,1.06,2.28,18.16-3.72,24.42,41.21-79.97-26.47-312.62-91.41-403.9-115.69q-41.33-13.38-82.66-26.75c9.54-40.44-16.81-58.32,30.06-61.46Z"/><path class="cls-47" d="M1354.71,244.41c5-1.59,31.31,13.78,31.94,15.18,1.06,2.37-6.88,20.07,33.82,37.6.25,1.64.92,3.7,0,5.06-30.94,45.54,21.48-3.52,11.27,63.63,3.34-21.96-134.89-29.06-116.76-74.26,10.89-27.15,39.7-5.71,69.8,1.23q-16.91-23.5-33.82-47c2.57-2.16,3.36-1.23,3.76-1.45Z"/><path class="cls-47" d="M1217.57,215.49c2.92,3.83-5.14,7.91,16.91,5.06,11,36.62,24.67,29.23,26.3,31.81,4.23,6.68,33.25,41.06,51.81,46.92-6.83,3.18-47.13,3.36-49.7,1.7-4.23-2.72-56.07-25.37-59.91-25.87-7.14-.94-16.61-2.51-19.4-2.04-2.27.38-10.89-9.52-20.09-4.09,1.38-23.25-90.48-35.61-122.89-40.17-31.31-4.4-23.99-21.25-42.82-40.08-5.72-5.72-34.66.87-29.69-10.98-1.9,4.54,22.69-2.77,23.12-2.76.68.03,8.33,6.06,11.27,5.78,4.44-.42,11.15-18.23,32.88-7.95-13.01,25.65,16.31,20.27,29.12,26.75,4.69,2.37,1.29,7.52,5.64,8.68,12.2,3.26,9.29-10.76,13.15-14.46,17.89-17.16,41.4,5.67,46.97-14.46,37.01,40.7,43.77,23,46.97,23.14,2.59.11,10.16,11.15,13.15,11.57,10.9,1.53,16.12-13.13,27.24,1.45Z"/><path class="cls-28" d="M1431.74,378.9c-63.82,35.62-69.08,106.71-30.06,156.18-4.62-.83-14.59.88-17.85,0-1.69-.46-20.67-19.73-24.42-20.25-7.2-.99-22.81,18.83-47.9-15.91,1.24.31,2.73.91,3.76,1.45,3.26,1.69,18.67,22.12,30.06,15.18-14.81-40.27-18.39-98.11-52.6-131.59-7.2-7.05-18.25-17.87-30.06-18.08-34.29-24.32-69.43,6.71-73.27,36.15-7.92-1.37.72,17.3-9.39,9.4-21.26-42.04-43.41-62.6-88.3-90.38-19.14-11.85-29.35-24.47-58.24-24.58,7.32-10.42-18.5-2.21-10.33-13.01,31.18,1.01,33.66,9.65,35.69,10.12,7.16,1.67,1.14-4.04,5.64-2.89,1.58.4.29,2.47,1.88,2.89,7.53,2.01,24.63,3.94,35.69,7.23,1.23.36,15.9,9.85,16.91,10.12,25.74,6.98,91.11,10.56,90.17,28.92,7.97-21.13,95.01,18.02,135.26,26.03,30.11,6,65.47,6.79,78.9,8.68.5.07,5.09,4.41,8.45,4.34Z"/><path class="cls-12" d="M1033.47,296.47c28.89.12,39.1,12.74,58.24,24.58-36.37-7.62-56.37-4.39-86.42,11.57-15.63,8.3-22.64,11.33-31.94,26.03-.64-.23-7.13.88-14.09-1.45-13.52-4.52-9.74-5.6-10.33-5.78,11.8-26.6,46.3-55.1,84.54-54.95Z"/><path class="cls-56" d="M783.61,537.97c.25,17.22-14.68,35.14-22.54,52.06-18.27,39.29-12.15,43.31-13.15,45.55-.63,1.41-9.16,3.94-11.27,7.23-25.41,39.69-4.57,51.2-7.51,73.75-1.15,8.82-8.23,13.52-9.39,18.8-3.02,13.63-3.2,35.11-11.27,44.83,8.05,10.86,27.88-26.1,45.09-45.55,4.28,83.51,22.41,97.39,13.15,5.78,14.41-5.25,4,7.76,11.27,21.69.37,12.97,3.24,42.81,7.51,54.23,8.67,23.14,54.06,63.97,54.48,67.97.46,4.42-12.59,5.69-7.51,19.52-40.58-27.3,10.55,20.81,24.42,34.71-52.69,4.44-104.98-9.07-156.87-14.46-34-3.53-68.3-5.73-102.38-8.68-3.49-11.49,4.64-42.6.94-43.38-36.38,7.63-73.79,3.22-110.84,5.78-.86.06-4.4-2.92-4.7-2.89v-2.89c2.12-.12,38.48-9.4,40.39-10.12,4.94-1.86-5.12-8.57,26.3-8.68,21.72-.08,25.53,6.98,35.69,8.68,52.83,8.82,40.55-4.23,55.42-31.81l1.88,51.34c15.93,4.71,12.9-4.19,13.15-13.74,4.02-3.55,29.57-41.59,30.06-44.11.81-4.15-1.44-80.08-3.76-83.87-2.1-3.44-8.04-1.33-9.39-2.89-.47-.54-.14-9.89-1.88-13.01-.7-1.25-4.93,1.37-7.51-5.78-8.79-24.34,1.81-24.6,1.88-26.03,1-19.74-21.33-56.27-31-55.67-33.27,16.02-36.05,26.15-38.51,53.51-5.89-1.16-4.82,13.64-1.88,17.35-1.85,2.08-10.43,5.8-11.27,7.95-3.64,9.32,8.12,84.43,2.82,88.93-64.39,9.7-25.98,2.37-37.57-49.17-16.84,2.98-100.24,29.2-106.14,28.92,21.21-15.84,49.19-27.01,63.87-47.72,15.28-21.55,8.14-35.77-3.76-58.57-24.4-46.77-70.57-67.99-90.17-87.49q185.98-26.03,371.97-52.06Z"/><path class="cls-28" d="M590.11,430.96c-16,14.37-7.72,41.92,9.39,54.23,26.13,18.8,127.39,23.14,159.68,5.06,2.98,4.72,3.61,4.1,3.76,4.34,8.47,13.65,20.45,28.58,20.66,43.38q-185.98,26.03-371.97,52.06c-13.71-13.63-24.37-31.55-31.94-47.72,34.12-29.01,51.12-22.09,55.42-23.14,6.84-1.66,10.25-17.97,15.03-20.25,10.68-5.09,22.48,3.08,24.42,2.89,2.73-.26,9.26-10.73,23.48-20.25,30.3-20.27,30.41-9.5,36.63-11.57,3.51-1.17-7.66-6.2,55.42-39.04Z"/><path class="cls-5" d="M595.75,689.81c-.87,9.74,5.13,9.46-1.88,17.35-2.94-3.71-4.01-18.51,1.88-17.35Z"/><path class="cls-22" d="M774.22,591.47c-1.72,3.26-4.35,6.92-5.64,10.12-15.3,38.13,4.79,65.9,8.45,63.63.55-28.1,12.25-50.33,34.75-72.3,25.81-.35,45.32,7.7,61.99,23.86,25.97,25.16,18.46,41.35,20.66,54.23,1.38,8.04,7.06,6.58,9.39,12.29,1.13,2.78-1.11,9.97,0,13.01.98,2.67,7.19,1.83,7.51,2.89,4.3,13.95-1.89,137.78-1.88,164.13-31.21-19.35-51.39-46.9-55.42-47.72-11.03-2.23-11.61,8.36-21.6-5.78-6.81-9.64-4.84-26.88-52.6-67.24-2.95-.63-2.09,12.02-1.88,19.52-7.27-13.94,3.14-26.94-11.27-21.69-16.41-18.58-9.45-9.96-13.15-5.78-17.21,19.45-37.03,56.41-45.09,45.55,8.07-9.72,8.25-31.19,11.27-44.83,1.17-5.27,8.24-9.98,9.39-18.8,2.95-22.55-17.89-34.06,7.51-73.75,2.11-3.29,10.64-5.82,11.27-7.23,1-2.24-5.12-6.26,13.15-45.55,10.38-3.3,7.27.59,13.15,1.45Z"/><path class="cls-54" d="M1010.92,613.17c-48.62,26.6-35.17,50.99-35.69,54.23-1,6.16-24.23,32.74-24.42,34.71-.05.48,3.79,2.4,3.76,2.89-2.62,42.35.39,85.59,1.88,127.98-2.75,11.31-1.86,21.92-1.88,33.26-5.27-1.77-9.44-14.16-16.91,0,2.8-30.53-4.59-152.04-1.88-159.79.4-1.15,18.5-16.55,18.79-18.8.06-.46-3.79-2.4-3.76-2.89,1.78-29.4-2.87-44.64,18.79-71.58,27.8-34.58,63.69-42.97,101.45-10.85-29.3-2.46-37.02-1.79-60.12,10.85Z"/><path class="cls-28" d="M969.59,613.17c-21.66,26.94-17.01,42.18-18.79,71.58-.03.49,3.82,2.43,3.76,2.89-.29,2.25-18.39,17.65-18.79,18.8-2.71,7.75,4.68,129.26,1.88,159.79-1.2,13.07,2.89,16.37-28.18-2.89,0-26.35,6.18-150.18,1.88-164.13-.33-1.07-6.54-.22-7.51-2.89-1.11-3.04,1.13-10.24,0-13.01-2.33-5.71-8.01-4.25-9.39-12.29,7.13,1.66,51.14-4.77,52.6-6.51.73-.87-.68-4.78,0-6.51,4.97-12.66,6.46-37.7,22.54-44.83Z"/><path class="cls-28" d="M1247.63,604.49c.2,6.62-24.66-.92-28.18,7.23-15.56,2.56-33.44,13.11-43.21,22.41-37.05,35.29-16.87,73.54-22.54,89.66-1.64,4.65-11.99,7.25-13.15,10.12-3.28,8.11,2.5,145.32,0,169.91-6.89.03-13.78,0-20.66,0-2.57-5.55-2.29-11.54-3.76-17.35-.71-45,7.06-143.98,0-180.04-.34-1.74-10.34,5.54-3.76-18.8-16.03.17-6.77-7.26-9.39-14.46-11.44-31.38-48-59.54-92.05-60.01,23.1-12.64,30.82-13.31,60.12-10.85-37.76-32.12-73.65-23.73-101.45,10.85-16.09,7.13-17.57,32.17-22.54,44.83-14.36-33.1-5-69.86-7.51-104.12,104.2,10.8,205.29,34.02,308.09,50.61Z"/><path class="cls-54" d="M1221.33,637.75c-15.27,4.06-26.86,10.44-35.69,20.97-21.15,25.22-9.14,39.15-9.39,41.94-.28,3.06-16.38,23.92-16.91,26.03-4.53,18.18,5.99,129.12,1.88,164.13v13.01c-6.26.04-12.52-.03-18.79,0-.63,0-1.25,0-1.88,0,2.5-24.59-3.28-161.8,0-169.91,1.16-2.87,11.51-5.48,13.15-10.12,5.68-16.11-14.5-54.37,22.54-89.66,9.77-9.31,27.65-19.85,43.21-22.41,59.15-9.73,76.64,32.9,72.33,34.71-21.71-15.98-44.35-15.62-70.45-8.68Z"/><path class="cls-2" d="M1315.26,500.37c-1.03-.53-2.52-1.14-3.76-1.45-9.83-2.45-16.77,3.47-23.48,2.89-4.09-.35-24.68-14.45-26.3-14.46-1.32,0-4.36,4.22-4.7,4.34-13.34,4.53-4.78-2.01-24.42,1.45-.64,3.69-27.55-12.45-28.18-13.74-1.45-2.99,1.34-17.38-3.76-28.2,15.73-14.83,6.5-27.12,7.51-31.81,2.57-11.87,9.28-26.46,18.79-36.15,44.37,20.75,83.29,76.88,88.3,117.13Z"/><path class="cls-28" d="M1091.7,321.06c44.88,27.79,67.03,48.34,88.3,90.38,10.11,7.9,1.47-10.77,9.39-9.4-.86,6.63-1.2,20.02,3.76,24.58-2.54,4.63-1.89,17.48,0,21.69-12.47-3.91-.85,42.51-7.51,60.74-5.19.42-8.58-4.52-13.15-4.34,2.13-8.56-10.02-41.87-9.39-44.11,1.18-4.21,7.61-4.79,7.51-7.23-.07-1.84-19.68-8.36-5.64-24.58-33.42-55.92-69.46-102.26-159.68-96.16,30.05-15.96,50.05-19.19,86.42-11.57Z"/><path class="cls-10" d="M1010.92,432.4c7.45-.53,15.29-.23,22.54,1.45,1.1,28.08,16.75-1.49,19.73,26.03,8.82-.18,12.75-5.42,14.09-5.78.51-.14,1.25.1,1.88,0,5.83-1.19,3.26,9.28,6.58,15.91,27.89-14.43,17.03,2.36,20.66,4.34,6.3,3.43,12.14-9.49,13.15,15.91,40.67-12.8,2.63,14.72,41.33,10.12,6.2,21.82,14.37,4.63,21.6,4.34,4.57-.19,7.96,4.75,13.15,4.34,20.98,9.17,43.66,17.67,62.93,28.92,45.64,26.64,54.63,38.06-9.39,20.25-31.24-8.69-74.02-35.75-107.08-23.14-2.35-30.86-53.63-9.06-86.42-23.14-1.69-.73-24.88-18.95-30.06-18.8-9.15.26-24.84,34.37-46.03,16.63,25.27-32.51-19.54-24.64-16.91-44.11,4.97,1.88,17.24,9.68,21.6,8.68,1.6-.37,21.39-18.25,21.6-19.52,1.12-6.8-27.38-19.39,15.03-22.41Z"/><path class="cls-47" d="M1193.15,448.31c1.81,4.04,7.37,2.59,7.51,2.89,5.1,10.82,2.31,25.21,3.76,28.2.62,1.29,27.54,17.43,28.18,13.74-.37.06,1.58,4.57-6.58,2.89-2.03-.42-13.3-10.77-18.79-13.01-16.57,25.97,26.46,18.85,60.12,39.04,4.13-1.08-2.94-25.43,11.27-15.91,13.52-1.27-14.71-15.74-21.6-14.46.34-.11,3.38-4.35,4.7-4.34,1.62,0,22.21,14.11,26.3,14.46,6.72.58,13.65-5.34,23.48-2.89,25.09,34.74,40.71,14.91,47.9,15.91,3.76.52,22.73,19.79,24.42,20.25,3.25.88,13.22-.83,17.85,0,15.53,2.79,19.75,17.82,24.42,28.92.47,1.11-12.16,1.33,13.15,12.29.66,2.82-65.9,2.27-70.45-7.95-11.83-1.06,18.38,21.98,18.79,36.15,67.15,8.03,143.84,42.69,109.9-15.91,24.98,19.7,6.59,30.42-3.76,39.04q-271.46-48.44-542.92-96.89c-11.8-7.5-2.74-45.5-5.64-66.52.33.15,2.34-.51,7.51,1.45-2.63,19.46,42.18,11.59,16.91,44.11,21.19,17.74,36.88-16.37,46.03-16.63,5.18-.15,28.37,18.07,30.06,18.8,32.78,14.07,84.06-7.73,86.42,23.14,33.06-12.61,75.84,14.44,107.08,23.14,64.02,17.81,55.04,6.4,9.39-20.25-19.28-11.25-41.95-19.75-62.93-28.92,6.67-18.22-4.96-64.65,7.51-60.74Z"/><path class="cls-10" d="M1473.06,577.01c7.56,5.92-2.2,14.38,24.42,11.57,33.94,58.59-42.75,23.94-109.9,15.91-.41-14.18-30.62-37.21-18.79-36.15,4.55,10.23,71.1,10.78,70.45,7.95-25.31-10.96-12.69-11.19-13.15-12.29,39.92-15.27,26.18-.86,33.82,7.95,4.92,5.68,12.63,4.66,13.15,5.06Z"/><path class="cls-10" d="M1232.6,493.14c19.64-3.46,11.08,3.08,24.42-1.45,6.89-1.28,35.12,13.19,21.6,14.46-14.21-9.52-7.14,14.83-11.27,15.91-33.66-20.19-76.68-13.08-60.12-39.04,5.48,2.25,16.76,12.6,18.79,13.01,8.15,1.68,6.21-2.83,6.58-2.89Z"/><path class="cls-31" d="M1459.91,637.75c-126.77,39.44-84.45,108.81-154.05,177.87-6.1-1.55-8.11.59-15.03,1.45-9.9,1.22-23.76,6.87-33.82,5.78,76.62-52.77,61.95-173.93-35.69-185.1,26.1-6.94,48.74-7.3,70.45,8.68,4.31-1.8-13.18-44.44-72.33-34.71,3.52-8.15,28.38-.61,28.18-7.23,71.24,11.5,142.79,22.9,215.1,28.92l-2.82,4.34Z"/><path class="cls-21" d="M939.54,553.88c2.52,34.26-6.84,71.02,7.51,104.12-.68,1.73.73,5.63,0,6.51-1.46,1.74-45.47,8.17-52.6,6.51-2.21-12.88,5.3-29.07-20.66-54.23-16.68-16.16-36.18-24.21-61.99-23.86-25.08.34-25.99,9-43.21,8.68,1.28-3.2,3.92-6.87,5.64-10.12,22.78-43.16,55.8-56.64,60.12-62.18,45.64-7.73,60.15,1.91,100.51,14.46,6.15,4.3,4.28,4.47,4.7,10.12Z"/><path class="cls-28" d="M1262.66,365.88c11.81.21,22.85,11.03,30.06,18.08,34.22,33.49,37.79,91.32,52.6,131.59-11.39,6.94-26.8-13.49-30.06-15.18-5.01-40.25-43.93-96.38-88.3-117.13,7.43-7.58,22.89-17.58,35.69-17.35Z"/><path class="cls-54" d="M1208.18,419.39c-1.02,4.69,8.21,16.98-7.51,31.81-.14-.3-5.7,1.15-7.51-2.89-1.89-4.21-2.54-17.06,0-21.69,2.36-4.29,9.13-8.34,15.03-7.23Z"/><path class="cls-12" d="M1262.66,365.88c-12.8-.23-28.26,9.78-35.69,17.35-9.51,9.69-16.22,24.29-18.79,36.15-5.9-1.11-12.67,2.94-15.03,7.23-4.95-4.56-4.62-17.96-3.76-24.58,3.83-29.44,38.98-60.47,73.27-36.15Z"/><path class="cls-21" d="M1298.35,832.97c-.55,3.5-40.28,49.58-43.21,62.18.84-7.48-23.56-1.3-30.06-1.45-16.23-.36-59.26-11.26-46.97,8.68-.85,0-2.46,1.36-16.91,1.45v-13.01c15.43,2.97,13.77-18.77,52.6-44.83q.47,1.45.94,2.89c27.21-6.8,54.9-15.08,83.6-15.91Z"/><path class="cls-28" d="M1290.84,817.06c-.89,7.45,8.75,8.04,7.51,15.91-28.7.83-56.39,9.11-83.6,15.91q-.47-1.45-.94-2.89c13.63-9.15,34.94-17.44,43.21-23.14,10.06,1.09,23.92-4.57,33.82-5.78Z"/><path class="cls-1" d="M811.79,592.92c-22.51,21.97-34.21,44.2-34.75,72.3-3.66,2.27-23.75-25.5-8.45-63.63,17.22.32,18.13-8.33,43.21-8.68Z"/><path class="cls-22" d="M1010.92,613.17c44.05.48,80.61,28.63,92.05,60.01,2.63,7.2-6.64,14.64,9.39,14.46-6.58,24.33,3.42,17.06,3.76,18.8,7.06,36.06-.71,135.04,0,180.04-1.34-5.32-3.28-10.79-5.64-15.91,3.67-17.68-8.89-34.34-13.15-51.34-5.26-5.69-7,4.72-13.15,13.74-5.2-7.81-8.98-27.7-9.39-36.15-.6-12.3,4.5-70.62,1.88-77.37-9.69-13.46-7.25,31.98-11.27,49.89-1.66,7.4-13.11,24.97-15.03,52.06-.42,5.95-.44,11.43,0,17.35-.28.14-2.08-.32-1.88,1.45-2.71.09-1.58-1.56-1.88-2.89-3.96-17.61-4.63-41.05-5.64-59.29-.32-5.77.5-75.19-6.58-75.2-7.78,0-6.67,65.46-6.58,70.86.37,21.13,5.18,42.48,0,63.63-.31-.25.31-1.16,0-1.45-13.93-12.9-11.72-24.46-13.15-27.48,6.6-33.88,7.88-69.23,1.88-103.4-13.53,20.15-20.34,42.17-24.42,64.35-5.11,27.78-4.01,21.92,0,52.06-1.91-3.24-13.92-23.08-15.97-23.14-4.19-.12-8.89,11.8-10.33,14.46-1.4,2.58-9.14,19.19-9.39,20.25-1.48-42.39-4.5-85.62-1.88-127.98.03-.5-3.81-2.41-3.76-2.89.2-1.97,23.42-28.55,24.42-34.71.53-3.24-12.93-27.63,35.69-54.23Z"/><path class="cls-15" d="M1110.49,870.57c2.35,5.12,4.29,10.59,5.64,15.91,1.47,5.81,1.18,11.8,3.76,17.35-6.26,0-12.52-.01-18.79,0-13.15.03-26.3-.02-39.45,0,1.03-2.34,1.23-4.93,1.88-7.23,4.41-15.56-5.98-25.25,20.66-20.25,2.04,2,4.08,4.08,6.58,5.78q8.92-7.23,17.85-14.46c.58,1.1,1.37,1.78,1.88,2.89Z"/><path class="cls-35" d="M1009.05,857.55c6.24,8.51,10.74,8.22,11.27,8.68.68.59,2.93,2.31,3.76,2.89-15.63,1.05,1.38,20.23,4.7,27.48,3.7-.03,5.43-17.46,6.58-20.25.83-2.03,1.25-6.39,3.76-7.23,5.68,9.19,12.88,26.19,24.42,27.48-.65,2.3-.85,4.89-1.88,7.23h-50.72c-1.29-4.79-15.49-17.85-20.66-21.69q3.76-.72,7.51-1.45c34.43,22.13-8.97-22.37,11.27-23.14Z"/><path class="cls-23" d="M969.59,838.75c-.35,3.31.37,9.42-3.76,10.12-10.09-9.55-7.01,11.43-9.39,17.35-.51-.18-1.35.18-1.88,0,.02-11.34-.88-21.95,1.88-33.26.26-1.06,7.99-17.66,9.39-20.25,9.68-.73,4.68,17.36,3.76,26.03Z"/><path class="cls-15" d="M965.84,848.88c1.67,1.58,9.35,17.3,31.94,31.81q-3.76.72-7.51,1.45c-12.98-9.63-20.18-11-33.82-15.91,2.39-5.92-.69-26.9,9.39-17.35Z"/><path class="cls-39" d="M1110.49,870.57c-.51-1.12-1.3-1.79-1.88-2.89-11.42-21.69.05-14.38-37.57-7.23-1.4-2.22-2.29-2.84-3.76-5.78,7.67-4.25,12.12-14.67,16.91-21.69,6.15-9.02,7.9-19.43,13.15-13.74,4.26,17,16.82,33.66,13.15,51.34Z"/><path class="cls-15" d="M1084.19,876.35c-26.65-5-16.25,4.69-20.66,20.25-11.54-1.29-18.74-18.29-24.42-27.48,9.16-3.05,27.42,7.25,26.3-5.78,2.46-.35,3.14-2.42,5.64-2.89.64,1.01,12.24,15.01,13.15,15.91Z"/><path class="cls-53" d="M1108.61,867.68q-8.92,7.23-17.85,14.46c-2.49-1.71-4.54-3.78-6.58-5.78-.91-.9-12.51-14.9-13.15-15.91,37.62-7.15,26.15-14.46,37.57,7.23Z"/><path class="cls-33" d="M1014.68,808.39c1.43,3.01-.78,14.57,13.15,27.48-19.49-8.3-12.62,23.04-7.51,30.37-.53-.46-5.03-.17-11.27-8.68-.58-.8.27-4.71-7.51-17.35-3.82-6.19-5.88-12.84-9.39-18.8-4.01-30.14-5.11-24.28,0-52.06,12.42,11.21,16.17,25.57,22.54,39.04Z"/><path class="cls-53" d="M1001.53,840.2c7.79,12.64,6.93,16.56,7.51,17.35-20.24.77,23.16,45.27-11.27,23.14-22.58-14.51-30.27-30.23-31.94-31.81,4.13-.7,3.41-6.82,3.76-10.12q15.97.72,31.94,1.45Z"/><path class="cls-53" d="M1027.83,835.86c.31.28-.31,1.19,0,1.45,6,4.8,4.13-1.17,18.79,0,.3,1.33-.83,2.98,1.88,2.89-2.91,15.46-8.03,26.64,16.91,23.14,1.11,13.04-17.14,2.73-26.3,5.78-2.51.84-2.92,5.2-3.76,7.23-9.27-1.73-7.63-4.66-11.27-7.23-.82-.58-3.08-2.3-3.76-2.89-5.1-7.32-11.97-38.66,7.51-30.37Z"/><path class="cls-50" d="M1024.07,869.12c3.65,2.57,2.01,5.5,11.27,7.23-1.14,2.78-2.87,20.22-6.58,20.25-3.32-7.25-20.33-26.42-4.7-27.48Z"/><path class="cls-23" d="M992.14,821.4c3.51,5.96,5.58,12.61,9.39,18.8q-15.97-.72-31.94-1.45c.92-8.67,5.92-26.76-3.76-26.03,1.44-2.66,6.14-14.58,10.33-14.46,2.05.06,14.05,19.89,15.97,23.14Z"/><path class="cls-2" d="M1014.68,808.39c-6.38-13.48-10.12-27.84-22.54-39.04,4.08-22.19,10.89-44.2,24.42-64.35,6,34.17,4.72,69.52-1.88,103.4Z"/><path class="cls-18" d="M1074.8,796.82c.41,8.45,4.2,28.35,9.39,36.15-4.79,7.03-9.24,17.44-16.91,21.69-3.4-6.84-3.98-10.48-5.64-17.35-1.98-8.25,6.08-17.73-11.27-15.91,1.92-27.09,13.37-44.66,15.03-52.06,6.75,8.81.43,26.09,9.39,27.48Z"/><path class="cls-23" d="M1040.98,778.02c1.01,18.24,1.67,41.68,5.64,59.29-14.65-1.17-12.79,4.8-18.79,0,5.18-21.14.37-42.5,0-63.63l13.15,4.34Z"/><path class="cls-2" d="M1040.98,778.02l-13.15-4.34c-.09-5.4-1.2-70.86,6.58-70.86,7.07,0,6.26,69.43,6.58,75.2Z"/><path class="cls-2" d="M1074.8,796.82c-8.96-1.39-2.64-18.67-9.39-27.48,4.02-17.91,1.58-63.35,11.27-49.89,2.62,6.75-2.48,65.06-1.88,77.37Z"/><path class="cls-53" d="M1061.65,837.31c1.65,6.87,2.23,10.52,5.64,17.35,1.47,2.94,2.36,3.57,3.76,5.78-2.49.47-3.17,2.55-5.64,2.89-24.94,3.51-19.81-7.67-16.91-23.14-.2-1.76,1.6-1.31,1.88-1.45.48-.24,8.73-.28,11.27-1.45Z"/><path class="cls-23" d="M1061.65,837.31c-2.54,1.17-10.79,1.21-11.27,1.45-.44-5.93-.42-11.41,0-17.35,17.36-1.82,9.29,7.66,11.27,15.91Z"/><path class="cls-22" d="M1221.33,637.75c97.64,11.16,112.32,132.33,35.69,185.1-8.27,5.69-29.58,13.99-43.21,23.14-38.83,26.05-37.17,47.8-52.6,44.83,4.11-35.01-6.4-145.95-1.88-164.13.53-2.11,16.62-22.97,16.91-26.03.26-2.78-11.76-16.72,9.39-41.94,8.83-10.53,20.43-16.91,35.69-20.97Z"/><path class="cls-43" d="M945.17,464.22c2.89,21.02-6.16,59.02,5.64,66.52-16.82,2.61-6.7-35.6-9.39-58.57-2.45-2.7-41.02,6.51-46.97,7.95l-18.79-5.78c10.98-11.88,29.9-30.25,26.3-34.71,27.67-16.35,31.36-16.32,5.64,3.62,46.05-11.7,13.27,4.48,15.03,10.12.31.99,19.37,9.4,22.54,10.85Z"/><path class="cls-28" d="M894.45,480.13c-9.97,2.42-19.1,7.25-30.06,7.23,1.42-5.38,7.41-8.84,11.27-13.01l18.79,5.78Z"/><path class="cls-28" d="M826.82,494.59c.17.93-.11,1.95,0,2.89,1.29,10.63,13.98,16.69-25.36,40.49q-11.74-21.69-23.48-43.38c15.78,1.19,32.92-.89,48.84,0Z"/><path class="cls-33" d="M1082.31,452.65c1.01,3.18,1.88,6.81,1.88,10.12-4.72.69-8.46,9.49-7.51-7.95l-7.51-.72c-.63.1-1.37-.14-1.88,0-1.53-9.55-34.7-42.83-33.82-20.25-7.25-1.68-15.09-1.98-22.54-1.45,30.67-14.7,13.59-18.62,20.66-41.94l17.85,21.69c5.65-.63-.47-65.08,32.88,40.49Z"/><path class="cls-39" d="M1067.28,454.1c-1.34.37-5.27,5.61-14.09,5.78-2.98-27.52-18.62,2.05-19.73-26.03-.89-22.58,32.28,10.7,33.82,20.25Z"/><path class="cls-2" d="M1172.49,504.71c-7.24.3-15.4,17.48-21.6-4.34-38.7,4.6-.66-22.92-41.33-10.12-1.01-25.4-6.85-12.48-13.15-15.91-3.64-1.98,7.23-18.77-20.66-4.34-3.31-6.63-.74-17.09-6.58-15.91l7.51.72c-.95,17.44,2.79,8.64,7.51,7.95,1.4-.2,6.66-2.8,10.33-1.45,2.71,1,5.34,17.04,8.45,2.17,2.04-9.73-5.03-78.6-13.15-82.43-20.33-9.59,7.84,70.61-7.51,71.58-33.35-105.57-27.23-41.12-32.88-40.49l-17.85-21.69c3.89-2.99,51.67,2.25,44.15-4.34-35.82-3.98-60.49-16.91-63.87-17.35-14.89-1.95-19.62,2.99-20.66,2.89-1.22-.11-15.91-12.32-17.85-13.01,9.29-14.69,16.3-17.73,31.94-26.03,90.23-6.1,126.26,40.25,159.68,96.16-14.04,16.22,5.56,22.74,5.64,24.58.09,2.44-6.33,3.02-7.51,7.23-.63,2.23,11.52,35.54,9.39,44.11Z"/><path class="cls-2" d="M1136.79,438.19c.33,15.05-4.4,31.41-3.76,46.27-20.45,4.55-12.73-58.06-13.15-80.26-.05-2.74-5.21-23.9-.94-23.86,16.34,21.32,12.76,53.81,14.09,57.12.51,1.26,3.72.58,3.76.72Z"/><path class="cls-2" d="M1084.19,462.77c0-3.31-.87-6.94-1.88-10.12,15.35-.97-12.82-81.17,7.51-71.58,8.12,3.83,15.19,72.7,13.15,82.43-3.12,14.87-5.74-1.17-8.45-2.17-3.67-1.35-8.93,1.24-10.33,1.45Z"/><path class="cls-2" d="M1133.03,484.46c-.64-14.87,4.09-31.23,3.76-46.27.19.66,5.57,5.62,7.51,12.29,4.39,15.05,4.9,31.17,9.39,46.27-21.87,2.48-20.2-1.43-20.66-12.29Z"/></g></svg>